%TF.GenerationSoftware,KiCad,Pcbnew,9.0.7*%
%TF.CreationDate,2026-03-26T17:44:28-05:00*%
%TF.ProjectId,Group66_ECE445_round4,47726f75-7036-4365-9f45-43453434355f,rev?*%
%TF.SameCoordinates,Original*%
%TF.FileFunction,Soldermask,Top*%
%TF.FilePolarity,Negative*%
%FSLAX46Y46*%
G04 Gerber Fmt 4.6, Leading zero omitted, Abs format (unit mm)*
G04 Created by KiCad (PCBNEW 9.0.7) date 2026-03-26 17:44:28*
%MOMM*%
%LPD*%
G01*
G04 APERTURE LIST*
G04 Aperture macros list*
%AMRoundRect*
0 Rectangle with rounded corners*
0 $1 Rounding radius*
0 $2 $3 $4 $5 $6 $7 $8 $9 X,Y pos of 4 corners*
0 Add a 4 corners polygon primitive as box body*
4,1,4,$2,$3,$4,$5,$6,$7,$8,$9,$2,$3,0*
0 Add four circle primitives for the rounded corners*
1,1,$1+$1,$2,$3*
1,1,$1+$1,$4,$5*
1,1,$1+$1,$6,$7*
1,1,$1+$1,$8,$9*
0 Add four rect primitives between the rounded corners*
20,1,$1+$1,$2,$3,$4,$5,0*
20,1,$1+$1,$4,$5,$6,$7,0*
20,1,$1+$1,$6,$7,$8,$9,0*
20,1,$1+$1,$8,$9,$2,$3,0*%
%AMFreePoly0*
4,1,6,1.000000,0.000000,0.500000,-0.750000,-0.500000,-0.750000,-0.500000,0.750000,0.500000,0.750000,1.000000,0.000000,1.000000,0.000000,$1*%
%AMFreePoly1*
4,1,6,0.500000,-0.750000,-0.650000,-0.750000,-0.150000,0.000000,-0.650000,0.750000,0.500000,0.750000,0.500000,-0.750000,0.500000,-0.750000,$1*%
G04 Aperture macros list end*
%ADD10C,0.000000*%
%ADD11RoundRect,0.250000X0.450000X-0.350000X0.450000X0.350000X-0.450000X0.350000X-0.450000X-0.350000X0*%
%ADD12RoundRect,0.250000X-0.450000X0.350000X-0.450000X-0.350000X0.450000X-0.350000X0.450000X0.350000X0*%
%ADD13R,1.550000X1.300000*%
%ADD14C,1.700000*%
%ADD15R,1.700000X1.700000*%
%ADD16C,1.600000*%
%ADD17RoundRect,0.250000X-0.550000X0.550000X-0.550000X-0.550000X0.550000X-0.550000X0.550000X0.550000X0*%
%ADD18R,1.219200X0.558800*%
%ADD19C,1.955800*%
%ADD20RoundRect,0.102000X-0.654000X-0.654000X0.654000X-0.654000X0.654000X0.654000X-0.654000X0.654000X0*%
%ADD21C,1.512000*%
%ADD22RoundRect,0.102000X0.654000X-0.654000X0.654000X0.654000X-0.654000X0.654000X-0.654000X-0.654000X0*%
%ADD23R,0.558800X1.219200*%
%ADD24R,1.600000X5.700000*%
%ADD25C,1.500000*%
%ADD26C,3.200000*%
%ADD27RoundRect,0.250000X0.475000X-0.337500X0.475000X0.337500X-0.475000X0.337500X-0.475000X-0.337500X0*%
%ADD28RoundRect,0.250000X-0.450000X0.325000X-0.450000X-0.325000X0.450000X-0.325000X0.450000X0.325000X0*%
%ADD29RoundRect,0.250000X0.350000X0.450000X-0.350000X0.450000X-0.350000X-0.450000X0.350000X-0.450000X0*%
%ADD30RoundRect,0.170500X0.556500X0.511500X-0.556500X0.511500X-0.556500X-0.511500X0.556500X-0.511500X0*%
%ADD31RoundRect,0.250000X-0.350000X-0.450000X0.350000X-0.450000X0.350000X0.450000X-0.350000X0.450000X0*%
%ADD32FreePoly0,0.000000*%
%ADD33FreePoly1,0.000000*%
%ADD34RoundRect,0.250000X-0.337500X-0.475000X0.337500X-0.475000X0.337500X0.475000X-0.337500X0.475000X0*%
%ADD35RoundRect,0.102000X-1.064000X1.064000X-1.064000X-1.064000X1.064000X-1.064000X1.064000X1.064000X0*%
%ADD36C,2.332000*%
%ADD37RoundRect,0.170500X-0.511500X0.556500X-0.511500X-0.556500X0.511500X-0.556500X0.511500X0.556500X0*%
%ADD38RoundRect,0.250000X-0.475000X0.337500X-0.475000X-0.337500X0.475000X-0.337500X0.475000X0.337500X0*%
%ADD39RoundRect,0.250000X0.325000X0.450000X-0.325000X0.450000X-0.325000X-0.450000X0.325000X-0.450000X0*%
%ADD40RoundRect,0.150000X-0.150000X0.587500X-0.150000X-0.587500X0.150000X-0.587500X0.150000X0.587500X0*%
%ADD41FreePoly0,180.000000*%
%ADD42RoundRect,0.150000X0.587500X0.150000X-0.587500X0.150000X-0.587500X-0.150000X0.587500X-0.150000X0*%
%ADD43R,0.711200X0.228600*%
%ADD44RoundRect,0.100000X-0.575000X0.100000X-0.575000X-0.100000X0.575000X-0.100000X0.575000X0.100000X0*%
%ADD45O,1.550000X0.890000*%
%ADD46RoundRect,0.250000X-0.525000X0.475000X-0.525000X-0.475000X0.525000X-0.475000X0.525000X0.475000X0*%
%ADD47O,0.950000X1.250000*%
%ADD48RoundRect,0.250000X-0.525000X0.500000X-0.525000X-0.500000X0.525000X-0.500000X0.525000X0.500000X0*%
%ADD49RoundRect,0.250000X0.600000X0.600000X-0.600000X0.600000X-0.600000X-0.600000X0.600000X-0.600000X0*%
%ADD50R,1.498600X0.889000*%
%ADD51R,0.889000X1.498600*%
%ADD52R,0.889000X0.889000*%
%ADD53RoundRect,0.175000X0.325000X-0.175000X0.325000X0.175000X-0.325000X0.175000X-0.325000X-0.175000X0*%
%ADD54RoundRect,0.150000X0.150000X-0.200000X0.150000X0.200000X-0.150000X0.200000X-0.150000X-0.200000X0*%
%ADD55RoundRect,0.102000X1.064000X-1.064000X1.064000X1.064000X-1.064000X1.064000X-1.064000X-1.064000X0*%
G04 APERTURE END LIST*
D10*
%TO.C,JP1*%
G36*
X101625000Y-57050000D02*
G01*
X99175000Y-57050000D01*
X99175000Y-55550000D01*
X101625000Y-55550000D01*
X101625000Y-57050000D01*
G37*
%TO.C,JP4*%
G36*
X55100000Y-83150000D02*
G01*
X57550000Y-83150000D01*
X57550000Y-84650000D01*
X55100000Y-84650000D01*
X55100000Y-83150000D01*
G37*
%TO.C,JP3*%
G36*
X59500001Y-64700000D02*
G01*
X57050001Y-64700000D01*
X57050001Y-63200000D01*
X59500001Y-63200000D01*
X59500001Y-64700000D01*
G37*
%TO.C,JP2*%
G36*
X60299999Y-49550000D02*
G01*
X55299999Y-49550000D01*
X55299999Y-48050000D01*
X60299999Y-48050000D01*
X60299999Y-49550000D01*
G37*
%TD*%
D11*
%TO.C,R60*%
X81450000Y-41100000D03*
X81450000Y-39100000D03*
%TD*%
%TO.C,R56*%
X68625000Y-48250000D03*
X68625000Y-46250000D03*
%TD*%
D12*
%TO.C,R48*%
X101975000Y-67125000D03*
X101975000Y-69125000D03*
%TD*%
%TO.C,R50*%
X92175000Y-88975000D03*
X92175000Y-86975000D03*
%TD*%
%TO.C,R49*%
X97625000Y-79075000D03*
X97625000Y-77075000D03*
%TD*%
D13*
%TO.C,SW3*%
X94325000Y-70375000D03*
X86375000Y-70375000D03*
X94325000Y-65875000D03*
X86375000Y-65875000D03*
%TD*%
D14*
%TO.C,J24*%
X98170000Y-69390000D03*
D15*
X98170000Y-66850000D03*
%TD*%
D13*
%TO.C,SW5*%
X76575000Y-85725000D03*
X84525000Y-85725000D03*
X76575000Y-90225000D03*
X84525000Y-90225000D03*
%TD*%
%TO.C,SW4*%
X82025000Y-75825000D03*
X89975000Y-75825000D03*
X82025000Y-80325000D03*
X89975000Y-80325000D03*
%TD*%
D15*
%TO.C,J27*%
X88370000Y-86700000D03*
D14*
X88370000Y-89240000D03*
%TD*%
D15*
%TO.C,J26*%
X93820000Y-76800000D03*
D14*
X93820000Y-79340000D03*
%TD*%
D16*
%TO.C,C7*%
X38275000Y-103947349D03*
D17*
X38275000Y-98947349D03*
%TD*%
%TO.C,C11*%
X38275000Y-112647349D03*
D16*
X38275000Y-117647349D03*
%TD*%
D17*
%TO.C,C10*%
X48175000Y-112647349D03*
D16*
X48175000Y-117647349D03*
%TD*%
D17*
%TO.C,C8*%
X48175000Y-98997349D03*
D16*
X48175000Y-103997349D03*
%TD*%
D18*
%TO.C,MOSFET13*%
X36811900Y-108275000D03*
X38903900Y-107324999D03*
X38903900Y-109225001D03*
%TD*%
%TO.C,MOSFET12*%
X36608000Y-92650001D03*
X38700000Y-91700000D03*
X38700000Y-93600002D03*
%TD*%
D19*
%TO.C,J1*%
X28770600Y-92806599D03*
X28770600Y-98306599D03*
%TD*%
%TO.C,J16*%
X29168101Y-108199099D03*
X29168101Y-113699099D03*
%TD*%
D20*
%TO.C,J6*%
X55900000Y-121299999D03*
D21*
X53900000Y-121299999D03*
%TD*%
D22*
%TO.C,J5*%
X120775002Y-65775001D03*
D21*
X120775002Y-67775001D03*
%TD*%
D22*
%TO.C,J4*%
X120775002Y-78207499D03*
D21*
X120775002Y-80207499D03*
%TD*%
D18*
%TO.C,MOSFET11*%
X108160200Y-87082499D03*
X108160200Y-88982501D03*
X110252200Y-88032500D03*
%TD*%
%TO.C,MOSFET10*%
X108154000Y-97082499D03*
X108154000Y-98982501D03*
X110246000Y-98032500D03*
%TD*%
D23*
%TO.C,MOSFET9*%
X112438500Y-108579001D03*
X110538498Y-108579001D03*
X111488499Y-110671001D03*
%TD*%
%TO.C,MOSFET8*%
X102371000Y-109579000D03*
X100470998Y-109579000D03*
X101420999Y-111671000D03*
%TD*%
%TO.C,MOSFET7*%
X92490000Y-108904002D03*
X90589998Y-108904002D03*
X91539999Y-110996002D03*
%TD*%
%TO.C,MOSFET6*%
X82890000Y-109921100D03*
X80989998Y-109921100D03*
X81939999Y-112013100D03*
%TD*%
%TO.C,MOSFET5*%
X73290000Y-108510202D03*
X71389998Y-108510202D03*
X72339999Y-110602202D03*
%TD*%
%TO.C,MOSFET4*%
X64271001Y-107979001D03*
X62370999Y-107979001D03*
X63321000Y-110071001D03*
%TD*%
%TO.C,MOSFET3*%
X56100000Y-109850000D03*
X54199998Y-109850000D03*
X55149999Y-111942000D03*
%TD*%
D18*
%TO.C,MOSFET2*%
X108704000Y-67324999D03*
X108704000Y-69225001D03*
X110796000Y-68275000D03*
%TD*%
%TO.C,MOSFET1*%
X109029000Y-80149999D03*
X109029000Y-82050001D03*
X111121000Y-81100000D03*
%TD*%
D22*
%TO.C,J15*%
X120874999Y-88500000D03*
D21*
X120874999Y-90500000D03*
%TD*%
D22*
%TO.C,J14*%
X120874999Y-98417500D03*
D21*
X120874999Y-100417500D03*
%TD*%
D20*
%TO.C,J13*%
X113942500Y-121275000D03*
D21*
X111942500Y-121275000D03*
%TD*%
D20*
%TO.C,J12*%
X104042499Y-121275000D03*
D21*
X102042499Y-121275000D03*
%TD*%
D20*
%TO.C,J11*%
X94642500Y-121275000D03*
D21*
X92642500Y-121275000D03*
%TD*%
D20*
%TO.C,J10*%
X84642500Y-121275000D03*
D21*
X82642500Y-121275000D03*
%TD*%
D20*
%TO.C,J9*%
X74559999Y-121275000D03*
D21*
X72559999Y-121275000D03*
%TD*%
D20*
%TO.C,J8*%
X64160000Y-121275000D03*
D21*
X62160000Y-121275000D03*
%TD*%
D24*
%TO.C,L2*%
X48350000Y-88350000D03*
X53050000Y-88350000D03*
%TD*%
D25*
%TO.C,TP19*%
X52625000Y-93750000D03*
%TD*%
D26*
%TO.C,H3*%
X121250000Y-121250000D03*
%TD*%
D25*
%TO.C,TP13*%
X68000000Y-79800000D03*
%TD*%
D12*
%TO.C,R23*%
X100259999Y-104025000D03*
X100259999Y-106025000D03*
%TD*%
D25*
%TO.C,TP7*%
X32650000Y-41925000D03*
%TD*%
D27*
%TO.C,C19*%
X84658221Y-40618262D03*
X84658221Y-38543262D03*
%TD*%
D28*
%TO.C,LED18*%
X61275000Y-71850001D03*
X61275000Y-73899999D03*
%TD*%
D29*
%TO.C,R17*%
X59799999Y-46400000D03*
X57799999Y-46400000D03*
%TD*%
D25*
%TO.C,TP15*%
X70775000Y-73890000D03*
%TD*%
D30*
%TO.C,D7*%
X81945001Y-115150000D03*
X85004999Y-115150000D03*
%TD*%
D24*
%TO.C,L1*%
X49150000Y-69950000D03*
X53850000Y-69950000D03*
%TD*%
D31*
%TO.C,R40*%
X81600000Y-27100000D03*
X83600000Y-27100000D03*
%TD*%
D12*
%TO.C,R16*%
X80374999Y-104800004D03*
X80374999Y-106800004D03*
%TD*%
D11*
%TO.C,R41*%
X42950000Y-79050000D03*
X42950000Y-77050000D03*
%TD*%
D32*
%TO.C,JP1*%
X99675001Y-56300000D03*
D33*
X101124999Y-56300000D03*
%TD*%
D25*
%TO.C,TP14*%
X70725000Y-66290000D03*
%TD*%
D30*
%TO.C,D8*%
X91280001Y-114225000D03*
X94339999Y-114225000D03*
%TD*%
D12*
%TO.C,R11*%
X70092500Y-103425001D03*
X70092500Y-105425001D03*
%TD*%
D32*
%TO.C,JP4*%
X55600000Y-83900000D03*
D33*
X57050000Y-83900000D03*
%TD*%
D25*
%TO.C,TP8*%
X60275000Y-55025000D03*
%TD*%
D12*
%TO.C,R7*%
X53800000Y-105400000D03*
X53800000Y-107400000D03*
%TD*%
D25*
%TO.C,TP20*%
X32950000Y-85300000D03*
%TD*%
D34*
%TO.C,C27*%
X56700000Y-70700001D03*
X58775000Y-70700001D03*
%TD*%
D25*
%TO.C,TP3*%
X116900000Y-44100000D03*
%TD*%
D11*
%TO.C,R25*%
X81264109Y-44964824D03*
X81264109Y-42964824D03*
%TD*%
D35*
%TO.C,J25*%
X63312000Y-83907500D03*
D36*
X63312000Y-87867500D03*
%TD*%
D29*
%TO.C,R36*%
X51300000Y-56250000D03*
X49300000Y-56250000D03*
%TD*%
D31*
%TO.C,R55*%
X52550000Y-79800000D03*
X54550000Y-79800000D03*
%TD*%
D37*
%TO.C,D12*%
X114050000Y-91029999D03*
X114050000Y-87970001D03*
%TD*%
D25*
%TO.C,TP9*%
X36600000Y-60250000D03*
%TD*%
D15*
%TO.C,J23*%
X78525000Y-68860000D03*
D14*
X78525000Y-71400000D03*
X78525000Y-73940000D03*
X78525000Y-76480000D03*
%TD*%
D12*
%TO.C,R54*%
X55475000Y-91875000D03*
X55475000Y-93875000D03*
%TD*%
D29*
%TO.C,R18*%
X93507107Y-54217872D03*
X91507107Y-54217872D03*
%TD*%
D12*
%TO.C,R20*%
X92924999Y-104400004D03*
X92924999Y-106400004D03*
%TD*%
D31*
%TO.C,R28*%
X102000000Y-96032500D03*
X104000000Y-96032500D03*
%TD*%
D25*
%TO.C,TP12*%
X56625000Y-76850000D03*
%TD*%
D15*
%TO.C,J18*%
X63245001Y-95875000D03*
D14*
X65785001Y-95875000D03*
X68325000Y-95875000D03*
%TD*%
D25*
%TO.C,TP1*%
X116600000Y-57200000D03*
%TD*%
D32*
%TO.C,JP3*%
X57550002Y-63950000D03*
D33*
X59000000Y-63950000D03*
%TD*%
D12*
%TO.C,R8*%
X65992500Y-103525001D03*
X65992500Y-105525001D03*
%TD*%
D30*
%TO.C,D5*%
X61875001Y-114225000D03*
X64934999Y-114225000D03*
%TD*%
D26*
%TO.C,H1*%
X28750000Y-28750000D03*
%TD*%
D12*
%TO.C,R39*%
X49500000Y-75850000D03*
X49500000Y-77850000D03*
%TD*%
D13*
%TO.C,SW2*%
X87425000Y-38250000D03*
X95375000Y-38250000D03*
X87425000Y-42750000D03*
X95375000Y-42750000D03*
%TD*%
D31*
%TO.C,R31*%
X102400000Y-89632500D03*
X104400000Y-89632500D03*
%TD*%
D30*
%TO.C,D9*%
X101530001Y-114225000D03*
X104589999Y-114225000D03*
%TD*%
D13*
%TO.C,SW1*%
X44775000Y-36650000D03*
X36825000Y-36650000D03*
X44775000Y-32150000D03*
X36825000Y-32150000D03*
%TD*%
D38*
%TO.C,C4*%
X35900000Y-82237500D03*
X35900000Y-84312500D03*
%TD*%
D15*
%TO.C,J3*%
X110720000Y-31000000D03*
D14*
X108180000Y-31000000D03*
X105640001Y-31000000D03*
X103100000Y-31000000D03*
X100560000Y-31000000D03*
%TD*%
D15*
%TO.C,J19*%
X120200000Y-36719999D03*
D14*
X120200000Y-39259999D03*
X120200000Y-41799998D03*
X120200000Y-44339999D03*
X120200000Y-46879999D03*
X120200000Y-49419999D03*
X120200000Y-51959999D03*
X120200000Y-54500000D03*
X120200000Y-57039999D03*
%TD*%
D34*
%TO.C,C3*%
X55512500Y-87150000D03*
X57587500Y-87150000D03*
%TD*%
D11*
%TO.C,R44*%
X53900000Y-65550000D03*
X53900000Y-63550000D03*
%TD*%
D31*
%TO.C,R46*%
X56675000Y-74025000D03*
X58675000Y-74025000D03*
%TD*%
D39*
%TO.C,D16*%
X87724999Y-27100000D03*
X85675001Y-27100000D03*
%TD*%
D25*
%TO.C,TP18*%
X61600000Y-79925000D03*
%TD*%
D35*
%TO.C,J20*%
X65662000Y-63857500D03*
D36*
X65662000Y-67817500D03*
%TD*%
D34*
%TO.C,C2*%
X55512500Y-89550000D03*
X57587500Y-89550000D03*
%TD*%
D25*
%TO.C,TP5*%
X116800000Y-49400000D03*
%TD*%
D15*
%TO.C,J21*%
X73875000Y-62565000D03*
D14*
X73875000Y-60025000D03*
%TD*%
D40*
%TO.C,Q2*%
X94659188Y-50230548D03*
X92759188Y-50230548D03*
X93709188Y-52105549D03*
%TD*%
D32*
%TO.C,JP2*%
X55799998Y-48800000D03*
D41*
X59800000Y-48800000D03*
%TD*%
D31*
%TO.C,R38*%
X38950000Y-79100000D03*
X40950000Y-79100000D03*
%TD*%
D12*
%TO.C,R47*%
X123400000Y-52400000D03*
X123400000Y-54400000D03*
%TD*%
D25*
%TO.C,TP4*%
X116800000Y-46700000D03*
%TD*%
D12*
%TO.C,R22*%
X102860000Y-104025000D03*
X102860000Y-106025000D03*
%TD*%
D29*
%TO.C,R14*%
X90325126Y-50187363D03*
X88325126Y-50187363D03*
%TD*%
D38*
%TO.C,C1*%
X49850000Y-81912500D03*
X49850000Y-83987500D03*
%TD*%
D25*
%TO.C,TP16*%
X78575000Y-65640000D03*
%TD*%
D15*
%TO.C,J22*%
X73885000Y-66310000D03*
D14*
X73885000Y-68850000D03*
X73885000Y-71390000D03*
X73885000Y-73930000D03*
X73885000Y-76470000D03*
%TD*%
D12*
%TO.C,R21*%
X89974999Y-104400004D03*
X89974999Y-106400004D03*
%TD*%
D38*
%TO.C,C18*%
X34200000Y-33362500D03*
X34200000Y-35437500D03*
%TD*%
D31*
%TO.C,R1*%
X38700000Y-60700000D03*
X40700000Y-60700000D03*
%TD*%
D38*
%TO.C,C21*%
X43700000Y-63312500D03*
X43700000Y-65387500D03*
%TD*%
D37*
%TO.C,D13*%
X113850000Y-101029999D03*
X113850000Y-97970001D03*
%TD*%
%TO.C,D3*%
X114525000Y-68229999D03*
X114525000Y-65170001D03*
%TD*%
%TO.C,D2*%
X114575000Y-80954999D03*
X114575000Y-77895001D03*
%TD*%
D30*
%TO.C,D14*%
X111462501Y-114225000D03*
X114522499Y-114225000D03*
%TD*%
D31*
%TO.C,R29*%
X102000000Y-98982500D03*
X104000000Y-98982500D03*
%TD*%
D42*
%TO.C,Q3*%
X88212017Y-47955383D03*
X88212017Y-46055383D03*
X86337016Y-47005383D03*
%TD*%
D12*
%TO.C,R43*%
X45162000Y-57117500D03*
X45162000Y-59117500D03*
%TD*%
D25*
%TO.C,TP2*%
X116900000Y-41500000D03*
%TD*%
D12*
%TO.C,R24*%
X44800000Y-27700000D03*
X44800000Y-29700000D03*
%TD*%
%TO.C,R12*%
X63000000Y-47000000D03*
X63000000Y-49000000D03*
%TD*%
D26*
%TO.C,H4*%
X28750000Y-121250000D03*
%TD*%
D12*
%TO.C,R26*%
X112859999Y-103425002D03*
X112859999Y-105425002D03*
%TD*%
%TO.C,R10*%
X73374999Y-103400004D03*
X73374999Y-105400004D03*
%TD*%
D30*
%TO.C,D6*%
X72210000Y-114225000D03*
X75269998Y-114225000D03*
%TD*%
D31*
%TO.C,R2*%
X108725000Y-77275000D03*
X110725000Y-77275000D03*
%TD*%
D11*
%TO.C,R53*%
X52550000Y-83900000D03*
X52550000Y-81900000D03*
%TD*%
D43*
%TO.C,U6*%
X45799900Y-62299811D03*
X45799900Y-62799937D03*
X45799900Y-63300063D03*
X45799900Y-63800189D03*
X47400100Y-63800189D03*
X47400100Y-63300063D03*
X47400100Y-62799937D03*
X47400100Y-62299811D03*
%TD*%
D11*
%TO.C,R42*%
X42750000Y-60800000D03*
X42750000Y-58800000D03*
%TD*%
D43*
%TO.C,U1*%
X45510926Y-80910100D03*
X45510926Y-81410226D03*
X45510926Y-81910352D03*
X45510926Y-82410478D03*
X47111126Y-82410478D03*
X47111126Y-81910352D03*
X47111126Y-81410226D03*
X47111126Y-80910100D03*
%TD*%
D12*
%TO.C,R13*%
X90674515Y-46005383D03*
X90674515Y-48005383D03*
%TD*%
D38*
%TO.C,C20*%
X39600000Y-63812500D03*
X39600000Y-65887500D03*
%TD*%
D31*
%TO.C,R30*%
X102400000Y-86682500D03*
X104400000Y-86682500D03*
%TD*%
D12*
%TO.C,R27*%
X109909999Y-103425002D03*
X109909999Y-105425002D03*
%TD*%
D27*
%TO.C,C24*%
X54800000Y-28337500D03*
X54800000Y-26262500D03*
%TD*%
D12*
%TO.C,R52*%
X45350000Y-75650000D03*
X45350000Y-77650000D03*
%TD*%
D38*
%TO.C,C6*%
X42950000Y-82362500D03*
X42950000Y-84437500D03*
%TD*%
D39*
%TO.C,LED1*%
X59924999Y-93875000D03*
X57875001Y-93875000D03*
%TD*%
D12*
%TO.C,R37*%
X71850000Y-87300000D03*
X71850000Y-89300000D03*
%TD*%
%TO.C,R4*%
X106743800Y-65275002D03*
X106743800Y-67275002D03*
%TD*%
D44*
%TO.C,J2*%
X29200000Y-44425000D03*
X29200000Y-45075000D03*
X29199999Y-45725000D03*
X29200000Y-46375000D03*
X29200000Y-47025000D03*
D45*
X26500000Y-42225000D03*
D46*
X26500000Y-42700000D03*
D47*
X29200000Y-43225001D03*
D48*
X26500000Y-44725000D03*
X26500000Y-46725000D03*
D47*
X29200000Y-48224999D03*
D46*
X26500000Y-48750000D03*
D45*
X26500000Y-49225000D03*
%TD*%
D38*
%TO.C,C5*%
X39350000Y-82262500D03*
X39350000Y-84337500D03*
%TD*%
D12*
%TO.C,R9*%
X62292500Y-103525001D03*
X62292500Y-105525001D03*
%TD*%
D49*
%TO.C,J7*%
X108600000Y-52279999D03*
D14*
X106060000Y-52279999D03*
X108600000Y-49739999D03*
X106060000Y-49739999D03*
X108600000Y-47200000D03*
X106060000Y-47199999D03*
X108600000Y-44659999D03*
X106060000Y-44659999D03*
X108600000Y-42119999D03*
X106060000Y-42119999D03*
%TD*%
D11*
%TO.C,R19*%
X84658221Y-44833453D03*
X84658221Y-42833453D03*
%TD*%
D50*
%TO.C,U7*%
X60500000Y-26400000D03*
X60500000Y-27670000D03*
X60500000Y-28940000D03*
X60500000Y-30210000D03*
X60500000Y-31480000D03*
X60500000Y-32750000D03*
X60500000Y-34020000D03*
X60500000Y-35290000D03*
X60500000Y-36560000D03*
X60500000Y-37830000D03*
X60500000Y-39100000D03*
X60500000Y-40370000D03*
X60500000Y-41640000D03*
X60500000Y-42910000D03*
D51*
X62265000Y-44160000D03*
X63535000Y-44160000D03*
X64805000Y-44160000D03*
X66075000Y-44160000D03*
X67345000Y-44160000D03*
X68615000Y-44160000D03*
X69885000Y-44160000D03*
X71155000Y-44160000D03*
X72425000Y-44160000D03*
X73695000Y-44160000D03*
X74965000Y-44160000D03*
X76235000Y-44160000D03*
D50*
X78000000Y-42910000D03*
X78000000Y-41640000D03*
X78000000Y-40370000D03*
X78000000Y-39100000D03*
X78000000Y-37830000D03*
X78000000Y-36560000D03*
X78000000Y-35290000D03*
X78000000Y-34020000D03*
X78000000Y-32750000D03*
X78000000Y-31480000D03*
X78000000Y-30210000D03*
X78000000Y-28940000D03*
X78000000Y-27670000D03*
X78000000Y-26400000D03*
D52*
X68000000Y-34120000D03*
X68000000Y-32720000D03*
X66600000Y-32720000D03*
X66600000Y-34120000D03*
X66600000Y-35520000D03*
X68000000Y-35520000D03*
X69400000Y-35520000D03*
X69400000Y-34120000D03*
X69400000Y-32720000D03*
%TD*%
D25*
%TO.C,TP6*%
X116800000Y-52000000D03*
%TD*%
D12*
%TO.C,R3*%
X106300000Y-78150000D03*
X106300000Y-80150000D03*
%TD*%
D25*
%TO.C,TP10*%
X46350000Y-73125000D03*
%TD*%
D26*
%TO.C,H2*%
X121250000Y-28750000D03*
%TD*%
D25*
%TO.C,TP11*%
X49400000Y-60050000D03*
%TD*%
D12*
%TO.C,R6*%
X56100000Y-105375000D03*
X56100000Y-107375000D03*
%TD*%
D38*
%TO.C,C25*%
X50400000Y-63575000D03*
X50400000Y-65650000D03*
%TD*%
D53*
%TO.C,D1*%
X32900000Y-46300000D03*
D54*
X34600000Y-46300000D03*
X34600000Y-44300000D03*
X32700000Y-44300000D03*
%TD*%
D27*
%TO.C,C23*%
X52700000Y-28337500D03*
X52700000Y-26262500D03*
%TD*%
D34*
%TO.C,C26*%
X56700000Y-67690002D03*
X58775000Y-67690002D03*
%TD*%
D12*
%TO.C,R15*%
X82774999Y-104800004D03*
X82774999Y-106800004D03*
%TD*%
D38*
%TO.C,C16*%
X36600000Y-63812500D03*
X36600000Y-65887500D03*
%TD*%
D55*
%TO.C,J17*%
X29338000Y-72242500D03*
D36*
X29338000Y-68282500D03*
%TD*%
D29*
%TO.C,R45*%
X53900000Y-60050000D03*
X51900000Y-60050000D03*
%TD*%
D31*
%TO.C,R5*%
X108743800Y-65275003D03*
X110743800Y-65275003D03*
%TD*%
M02*
