M48
; DRILL file {KiCad 9.0.7} date 2026-03-26T17:44:32-0500
; FORMAT={-:-/ absolute / metric / decimal}
; #@! TF.CreationDate,2026-03-26T17:44:32-05:00
; #@! TF.GenerationSoftware,Kicad,Pcbnew,9.0.7
; #@! TF.FileFunction,Plated,1,2,PTH
FMAT,2
METRIC
; #@! TA.AperFunction,Plated,PTH,ViaDrill
T1C0.300
; #@! TA.AperFunction,Plated,PTH,ViaDrill
T2C0.400
; #@! TA.AperFunction,Plated,PTH,ComponentDrill
T3C0.500
; #@! TA.AperFunction,Plated,PTH,ComponentDrill
T4C0.550
; #@! TA.AperFunction,Plated,PTH,ComponentDrill
T5C0.800
; #@! TA.AperFunction,Plated,PTH,ComponentDrill
T6C1.000
; #@! TA.AperFunction,Plated,PTH,ComponentDrill
T7C1.448
; #@! TA.AperFunction,Plated,PTH,ComponentDrill
T8C1.778
%
G90
G05
T1
X26.15Y-80.8
X33.1Y-68.75
X38.625Y-88.75
X39.125Y-72.525
X43.95Y-87.875
X47.85Y-79.8
X50.45Y-79.8
X52.05Y-36.125
X54.674Y-37.155
X54.7Y-101.625
X55.29Y-37.665
X55.901Y-38.181
X56.526Y-38.68
X56.9Y-104.025
X57.077Y-39.26
X57.619Y-39.849
X58.05Y-40.523
X65.55Y-34.8
X65.55Y-36.35
X65.6Y-33.4
X65.7Y-31.75
X67.3Y-31.7
X67.3Y-36.45
X67.775Y-39.8
X68.075Y-111.4
X68.7Y-36.45
X68.75Y-31.7
X70.25Y-36.4
X70.35Y-31.85
X70.4Y-33.4
X70.4Y-34.8
X75.75Y-34.1
X77.05Y-101.975
X78.175Y-50.95
X84.95Y-101.825
X94.8Y-101.475
X99.274Y-62.451
X99.9Y-62.95
X100.561Y-63.4
X101.45Y-51.05
X101.775Y-64.15
X102.675Y-76.55
X106.575Y-92.7
X106.875Y-73.55
X111.4Y-48.2
X112.725Y-54.025
X113.65Y-58.45
X118.85Y-108.775
X121.9Y-48.2
X122.0Y-43.075
T2
X28.725Y-82.275
X29.2Y-59.6
X29.6Y-36.0
X29.975Y-77.95
X31.15Y-43.35
X31.2Y-46.8
X32.3Y-72.45
X32.525Y-81.6
X33.225Y-104.3
X33.35Y-64.45
X33.775Y-78.025
X34.546Y-92.65
X34.65Y-53.775
X34.8Y-28.6
X34.85Y-108.275
X35.025Y-42.875
X35.275Y-80.225
X35.525Y-47.725
X36.7Y-43.975
X36.85Y-46.525
X38.6Y-43.975
X38.975Y-46.575
X40.525Y-109.225
X40.65Y-43.975
X40.671Y-93.625
X40.925Y-46.575
X41.0Y-81.55
X41.55Y-63.55
X42.1Y-67.65
X42.4Y-52.1
X42.75Y-43.975
X42.925Y-46.575
X42.925Y-120.925
X43.0Y-68.75
X43.9Y-67.55
X44.675Y-106.0
X44.7Y-68.75
X44.75Y-43.975
X45.025Y-46.575
X45.025Y-85.325
X45.15Y-83.8
X45.4Y-67.55
X45.975Y-84.375
X46.0Y-68.75
X46.25Y-83.3
X46.375Y-79.925
X46.375Y-85.475
X46.5Y-66.175
X46.6Y-60.85
X46.7Y-43.975
X46.7Y-67.65
X46.775Y-46.575
X47.0Y-56.25
X47.0Y-57.95
X47.0Y-59.45
X47.05Y-77.25
X47.075Y-78.95
X47.2Y-30.6
X47.8Y-61.35
X47.85Y-37.5
X48.025Y-78.15
X48.55Y-43.975
X48.775Y-46.575
X49.0Y-31.8
X49.2Y-26.4
X49.65Y-94.425
X49.65Y-109.35
X49.9Y-61.95
X50.2Y-41.1
X50.2Y-48.05
X51.975Y-43.4
X52.15Y-46.65
X52.9Y-31.8
X54.175Y-114.525
X57.297Y-31.322
X57.841Y-114.416
X58.15Y-32.0
X61.2Y-101.975
X62.025Y-76.425
X63.05Y-58.825
X64.805Y-45.95
X66.2Y-54.0
X66.849Y-89.3
X67.25Y-46.15
X68.05Y-54.6
X68.293Y-120.125
X68.4Y-26.4
X68.625Y-51.4
X69.975Y-46.075
X70.093Y-101.225
X70.7Y-58.7
X70.85Y-70.825
X73.3Y-54.75
X73.6Y-40.37
X75.45Y-81.625
X75.625Y-29.025
X75.69Y-46.5
X75.999Y-55.201
X76.2Y-97.0
X76.35Y-39.1
X76.475Y-42.175
X77.6Y-60.0
X77.604Y-55.394
X78.292Y-114.225
X78.692Y-120.225
X80.137Y-46.863
X80.492Y-102.425
X81.6Y-36.5
X82.425Y-37.6
X83.1Y-33.4
X84.0Y-47.4
X84.1Y-54.1
X85.1Y-32.825
X86.1Y-31.7
X87.725Y-78.5
X88.093Y-112.825
X88.742Y-120.275
X89.2Y-54.0
X89.4Y-52.2
X89.892Y-102.225
X90.4Y-96.8
X91.2Y-39.4
X91.6Y-68.1
X92.3Y-26.9
X92.675Y-92.225
X92.8Y-31.3
X93.575Y-59.15
X93.6Y-45.0
X97.692Y-112.225
X98.4Y-52.4
X98.492Y-120.275
X99.4Y-48.4
X99.6Y-85.6
X99.6Y-95.4
X100.2Y-26.8
X100.292Y-102.225
X100.6Y-35.0
X100.6Y-38.8
X101.2Y-81.55
X103.6Y-43.3
X103.9Y-58.45
X107.093Y-111.425
X108.492Y-101.825
X108.8Y-58.4
X109.6Y-109.4
X111.3Y-44.4
X112.2Y-91.8
X112.8Y-27.0
X113.8Y-35.8
X114.2Y-103.8
X117.25Y-54.95
X118.025Y-72.758
X120.3Y-60.2
X122.625Y-116.575
X123.4Y-49.6
X123.65Y-60.7
T5
X38.275Y-98.947
X38.275Y-103.947
X38.275Y-112.647
X38.275Y-117.647
X48.175Y-98.997
X48.175Y-103.997
X48.175Y-112.647
X48.175Y-117.647
X53.9Y-121.3
X55.9Y-121.3
X62.16Y-121.275
X64.16Y-121.275
X72.56Y-121.275
X74.56Y-121.275
X82.642Y-121.275
X84.642Y-121.275
X92.642Y-121.275
X94.642Y-121.275
X102.042Y-121.275
X104.042Y-121.275
X111.942Y-121.275
X113.942Y-121.275
X120.775Y-65.775
X120.775Y-67.775
X120.775Y-78.207
X120.775Y-80.207
X120.875Y-88.5
X120.875Y-90.5
X120.875Y-98.417
X120.875Y-100.417
T6
X63.245Y-95.875
X65.785Y-95.875
X68.325Y-95.875
X73.875Y-60.025
X73.875Y-62.565
X73.885Y-66.31
X73.885Y-68.85
X73.885Y-71.39
X73.885Y-73.93
X73.885Y-76.47
X78.525Y-68.86
X78.525Y-71.4
X78.525Y-73.94
X78.525Y-76.48
X88.37Y-86.7
X88.37Y-89.24
X93.82Y-76.8
X93.82Y-79.34
X98.17Y-66.85
X98.17Y-69.39
X100.56Y-31.0
X103.1Y-31.0
X105.64Y-31.0
X106.06Y-42.12
X106.06Y-44.66
X106.06Y-47.2
X106.06Y-49.74
X106.06Y-52.28
X108.18Y-31.0
X108.6Y-42.12
X108.6Y-44.66
X108.6Y-47.2
X108.6Y-49.74
X108.6Y-52.28
X110.72Y-31.0
X120.2Y-36.72
X120.2Y-39.26
X120.2Y-41.8
X120.2Y-44.34
X120.2Y-46.88
X120.2Y-49.42
X120.2Y-51.96
X120.2Y-54.5
X120.2Y-57.04
T7
X28.771Y-92.807
X28.771Y-98.307
X29.168Y-108.199
X29.168Y-113.699
T8
X29.338Y-68.282
X29.338Y-72.242
X63.312Y-83.907
X63.312Y-87.867
X65.662Y-63.857
X65.662Y-67.817
T3
X26.825Y-42.225G85X26.175Y-42.225
G05
X26.825Y-49.225G85X26.175Y-49.225
G05
T4
X29.2Y-43.075G85X29.2Y-43.375
G05
X29.2Y-48.075G85X29.2Y-48.375
G05
M30
