%TF.GenerationSoftware,KiCad,Pcbnew,9.0.7*%
%TF.CreationDate,2026-03-26T17:44:28-05:00*%
%TF.ProjectId,Group66_ECE445_round4,47726f75-7036-4365-9f45-43453434355f,rev?*%
%TF.SameCoordinates,Original*%
%TF.FileFunction,Soldermask,Bot*%
%TF.FilePolarity,Negative*%
%FSLAX46Y46*%
G04 Gerber Fmt 4.6, Leading zero omitted, Abs format (unit mm)*
G04 Created by KiCad (PCBNEW 9.0.7) date 2026-03-26 17:44:28*
%MOMM*%
%LPD*%
G01*
G04 APERTURE LIST*
G04 Aperture macros list*
%AMRoundRect*
0 Rectangle with rounded corners*
0 $1 Rounding radius*
0 $2 $3 $4 $5 $6 $7 $8 $9 X,Y pos of 4 corners*
0 Add a 4 corners polygon primitive as box body*
4,1,4,$2,$3,$4,$5,$6,$7,$8,$9,$2,$3,0*
0 Add four circle primitives for the rounded corners*
1,1,$1+$1,$2,$3*
1,1,$1+$1,$4,$5*
1,1,$1+$1,$6,$7*
1,1,$1+$1,$8,$9*
0 Add four rect primitives between the rounded corners*
20,1,$1+$1,$2,$3,$4,$5,0*
20,1,$1+$1,$4,$5,$6,$7,0*
20,1,$1+$1,$6,$7,$8,$9,0*
20,1,$1+$1,$8,$9,$2,$3,0*%
G04 Aperture macros list end*
%ADD10RoundRect,0.250000X-0.450000X0.350000X-0.450000X-0.350000X0.450000X-0.350000X0.450000X0.350000X0*%
%ADD11RoundRect,0.250000X-0.070711X0.565685X-0.565685X0.070711X0.070711X-0.565685X0.565685X-0.070711X0*%
%ADD12RoundRect,0.250000X0.450000X-0.350000X0.450000X0.350000X-0.450000X0.350000X-0.450000X-0.350000X0*%
%ADD13C,1.700000*%
%ADD14R,1.700000X1.700000*%
%ADD15RoundRect,0.250000X-0.574524X-0.097227X-0.097227X-0.574524X0.574524X0.097227X0.097227X0.574524X0*%
%ADD16RoundRect,0.170500X0.556500X0.511500X-0.556500X0.511500X-0.556500X-0.511500X0.556500X-0.511500X0*%
%ADD17C,1.600000*%
%ADD18RoundRect,0.250000X-0.550000X0.550000X-0.550000X-0.550000X0.550000X-0.550000X0.550000X0.550000X0*%
%ADD19RoundRect,0.250000X-0.475000X0.337500X-0.475000X-0.337500X0.475000X-0.337500X0.475000X0.337500X0*%
%ADD20RoundRect,0.170500X0.511500X-0.556500X0.511500X0.556500X-0.511500X0.556500X-0.511500X-0.556500X0*%
%ADD21RoundRect,0.250000X0.350000X0.450000X-0.350000X0.450000X-0.350000X-0.450000X0.350000X-0.450000X0*%
%ADD22C,1.955800*%
%ADD23RoundRect,0.102000X-0.654000X-0.654000X0.654000X-0.654000X0.654000X0.654000X-0.654000X0.654000X0*%
%ADD24C,1.512000*%
%ADD25RoundRect,0.102000X0.654000X-0.654000X0.654000X0.654000X-0.654000X0.654000X-0.654000X-0.654000X0*%
%ADD26C,3.200000*%
%ADD27RoundRect,0.102000X-1.064000X1.064000X-1.064000X-1.064000X1.064000X-1.064000X1.064000X1.064000X0*%
%ADD28C,2.332000*%
%ADD29O,1.550000X0.890000*%
%ADD30O,0.950000X1.250000*%
%ADD31RoundRect,0.250000X0.600000X0.600000X-0.600000X0.600000X-0.600000X-0.600000X0.600000X-0.600000X0*%
%ADD32RoundRect,0.102000X1.064000X-1.064000X1.064000X1.064000X-1.064000X1.064000X-1.064000X-1.064000X0*%
G04 APERTURE END LIST*
D10*
%TO.C,R59*%
X75100000Y-39100000D03*
X75100000Y-41100000D03*
%TD*%
D11*
%TO.C,R58*%
X72182107Y-40267893D03*
X70767893Y-41682107D03*
%TD*%
D12*
%TO.C,R57*%
X69825000Y-49525000D03*
X69825000Y-47525000D03*
%TD*%
%TO.C,R51*%
X67350000Y-49525000D03*
X67350000Y-47525000D03*
%TD*%
D13*
%TO.C,J24*%
X98170000Y-69390000D03*
D14*
X98170000Y-66850000D03*
%TD*%
%TO.C,J27*%
X88370000Y-86700000D03*
D13*
X88370000Y-89240000D03*
%TD*%
D14*
%TO.C,J26*%
X93820000Y-76800000D03*
D13*
X93820000Y-79340000D03*
%TD*%
D15*
%TO.C,C12*%
X32842246Y-114617246D03*
X31375000Y-113150000D03*
%TD*%
D16*
%TO.C,D4*%
X57204999Y-116800000D03*
X54145001Y-116800000D03*
%TD*%
D17*
%TO.C,C7*%
X38275000Y-103947349D03*
D18*
X38275000Y-98947349D03*
%TD*%
%TO.C,C11*%
X38275000Y-112647349D03*
D17*
X38275000Y-117647349D03*
%TD*%
D18*
%TO.C,C10*%
X48175000Y-112647349D03*
D17*
X48175000Y-117647349D03*
%TD*%
D19*
%TO.C,C9*%
X30925000Y-99937500D03*
X30925000Y-102012500D03*
%TD*%
D18*
%TO.C,C8*%
X48175000Y-98997349D03*
D17*
X48175000Y-103997349D03*
%TD*%
D20*
%TO.C,D11*%
X32650000Y-92695001D03*
X32650000Y-95754999D03*
%TD*%
D21*
%TO.C,R32*%
X44271100Y-93525001D03*
X42271100Y-93525001D03*
%TD*%
%TO.C,R33*%
X44271100Y-95900001D03*
X42271100Y-95900001D03*
%TD*%
D20*
%TO.C,D10*%
X33150000Y-108270001D03*
X33150000Y-111329999D03*
%TD*%
D22*
%TO.C,J1*%
X28770600Y-92806599D03*
X28770600Y-98306599D03*
%TD*%
D21*
%TO.C,R34*%
X42001142Y-109226142D03*
X44001142Y-109226142D03*
%TD*%
%TO.C,R35*%
X42001142Y-112176142D03*
X44001142Y-112176142D03*
%TD*%
D22*
%TO.C,J16*%
X29168101Y-108199099D03*
X29168101Y-113699099D03*
%TD*%
D23*
%TO.C,J6*%
X55900000Y-121299999D03*
D24*
X53900000Y-121299999D03*
%TD*%
D25*
%TO.C,J5*%
X120775002Y-65775001D03*
D24*
X120775002Y-67775001D03*
%TD*%
D25*
%TO.C,J4*%
X120775002Y-78207499D03*
D24*
X120775002Y-80207499D03*
%TD*%
D25*
%TO.C,J15*%
X120874999Y-88500000D03*
D24*
X120874999Y-90500000D03*
%TD*%
D25*
%TO.C,J14*%
X120874999Y-98417500D03*
D24*
X120874999Y-100417500D03*
%TD*%
D23*
%TO.C,J13*%
X113942500Y-121275000D03*
D24*
X111942500Y-121275000D03*
%TD*%
D23*
%TO.C,J12*%
X104042499Y-121275000D03*
D24*
X102042499Y-121275000D03*
%TD*%
D23*
%TO.C,J11*%
X94642500Y-121275000D03*
D24*
X92642500Y-121275000D03*
%TD*%
D23*
%TO.C,J10*%
X84642500Y-121275000D03*
D24*
X82642500Y-121275000D03*
%TD*%
D23*
%TO.C,J9*%
X74559999Y-121275000D03*
D24*
X72559999Y-121275000D03*
%TD*%
D23*
%TO.C,J8*%
X64160000Y-121275000D03*
D24*
X62160000Y-121275000D03*
%TD*%
D26*
%TO.C,H3*%
X121250000Y-121250000D03*
%TD*%
D27*
%TO.C,J25*%
X63312000Y-83907500D03*
D28*
X63312000Y-87867500D03*
%TD*%
D14*
%TO.C,J23*%
X78525000Y-68860000D03*
D13*
X78525000Y-71400000D03*
X78525000Y-73940000D03*
X78525000Y-76480000D03*
%TD*%
D14*
%TO.C,J18*%
X63245001Y-95875000D03*
D13*
X65785001Y-95875000D03*
X68325000Y-95875000D03*
%TD*%
D26*
%TO.C,H1*%
X28750000Y-28750000D03*
%TD*%
D14*
%TO.C,J3*%
X110720000Y-31000000D03*
D13*
X108180000Y-31000000D03*
X105640001Y-31000000D03*
X103100000Y-31000000D03*
X100560000Y-31000000D03*
%TD*%
D14*
%TO.C,J19*%
X120200000Y-36719999D03*
D13*
X120200000Y-39259999D03*
X120200000Y-41799998D03*
X120200000Y-44339999D03*
X120200000Y-46879999D03*
X120200000Y-49419999D03*
X120200000Y-51959999D03*
X120200000Y-54500000D03*
X120200000Y-57039999D03*
%TD*%
D27*
%TO.C,J20*%
X65662000Y-63857500D03*
D28*
X65662000Y-67817500D03*
%TD*%
D14*
%TO.C,J21*%
X73875000Y-62565000D03*
D13*
X73875000Y-60025000D03*
%TD*%
D14*
%TO.C,J22*%
X73885000Y-66310000D03*
D13*
X73885000Y-68850000D03*
X73885000Y-71390000D03*
X73885000Y-73930000D03*
X73885000Y-76470000D03*
%TD*%
D26*
%TO.C,H4*%
X28750000Y-121250000D03*
%TD*%
D29*
%TO.C,J2*%
X26500000Y-42225000D03*
D30*
X29200000Y-43225001D03*
X29200000Y-48224999D03*
D29*
X26500000Y-49225000D03*
%TD*%
D31*
%TO.C,J7*%
X108600000Y-52279999D03*
D13*
X106060000Y-52279999D03*
X108600000Y-49739999D03*
X106060000Y-49739999D03*
X108600000Y-47200000D03*
X106060000Y-47199999D03*
X108600000Y-44659999D03*
X106060000Y-44659999D03*
X108600000Y-42119999D03*
X106060000Y-42119999D03*
%TD*%
D26*
%TO.C,H2*%
X121250000Y-28750000D03*
%TD*%
D32*
%TO.C,J17*%
X29338000Y-72242500D03*
D28*
X29338000Y-68282500D03*
%TD*%
M02*
