M48
; DRILL file {KiCad 9.0.7} date 2026-02-26T00:22:06-0600
; FORMAT={-:-/ absolute / metric / decimal}
; #@! TF.CreationDate,2026-02-26T00:22:06-06:00
; #@! TF.GenerationSoftware,Kicad,Pcbnew,9.0.7
; #@! TF.FileFunction,Plated,1,2,PTH
FMAT,2
METRIC
; #@! TA.AperFunction,Plated,PTH,ViaDrill
T1C0.400
; #@! TA.AperFunction,Plated,PTH,ComponentDrill
T2C0.500
; #@! TA.AperFunction,Plated,PTH,ComponentDrill
T3C0.550
; #@! TA.AperFunction,Plated,PTH,ComponentDrill
T4C1.000
; #@! TA.AperFunction,Plated,PTH,ComponentDrill
T5C1.050
; #@! TA.AperFunction,Plated,PTH,ComponentDrill
T6C1.778
%
G90
G05
T1
X34.5Y-112.5
X35.0Y-86.5
X35.0Y-99.5
X35.5Y-71.0
X36.2Y-32.4
X36.578Y-56.559
X38.5Y-70.0
X38.6Y-47.8
X40.757Y-44.88
X40.757Y-45.93
X41.4Y-58.15
X42.65Y-48.95
X43.8Y-46.5
X45.0Y-36.9
X46.6Y-72.2
X46.9Y-57.3
X48.1Y-58.6
X49.1Y-75.8
X50.5Y-36.9
X50.601Y-57.499
X51.7Y-75.8
X51.8Y-39.0
X52.4Y-71.3
X52.6Y-59.3
X52.7Y-73.0
X53.0Y-115.5
X53.995Y-59.2
X53.995Y-66.3
X57.7Y-98.0
X57.7Y-100.1
X57.8Y-96.9
X57.8Y-99.1
X58.5Y-41.75
X58.5Y-42.8
X58.6Y-43.9
X58.6Y-66.2
X61.9Y-48.0
X62.0Y-59.5
X62.5Y-41.0
X63.4Y-49.2
X63.9Y-42.2
X64.1Y-96.0
X65.3Y-86.5
X67.0Y-59.5
X67.8Y-70.3
X68.7Y-52.1
X69.9Y-46.6
X69.9Y-100.3
X70.0Y-59.6
X71.5Y-72.0
X71.6Y-47.2
X72.9Y-46.4
X73.7Y-56.2
X74.1Y-45.9
X74.75Y-40.2
X75.6Y-42.5
X76.5Y-41.5
X76.6Y-42.7
X77.5Y-57.4
X77.7Y-59.4
X78.5Y-45.2
X79.1Y-43.9
X79.7Y-99.4
X79.8Y-29.7
X79.8Y-31.5
X80.1Y-80.9
X80.95Y-78.3
X82.774Y-46.7
X83.1Y-78.6
X83.1Y-81.3
X83.4Y-59.5
X83.7Y-46.3
X84.55Y-45.6
X85.564Y-50.592
X88.0Y-42.9
X89.9Y-98.4
X90.9Y-57.4
X92.1Y-41.7
X96.2Y-45.9
X97.4Y-54.6
X99.0Y-101.9
X99.1Y-45.9
X100.2Y-52.6
X100.2Y-57.7
X100.4Y-86.6
X100.7Y-71.9
X100.8Y-96.0
X101.7Y-55.2
X102.0Y-53.5
X103.4Y-51.7
X107.7Y-32.9
X108.0Y-54.2
X110.1Y-53.3
X111.0Y-99.5
X111.1Y-68.7
X113.5Y-64.5
X113.619Y-99.5
X115.0Y-95.0
X115.5Y-85.0
X121.9Y-53.0
T4
X40.96Y-60.3
X43.5Y-60.3
X46.04Y-60.3
X100.56Y-31.0
X103.1Y-31.0
X105.64Y-31.0
X106.06Y-42.12
X106.06Y-44.66
X106.06Y-47.2
X106.06Y-49.74
X106.06Y-52.28
X108.18Y-31.0
X108.6Y-42.12
X108.6Y-44.66
X108.6Y-47.2
X108.6Y-49.74
X108.6Y-52.28
X110.72Y-31.0
X120.2Y-36.72
X120.2Y-39.26
X120.2Y-41.8
X120.2Y-44.34
X120.2Y-46.88
X120.2Y-49.42
X120.2Y-51.96
X120.2Y-54.5
X120.2Y-57.04
T5
X29.775Y-107.483
X29.775Y-109.983
X29.85Y-81.6
X29.85Y-84.1
X29.9Y-94.032
X29.9Y-96.532
X52.017Y-120.525
X54.517Y-120.525
X62.417Y-120.625
X64.917Y-120.625
X72.5Y-120.6
X75.0Y-120.6
X82.5Y-120.9
X85.0Y-120.9
X91.9Y-120.8
X94.4Y-120.8
X101.8Y-120.6
X104.3Y-120.6
X120.725Y-85.182
X120.725Y-87.682
X120.8Y-95.1
X120.8Y-97.6
T6
X30.038Y-67.233
X30.038Y-71.192
X66.062Y-71.507
X66.062Y-75.468
X119.959Y-63.876
X119.959Y-67.836
X119.962Y-73.74
X119.962Y-77.7
T2
G00X26.675Y-42.225
M15
G01X26.025Y-42.225
M16
G05
G00X26.675Y-49.225
M15
G01X26.025Y-49.225
M16
G05
T3
G00X29.05Y-43.075
M15
G01X29.05Y-43.375
M16
G05
G00X29.05Y-48.075
M15
G01X29.05Y-48.375
M16
G05
M30
