%TF.GenerationSoftware,KiCad,Pcbnew,9.0.7*%
%TF.CreationDate,2026-02-26T00:22:10-06:00*%
%TF.ProjectId,esp32_example,65737033-325f-4657-9861-6d706c652e6b,A*%
%TF.SameCoordinates,Original*%
%TF.FileFunction,Copper,L2,Bot*%
%TF.FilePolarity,Positive*%
%FSLAX46Y46*%
G04 Gerber Fmt 4.6, Leading zero omitted, Abs format (unit mm)*
G04 Created by KiCad (PCBNEW 9.0.7) date 2026-02-26 00:22:10*
%MOMM*%
%LPD*%
G01*
G04 APERTURE LIST*
G04 Aperture macros list*
%AMRoundRect*
0 Rectangle with rounded corners*
0 $1 Rounding radius*
0 $2 $3 $4 $5 $6 $7 $8 $9 X,Y pos of 4 corners*
0 Add a 4 corners polygon primitive as box body*
4,1,4,$2,$3,$4,$5,$6,$7,$8,$9,$2,$3,0*
0 Add four circle primitives for the rounded corners*
1,1,$1+$1,$2,$3*
1,1,$1+$1,$4,$5*
1,1,$1+$1,$6,$7*
1,1,$1+$1,$8,$9*
0 Add four rect primitives between the rounded corners*
20,1,$1+$1,$2,$3,$4,$5,0*
20,1,$1+$1,$4,$5,$6,$7,0*
20,1,$1+$1,$6,$7,$8,$9,0*
20,1,$1+$1,$8,$9,$2,$3,0*%
G04 Aperture macros list end*
%TA.AperFunction,ComponentPad*%
%ADD10R,1.575000X1.575000*%
%TD*%
%TA.AperFunction,ComponentPad*%
%ADD11C,1.575000*%
%TD*%
%TA.AperFunction,ComponentPad*%
%ADD12R,1.700000X1.700000*%
%TD*%
%TA.AperFunction,ComponentPad*%
%ADD13C,1.700000*%
%TD*%
%TA.AperFunction,ComponentPad*%
%ADD14R,2.128000X2.128000*%
%TD*%
%TA.AperFunction,ComponentPad*%
%ADD15C,2.128000*%
%TD*%
%TA.AperFunction,HeatsinkPad*%
%ADD16O,1.550000X0.890000*%
%TD*%
%TA.AperFunction,HeatsinkPad*%
%ADD17O,0.950000X1.250000*%
%TD*%
%TA.AperFunction,ComponentPad*%
%ADD18RoundRect,0.250000X0.600000X0.600000X-0.600000X0.600000X-0.600000X-0.600000X0.600000X-0.600000X0*%
%TD*%
%TA.AperFunction,ViaPad*%
%ADD19C,0.800000*%
%TD*%
%TA.AperFunction,Conductor*%
%ADD20C,1.397000*%
%TD*%
%TA.AperFunction,Conductor*%
%ADD21C,0.500000*%
%TD*%
%TA.AperFunction,Conductor*%
%ADD22C,1.000000*%
%TD*%
%TA.AperFunction,Conductor*%
%ADD23C,0.200000*%
%TD*%
G04 APERTURE END LIST*
D10*
%TO.P,J4,1,1*%
%TO.N,/VDD_5V*%
X29849998Y-84100000D03*
D11*
%TO.P,J4,2,2*%
%TO.N,Net-(D15-PadC)*%
X29849998Y-81600000D03*
%TD*%
D10*
%TO.P,J5,1,1*%
%TO.N,/VDD_5V*%
X29900000Y-96532500D03*
D11*
%TO.P,J5,2,2*%
%TO.N,Net-(D19-PadC)*%
X29900000Y-94032500D03*
%TD*%
D12*
%TO.P,J18,1,Pin_1*%
%TO.N,/VDD_5V*%
X40960001Y-60300000D03*
D13*
%TO.P,J18,2,Pin_2*%
%TO.N,/SERVO_SLIDE*%
X43500001Y-60300000D03*
%TO.P,J18,3,Pin_3*%
%TO.N,GND*%
X46040000Y-60300000D03*
%TD*%
D12*
%TO.P,J3,1,Pin_1*%
%TO.N,/RTS*%
X110720000Y-31000000D03*
D13*
%TO.P,J3,2,Pin_2*%
%TO.N,/DTR*%
X108180000Y-31000000D03*
%TO.P,J3,3,Pin_3*%
%TO.N,/TX*%
X105640001Y-31000000D03*
%TO.P,J3,4,Pin_4*%
%TO.N,/RX*%
X103100000Y-31000000D03*
%TO.P,J3,5,Pin_5*%
%TO.N,GND*%
X100560000Y-31000000D03*
%TD*%
D12*
%TO.P,J19,1,Pin_1*%
%TO.N,VDD_3V3*%
X120200000Y-36719999D03*
D13*
%TO.P,J19,2,Pin_2*%
%TO.N,GND*%
X120200000Y-39259999D03*
%TO.P,J19,3,Pin_3*%
%TO.N,/CS*%
X120200000Y-41799998D03*
%TO.P,J19,4,Pin_4*%
%TO.N,/RST*%
X120200000Y-44339999D03*
%TO.P,J19,5,Pin_5*%
%TO.N,/DC*%
X120200000Y-46879999D03*
%TO.P,J19,6,Pin_6*%
%TO.N,/MOSI*%
X120200000Y-49419999D03*
%TO.P,J19,7,Pin_7*%
%TO.N,/SCK*%
X120200000Y-51959999D03*
%TO.P,J19,8,Pin_8*%
%TO.N,/LED*%
X120200000Y-54500000D03*
%TO.P,J19,9,Pin_9*%
%TO.N,/MISO*%
X120200000Y-57039999D03*
%TD*%
D10*
%TO.P,J11,1,1*%
%TO.N,/VDD_5V*%
X85000000Y-120900000D03*
D11*
%TO.P,J11,2,2*%
%TO.N,Net-(D8-PadA)*%
X82500000Y-120900000D03*
%TD*%
D14*
%TO.P,J16,1,1*%
%TO.N,/VDD_5V*%
X119958777Y-63876275D03*
D15*
%TO.P,J16,2,2*%
%TO.N,Net-(D10-PadA)*%
X119958777Y-67836275D03*
%TD*%
D14*
%TO.P,J20,1,1*%
%TO.N,VDD_3V3*%
X66062000Y-71507500D03*
D15*
%TO.P,J20,2,2*%
%TO.N,GND*%
X66062000Y-75467500D03*
%TD*%
D10*
%TO.P,J10,1,1*%
%TO.N,/VDD_5V*%
X75000000Y-120600000D03*
D11*
%TO.P,J10,2,2*%
%TO.N,Net-(D7-PadA)*%
X72500000Y-120600000D03*
%TD*%
D10*
%TO.P,J9,1,1*%
%TO.N,/VDD_5V*%
X64917499Y-120625000D03*
D11*
%TO.P,J9,2,2*%
%TO.N,Net-(D6-PadA)*%
X62417499Y-120625000D03*
%TD*%
D10*
%TO.P,J8,1,1*%
%TO.N,/VDD_5V*%
X54517500Y-120525001D03*
D11*
%TO.P,J8,2,2*%
%TO.N,Net-(D5-PadA)*%
X52017500Y-120525001D03*
%TD*%
D10*
%TO.P,J14,1,1*%
%TO.N,/VDD_5V*%
X120800000Y-95100000D03*
D11*
%TO.P,J14,2,2*%
%TO.N,Net-(D13-PadA)*%
X120800000Y-97600000D03*
%TD*%
D14*
%TO.P,J1,1,1*%
%TO.N,/VDD_5V*%
X119962000Y-73740000D03*
D15*
%TO.P,J1,2,2*%
%TO.N,Net-(D21-PadC)*%
X119962000Y-77700000D03*
%TD*%
D16*
%TO.P,J2,6,Shield*%
%TO.N,unconnected-(J2-Shield-Pad6)*%
X26350000Y-42225000D03*
D17*
X29050000Y-43225001D03*
X29050000Y-48224999D03*
D16*
X26350000Y-49225000D03*
%TD*%
D18*
%TO.P,J7,1,VTref*%
%TO.N,Net-(J7-VTref)*%
X108600000Y-52279999D03*
D13*
%TO.P,J7,2,SWDIO/TMS*%
%TO.N,/MTMS*%
X106060000Y-52279999D03*
%TO.P,J7,3,GND*%
%TO.N,GND*%
X108600000Y-49739999D03*
%TO.P,J7,4,SWDCLK/TCK*%
%TO.N,/MTCK*%
X106060000Y-49739999D03*
%TO.P,J7,5,GND*%
%TO.N,GND*%
X108600000Y-47200000D03*
%TO.P,J7,6,SWO/TDO*%
%TO.N,/MTDO*%
X106060000Y-47199999D03*
%TO.P,J7,7,KEY*%
%TO.N,unconnected-(J7-KEY-Pad7)*%
X108600000Y-44659999D03*
%TO.P,J7,8,NC/TDI*%
%TO.N,/MTDI*%
X106060000Y-44659999D03*
%TO.P,J7,9,GNDDetect*%
%TO.N,GND*%
X108600000Y-42119999D03*
%TO.P,J7,10,~{RESET}*%
%TO.N,/CHIP_PU*%
X106060000Y-42119999D03*
%TD*%
D10*
%TO.P,J6,1,1*%
%TO.N,/VDD_5V*%
X29774999Y-109982500D03*
D11*
%TO.P,J6,2,2*%
%TO.N,Net-(D20-PadC)*%
X29774999Y-107482500D03*
%TD*%
D10*
%TO.P,J13,1,1*%
%TO.N,/VDD_5V*%
X104300000Y-120600000D03*
D11*
%TO.P,J13,2,2*%
%TO.N,Net-(D14-PadA)*%
X101800000Y-120600000D03*
%TD*%
D10*
%TO.P,J12,1,1*%
%TO.N,/VDD_5V*%
X94399999Y-120799999D03*
D11*
%TO.P,J12,2,2*%
%TO.N,Net-(D9-PadA)*%
X91899999Y-120799999D03*
%TD*%
D10*
%TO.P,J15,1,1*%
%TO.N,/VDD_5V*%
X120725001Y-85182500D03*
D11*
%TO.P,J15,2,2*%
%TO.N,Net-(D12-PadA)*%
X120725001Y-87682500D03*
%TD*%
D14*
%TO.P,J17,1,1*%
%TO.N,/VDD_5V*%
X30038000Y-71192500D03*
D15*
%TO.P,J17,2,2*%
%TO.N,GND*%
X30038000Y-67232500D03*
%TD*%
D19*
%TO.N,/VDD_5V*%
X34500000Y-112500000D03*
X35000000Y-86500000D03*
X53000000Y-115500000D03*
X35000000Y-99500000D03*
X113500000Y-64500000D03*
X35500000Y-71000000D03*
X115000000Y-95000000D03*
X115500000Y-85000000D03*
%TO.N,GND*%
X51800000Y-39000000D03*
X79100000Y-43900000D03*
X92100000Y-41700000D03*
%TO.N,/CHIP_PU*%
X50500000Y-36900000D03*
X45000000Y-36900000D03*
X36200000Y-32400000D03*
X63900000Y-42200000D03*
%TO.N,/GPIO0_STRAPPING*%
X88000000Y-42900000D03*
X76600000Y-42700000D03*
%TO.N,VDD_3V3*%
X100200000Y-57700000D03*
X52400000Y-71300000D03*
X73700000Y-56200000D03*
X90900000Y-57400000D03*
X121900000Y-53000000D03*
X71500000Y-72000000D03*
X41400000Y-58150000D03*
X48100000Y-58600000D03*
%TO.N,Net-(U6-SW)*%
X38500000Y-70000000D03*
X46600000Y-72200000D03*
%TO.N,Net-(JP3-A)*%
X46900000Y-57300000D03*
X36578463Y-56559433D03*
%TO.N,/D+*%
X58500000Y-42800000D03*
X40757084Y-45930221D03*
%TO.N,/D-*%
X58500000Y-41750000D03*
X40757084Y-44880221D03*
%TO.N,/DTR*%
X107700000Y-32900000D03*
%TO.N,/TX*%
X79800000Y-29700000D03*
%TO.N,/RX*%
X79800000Y-31500000D03*
%TO.N,/RTS*%
X99100000Y-45900000D03*
X96200000Y-45900000D03*
%TO.N,/MTDO*%
X83700000Y-46300000D03*
%TO.N,/MTDI*%
X84550000Y-45600000D03*
%TO.N,/MTCK*%
X82774000Y-46700000D03*
%TO.N,Net-(J7-VTref)*%
X101700000Y-55200000D03*
X108000000Y-54200000D03*
%TO.N,/MTMS*%
X85564175Y-50591523D03*
%TO.N,/SERVO_SLIDE*%
X43800000Y-46500000D03*
X69900000Y-46600000D03*
%TO.N,/SCK*%
X71600000Y-47200000D03*
X102000000Y-53500000D03*
%TO.N,/CS*%
X74750000Y-40200000D03*
%TO.N,/DC*%
X74100000Y-45900000D03*
X110100000Y-53300000D03*
X103400000Y-51700000D03*
%TO.N,/MOSI*%
X100200000Y-52600000D03*
X72900000Y-46400000D03*
%TO.N,/RST*%
X76500000Y-41500000D03*
%TO.N,/SOLENOID_EN_1*%
X50601041Y-57498959D03*
X49100000Y-75800000D03*
%TO.N,/SOLENOID_EN_2*%
X51700000Y-75800000D03*
X52600000Y-59300000D03*
%TO.N,/SOLENOID_EN_3*%
X53995000Y-59200000D03*
X52700000Y-73000000D03*
%TO.N,/SOLENOID_EN_4*%
X58600000Y-43900000D03*
X58600000Y-66200000D03*
X53995000Y-66300000D03*
X62500000Y-41000000D03*
%TO.N,/GPIO46_STRAPPING*%
X63400000Y-49200000D03*
X42650001Y-48950000D03*
%TO.N,/SOLENOID_EN_6*%
X57700000Y-100100000D03*
X69900000Y-100300000D03*
%TO.N,/GPIO3_STRAPPING*%
X61900000Y-48000000D03*
X38600000Y-47800000D03*
%TO.N,/SOLENOID_EN_7*%
X57800000Y-99100000D03*
X79700000Y-99400000D03*
%TO.N,/SOLENOID_EN_8*%
X89900000Y-98400000D03*
X57700000Y-98000000D03*
%TO.N,/SOLENOID_EN_9*%
X57800000Y-96900000D03*
X99000000Y-101900000D03*
%TO.N,/SOLENOID_EN_10*%
X64100000Y-96000000D03*
X100800000Y-96000000D03*
%TO.N,/PUMP_SOLENOID*%
X100400000Y-86600000D03*
X65300000Y-86500000D03*
%TO.N,/PUMP_PWM_1*%
X67800000Y-70300000D03*
X100700000Y-71900000D03*
%TO.N,/PUMP_PWM_2*%
X68700000Y-52100000D03*
X97400000Y-54600000D03*
%TO.N,/BTN_1*%
X75600000Y-42500000D03*
X62000000Y-59500000D03*
X77500000Y-57400000D03*
X70000000Y-59600000D03*
X67000000Y-59500000D03*
X78500000Y-45200000D03*
%TO.N,/BTN_2*%
X83400000Y-59500000D03*
X77700000Y-59400000D03*
%TO.N,/INDICATOR_LED_1*%
X80950000Y-78300000D03*
X83100000Y-78600000D03*
%TO.N,/INDICATOR_LED_2*%
X83100000Y-81300000D03*
X80100000Y-80900000D03*
%TO.N,Net-(D10-PadA)*%
X111100000Y-68700000D03*
%TO.N,Net-(D13-PadA)*%
X113619000Y-99500000D03*
X111000000Y-99500000D03*
%TD*%
D20*
%TO.N,/VDD_5V*%
X28087999Y-108295500D02*
X28087999Y-98344501D01*
X104300000Y-120600000D02*
X102613000Y-122287000D01*
X121925500Y-75703500D02*
X121925500Y-83982001D01*
X120800000Y-95100000D02*
X122412001Y-93487999D01*
X53000000Y-115500000D02*
X37500000Y-115500000D01*
X64917499Y-120625000D02*
X63230499Y-122312000D01*
X28213000Y-85736998D02*
X29849998Y-84100000D01*
X83313000Y-122587000D02*
X76987000Y-122587000D01*
X35307500Y-71192500D02*
X35500000Y-71000000D01*
X29900000Y-96532500D02*
X28213000Y-94845500D01*
X75000000Y-120600000D02*
X73100000Y-122500000D01*
X122412001Y-93487999D02*
X122412001Y-86869500D01*
X102613000Y-122287000D02*
X95887000Y-122287000D01*
X29774999Y-109982500D02*
X31982500Y-109982500D01*
X63230499Y-122312000D02*
X56304499Y-122312000D01*
X29774999Y-109982500D02*
X28087999Y-108295500D01*
X66792499Y-122500000D02*
X64917499Y-120625000D01*
X119962000Y-73740000D02*
X121922277Y-71779723D01*
X86586999Y-122486999D02*
X92712999Y-122486999D01*
X56304499Y-122312000D02*
X54517500Y-120525001D01*
X115682500Y-85182500D02*
X115500000Y-85000000D01*
X30038000Y-71192500D02*
X35307500Y-71192500D01*
X122412001Y-86869500D02*
X120725001Y-85182500D01*
X115100000Y-95100000D02*
X115000000Y-95000000D01*
X120800000Y-95100000D02*
X115100000Y-95100000D01*
X29900000Y-96532500D02*
X32032500Y-96532500D01*
X29849998Y-84100000D02*
X28162998Y-82413000D01*
X92712999Y-122486999D02*
X94399999Y-120799999D01*
X37500000Y-115500000D02*
X34500000Y-112500000D01*
X121925500Y-83982001D02*
X120725001Y-85182500D01*
X32032500Y-96532500D02*
X35000000Y-99500000D01*
X114123725Y-63876275D02*
X113500000Y-64500000D01*
X121922277Y-71779723D02*
X121922277Y-65839775D01*
X32600000Y-84100000D02*
X35000000Y-86500000D01*
X28162998Y-82413000D02*
X28162998Y-73067502D01*
X28087999Y-98344501D02*
X29900000Y-96532500D01*
X119962000Y-73740000D02*
X121925500Y-75703500D01*
X73100000Y-122500000D02*
X66792499Y-122500000D01*
X28213000Y-94845500D02*
X28213000Y-85736998D01*
X120725001Y-85182500D02*
X115682500Y-85182500D01*
X29849998Y-84100000D02*
X32600000Y-84100000D01*
X76987000Y-122587000D02*
X75000000Y-120600000D01*
X31982500Y-109982500D02*
X34500000Y-112500000D01*
X95887000Y-122287000D02*
X94399999Y-120799999D01*
X85000000Y-120900000D02*
X86586999Y-122486999D01*
X28162998Y-73067502D02*
X30038000Y-71192500D01*
X119958777Y-63876275D02*
X114123725Y-63876275D01*
X121922277Y-65839775D02*
X119958777Y-63876275D01*
X85000000Y-120900000D02*
X83313000Y-122587000D01*
D21*
%TO.N,/CHIP_PU*%
X36200000Y-32400000D02*
X40700000Y-36900000D01*
X82219504Y-46051000D02*
X84519504Y-43751000D01*
X45000000Y-36900000D02*
X50500000Y-36900000D01*
X84519504Y-43751000D02*
X104428999Y-43751000D01*
X73905140Y-42200000D02*
X77756140Y-46051000D01*
X104428999Y-43751000D02*
X106060000Y-42119999D01*
X63900000Y-42200000D02*
X73905140Y-42200000D01*
X40700000Y-36900000D02*
X45000000Y-36900000D01*
X77756140Y-46051000D02*
X82219504Y-46051000D01*
%TO.N,/GPIO0_STRAPPING*%
X88000000Y-42900000D02*
X87800000Y-42700000D01*
X87800000Y-42700000D02*
X76600000Y-42700000D01*
D22*
%TO.N,VDD_3V3*%
X99900000Y-57400000D02*
X100200000Y-57700000D01*
D21*
X53000000Y-71300000D02*
X53207500Y-71507500D01*
D22*
X73700000Y-56200000D02*
X89700000Y-56200000D01*
X66062000Y-71507500D02*
X71007500Y-71507500D01*
X71007500Y-71507500D02*
X71500000Y-72000000D01*
X120842446Y-58590999D02*
X101090999Y-58590999D01*
X121900000Y-57533445D02*
X120842446Y-58590999D01*
D21*
X53207500Y-71507500D02*
X66062000Y-71507500D01*
X52400000Y-71300000D02*
X53000000Y-71300000D01*
D22*
X90900000Y-57400000D02*
X99900000Y-57400000D01*
X101090999Y-58590999D02*
X100200000Y-57700000D01*
D21*
X41400000Y-58150000D02*
X47650000Y-58150000D01*
X47650000Y-58150000D02*
X48100000Y-58600000D01*
D22*
X121900000Y-53000000D02*
X121900000Y-57533445D01*
X89700000Y-56200000D02*
X90900000Y-57400000D01*
D23*
%TO.N,Net-(U6-SW)*%
X46600000Y-72200000D02*
X40700000Y-72200000D01*
X40700000Y-72200000D02*
X38500000Y-70000000D01*
D21*
%TO.N,Net-(JP3-A)*%
X37319030Y-57300000D02*
X36578463Y-56559433D01*
X46900000Y-57300000D02*
X37319030Y-57300000D01*
D23*
%TO.N,/D+*%
X58200001Y-42500001D02*
X45818197Y-42500001D01*
X41057083Y-45630222D02*
X40757084Y-45930221D01*
X41974543Y-45630222D02*
X41057083Y-45630222D01*
X42687977Y-45630221D02*
X41974544Y-45630221D01*
X58500000Y-42800000D02*
X58200001Y-42500001D01*
X45818197Y-42500001D02*
X42687977Y-45630221D01*
X41974544Y-45630221D02*
X41974543Y-45630222D01*
%TO.N,/D-*%
X41974544Y-45180221D02*
X41974543Y-45180220D01*
X58200001Y-42049999D02*
X45631803Y-42049999D01*
X45631803Y-42049999D02*
X42501581Y-45180221D01*
X41057083Y-45180220D02*
X40757084Y-44880221D01*
X58500000Y-41750000D02*
X58200001Y-42049999D01*
X42501581Y-45180221D02*
X41974544Y-45180221D01*
X41974543Y-45180220D02*
X41057083Y-45180220D01*
D21*
%TO.N,/DTR*%
X108180000Y-32420000D02*
X107700000Y-32900000D01*
X108180000Y-31000000D02*
X108180000Y-32420000D01*
%TO.N,/TX*%
X104340001Y-29700000D02*
X105640001Y-31000000D01*
X79800000Y-29700000D02*
X104340001Y-29700000D01*
%TO.N,/RX*%
X101799000Y-32301000D02*
X103100000Y-31000000D01*
X79800000Y-31500000D02*
X80601000Y-32301000D01*
X80601000Y-32301000D02*
X101799000Y-32301000D01*
%TO.N,/RTS*%
X96200000Y-45900000D02*
X99100000Y-45900000D01*
%TO.N,/MTDO*%
X104359999Y-48900000D02*
X106060000Y-47199999D01*
X83700000Y-46300000D02*
X86300000Y-48900000D01*
X86300000Y-48900000D02*
X104359999Y-48900000D01*
%TO.N,/MTDI*%
X104200000Y-47900000D02*
X104759000Y-47341000D01*
X104759000Y-45960999D02*
X106060000Y-44659999D01*
X86850000Y-47900000D02*
X104200000Y-47900000D01*
X84550000Y-45600000D02*
X86850000Y-47900000D01*
X104759000Y-47341000D02*
X104759000Y-45960999D01*
%TO.N,/MTCK*%
X82774000Y-46700000D02*
X85874000Y-49800000D01*
X104300000Y-49800000D02*
X104360001Y-49739999D01*
X85874000Y-49800000D02*
X104300000Y-49800000D01*
X104360001Y-49739999D02*
X106060000Y-49739999D01*
%TO.N,Net-(J7-VTref)*%
X102700000Y-54200000D02*
X101700000Y-55200000D01*
X108000000Y-54200000D02*
X102700000Y-54200000D01*
%TO.N,/MTMS*%
X85564175Y-50591523D02*
X104371524Y-50591523D01*
X104371524Y-50591523D02*
X106060000Y-52279999D01*
%TO.N,/SERVO_SLIDE*%
X43900000Y-46600000D02*
X43800000Y-46500000D01*
X69900000Y-46600000D02*
X43900000Y-46600000D01*
%TO.N,/SCK*%
X77900000Y-53500000D02*
X102000000Y-53500000D01*
X71600000Y-47200000D02*
X77900000Y-53500000D01*
%TO.N,/CS*%
X74750000Y-40200000D02*
X74832001Y-40117999D01*
X74832001Y-40117999D02*
X118518001Y-40117999D01*
X118518001Y-40117999D02*
X120200000Y-41799998D01*
%TO.N,/DC*%
X74100000Y-45900000D02*
X79900000Y-51700000D01*
X110100000Y-53300000D02*
X113779999Y-53300000D01*
X113779999Y-53300000D02*
X120200000Y-46879999D01*
X79900000Y-51700000D02*
X103400000Y-51700000D01*
%TO.N,/MOSI*%
X72900000Y-46400000D02*
X79100000Y-52600000D01*
X79100000Y-52600000D02*
X100200000Y-52600000D01*
%TO.N,/RST*%
X77181001Y-40818999D02*
X116679000Y-40818999D01*
X116679000Y-40818999D02*
X120200000Y-44339999D01*
X76500000Y-41500000D02*
X77181001Y-40818999D01*
%TO.N,/SOLENOID_EN_1*%
X49100000Y-59000000D02*
X49100000Y-75800000D01*
X50601041Y-57498959D02*
X49100000Y-59000000D01*
%TO.N,/SOLENOID_EN_2*%
X52600000Y-59300000D02*
X50848000Y-61052000D01*
X50848000Y-61052000D02*
X50848000Y-74948000D01*
X50848000Y-74948000D02*
X51700000Y-75800000D01*
%TO.N,/SOLENOID_EN_3*%
X53995000Y-59200000D02*
X51549000Y-61646000D01*
X51549000Y-61646000D02*
X51549000Y-71849000D01*
X51549000Y-71849000D02*
X52700000Y-73000000D01*
%TO.N,/SOLENOID_EN_4*%
X59600000Y-43900000D02*
X62500000Y-41000000D01*
X58600000Y-43900000D02*
X59600000Y-43900000D01*
X58500000Y-66300000D02*
X58600000Y-66200000D01*
X53995000Y-66300000D02*
X58500000Y-66300000D01*
%TO.N,/GPIO46_STRAPPING*%
X42900001Y-49200000D02*
X42650001Y-48950000D01*
X63400000Y-49200000D02*
X42900001Y-49200000D01*
%TO.N,/SOLENOID_EN_6*%
X57900000Y-100300000D02*
X69900000Y-100300000D01*
X57700000Y-100100000D02*
X57900000Y-100300000D01*
%TO.N,/GPIO3_STRAPPING*%
X38900000Y-48100000D02*
X38600000Y-47800000D01*
X61800000Y-48100000D02*
X38900000Y-48100000D01*
X61900000Y-48000000D02*
X61800000Y-48100000D01*
%TO.N,/SOLENOID_EN_7*%
X57800000Y-99100000D02*
X79400000Y-99100000D01*
X79400000Y-99100000D02*
X79700000Y-99400000D01*
%TO.N,/SOLENOID_EN_8*%
X57700000Y-98000000D02*
X89500000Y-98000000D01*
X89500000Y-98000000D02*
X89900000Y-98400000D01*
%TO.N,/SOLENOID_EN_9*%
X57800000Y-96900000D02*
X94000000Y-96900000D01*
X94000000Y-96900000D02*
X99000000Y-101900000D01*
%TO.N,/SOLENOID_EN_10*%
X64100000Y-96000000D02*
X100800000Y-96000000D01*
%TO.N,/PUMP_SOLENOID*%
X100400000Y-86600000D02*
X65400000Y-86600000D01*
X65400000Y-86600000D02*
X65300000Y-86500000D01*
%TO.N,/PUMP_PWM_1*%
X67800000Y-70300000D02*
X99100000Y-70300000D01*
X99100000Y-70300000D02*
X100700000Y-71900000D01*
%TO.N,/PUMP_PWM_2*%
X68700000Y-52100000D02*
X71200000Y-54600000D01*
X71200000Y-54600000D02*
X97400000Y-54600000D01*
%TO.N,/BTN_1*%
X75600000Y-42903496D02*
X77896504Y-45200000D01*
X75600000Y-42500000D02*
X75600000Y-42903496D01*
X77500000Y-57400000D02*
X72200000Y-57400000D01*
X72200000Y-57400000D02*
X70000000Y-59600000D01*
X67100000Y-59600000D02*
X67000000Y-59500000D01*
X62000000Y-59500000D02*
X67000000Y-59500000D01*
X77896504Y-45200000D02*
X78500000Y-45200000D01*
X70000000Y-59600000D02*
X67100000Y-59600000D01*
%TO.N,/BTN_2*%
X83300000Y-59400000D02*
X77700000Y-59400000D01*
X83400000Y-59500000D02*
X83300000Y-59400000D01*
%TO.N,/INDICATOR_LED_1*%
X82800000Y-78300000D02*
X83100000Y-78600000D01*
X80950000Y-78300000D02*
X82800000Y-78300000D01*
%TO.N,/INDICATOR_LED_2*%
X80100000Y-80900000D02*
X82700000Y-80900000D01*
X82700000Y-80900000D02*
X83100000Y-81300000D01*
%TO.N,Net-(D10-PadA)*%
X111963725Y-67836275D02*
X119958777Y-67836275D01*
X111100000Y-68700000D02*
X111963725Y-67836275D01*
%TO.N,Net-(D13-PadA)*%
X113619000Y-99500000D02*
X111000000Y-99500000D01*
%TD*%
%TA.AperFunction,Conductor*%
%TO.N,GND*%
G36*
X108134075Y-47392993D02*
G01*
X108199901Y-47507007D01*
X108292993Y-47600099D01*
X108407007Y-47665925D01*
X108470590Y-47682962D01*
X107869970Y-48283581D01*
X107948710Y-48400894D01*
X107949919Y-48404727D01*
X107952841Y-48407487D01*
X107960341Y-48437773D01*
X107969726Y-48467528D01*
X107968670Y-48471405D01*
X107969637Y-48475307D01*
X107959574Y-48504836D01*
X107951382Y-48534947D01*
X107948397Y-48537639D01*
X107947101Y-48541443D01*
X107902053Y-48580480D01*
X107892446Y-48585375D01*
X107892440Y-48585379D01*
X107838282Y-48624726D01*
X107838282Y-48624727D01*
X108470591Y-49257036D01*
X108407007Y-49274074D01*
X108292993Y-49339900D01*
X108199901Y-49432992D01*
X108134075Y-49547006D01*
X108117037Y-49610590D01*
X107484728Y-48978281D01*
X107484727Y-48978281D01*
X107445380Y-49032438D01*
X107348905Y-49221780D01*
X107291656Y-49397973D01*
X107252218Y-49455648D01*
X107187859Y-49482846D01*
X107119013Y-49470931D01*
X107067537Y-49423687D01*
X107059164Y-49407106D01*
X106990943Y-49242404D01*
X106875975Y-49070341D01*
X106729657Y-48924023D01*
X106622758Y-48852596D01*
X106557598Y-48809058D01*
X106415843Y-48750341D01*
X106366420Y-48729869D01*
X106366412Y-48729867D01*
X106163469Y-48689499D01*
X106163465Y-48689499D01*
X105956535Y-48689499D01*
X105956530Y-48689499D01*
X105753587Y-48729867D01*
X105753579Y-48729869D01*
X105562403Y-48809057D01*
X105390342Y-48924023D01*
X105244022Y-49070343D01*
X105134411Y-49234390D01*
X105080799Y-49279195D01*
X105031309Y-49289499D01*
X104906965Y-49289499D01*
X104839926Y-49269814D01*
X104794171Y-49217010D01*
X104784227Y-49147852D01*
X104813252Y-49084296D01*
X104819284Y-49077818D01*
X105026159Y-48870943D01*
X105651158Y-48245942D01*
X105712479Y-48212459D01*
X105763026Y-48212008D01*
X105956533Y-48250498D01*
X105956534Y-48250499D01*
X105956535Y-48250499D01*
X106163466Y-48250499D01*
X106163467Y-48250498D01*
X106366420Y-48210129D01*
X106475359Y-48165004D01*
X106503255Y-48153450D01*
X106557596Y-48130941D01*
X106557596Y-48130940D01*
X106557598Y-48130940D01*
X106729655Y-48015976D01*
X106875977Y-47869654D01*
X106990941Y-47697597D01*
X106991613Y-47695976D01*
X107031326Y-47600099D01*
X107059164Y-47532890D01*
X107103005Y-47478488D01*
X107169299Y-47456423D01*
X107236998Y-47473702D01*
X107284609Y-47524839D01*
X107291656Y-47542026D01*
X107348904Y-47718216D01*
X107445375Y-47907550D01*
X107484728Y-47961716D01*
X108117037Y-47329408D01*
X108134075Y-47392993D01*
G37*
%TD.AperFunction*%
%TA.AperFunction,Conductor*%
G36*
X108134075Y-42312992D02*
G01*
X108199901Y-42427006D01*
X108292993Y-42520098D01*
X108407007Y-42585924D01*
X108470590Y-42602961D01*
X107838282Y-43235268D01*
X107838282Y-43235269D01*
X107892449Y-43274623D01*
X108081782Y-43371094D01*
X108257973Y-43428342D01*
X108315648Y-43467779D01*
X108342847Y-43532138D01*
X108330932Y-43600984D01*
X108283688Y-43652460D01*
X108267108Y-43660834D01*
X108102403Y-43729056D01*
X107930342Y-43844023D01*
X107784024Y-43990341D01*
X107669058Y-44162402D01*
X107589870Y-44353578D01*
X107589868Y-44353586D01*
X107549500Y-44556529D01*
X107549500Y-44763468D01*
X107589868Y-44966411D01*
X107589870Y-44966419D01*
X107669058Y-45157595D01*
X107784024Y-45329656D01*
X107930342Y-45475974D01*
X107930345Y-45475976D01*
X108102402Y-45590940D01*
X108267109Y-45659164D01*
X108321512Y-45703005D01*
X108343577Y-45769299D01*
X108326298Y-45836998D01*
X108275161Y-45884609D01*
X108257974Y-45891656D01*
X108081783Y-45948904D01*
X107892439Y-46045380D01*
X107838282Y-46084727D01*
X107838282Y-46084728D01*
X108470591Y-46717037D01*
X108407007Y-46734075D01*
X108292993Y-46799901D01*
X108199901Y-46892993D01*
X108134075Y-47007007D01*
X108117037Y-47070591D01*
X107484728Y-46438282D01*
X107484727Y-46438282D01*
X107445380Y-46492439D01*
X107348904Y-46681783D01*
X107291657Y-46857972D01*
X107252220Y-46915648D01*
X107187861Y-46942846D01*
X107119015Y-46930931D01*
X107067539Y-46883687D01*
X107059165Y-46867107D01*
X106990942Y-46702402D01*
X106875975Y-46530341D01*
X106729657Y-46384023D01*
X106563303Y-46272870D01*
X106557598Y-46269058D01*
X106556772Y-46268716D01*
X106366420Y-46189869D01*
X106366412Y-46189867D01*
X106163469Y-46149499D01*
X106163465Y-46149499D01*
X105956535Y-46149499D01*
X105956530Y-46149499D01*
X105753587Y-46189867D01*
X105753579Y-46189869D01*
X105562403Y-46269057D01*
X105402390Y-46375973D01*
X105392690Y-46379010D01*
X105385011Y-46385664D01*
X105359912Y-46389272D01*
X105335712Y-46396850D01*
X105325912Y-46394161D01*
X105315853Y-46395608D01*
X105292786Y-46385073D01*
X105268332Y-46378365D01*
X105261541Y-46370804D01*
X105252297Y-46366583D01*
X105238587Y-46345250D01*
X105221643Y-46326386D01*
X105219011Y-46314789D01*
X105214523Y-46307805D01*
X105209500Y-46272870D01*
X105209500Y-46198964D01*
X105229185Y-46131925D01*
X105245819Y-46111283D01*
X105446864Y-45910238D01*
X105651158Y-45705943D01*
X105712479Y-45672460D01*
X105763028Y-45672009D01*
X105956530Y-45710498D01*
X105956534Y-45710499D01*
X105956535Y-45710499D01*
X106163466Y-45710499D01*
X106163467Y-45710498D01*
X106366420Y-45670129D01*
X106557598Y-45590940D01*
X106729655Y-45475976D01*
X106875977Y-45329654D01*
X106990941Y-45157597D01*
X107070130Y-44966419D01*
X107110500Y-44763464D01*
X107110500Y-44556534D01*
X107070130Y-44353579D01*
X106990941Y-44162401D01*
X106875977Y-43990344D01*
X106875975Y-43990341D01*
X106729657Y-43844023D01*
X106643626Y-43786540D01*
X106557598Y-43729058D01*
X106557593Y-43729056D01*
X106366420Y-43649869D01*
X106366412Y-43649867D01*
X106163469Y-43609499D01*
X106163465Y-43609499D01*
X105956535Y-43609499D01*
X105956530Y-43609499D01*
X105753587Y-43649867D01*
X105753579Y-43649869D01*
X105562403Y-43729057D01*
X105390342Y-43844023D01*
X105244024Y-43990341D01*
X105129058Y-44162402D01*
X105049870Y-44353578D01*
X105049868Y-44353586D01*
X105009500Y-44556529D01*
X105009500Y-44763468D01*
X105047989Y-44956968D01*
X105041762Y-45026560D01*
X105014053Y-45068840D01*
X104398513Y-45684382D01*
X104398509Y-45684388D01*
X104339201Y-45787111D01*
X104339200Y-45787116D01*
X104308500Y-45901690D01*
X104308500Y-47103035D01*
X104288815Y-47170074D01*
X104272181Y-47190716D01*
X104049716Y-47413181D01*
X103988393Y-47446666D01*
X103962035Y-47449500D01*
X87087965Y-47449500D01*
X87020926Y-47429815D01*
X87000284Y-47413181D01*
X85408046Y-45820943D01*
X95599500Y-45820943D01*
X95599500Y-45979057D01*
X95640289Y-46131282D01*
X95640423Y-46131783D01*
X95640426Y-46131790D01*
X95719475Y-46268709D01*
X95719479Y-46268714D01*
X95719480Y-46268716D01*
X95831284Y-46380520D01*
X95831286Y-46380521D01*
X95831290Y-46380524D01*
X95968209Y-46459573D01*
X95968216Y-46459577D01*
X96120943Y-46500500D01*
X96120945Y-46500500D01*
X96279055Y-46500500D01*
X96279057Y-46500500D01*
X96431784Y-46459577D01*
X96568716Y-46380520D01*
X96568721Y-46380514D01*
X96574443Y-46376125D01*
X96639612Y-46350930D01*
X96649931Y-46350500D01*
X98650069Y-46350500D01*
X98717108Y-46370185D01*
X98725557Y-46376125D01*
X98731281Y-46380517D01*
X98731284Y-46380520D01*
X98731287Y-46380521D01*
X98731290Y-46380524D01*
X98868209Y-46459573D01*
X98868216Y-46459577D01*
X99020943Y-46500500D01*
X99020945Y-46500500D01*
X99179055Y-46500500D01*
X99179057Y-46500500D01*
X99331784Y-46459577D01*
X99468716Y-46380520D01*
X99580520Y-46268716D01*
X99659577Y-46131784D01*
X99700500Y-45979057D01*
X99700500Y-45820943D01*
X99659577Y-45668216D01*
X99619960Y-45599597D01*
X99580524Y-45531290D01*
X99580518Y-45531282D01*
X99468717Y-45419481D01*
X99468709Y-45419475D01*
X99331790Y-45340426D01*
X99331786Y-45340424D01*
X99331784Y-45340423D01*
X99179057Y-45299500D01*
X99020943Y-45299500D01*
X98868216Y-45340423D01*
X98868209Y-45340426D01*
X98731290Y-45419475D01*
X98725557Y-45423875D01*
X98660388Y-45449070D01*
X98650069Y-45449500D01*
X96649931Y-45449500D01*
X96582892Y-45429815D01*
X96574443Y-45423875D01*
X96568709Y-45419475D01*
X96431790Y-45340426D01*
X96431786Y-45340424D01*
X96431784Y-45340423D01*
X96279057Y-45299500D01*
X96120943Y-45299500D01*
X95968216Y-45340423D01*
X95968209Y-45340426D01*
X95831290Y-45419475D01*
X95831282Y-45419481D01*
X95719481Y-45531282D01*
X95719475Y-45531290D01*
X95640426Y-45668209D01*
X95640423Y-45668216D01*
X95599500Y-45820943D01*
X85408046Y-45820943D01*
X85186700Y-45599597D01*
X85153215Y-45538274D01*
X85151442Y-45528099D01*
X85150500Y-45520945D01*
X85150500Y-45520943D01*
X85109577Y-45368216D01*
X85087315Y-45329656D01*
X85030524Y-45231290D01*
X85030518Y-45231282D01*
X84918717Y-45119481D01*
X84918709Y-45119475D01*
X84781790Y-45040426D01*
X84781786Y-45040424D01*
X84781784Y-45040423D01*
X84629057Y-44999500D01*
X84470943Y-44999500D01*
X84318216Y-45040423D01*
X84318209Y-45040426D01*
X84181290Y-45119475D01*
X84181282Y-45119481D01*
X84069481Y-45231282D01*
X84069475Y-45231290D01*
X83990426Y-45368209D01*
X83990423Y-45368216D01*
X83949500Y-45520943D01*
X83949500Y-45583570D01*
X83929815Y-45650609D01*
X83877011Y-45696364D01*
X83807853Y-45706308D01*
X83793409Y-45703345D01*
X83779061Y-45699500D01*
X83779057Y-45699500D01*
X83620943Y-45699500D01*
X83504002Y-45730834D01*
X83434152Y-45729171D01*
X83376290Y-45690008D01*
X83348786Y-45625780D01*
X83360373Y-45556877D01*
X83384225Y-45523381D01*
X84669788Y-44237819D01*
X84731111Y-44204334D01*
X84757469Y-44201500D01*
X104488306Y-44201500D01*
X104488308Y-44201500D01*
X104564984Y-44180954D01*
X104581188Y-44176613D01*
X104581190Y-44176612D01*
X104591129Y-44173948D01*
X104602884Y-44170800D01*
X104602886Y-44170799D01*
X104705613Y-44111489D01*
X105651158Y-43165943D01*
X105712479Y-43132460D01*
X105763028Y-43132009D01*
X105956530Y-43170498D01*
X105956534Y-43170499D01*
X105956535Y-43170499D01*
X106163466Y-43170499D01*
X106163467Y-43170498D01*
X106366420Y-43130129D01*
X106557598Y-43050940D01*
X106729655Y-42935976D01*
X106875977Y-42789654D01*
X106990941Y-42617597D01*
X107059165Y-42452888D01*
X107103004Y-42398487D01*
X107169298Y-42376422D01*
X107236998Y-42393701D01*
X107284609Y-42444838D01*
X107291656Y-42462025D01*
X107348904Y-42638215D01*
X107445375Y-42827549D01*
X107484728Y-42881715D01*
X108117036Y-42249406D01*
X108134075Y-42312992D01*
G37*
%TD.AperFunction*%
%TA.AperFunction,Conductor*%
G36*
X84262866Y-43170185D02*
G01*
X84308621Y-43222989D01*
X84318565Y-43292147D01*
X84289540Y-43355703D01*
X84257830Y-43381885D01*
X84252117Y-43385184D01*
X84242890Y-43390511D01*
X84242887Y-43390513D01*
X82069220Y-45564181D01*
X82007897Y-45597666D01*
X81981539Y-45600500D01*
X79175271Y-45600500D01*
X79108232Y-45580815D01*
X79062477Y-45528011D01*
X79052533Y-45458853D01*
X79057783Y-45439718D01*
X79057473Y-45439635D01*
X79059577Y-45431784D01*
X79100500Y-45279057D01*
X79100500Y-45120943D01*
X79059577Y-44968216D01*
X79008485Y-44879721D01*
X78980524Y-44831290D01*
X78980518Y-44831282D01*
X78868717Y-44719481D01*
X78868709Y-44719475D01*
X78731790Y-44640426D01*
X78731786Y-44640424D01*
X78731784Y-44640423D01*
X78579057Y-44599500D01*
X78420943Y-44599500D01*
X78268216Y-44640423D01*
X78268211Y-44640425D01*
X78164107Y-44700528D01*
X78096207Y-44716999D01*
X78030180Y-44694146D01*
X78014428Y-44680821D01*
X76794292Y-43460685D01*
X76782507Y-43439102D01*
X76767172Y-43419874D01*
X76766056Y-43408975D01*
X76760807Y-43399362D01*
X76762561Y-43374831D01*
X76760057Y-43350368D01*
X76765009Y-43340598D01*
X76765791Y-43329670D01*
X76780528Y-43309983D01*
X76791648Y-43288048D01*
X76802621Y-43280471D01*
X76807663Y-43273737D01*
X76819242Y-43266042D01*
X76828987Y-43260326D01*
X76831784Y-43259577D01*
X76968716Y-43180520D01*
X76973894Y-43175341D01*
X76987200Y-43167538D01*
X77013921Y-43160862D01*
X77039612Y-43150930D01*
X77049931Y-43150500D01*
X84195827Y-43150500D01*
X84262866Y-43170185D01*
G37*
%TD.AperFunction*%
%TA.AperFunction,Conductor*%
G36*
X105199911Y-41289184D02*
G01*
X105245666Y-41341988D01*
X105255610Y-41411146D01*
X105235974Y-41462389D01*
X105129059Y-41622398D01*
X105129059Y-41622399D01*
X105049870Y-41813578D01*
X105049868Y-41813586D01*
X105009500Y-42016529D01*
X105009500Y-42223468D01*
X105047989Y-42416968D01*
X105041762Y-42486560D01*
X105014053Y-42528840D01*
X104278715Y-43264181D01*
X104217392Y-43297666D01*
X104191034Y-43300500D01*
X88675271Y-43300500D01*
X88608232Y-43280815D01*
X88562477Y-43228011D01*
X88552533Y-43158853D01*
X88557783Y-43139718D01*
X88557473Y-43139635D01*
X88560020Y-43130129D01*
X88600500Y-42979057D01*
X88600500Y-42820943D01*
X88559577Y-42668216D01*
X88549195Y-42650234D01*
X88480524Y-42531290D01*
X88480518Y-42531282D01*
X88368717Y-42419481D01*
X88368709Y-42419475D01*
X88231790Y-42340426D01*
X88231786Y-42340424D01*
X88231784Y-42340423D01*
X88079057Y-42299500D01*
X88079056Y-42299500D01*
X88040539Y-42299500D01*
X87997831Y-42291913D01*
X87987796Y-42288231D01*
X87973887Y-42280201D01*
X87949673Y-42273713D01*
X87944292Y-42272271D01*
X87944289Y-42272270D01*
X87895615Y-42259228D01*
X87859309Y-42249500D01*
X87859308Y-42249500D01*
X77049931Y-42249500D01*
X77033744Y-42245004D01*
X77018505Y-42245452D01*
X76996423Y-42234638D01*
X76985983Y-42231739D01*
X76973402Y-42224166D01*
X76968716Y-42219480D01*
X76892816Y-42175659D01*
X76891825Y-42175063D01*
X76868917Y-42150143D01*
X76845557Y-42125644D01*
X76845334Y-42124489D01*
X76844540Y-42123625D01*
X76838742Y-42090282D01*
X76832335Y-42057037D01*
X76832771Y-42055946D01*
X76832570Y-42054788D01*
X76845733Y-42023570D01*
X76858303Y-41992172D01*
X76859577Y-41990735D01*
X76859716Y-41990408D01*
X76860105Y-41990141D01*
X76868092Y-41981142D01*
X76868711Y-41980522D01*
X76868716Y-41980520D01*
X76980520Y-41868716D01*
X77059577Y-41731784D01*
X77100500Y-41579057D01*
X77100500Y-41579044D01*
X77101441Y-41571901D01*
X77129707Y-41508003D01*
X77136675Y-41500427D01*
X77331287Y-41305815D01*
X77392610Y-41272333D01*
X77418967Y-41269499D01*
X105132872Y-41269499D01*
X105199911Y-41289184D01*
G37*
%TD.AperFunction*%
%TA.AperFunction,Conductor*%
G36*
X124642539Y-25320185D02*
G01*
X124688294Y-25372989D01*
X124699500Y-25424500D01*
X124699500Y-124575500D01*
X124679815Y-124642539D01*
X124627011Y-124688294D01*
X124575500Y-124699500D01*
X25424500Y-124699500D01*
X25357461Y-124679815D01*
X25311706Y-124627011D01*
X25300500Y-124575500D01*
X25300500Y-119875441D01*
X28099500Y-119875441D01*
X28099500Y-120124558D01*
X28099501Y-120124575D01*
X28130139Y-120357298D01*
X28132018Y-120371565D01*
X28179858Y-120550105D01*
X28196498Y-120612207D01*
X28291830Y-120842361D01*
X28291837Y-120842376D01*
X28416400Y-121058126D01*
X28568060Y-121255774D01*
X28568066Y-121255781D01*
X28744218Y-121431933D01*
X28744225Y-121431939D01*
X28941873Y-121583599D01*
X29157623Y-121708162D01*
X29157638Y-121708169D01*
X29256825Y-121749253D01*
X29387793Y-121803502D01*
X29628435Y-121867982D01*
X29875435Y-121900500D01*
X29875442Y-121900500D01*
X30124558Y-121900500D01*
X30124565Y-121900500D01*
X30371565Y-121867982D01*
X30612207Y-121803502D01*
X30842373Y-121708164D01*
X31058127Y-121583599D01*
X31255776Y-121431938D01*
X31431938Y-121255776D01*
X31583599Y-121058127D01*
X31708164Y-120842373D01*
X31803502Y-120612207D01*
X31852944Y-120427686D01*
X51029500Y-120427686D01*
X51029500Y-120622315D01*
X51067465Y-120813182D01*
X51067468Y-120813191D01*
X51141941Y-120992988D01*
X51141948Y-120993001D01*
X51250069Y-121154814D01*
X51250072Y-121154818D01*
X51387682Y-121292428D01*
X51387686Y-121292431D01*
X51549499Y-121400552D01*
X51549512Y-121400559D01*
X51684359Y-121456413D01*
X51729311Y-121475033D01*
X51729313Y-121475033D01*
X51729318Y-121475035D01*
X51920185Y-121513000D01*
X51920189Y-121513001D01*
X51920190Y-121513001D01*
X52114811Y-121513001D01*
X52114812Y-121513000D01*
X52178436Y-121500345D01*
X52305681Y-121475035D01*
X52305684Y-121475033D01*
X52305689Y-121475033D01*
X52469338Y-121407248D01*
X52485487Y-121400559D01*
X52485487Y-121400558D01*
X52485494Y-121400556D01*
X52647314Y-121292431D01*
X52784930Y-121154815D01*
X52893055Y-120992995D01*
X52967532Y-120813190D01*
X53005500Y-120622311D01*
X53005500Y-120427691D01*
X52991498Y-120357298D01*
X52967534Y-120236819D01*
X52967531Y-120236810D01*
X52893058Y-120057013D01*
X52893051Y-120057000D01*
X52784930Y-119895187D01*
X52784927Y-119895183D01*
X52647317Y-119757573D01*
X52647313Y-119757570D01*
X52587716Y-119717748D01*
X53529500Y-119717748D01*
X53529500Y-121332253D01*
X53541131Y-121390730D01*
X53541132Y-121390731D01*
X53585447Y-121457053D01*
X53651769Y-121501368D01*
X53651770Y-121501369D01*
X53710247Y-121513000D01*
X53710250Y-121513001D01*
X53710252Y-121513001D01*
X54182760Y-121513001D01*
X54249799Y-121532686D01*
X54270441Y-121549320D01*
X55731416Y-123010296D01*
X55731420Y-123010299D01*
X55878656Y-123108680D01*
X55878669Y-123108687D01*
X56042265Y-123176450D01*
X56042270Y-123176452D01*
X56152088Y-123198296D01*
X56215950Y-123210999D01*
X56215954Y-123211000D01*
X56215955Y-123211000D01*
X63319044Y-123211000D01*
X63319045Y-123210999D01*
X63492728Y-123176452D01*
X63656335Y-123108684D01*
X63803578Y-123010299D01*
X64829818Y-121984059D01*
X64891141Y-121950574D01*
X64960833Y-121955558D01*
X65005180Y-121984059D01*
X66094200Y-123073079D01*
X66172571Y-123151450D01*
X66219421Y-123198300D01*
X66366656Y-123296680D01*
X66366669Y-123296687D01*
X66530265Y-123364450D01*
X66530270Y-123364452D01*
X66703950Y-123398999D01*
X66703954Y-123399000D01*
X66703955Y-123399000D01*
X73188545Y-123399000D01*
X73188546Y-123398999D01*
X73362229Y-123364452D01*
X73525836Y-123296684D01*
X73673079Y-123198299D01*
X74912319Y-121959059D01*
X74973642Y-121925574D01*
X75043334Y-121930558D01*
X75087681Y-121959059D01*
X76413917Y-123285296D01*
X76413921Y-123285299D01*
X76561157Y-123383680D01*
X76561170Y-123383687D01*
X76724766Y-123451450D01*
X76724771Y-123451452D01*
X76898451Y-123485999D01*
X76898455Y-123486000D01*
X76898456Y-123486000D01*
X83401545Y-123486000D01*
X83401546Y-123485999D01*
X83575229Y-123451452D01*
X83733247Y-123385999D01*
X83738829Y-123383687D01*
X83738829Y-123383686D01*
X83738836Y-123383684D01*
X83886079Y-123285299D01*
X84912320Y-122259057D01*
X84973641Y-122225574D01*
X85043332Y-122230558D01*
X85087680Y-122259059D01*
X86013919Y-123185298D01*
X86111861Y-123250740D01*
X86161163Y-123283683D01*
X86324770Y-123351452D01*
X86498450Y-123385998D01*
X86498454Y-123385999D01*
X86498455Y-123385999D01*
X92801544Y-123385999D01*
X92801545Y-123385998D01*
X92975228Y-123351451D01*
X93138835Y-123283683D01*
X93286078Y-123185298D01*
X94312319Y-122159056D01*
X94373640Y-122125573D01*
X94443331Y-122130557D01*
X94487679Y-122159058D01*
X95313917Y-122985296D01*
X95313921Y-122985299D01*
X95461157Y-123083680D01*
X95461170Y-123083687D01*
X95624766Y-123151450D01*
X95624771Y-123151452D01*
X95750445Y-123176450D01*
X95798451Y-123185999D01*
X95798455Y-123186000D01*
X95798456Y-123186000D01*
X102701545Y-123186000D01*
X102701546Y-123185999D01*
X102875229Y-123151452D01*
X103038836Y-123083684D01*
X103186079Y-122985299D01*
X104547059Y-121624319D01*
X104608382Y-121590834D01*
X104634740Y-121588000D01*
X105107250Y-121588000D01*
X105107251Y-121587999D01*
X105122068Y-121585052D01*
X105165729Y-121576368D01*
X105165729Y-121576367D01*
X105165731Y-121576367D01*
X105232052Y-121532052D01*
X105276367Y-121465731D01*
X105276367Y-121465729D01*
X105276368Y-121465729D01*
X105287999Y-121407252D01*
X105288000Y-121407250D01*
X105288000Y-119875441D01*
X118099500Y-119875441D01*
X118099500Y-120124558D01*
X118099501Y-120124575D01*
X118130139Y-120357298D01*
X118132018Y-120371565D01*
X118179858Y-120550105D01*
X118196498Y-120612207D01*
X118291830Y-120842361D01*
X118291837Y-120842376D01*
X118416400Y-121058126D01*
X118568060Y-121255774D01*
X118568066Y-121255781D01*
X118744218Y-121431933D01*
X118744225Y-121431939D01*
X118941873Y-121583599D01*
X119157623Y-121708162D01*
X119157638Y-121708169D01*
X119256825Y-121749253D01*
X119387793Y-121803502D01*
X119628435Y-121867982D01*
X119875435Y-121900500D01*
X119875442Y-121900500D01*
X120124558Y-121900500D01*
X120124565Y-121900500D01*
X120371565Y-121867982D01*
X120612207Y-121803502D01*
X120842373Y-121708164D01*
X121058127Y-121583599D01*
X121255776Y-121431938D01*
X121431938Y-121255776D01*
X121583599Y-121058127D01*
X121708164Y-120842373D01*
X121803502Y-120612207D01*
X121867982Y-120371565D01*
X121900500Y-120124565D01*
X121900500Y-119875435D01*
X121867982Y-119628435D01*
X121803502Y-119387793D01*
X121708164Y-119157627D01*
X121583599Y-118941873D01*
X121431938Y-118744224D01*
X121431933Y-118744218D01*
X121255781Y-118568066D01*
X121255774Y-118568060D01*
X121058126Y-118416400D01*
X120842376Y-118291837D01*
X120842361Y-118291830D01*
X120612207Y-118196498D01*
X120371561Y-118132017D01*
X120124575Y-118099501D01*
X120124570Y-118099500D01*
X120124565Y-118099500D01*
X119875435Y-118099500D01*
X119875429Y-118099500D01*
X119875424Y-118099501D01*
X119628438Y-118132017D01*
X119387792Y-118196498D01*
X119157638Y-118291830D01*
X119157623Y-118291837D01*
X118941873Y-118416400D01*
X118744225Y-118568060D01*
X118744218Y-118568066D01*
X118568066Y-118744218D01*
X118568060Y-118744225D01*
X118416400Y-118941873D01*
X118291837Y-119157623D01*
X118291830Y-119157638D01*
X118196498Y-119387792D01*
X118132017Y-119628438D01*
X118099501Y-119875424D01*
X118099500Y-119875441D01*
X105288000Y-119875441D01*
X105288000Y-119792749D01*
X105287999Y-119792747D01*
X105276368Y-119734270D01*
X105276367Y-119734269D01*
X105232052Y-119667947D01*
X105165730Y-119623632D01*
X105165729Y-119623631D01*
X105107252Y-119612000D01*
X105107248Y-119612000D01*
X103492752Y-119612000D01*
X103492747Y-119612000D01*
X103434270Y-119623631D01*
X103434269Y-119623632D01*
X103367947Y-119667947D01*
X103323632Y-119734269D01*
X103323631Y-119734270D01*
X103312000Y-119792747D01*
X103312000Y-120265259D01*
X103292315Y-120332298D01*
X103275681Y-120352940D01*
X102999681Y-120628940D01*
X102938358Y-120662425D01*
X102868666Y-120657441D01*
X102812733Y-120615569D01*
X102788316Y-120550105D01*
X102788000Y-120541259D01*
X102788000Y-120502689D01*
X102787999Y-120502685D01*
X102750034Y-120311818D01*
X102750031Y-120311809D01*
X102675558Y-120132012D01*
X102675551Y-120131999D01*
X102567430Y-119970186D01*
X102567427Y-119970182D01*
X102429817Y-119832572D01*
X102429813Y-119832569D01*
X102268000Y-119724448D01*
X102267987Y-119724441D01*
X102088190Y-119649968D01*
X102088181Y-119649965D01*
X101897314Y-119612000D01*
X101897310Y-119612000D01*
X101702690Y-119612000D01*
X101702685Y-119612000D01*
X101511818Y-119649965D01*
X101511809Y-119649968D01*
X101332012Y-119724441D01*
X101331999Y-119724448D01*
X101170186Y-119832569D01*
X101170182Y-119832572D01*
X101032572Y-119970182D01*
X101032569Y-119970186D01*
X100924448Y-120131999D01*
X100924441Y-120132012D01*
X100849968Y-120311809D01*
X100849965Y-120311818D01*
X100812000Y-120502685D01*
X100812000Y-120697314D01*
X100849965Y-120888181D01*
X100849968Y-120888190D01*
X100924441Y-121067987D01*
X100924448Y-121068000D01*
X101009380Y-121195109D01*
X101030258Y-121261787D01*
X101011773Y-121329167D01*
X100959795Y-121375857D01*
X100906278Y-121388000D01*
X96310740Y-121388000D01*
X96243701Y-121368315D01*
X96223059Y-121351681D01*
X95424318Y-120552940D01*
X95390833Y-120491617D01*
X95387999Y-120465259D01*
X95387999Y-119992748D01*
X95387998Y-119992746D01*
X95376367Y-119934269D01*
X95376366Y-119934268D01*
X95332051Y-119867946D01*
X95265729Y-119823631D01*
X95265728Y-119823630D01*
X95207251Y-119811999D01*
X95207247Y-119811999D01*
X93592751Y-119811999D01*
X93592746Y-119811999D01*
X93534269Y-119823630D01*
X93534268Y-119823631D01*
X93467946Y-119867946D01*
X93423631Y-119934268D01*
X93423630Y-119934269D01*
X93411999Y-119992746D01*
X93411999Y-120465258D01*
X93392314Y-120532297D01*
X93375680Y-120552939D01*
X93099680Y-120828939D01*
X93038357Y-120862424D01*
X92968665Y-120857440D01*
X92912732Y-120815568D01*
X92888315Y-120750104D01*
X92887999Y-120741258D01*
X92887999Y-120702688D01*
X92887998Y-120702684D01*
X92850033Y-120511817D01*
X92850030Y-120511808D01*
X92775557Y-120332011D01*
X92775550Y-120331998D01*
X92667429Y-120170185D01*
X92667426Y-120170181D01*
X92529816Y-120032571D01*
X92529812Y-120032568D01*
X92367999Y-119924447D01*
X92367986Y-119924440D01*
X92188189Y-119849967D01*
X92188180Y-119849964D01*
X91997313Y-119811999D01*
X91997309Y-119811999D01*
X91802689Y-119811999D01*
X91802684Y-119811999D01*
X91611817Y-119849964D01*
X91611808Y-119849967D01*
X91432011Y-119924440D01*
X91431998Y-119924447D01*
X91270185Y-120032568D01*
X91270181Y-120032571D01*
X91132571Y-120170181D01*
X91132568Y-120170185D01*
X91024447Y-120331998D01*
X91024440Y-120332011D01*
X90949967Y-120511808D01*
X90949964Y-120511817D01*
X90911999Y-120702684D01*
X90911999Y-120897313D01*
X90949964Y-121088180D01*
X90949967Y-121088189D01*
X91024440Y-121267986D01*
X91024447Y-121267999D01*
X91109379Y-121395108D01*
X91130257Y-121461786D01*
X91111772Y-121529166D01*
X91059794Y-121575856D01*
X91006277Y-121587999D01*
X87010739Y-121587999D01*
X86943700Y-121568314D01*
X86923058Y-121551680D01*
X86024319Y-120652941D01*
X85990834Y-120591618D01*
X85988000Y-120565260D01*
X85988000Y-120092749D01*
X85987999Y-120092747D01*
X85976368Y-120034270D01*
X85976367Y-120034269D01*
X85932052Y-119967947D01*
X85865730Y-119923632D01*
X85865729Y-119923631D01*
X85807252Y-119912000D01*
X85807248Y-119912000D01*
X84192752Y-119912000D01*
X84192747Y-119912000D01*
X84134270Y-119923631D01*
X84134269Y-119923632D01*
X84067947Y-119967947D01*
X84023632Y-120034269D01*
X84023631Y-120034270D01*
X84012000Y-120092747D01*
X84012000Y-120565259D01*
X83992315Y-120632298D01*
X83975681Y-120652940D01*
X83699681Y-120928940D01*
X83638358Y-120962425D01*
X83568666Y-120957441D01*
X83512733Y-120915569D01*
X83488316Y-120850105D01*
X83488000Y-120841259D01*
X83488000Y-120802689D01*
X83487999Y-120802685D01*
X83450034Y-120611818D01*
X83450031Y-120611809D01*
X83375558Y-120432012D01*
X83375551Y-120431999D01*
X83267430Y-120270186D01*
X83267427Y-120270182D01*
X83129817Y-120132572D01*
X83129813Y-120132569D01*
X82968000Y-120024448D01*
X82967987Y-120024441D01*
X82788190Y-119949968D01*
X82788181Y-119949965D01*
X82597314Y-119912000D01*
X82597310Y-119912000D01*
X82402690Y-119912000D01*
X82402685Y-119912000D01*
X82211818Y-119949965D01*
X82211809Y-119949968D01*
X82032012Y-120024441D01*
X82031999Y-120024448D01*
X81870186Y-120132569D01*
X81870182Y-120132572D01*
X81732572Y-120270182D01*
X81732569Y-120270186D01*
X81624448Y-120431999D01*
X81624441Y-120432012D01*
X81549968Y-120611809D01*
X81549965Y-120611818D01*
X81512000Y-120802685D01*
X81512000Y-120997314D01*
X81549965Y-121188181D01*
X81549968Y-121188190D01*
X81624441Y-121367987D01*
X81624448Y-121368000D01*
X81709380Y-121495109D01*
X81730258Y-121561787D01*
X81711773Y-121629167D01*
X81659795Y-121675857D01*
X81606278Y-121688000D01*
X77410740Y-121688000D01*
X77343701Y-121668315D01*
X77323059Y-121651681D01*
X76024319Y-120352941D01*
X75990834Y-120291618D01*
X75988000Y-120265260D01*
X75988000Y-119792749D01*
X75987999Y-119792747D01*
X75976368Y-119734270D01*
X75976367Y-119734269D01*
X75932052Y-119667947D01*
X75865730Y-119623632D01*
X75865729Y-119623631D01*
X75807252Y-119612000D01*
X75807248Y-119612000D01*
X74192752Y-119612000D01*
X74192747Y-119612000D01*
X74134270Y-119623631D01*
X74134269Y-119623632D01*
X74067947Y-119667947D01*
X74023632Y-119734269D01*
X74023631Y-119734270D01*
X74012000Y-119792747D01*
X74012000Y-120265259D01*
X73992315Y-120332298D01*
X73975681Y-120352940D01*
X73699681Y-120628940D01*
X73638358Y-120662425D01*
X73568666Y-120657441D01*
X73512733Y-120615569D01*
X73488316Y-120550105D01*
X73488000Y-120541259D01*
X73488000Y-120502689D01*
X73487999Y-120502685D01*
X73450034Y-120311818D01*
X73450031Y-120311809D01*
X73375558Y-120132012D01*
X73375551Y-120131999D01*
X73267430Y-119970186D01*
X73267427Y-119970182D01*
X73129817Y-119832572D01*
X73129813Y-119832569D01*
X72968000Y-119724448D01*
X72967987Y-119724441D01*
X72788190Y-119649968D01*
X72788181Y-119649965D01*
X72597314Y-119612000D01*
X72597310Y-119612000D01*
X72402690Y-119612000D01*
X72402685Y-119612000D01*
X72211818Y-119649965D01*
X72211809Y-119649968D01*
X72032012Y-119724441D01*
X72031999Y-119724448D01*
X71870186Y-119832569D01*
X71870182Y-119832572D01*
X71732572Y-119970182D01*
X71732569Y-119970186D01*
X71624448Y-120131999D01*
X71624441Y-120132012D01*
X71549968Y-120311809D01*
X71549965Y-120311818D01*
X71512000Y-120502685D01*
X71512000Y-120697314D01*
X71549965Y-120888181D01*
X71549968Y-120888190D01*
X71624441Y-121067987D01*
X71624448Y-121068000D01*
X71732569Y-121229813D01*
X71732572Y-121229817D01*
X71870184Y-121367429D01*
X71879867Y-121373899D01*
X71924671Y-121427512D01*
X71933377Y-121496837D01*
X71903221Y-121559864D01*
X71843778Y-121596582D01*
X71810974Y-121601000D01*
X67216239Y-121601000D01*
X67149200Y-121581315D01*
X67128558Y-121564681D01*
X65941818Y-120377941D01*
X65908333Y-120316618D01*
X65905499Y-120290260D01*
X65905499Y-119817749D01*
X65905498Y-119817747D01*
X65893867Y-119759270D01*
X65893866Y-119759269D01*
X65849551Y-119692947D01*
X65783229Y-119648632D01*
X65783228Y-119648631D01*
X65724751Y-119637000D01*
X65724747Y-119637000D01*
X64110251Y-119637000D01*
X64110246Y-119637000D01*
X64051769Y-119648631D01*
X64051768Y-119648632D01*
X63985446Y-119692947D01*
X63941131Y-119759269D01*
X63941130Y-119759270D01*
X63929499Y-119817747D01*
X63929499Y-120290259D01*
X63909814Y-120357298D01*
X63893180Y-120377940D01*
X63617180Y-120653940D01*
X63555857Y-120687425D01*
X63486165Y-120682441D01*
X63430232Y-120640569D01*
X63405815Y-120575105D01*
X63405499Y-120566259D01*
X63405499Y-120527689D01*
X63405498Y-120527685D01*
X63367533Y-120336818D01*
X63367530Y-120336809D01*
X63359168Y-120316622D01*
X63337894Y-120265260D01*
X63293057Y-120157012D01*
X63293050Y-120156999D01*
X63184929Y-119995186D01*
X63184926Y-119995182D01*
X63047316Y-119857572D01*
X63047312Y-119857569D01*
X62885499Y-119749448D01*
X62885486Y-119749441D01*
X62705689Y-119674968D01*
X62705680Y-119674965D01*
X62514813Y-119637000D01*
X62514809Y-119637000D01*
X62320189Y-119637000D01*
X62320184Y-119637000D01*
X62129317Y-119674965D01*
X62129308Y-119674968D01*
X61949511Y-119749441D01*
X61949498Y-119749448D01*
X61787685Y-119857569D01*
X61787681Y-119857572D01*
X61650071Y-119995182D01*
X61650068Y-119995186D01*
X61541947Y-120156999D01*
X61541940Y-120157012D01*
X61467467Y-120336809D01*
X61467464Y-120336818D01*
X61429499Y-120527685D01*
X61429499Y-120722314D01*
X61467464Y-120913181D01*
X61467467Y-120913190D01*
X61541940Y-121092987D01*
X61541947Y-121093000D01*
X61626879Y-121220109D01*
X61647757Y-121286787D01*
X61629272Y-121354167D01*
X61577294Y-121400857D01*
X61523777Y-121413000D01*
X56728239Y-121413000D01*
X56661200Y-121393315D01*
X56640558Y-121376681D01*
X55541819Y-120277942D01*
X55508334Y-120216619D01*
X55505500Y-120190261D01*
X55505500Y-119717750D01*
X55505499Y-119717748D01*
X55493868Y-119659271D01*
X55493867Y-119659270D01*
X55449552Y-119592948D01*
X55383230Y-119548633D01*
X55383229Y-119548632D01*
X55324752Y-119537001D01*
X55324748Y-119537001D01*
X53710252Y-119537001D01*
X53710247Y-119537001D01*
X53651770Y-119548632D01*
X53651769Y-119548633D01*
X53585447Y-119592948D01*
X53541132Y-119659270D01*
X53541131Y-119659271D01*
X53529500Y-119717748D01*
X52587716Y-119717748D01*
X52485500Y-119649449D01*
X52485487Y-119649442D01*
X52305690Y-119574969D01*
X52305681Y-119574966D01*
X52114814Y-119537001D01*
X52114810Y-119537001D01*
X51920190Y-119537001D01*
X51920185Y-119537001D01*
X51729318Y-119574966D01*
X51729309Y-119574969D01*
X51549512Y-119649442D01*
X51549499Y-119649449D01*
X51387686Y-119757570D01*
X51387682Y-119757573D01*
X51250072Y-119895183D01*
X51250069Y-119895187D01*
X51141948Y-120057000D01*
X51141941Y-120057013D01*
X51067468Y-120236810D01*
X51067465Y-120236819D01*
X51029500Y-120427686D01*
X31852944Y-120427686D01*
X31867982Y-120371565D01*
X31900500Y-120124565D01*
X31900500Y-119875435D01*
X31867982Y-119628435D01*
X31803502Y-119387793D01*
X31708164Y-119157627D01*
X31583599Y-118941873D01*
X31431938Y-118744224D01*
X31431933Y-118744218D01*
X31255781Y-118568066D01*
X31255774Y-118568060D01*
X31058126Y-118416400D01*
X30842376Y-118291837D01*
X30842361Y-118291830D01*
X30612207Y-118196498D01*
X30371561Y-118132017D01*
X30124575Y-118099501D01*
X30124570Y-118099500D01*
X30124565Y-118099500D01*
X29875435Y-118099500D01*
X29875429Y-118099500D01*
X29875424Y-118099501D01*
X29628438Y-118132017D01*
X29387792Y-118196498D01*
X29157638Y-118291830D01*
X29157623Y-118291837D01*
X28941873Y-118416400D01*
X28744225Y-118568060D01*
X28744218Y-118568066D01*
X28568066Y-118744218D01*
X28568060Y-118744225D01*
X28416400Y-118941873D01*
X28291837Y-119157623D01*
X28291830Y-119157638D01*
X28196498Y-119387792D01*
X28132017Y-119628438D01*
X28099501Y-119875424D01*
X28099500Y-119875441D01*
X25300500Y-119875441D01*
X25300500Y-98255952D01*
X27188999Y-98255952D01*
X27188999Y-108384048D01*
X27223545Y-108557721D01*
X27223548Y-108557733D01*
X27291311Y-108721329D01*
X27291318Y-108721342D01*
X27389699Y-108868578D01*
X27389702Y-108868582D01*
X28750680Y-110229559D01*
X28784165Y-110290882D01*
X28786999Y-110317240D01*
X28786999Y-110789752D01*
X28798630Y-110848229D01*
X28798631Y-110848230D01*
X28842946Y-110914552D01*
X28909268Y-110958867D01*
X28909269Y-110958868D01*
X28967746Y-110970499D01*
X28967749Y-110970500D01*
X28967751Y-110970500D01*
X30582249Y-110970500D01*
X30582250Y-110970499D01*
X30597067Y-110967552D01*
X30640728Y-110958868D01*
X30640728Y-110958867D01*
X30640730Y-110958867D01*
X30707051Y-110914552D01*
X30707050Y-110914552D01*
X30717206Y-110907767D01*
X30718539Y-110909762D01*
X30765108Y-110884334D01*
X30791466Y-110881500D01*
X31558760Y-110881500D01*
X31625799Y-110901185D01*
X31646441Y-110917819D01*
X33801701Y-113073079D01*
X36926917Y-116198296D01*
X36926921Y-116198299D01*
X37074157Y-116296680D01*
X37074170Y-116296687D01*
X37237766Y-116364450D01*
X37237771Y-116364452D01*
X37411451Y-116398999D01*
X37411455Y-116399000D01*
X37411456Y-116399000D01*
X53088545Y-116399000D01*
X53088546Y-116398999D01*
X53262229Y-116364452D01*
X53425836Y-116296684D01*
X53573079Y-116198299D01*
X53698299Y-116073079D01*
X53796684Y-115925836D01*
X53864452Y-115762229D01*
X53899000Y-115588544D01*
X53899000Y-115411456D01*
X53864452Y-115237771D01*
X53864450Y-115237766D01*
X53796687Y-115074170D01*
X53796680Y-115074157D01*
X53698299Y-114926921D01*
X53698296Y-114926917D01*
X53573082Y-114801703D01*
X53573078Y-114801700D01*
X53425842Y-114703319D01*
X53425829Y-114703312D01*
X53262233Y-114635549D01*
X53262221Y-114635546D01*
X53088548Y-114601000D01*
X53088544Y-114601000D01*
X37923740Y-114601000D01*
X37856701Y-114581315D01*
X37836059Y-114564681D01*
X35073079Y-111801701D01*
X32555582Y-109284203D01*
X32555578Y-109284200D01*
X32408342Y-109185819D01*
X32408329Y-109185812D01*
X32244733Y-109118049D01*
X32244721Y-109118046D01*
X32071048Y-109083500D01*
X32071044Y-109083500D01*
X30791466Y-109083500D01*
X30724427Y-109063815D01*
X30711662Y-109053528D01*
X30640729Y-109006132D01*
X30640728Y-109006131D01*
X30582251Y-108994500D01*
X30582247Y-108994500D01*
X30109739Y-108994500D01*
X30042700Y-108974815D01*
X30022058Y-108958181D01*
X29746058Y-108682181D01*
X29712573Y-108620858D01*
X29717557Y-108551166D01*
X29759429Y-108495233D01*
X29824893Y-108470816D01*
X29833739Y-108470500D01*
X29872310Y-108470500D01*
X29872311Y-108470499D01*
X29935935Y-108457844D01*
X30063180Y-108432534D01*
X30063183Y-108432532D01*
X30063188Y-108432532D01*
X30242993Y-108358055D01*
X30404813Y-108249930D01*
X30542429Y-108112314D01*
X30650554Y-107950494D01*
X30725031Y-107770689D01*
X30762999Y-107579810D01*
X30762999Y-107385190D01*
X30762660Y-107383490D01*
X30725033Y-107194318D01*
X30725030Y-107194309D01*
X30650557Y-107014512D01*
X30650550Y-107014499D01*
X30542429Y-106852686D01*
X30542426Y-106852682D01*
X30404816Y-106715072D01*
X30404812Y-106715069D01*
X30242999Y-106606948D01*
X30242986Y-106606941D01*
X30063189Y-106532468D01*
X30063180Y-106532465D01*
X29872313Y-106494500D01*
X29872309Y-106494500D01*
X29677689Y-106494500D01*
X29677684Y-106494500D01*
X29486817Y-106532465D01*
X29486808Y-106532468D01*
X29307011Y-106606941D01*
X29306998Y-106606948D01*
X29179890Y-106691880D01*
X29113212Y-106712758D01*
X29045832Y-106694273D01*
X28999142Y-106642295D01*
X28986999Y-106588778D01*
X28986999Y-98768241D01*
X29006684Y-98701202D01*
X29023318Y-98680560D01*
X30147059Y-97556819D01*
X30208382Y-97523334D01*
X30234740Y-97520500D01*
X30707250Y-97520500D01*
X30707251Y-97520499D01*
X30722068Y-97517552D01*
X30765729Y-97508868D01*
X30765729Y-97508867D01*
X30765731Y-97508867D01*
X30832052Y-97464552D01*
X30832051Y-97464552D01*
X30842207Y-97457767D01*
X30843540Y-97459762D01*
X30890109Y-97434334D01*
X30916467Y-97431500D01*
X31608760Y-97431500D01*
X31675799Y-97451185D01*
X31696441Y-97467819D01*
X34426917Y-100198296D01*
X34426921Y-100198299D01*
X34574157Y-100296680D01*
X34574170Y-100296687D01*
X34737766Y-100364450D01*
X34737771Y-100364452D01*
X34911451Y-100398999D01*
X34911455Y-100399000D01*
X34911456Y-100399000D01*
X35088545Y-100399000D01*
X35088546Y-100398999D01*
X35262229Y-100364452D01*
X35425836Y-100296684D01*
X35573079Y-100198299D01*
X35698299Y-100073079D01*
X35796684Y-99925836D01*
X35864452Y-99762229D01*
X35899000Y-99588544D01*
X35899000Y-99411456D01*
X35864452Y-99237771D01*
X35840132Y-99179056D01*
X35796687Y-99074170D01*
X35796680Y-99074157D01*
X35698299Y-98926921D01*
X35698296Y-98926917D01*
X34692322Y-97920943D01*
X57099500Y-97920943D01*
X57099500Y-98079057D01*
X57100364Y-98082279D01*
X57140423Y-98231783D01*
X57140426Y-98231790D01*
X57219475Y-98368709D01*
X57219479Y-98368714D01*
X57219480Y-98368716D01*
X57331284Y-98480520D01*
X57331285Y-98480521D01*
X57331287Y-98480522D01*
X57342825Y-98487183D01*
X57391043Y-98537748D01*
X57404268Y-98606354D01*
X57378302Y-98671220D01*
X57368511Y-98682252D01*
X57319481Y-98731282D01*
X57319475Y-98731290D01*
X57240426Y-98868209D01*
X57240423Y-98868216D01*
X57199500Y-99020943D01*
X57199500Y-99179057D01*
X57215233Y-99237771D01*
X57240423Y-99331783D01*
X57240426Y-99331790D01*
X57319475Y-99468708D01*
X57319480Y-99468716D01*
X57319484Y-99468720D01*
X57323862Y-99474426D01*
X57349057Y-99539595D01*
X57335020Y-99608040D01*
X57313169Y-99637595D01*
X57219478Y-99731286D01*
X57219475Y-99731290D01*
X57140426Y-99868209D01*
X57140423Y-99868216D01*
X57099500Y-100020943D01*
X57099500Y-100179057D01*
X57110724Y-100220943D01*
X57140423Y-100331783D01*
X57140426Y-100331790D01*
X57219475Y-100468709D01*
X57219479Y-100468714D01*
X57219480Y-100468716D01*
X57331284Y-100580520D01*
X57331286Y-100580521D01*
X57331290Y-100580524D01*
X57468209Y-100659573D01*
X57468216Y-100659577D01*
X57620943Y-100700500D01*
X57659461Y-100700500D01*
X57702168Y-100708086D01*
X57712199Y-100711766D01*
X57726113Y-100719799D01*
X57750326Y-100726286D01*
X57755716Y-100727730D01*
X57755718Y-100727731D01*
X57776358Y-100733261D01*
X57840691Y-100750500D01*
X69450069Y-100750500D01*
X69517108Y-100770185D01*
X69525557Y-100776125D01*
X69531281Y-100780517D01*
X69531284Y-100780520D01*
X69531287Y-100780521D01*
X69531290Y-100780524D01*
X69668209Y-100859573D01*
X69668216Y-100859577D01*
X69820943Y-100900500D01*
X69820945Y-100900500D01*
X69979055Y-100900500D01*
X69979057Y-100900500D01*
X70131784Y-100859577D01*
X70268716Y-100780520D01*
X70380520Y-100668716D01*
X70459577Y-100531784D01*
X70500500Y-100379057D01*
X70500500Y-100220943D01*
X70459577Y-100068216D01*
X70420481Y-100000499D01*
X70380524Y-99931290D01*
X70380518Y-99931282D01*
X70268717Y-99819481D01*
X70268712Y-99819477D01*
X70203603Y-99781887D01*
X70155388Y-99731321D01*
X70142164Y-99662714D01*
X70168132Y-99597849D01*
X70225046Y-99557320D01*
X70265603Y-99550500D01*
X79023900Y-99550500D01*
X79090939Y-99570185D01*
X79136694Y-99622989D01*
X79138461Y-99627048D01*
X79140423Y-99631786D01*
X79219475Y-99768709D01*
X79219479Y-99768714D01*
X79219480Y-99768716D01*
X79331284Y-99880520D01*
X79331286Y-99880521D01*
X79331290Y-99880524D01*
X79419221Y-99931290D01*
X79468216Y-99959577D01*
X79620943Y-100000500D01*
X79620945Y-100000500D01*
X79779055Y-100000500D01*
X79779057Y-100000500D01*
X79931784Y-99959577D01*
X80068716Y-99880520D01*
X80180520Y-99768716D01*
X80259577Y-99631784D01*
X80300500Y-99479057D01*
X80300500Y-99320943D01*
X80259577Y-99168216D01*
X80238258Y-99131290D01*
X80180524Y-99031290D01*
X80180518Y-99031282D01*
X80068717Y-98919481D01*
X80068709Y-98919475D01*
X79931790Y-98840426D01*
X79931786Y-98840424D01*
X79931784Y-98840423D01*
X79779057Y-98799500D01*
X79779050Y-98799498D01*
X79771893Y-98798556D01*
X79718540Y-98778281D01*
X79708757Y-98771654D01*
X79676614Y-98739511D01*
X79573887Y-98680201D01*
X79573660Y-98680140D01*
X79569265Y-98677163D01*
X79549754Y-98653514D01*
X79528592Y-98631319D01*
X79527722Y-98626809D01*
X79524801Y-98623268D01*
X79521172Y-98592820D01*
X79515370Y-98562712D01*
X79517076Y-98558449D01*
X79516533Y-98553889D01*
X79529942Y-98526311D01*
X79541338Y-98497848D01*
X79545078Y-98495184D01*
X79547087Y-98491054D01*
X79573274Y-98475106D01*
X79598252Y-98457320D01*
X79604094Y-98456337D01*
X79606762Y-98454713D01*
X79612875Y-98454860D01*
X79638808Y-98450500D01*
X89196700Y-98450500D01*
X89263739Y-98470185D01*
X89309494Y-98522989D01*
X89316473Y-98542402D01*
X89340423Y-98631783D01*
X89340426Y-98631790D01*
X89419475Y-98768709D01*
X89419479Y-98768714D01*
X89419480Y-98768716D01*
X89531284Y-98880520D01*
X89531286Y-98880521D01*
X89531290Y-98880524D01*
X89635040Y-98940423D01*
X89668216Y-98959577D01*
X89820943Y-99000500D01*
X89820945Y-99000500D01*
X89979055Y-99000500D01*
X89979057Y-99000500D01*
X90131784Y-98959577D01*
X90268716Y-98880520D01*
X90380520Y-98768716D01*
X90459577Y-98631784D01*
X90500500Y-98479057D01*
X90500500Y-98320943D01*
X90459577Y-98168216D01*
X90401718Y-98068000D01*
X90380524Y-98031290D01*
X90380518Y-98031282D01*
X90268717Y-97919481D01*
X90268709Y-97919475D01*
X90131790Y-97840426D01*
X90131786Y-97840424D01*
X90131784Y-97840423D01*
X89979057Y-97799500D01*
X89979050Y-97799498D01*
X89971893Y-97798556D01*
X89907997Y-97770287D01*
X89900402Y-97763299D01*
X89776616Y-97639513D01*
X89776614Y-97639511D01*
X89676806Y-97581886D01*
X89628592Y-97531319D01*
X89615370Y-97462712D01*
X89641338Y-97397848D01*
X89698252Y-97357320D01*
X89738808Y-97350500D01*
X93762035Y-97350500D01*
X93829074Y-97370185D01*
X93849716Y-97386819D01*
X98363299Y-101900402D01*
X98396784Y-101961725D01*
X98398556Y-101971893D01*
X98399498Y-101979050D01*
X98440423Y-102131783D01*
X98440426Y-102131790D01*
X98519475Y-102268709D01*
X98519479Y-102268714D01*
X98519480Y-102268716D01*
X98631284Y-102380520D01*
X98631286Y-102380521D01*
X98631290Y-102380524D01*
X98768209Y-102459573D01*
X98768216Y-102459577D01*
X98920943Y-102500500D01*
X98920945Y-102500500D01*
X99079055Y-102500500D01*
X99079057Y-102500500D01*
X99231784Y-102459577D01*
X99368716Y-102380520D01*
X99480520Y-102268716D01*
X99559577Y-102131784D01*
X99600500Y-101979057D01*
X99600500Y-101820943D01*
X99559577Y-101668216D01*
X99559573Y-101668209D01*
X99480524Y-101531290D01*
X99480518Y-101531282D01*
X99368717Y-101419481D01*
X99368709Y-101419475D01*
X99231790Y-101340426D01*
X99231786Y-101340424D01*
X99231784Y-101340423D01*
X99079057Y-101299500D01*
X99079050Y-101299498D01*
X99071893Y-101298556D01*
X99007997Y-101270287D01*
X99000403Y-101263299D01*
X97237601Y-99500497D01*
X97158047Y-99420943D01*
X110399500Y-99420943D01*
X110399500Y-99579057D01*
X110438712Y-99725396D01*
X110440423Y-99731783D01*
X110440426Y-99731790D01*
X110519475Y-99868709D01*
X110519479Y-99868714D01*
X110519480Y-99868716D01*
X110631284Y-99980520D01*
X110631286Y-99980521D01*
X110631290Y-99980524D01*
X110701299Y-100020943D01*
X110768216Y-100059577D01*
X110920943Y-100100500D01*
X110920945Y-100100500D01*
X111079055Y-100100500D01*
X111079057Y-100100500D01*
X111231784Y-100059577D01*
X111368716Y-99980520D01*
X111368721Y-99980514D01*
X111374443Y-99976125D01*
X111439612Y-99950930D01*
X111449931Y-99950500D01*
X113169069Y-99950500D01*
X113236108Y-99970185D01*
X113244557Y-99976125D01*
X113250281Y-99980517D01*
X113250284Y-99980520D01*
X113250287Y-99980521D01*
X113250290Y-99980524D01*
X113320299Y-100020943D01*
X113387216Y-100059577D01*
X113539943Y-100100500D01*
X113539945Y-100100500D01*
X113698055Y-100100500D01*
X113698057Y-100100500D01*
X113850784Y-100059577D01*
X113987716Y-99980520D01*
X114099520Y-99868716D01*
X114178577Y-99731784D01*
X114219500Y-99579057D01*
X114219500Y-99420943D01*
X114178577Y-99268216D01*
X114120843Y-99168216D01*
X114099524Y-99131290D01*
X114099518Y-99131282D01*
X113987717Y-99019481D01*
X113987709Y-99019475D01*
X113850790Y-98940426D01*
X113850786Y-98940424D01*
X113850784Y-98940423D01*
X113698057Y-98899500D01*
X113539943Y-98899500D01*
X113387216Y-98940423D01*
X113387209Y-98940426D01*
X113250290Y-99019475D01*
X113244557Y-99023875D01*
X113179388Y-99049070D01*
X113169069Y-99049500D01*
X111449931Y-99049500D01*
X111382892Y-99029815D01*
X111374443Y-99023875D01*
X111368709Y-99019475D01*
X111231790Y-98940426D01*
X111231786Y-98940424D01*
X111231784Y-98940423D01*
X111079057Y-98899500D01*
X110920943Y-98899500D01*
X110768216Y-98940423D01*
X110768209Y-98940426D01*
X110631290Y-99019475D01*
X110631282Y-99019481D01*
X110519481Y-99131282D01*
X110519475Y-99131290D01*
X110440426Y-99268209D01*
X110440423Y-99268216D01*
X110399500Y-99420943D01*
X97158047Y-99420943D01*
X95321382Y-97584279D01*
X95239788Y-97502685D01*
X119812000Y-97502685D01*
X119812000Y-97697314D01*
X119849965Y-97888181D01*
X119849968Y-97888190D01*
X119924441Y-98067987D01*
X119924448Y-98068000D01*
X120032569Y-98229813D01*
X120032572Y-98229817D01*
X120170182Y-98367427D01*
X120170186Y-98367430D01*
X120331999Y-98475551D01*
X120332012Y-98475558D01*
X120466859Y-98531412D01*
X120511811Y-98550032D01*
X120511813Y-98550032D01*
X120511818Y-98550034D01*
X120702685Y-98587999D01*
X120702689Y-98588000D01*
X120702690Y-98588000D01*
X120897311Y-98588000D01*
X120897312Y-98587999D01*
X120978723Y-98571806D01*
X121088181Y-98550034D01*
X121088184Y-98550032D01*
X121088189Y-98550032D01*
X121241650Y-98486466D01*
X121267987Y-98475558D01*
X121267987Y-98475557D01*
X121267994Y-98475555D01*
X121429814Y-98367430D01*
X121567430Y-98229814D01*
X121675555Y-98067994D01*
X121750032Y-97888189D01*
X121788000Y-97697310D01*
X121788000Y-97502690D01*
X121777273Y-97448761D01*
X121750034Y-97311818D01*
X121750031Y-97311809D01*
X121675558Y-97132012D01*
X121675551Y-97131999D01*
X121567430Y-96970186D01*
X121567427Y-96970182D01*
X121429817Y-96832572D01*
X121429813Y-96832569D01*
X121268000Y-96724448D01*
X121267987Y-96724441D01*
X121088190Y-96649968D01*
X121088181Y-96649965D01*
X120897314Y-96612000D01*
X120897310Y-96612000D01*
X120702690Y-96612000D01*
X120702685Y-96612000D01*
X120511818Y-96649965D01*
X120511809Y-96649968D01*
X120332012Y-96724441D01*
X120331999Y-96724448D01*
X120170186Y-96832569D01*
X120170182Y-96832572D01*
X120032572Y-96970182D01*
X120032569Y-96970186D01*
X119924448Y-97131999D01*
X119924441Y-97132012D01*
X119849968Y-97311809D01*
X119849965Y-97311818D01*
X119812000Y-97502685D01*
X95239788Y-97502685D01*
X94399284Y-96662181D01*
X94365799Y-96600858D01*
X94370783Y-96531166D01*
X94412655Y-96475233D01*
X94478119Y-96450816D01*
X94486965Y-96450500D01*
X100350069Y-96450500D01*
X100417108Y-96470185D01*
X100425557Y-96476125D01*
X100431281Y-96480517D01*
X100431284Y-96480520D01*
X100431287Y-96480521D01*
X100431290Y-96480524D01*
X100533460Y-96539511D01*
X100568216Y-96559577D01*
X100720943Y-96600500D01*
X100720945Y-96600500D01*
X100879055Y-96600500D01*
X100879057Y-96600500D01*
X101031784Y-96559577D01*
X101168716Y-96480520D01*
X101280520Y-96368716D01*
X101359577Y-96231784D01*
X101400500Y-96079057D01*
X101400500Y-95920943D01*
X101359577Y-95768216D01*
X101340869Y-95735812D01*
X101280524Y-95631290D01*
X101280518Y-95631282D01*
X101168717Y-95519481D01*
X101168709Y-95519475D01*
X101031790Y-95440426D01*
X101031786Y-95440424D01*
X101031784Y-95440423D01*
X100879057Y-95399500D01*
X100720943Y-95399500D01*
X100568216Y-95440423D01*
X100568209Y-95440426D01*
X100431290Y-95519475D01*
X100425557Y-95523875D01*
X100360388Y-95549070D01*
X100350069Y-95549500D01*
X64549931Y-95549500D01*
X64482892Y-95529815D01*
X64474443Y-95523875D01*
X64468709Y-95519475D01*
X64331790Y-95440426D01*
X64331786Y-95440424D01*
X64331784Y-95440423D01*
X64179057Y-95399500D01*
X64020943Y-95399500D01*
X63868216Y-95440423D01*
X63868209Y-95440426D01*
X63731290Y-95519475D01*
X63731282Y-95519481D01*
X63619481Y-95631282D01*
X63619475Y-95631290D01*
X63540426Y-95768209D01*
X63540423Y-95768216D01*
X63499500Y-95920943D01*
X63499500Y-96079057D01*
X63501897Y-96088000D01*
X63540423Y-96231783D01*
X63540424Y-96231786D01*
X63558734Y-96263500D01*
X63575207Y-96331401D01*
X63552354Y-96397427D01*
X63497433Y-96440618D01*
X63451347Y-96449500D01*
X58249931Y-96449500D01*
X58182892Y-96429815D01*
X58174443Y-96423875D01*
X58168709Y-96419475D01*
X58031790Y-96340426D01*
X58031786Y-96340424D01*
X58031784Y-96340423D01*
X57879057Y-96299500D01*
X57720943Y-96299500D01*
X57568216Y-96340423D01*
X57568209Y-96340426D01*
X57431290Y-96419475D01*
X57431282Y-96419481D01*
X57319481Y-96531282D01*
X57319475Y-96531290D01*
X57240426Y-96668209D01*
X57240423Y-96668216D01*
X57199500Y-96820943D01*
X57199500Y-96979056D01*
X57240423Y-97131783D01*
X57240426Y-97131790D01*
X57319475Y-97268709D01*
X57319481Y-97268717D01*
X57368510Y-97317746D01*
X57401995Y-97379069D01*
X57397011Y-97448761D01*
X57355139Y-97504694D01*
X57342829Y-97512814D01*
X57331287Y-97519477D01*
X57331282Y-97519481D01*
X57219481Y-97631282D01*
X57219475Y-97631290D01*
X57140426Y-97768209D01*
X57140423Y-97768216D01*
X57099500Y-97920943D01*
X34692322Y-97920943D01*
X32605582Y-95834203D01*
X32605578Y-95834200D01*
X32458342Y-95735819D01*
X32458329Y-95735812D01*
X32294733Y-95668049D01*
X32294721Y-95668046D01*
X32121048Y-95633500D01*
X32121044Y-95633500D01*
X30916467Y-95633500D01*
X30849428Y-95613815D01*
X30836663Y-95603528D01*
X30765730Y-95556132D01*
X30765729Y-95556131D01*
X30707252Y-95544500D01*
X30707248Y-95544500D01*
X30234740Y-95544500D01*
X30167701Y-95524815D01*
X30147059Y-95508181D01*
X29871059Y-95232181D01*
X29837574Y-95170858D01*
X29842558Y-95101166D01*
X29884430Y-95045233D01*
X29949894Y-95020816D01*
X29958740Y-95020500D01*
X29997311Y-95020500D01*
X29997312Y-95020499D01*
X30060936Y-95007844D01*
X30188181Y-94982534D01*
X30188184Y-94982532D01*
X30188189Y-94982532D01*
X30367994Y-94908055D01*
X30529814Y-94799930D01*
X30667430Y-94662314D01*
X30775555Y-94500494D01*
X30850032Y-94320689D01*
X30888000Y-94129810D01*
X30888000Y-93935190D01*
X30887661Y-93933490D01*
X30850034Y-93744318D01*
X30850031Y-93744309D01*
X30775558Y-93564512D01*
X30775551Y-93564499D01*
X30667430Y-93402686D01*
X30667427Y-93402682D01*
X30529817Y-93265072D01*
X30529813Y-93265069D01*
X30368000Y-93156948D01*
X30367987Y-93156941D01*
X30188190Y-93082468D01*
X30188181Y-93082465D01*
X29997314Y-93044500D01*
X29997310Y-93044500D01*
X29802690Y-93044500D01*
X29802685Y-93044500D01*
X29611818Y-93082465D01*
X29611809Y-93082468D01*
X29432012Y-93156941D01*
X29431999Y-93156948D01*
X29304891Y-93241880D01*
X29238213Y-93262758D01*
X29170833Y-93244273D01*
X29124143Y-93192295D01*
X29112000Y-93138778D01*
X29112000Y-86160738D01*
X29131685Y-86093699D01*
X29148319Y-86073057D01*
X30097057Y-85124319D01*
X30158380Y-85090834D01*
X30184738Y-85088000D01*
X30657248Y-85088000D01*
X30657249Y-85087999D01*
X30672066Y-85085052D01*
X30715727Y-85076368D01*
X30715727Y-85076367D01*
X30715729Y-85076367D01*
X30782050Y-85032052D01*
X30782049Y-85032052D01*
X30792205Y-85025267D01*
X30793538Y-85027262D01*
X30840107Y-85001834D01*
X30866465Y-84999000D01*
X32176260Y-84999000D01*
X32243299Y-85018685D01*
X32263941Y-85035319D01*
X34426917Y-87198296D01*
X34426920Y-87198299D01*
X34451176Y-87214506D01*
X34574164Y-87296684D01*
X34737771Y-87364453D01*
X34911451Y-87398999D01*
X34911455Y-87399000D01*
X34911456Y-87399000D01*
X35088545Y-87399000D01*
X35088546Y-87398999D01*
X35262229Y-87364453D01*
X35425836Y-87296684D01*
X35573079Y-87198299D01*
X35698299Y-87073079D01*
X35796684Y-86925836D01*
X35864453Y-86762229D01*
X35899000Y-86588544D01*
X35899000Y-86420943D01*
X64699500Y-86420943D01*
X64699500Y-86579057D01*
X64739968Y-86730084D01*
X64740423Y-86731783D01*
X64740426Y-86731790D01*
X64819475Y-86868709D01*
X64819479Y-86868714D01*
X64819480Y-86868716D01*
X64931284Y-86980520D01*
X64931286Y-86980521D01*
X64931290Y-86980524D01*
X65052494Y-87050500D01*
X65068216Y-87059577D01*
X65220943Y-87100500D01*
X65220945Y-87100500D01*
X65379055Y-87100500D01*
X65379057Y-87100500D01*
X65531784Y-87059577D01*
X65531785Y-87059576D01*
X65539635Y-87057473D01*
X65539820Y-87058165D01*
X65578363Y-87050500D01*
X99950069Y-87050500D01*
X100017108Y-87070185D01*
X100025557Y-87076125D01*
X100031281Y-87080517D01*
X100031284Y-87080520D01*
X100031287Y-87080521D01*
X100031290Y-87080524D01*
X100168209Y-87159573D01*
X100168216Y-87159577D01*
X100320943Y-87200500D01*
X100320945Y-87200500D01*
X100479055Y-87200500D01*
X100479057Y-87200500D01*
X100631784Y-87159577D01*
X100768716Y-87080520D01*
X100880520Y-86968716D01*
X100959577Y-86831784D01*
X101000500Y-86679057D01*
X101000500Y-86520943D01*
X100959577Y-86368216D01*
X100901843Y-86268216D01*
X100880524Y-86231290D01*
X100880518Y-86231282D01*
X100768717Y-86119481D01*
X100768709Y-86119475D01*
X100631790Y-86040426D01*
X100631786Y-86040424D01*
X100631784Y-86040423D01*
X100479057Y-85999500D01*
X100320943Y-85999500D01*
X100168216Y-86040423D01*
X100168209Y-86040426D01*
X100031290Y-86119475D01*
X100025557Y-86123875D01*
X99960388Y-86149070D01*
X99950069Y-86149500D01*
X65850098Y-86149500D01*
X65783059Y-86129815D01*
X65762417Y-86113181D01*
X65668717Y-86019481D01*
X65668709Y-86019475D01*
X65531790Y-85940426D01*
X65531786Y-85940424D01*
X65531784Y-85940423D01*
X65379057Y-85899500D01*
X65220943Y-85899500D01*
X65068216Y-85940423D01*
X65068209Y-85940426D01*
X64931290Y-86019475D01*
X64931282Y-86019481D01*
X64819481Y-86131282D01*
X64819475Y-86131290D01*
X64740426Y-86268209D01*
X64740423Y-86268216D01*
X64699500Y-86420943D01*
X35899000Y-86420943D01*
X35899000Y-86411456D01*
X35864453Y-86237771D01*
X35796684Y-86074164D01*
X35733220Y-85979184D01*
X35698299Y-85926920D01*
X33173082Y-83401703D01*
X33173078Y-83401700D01*
X33025842Y-83303319D01*
X33025829Y-83303312D01*
X32862233Y-83235549D01*
X32862221Y-83235546D01*
X32688548Y-83201000D01*
X32688544Y-83201000D01*
X30866465Y-83201000D01*
X30799426Y-83181315D01*
X30786661Y-83171028D01*
X30715728Y-83123632D01*
X30715727Y-83123631D01*
X30657250Y-83112000D01*
X30657246Y-83112000D01*
X30184738Y-83112000D01*
X30117699Y-83092315D01*
X30097057Y-83075681D01*
X29821057Y-82799681D01*
X29787572Y-82738358D01*
X29792556Y-82668666D01*
X29834428Y-82612733D01*
X29899892Y-82588316D01*
X29908738Y-82588000D01*
X29947309Y-82588000D01*
X29947310Y-82587999D01*
X30010934Y-82575344D01*
X30138179Y-82550034D01*
X30138182Y-82550032D01*
X30138187Y-82550032D01*
X30317992Y-82475555D01*
X30479812Y-82367430D01*
X30617428Y-82229814D01*
X30725553Y-82067994D01*
X30800030Y-81888189D01*
X30805722Y-81859577D01*
X30837997Y-81697314D01*
X30837998Y-81697311D01*
X30837998Y-81502689D01*
X30837997Y-81502685D01*
X30800032Y-81311818D01*
X30800029Y-81311809D01*
X30725556Y-81132012D01*
X30725549Y-81131999D01*
X30617428Y-80970186D01*
X30617425Y-80970182D01*
X30479815Y-80832572D01*
X30479811Y-80832569D01*
X30462412Y-80820943D01*
X79499500Y-80820943D01*
X79499500Y-80979056D01*
X79540423Y-81131783D01*
X79540426Y-81131790D01*
X79619475Y-81268709D01*
X79619479Y-81268714D01*
X79619480Y-81268716D01*
X79731284Y-81380520D01*
X79731286Y-81380521D01*
X79731290Y-81380524D01*
X79804843Y-81422989D01*
X79868216Y-81459577D01*
X80020943Y-81500500D01*
X80020945Y-81500500D01*
X80179055Y-81500500D01*
X80179057Y-81500500D01*
X80331784Y-81459577D01*
X80468716Y-81380520D01*
X80468721Y-81380514D01*
X80474443Y-81376125D01*
X80539612Y-81350930D01*
X80549931Y-81350500D01*
X82396700Y-81350500D01*
X82463739Y-81370185D01*
X82509494Y-81422989D01*
X82516473Y-81442402D01*
X82540423Y-81531783D01*
X82540426Y-81531790D01*
X82619475Y-81668709D01*
X82619479Y-81668714D01*
X82619480Y-81668716D01*
X82731284Y-81780520D01*
X82731286Y-81780521D01*
X82731290Y-81780524D01*
X82868209Y-81859573D01*
X82868216Y-81859577D01*
X83020943Y-81900500D01*
X83020945Y-81900500D01*
X83179055Y-81900500D01*
X83179057Y-81900500D01*
X83331784Y-81859577D01*
X83468716Y-81780520D01*
X83580520Y-81668716D01*
X83659577Y-81531784D01*
X83700500Y-81379057D01*
X83700500Y-81220943D01*
X83659577Y-81068216D01*
X83659573Y-81068209D01*
X83580524Y-80931290D01*
X83580518Y-80931282D01*
X83468717Y-80819481D01*
X83468709Y-80819475D01*
X83331790Y-80740426D01*
X83331786Y-80740424D01*
X83331784Y-80740423D01*
X83179057Y-80699500D01*
X83179050Y-80699498D01*
X83171893Y-80698556D01*
X83107997Y-80670287D01*
X83100402Y-80663299D01*
X82976616Y-80539513D01*
X82976614Y-80539511D01*
X82925250Y-80509856D01*
X82873888Y-80480201D01*
X82861780Y-80476957D01*
X82849673Y-80473713D01*
X82849670Y-80473712D01*
X82811478Y-80463478D01*
X82759309Y-80449500D01*
X82759308Y-80449500D01*
X80549931Y-80449500D01*
X80482892Y-80429815D01*
X80474443Y-80423875D01*
X80468709Y-80419475D01*
X80331790Y-80340426D01*
X80331786Y-80340424D01*
X80331784Y-80340423D01*
X80179057Y-80299500D01*
X80020943Y-80299500D01*
X79868216Y-80340423D01*
X79868209Y-80340426D01*
X79731290Y-80419475D01*
X79731282Y-80419481D01*
X79619481Y-80531282D01*
X79619475Y-80531290D01*
X79540426Y-80668209D01*
X79540423Y-80668216D01*
X79499500Y-80820943D01*
X30462412Y-80820943D01*
X30317998Y-80724448D01*
X30317985Y-80724441D01*
X30138188Y-80649968D01*
X30138179Y-80649965D01*
X29947312Y-80612000D01*
X29947308Y-80612000D01*
X29752688Y-80612000D01*
X29752683Y-80612000D01*
X29561816Y-80649965D01*
X29561807Y-80649968D01*
X29382010Y-80724441D01*
X29381997Y-80724448D01*
X29254889Y-80809380D01*
X29188211Y-80830258D01*
X29120831Y-80811773D01*
X29074141Y-80759795D01*
X29061998Y-80706278D01*
X29061998Y-78220943D01*
X80349500Y-78220943D01*
X80349500Y-78379056D01*
X80390423Y-78531783D01*
X80390426Y-78531790D01*
X80469475Y-78668709D01*
X80469479Y-78668714D01*
X80469480Y-78668716D01*
X80581284Y-78780520D01*
X80581286Y-78780521D01*
X80581290Y-78780524D01*
X80670080Y-78831786D01*
X80718216Y-78859577D01*
X80870943Y-78900500D01*
X80870945Y-78900500D01*
X81029055Y-78900500D01*
X81029057Y-78900500D01*
X81181784Y-78859577D01*
X81318716Y-78780520D01*
X81318721Y-78780514D01*
X81324443Y-78776125D01*
X81389612Y-78750930D01*
X81399931Y-78750500D01*
X82423900Y-78750500D01*
X82490939Y-78770185D01*
X82536694Y-78822989D01*
X82538461Y-78827048D01*
X82540423Y-78831786D01*
X82619475Y-78968709D01*
X82619479Y-78968714D01*
X82619480Y-78968716D01*
X82731284Y-79080520D01*
X82731286Y-79080521D01*
X82731290Y-79080524D01*
X82868209Y-79159573D01*
X82868216Y-79159577D01*
X83020943Y-79200500D01*
X83020945Y-79200500D01*
X83179055Y-79200500D01*
X83179057Y-79200500D01*
X83331784Y-79159577D01*
X83468716Y-79080520D01*
X83580520Y-78968716D01*
X83659577Y-78831784D01*
X83700500Y-78679057D01*
X83700500Y-78520943D01*
X83659577Y-78368216D01*
X83656417Y-78362742D01*
X83580524Y-78231290D01*
X83580518Y-78231282D01*
X83468717Y-78119481D01*
X83468709Y-78119475D01*
X83331790Y-78040426D01*
X83331786Y-78040424D01*
X83331784Y-78040423D01*
X83179057Y-77999500D01*
X83179050Y-77999498D01*
X83171893Y-77998556D01*
X83125091Y-77982426D01*
X83111532Y-77974429D01*
X83076614Y-77939511D01*
X82973887Y-77880201D01*
X82949673Y-77873713D01*
X82933339Y-77869336D01*
X82893582Y-77858683D01*
X82859309Y-77849500D01*
X82859308Y-77849500D01*
X81399931Y-77849500D01*
X81332892Y-77829815D01*
X81324443Y-77823875D01*
X81318709Y-77819475D01*
X81181790Y-77740426D01*
X81181786Y-77740424D01*
X81181784Y-77740423D01*
X81029057Y-77699500D01*
X80870943Y-77699500D01*
X80718216Y-77740423D01*
X80718209Y-77740426D01*
X80581290Y-77819475D01*
X80581282Y-77819481D01*
X80469481Y-77931282D01*
X80469475Y-77931290D01*
X80390426Y-78068209D01*
X80390423Y-78068216D01*
X80349500Y-78220943D01*
X29061998Y-78220943D01*
X29061998Y-73491242D01*
X29081683Y-73424203D01*
X29098317Y-73403561D01*
X30008559Y-72493319D01*
X30069882Y-72459834D01*
X30096240Y-72457000D01*
X31121750Y-72457000D01*
X31121751Y-72456999D01*
X31136568Y-72454052D01*
X31180229Y-72445368D01*
X31180229Y-72445367D01*
X31180231Y-72445367D01*
X31246552Y-72401052D01*
X31290867Y-72334731D01*
X31290867Y-72334729D01*
X31290868Y-72334729D01*
X31301941Y-72279056D01*
X31302500Y-72276248D01*
X31302500Y-72215500D01*
X31322185Y-72148461D01*
X31374989Y-72102706D01*
X31426500Y-72091500D01*
X35396045Y-72091500D01*
X35396046Y-72091499D01*
X35569729Y-72056952D01*
X35733336Y-71989184D01*
X35880579Y-71890799D01*
X36198299Y-71573079D01*
X36296684Y-71425836D01*
X36364452Y-71262229D01*
X36399000Y-71088544D01*
X36399000Y-70911456D01*
X36364452Y-70737771D01*
X36348600Y-70699500D01*
X36296687Y-70574170D01*
X36296680Y-70574157D01*
X36198299Y-70426921D01*
X36198296Y-70426917D01*
X36073082Y-70301703D01*
X36073078Y-70301700D01*
X35925842Y-70203319D01*
X35925829Y-70203312D01*
X35762233Y-70135549D01*
X35762221Y-70135546D01*
X35588548Y-70101000D01*
X35588544Y-70101000D01*
X35411456Y-70101000D01*
X35411451Y-70101000D01*
X35237778Y-70135546D01*
X35237766Y-70135549D01*
X35074168Y-70203313D01*
X35074166Y-70203314D01*
X34970471Y-70272602D01*
X34903793Y-70293480D01*
X34901580Y-70293500D01*
X31426500Y-70293500D01*
X31359461Y-70273815D01*
X31313706Y-70221011D01*
X31302500Y-70169500D01*
X31302500Y-70108749D01*
X31302499Y-70108747D01*
X31290868Y-70050270D01*
X31290867Y-70050269D01*
X31246552Y-69983947D01*
X31180230Y-69939632D01*
X31180229Y-69939631D01*
X31121752Y-69928000D01*
X31121748Y-69928000D01*
X28954252Y-69928000D01*
X28954247Y-69928000D01*
X28895770Y-69939631D01*
X28895769Y-69939632D01*
X28829447Y-69983947D01*
X28785132Y-70050269D01*
X28785131Y-70050270D01*
X28773500Y-70108747D01*
X28773500Y-71134260D01*
X28753815Y-71201299D01*
X28737181Y-71221941D01*
X27589919Y-72369203D01*
X27558070Y-72401052D01*
X27464697Y-72494424D01*
X27366317Y-72641659D01*
X27366310Y-72641672D01*
X27298547Y-72805268D01*
X27298544Y-72805280D01*
X27263998Y-72978953D01*
X27263998Y-82501548D01*
X27298544Y-82675221D01*
X27298547Y-82675233D01*
X27366310Y-82838829D01*
X27366317Y-82838842D01*
X27464698Y-82986078D01*
X27464701Y-82986082D01*
X28490938Y-84012319D01*
X28524423Y-84073642D01*
X28519439Y-84143334D01*
X28490938Y-84187681D01*
X27940854Y-84737766D01*
X27639921Y-85038699D01*
X27602253Y-85076367D01*
X27514699Y-85163920D01*
X27416319Y-85311155D01*
X27416312Y-85311168D01*
X27348549Y-85474764D01*
X27348546Y-85474776D01*
X27314000Y-85648449D01*
X27314000Y-94934048D01*
X27348546Y-95107721D01*
X27348549Y-95107733D01*
X27416312Y-95271329D01*
X27416319Y-95271342D01*
X27514700Y-95418578D01*
X27514703Y-95418582D01*
X28540940Y-96444819D01*
X28574425Y-96506142D01*
X28569441Y-96575834D01*
X28540940Y-96620181D01*
X27892413Y-97268709D01*
X27514920Y-97646202D01*
X27463812Y-97697310D01*
X27389698Y-97771423D01*
X27291318Y-97918658D01*
X27291311Y-97918671D01*
X27223548Y-98082267D01*
X27223545Y-98082279D01*
X27188999Y-98255952D01*
X25300500Y-98255952D01*
X25300500Y-69920943D01*
X37899500Y-69920943D01*
X37899500Y-70079057D01*
X37937537Y-70221011D01*
X37940423Y-70231783D01*
X37940426Y-70231790D01*
X38019475Y-70368709D01*
X38019479Y-70368714D01*
X38019480Y-70368716D01*
X38131284Y-70480520D01*
X38131286Y-70480521D01*
X38131290Y-70480524D01*
X38268209Y-70559573D01*
X38268216Y-70559577D01*
X38420943Y-70600500D01*
X38420945Y-70600500D01*
X38579054Y-70600500D01*
X38579057Y-70600500D01*
X38585987Y-70598643D01*
X38655833Y-70600302D01*
X38705764Y-70630735D01*
X40459540Y-72384511D01*
X40515489Y-72440460D01*
X40515491Y-72440461D01*
X40515495Y-72440464D01*
X40576180Y-72475500D01*
X40584011Y-72480021D01*
X40660438Y-72500500D01*
X40739562Y-72500500D01*
X46008504Y-72500500D01*
X46075543Y-72520185D01*
X46115891Y-72562500D01*
X46119480Y-72568716D01*
X46231284Y-72680520D01*
X46231286Y-72680521D01*
X46231290Y-72680524D01*
X46368209Y-72759573D01*
X46368216Y-72759577D01*
X46520943Y-72800500D01*
X46520945Y-72800500D01*
X46679055Y-72800500D01*
X46679057Y-72800500D01*
X46831784Y-72759577D01*
X46968716Y-72680520D01*
X47080520Y-72568716D01*
X47159577Y-72431784D01*
X47200500Y-72279057D01*
X47200500Y-72120943D01*
X47159577Y-71968216D01*
X47159573Y-71968209D01*
X47080524Y-71831290D01*
X47080518Y-71831282D01*
X46968717Y-71719481D01*
X46968709Y-71719475D01*
X46831790Y-71640426D01*
X46831786Y-71640424D01*
X46831784Y-71640423D01*
X46679057Y-71599500D01*
X46520943Y-71599500D01*
X46368216Y-71640423D01*
X46368209Y-71640426D01*
X46231290Y-71719475D01*
X46231282Y-71719481D01*
X46119479Y-71831284D01*
X46115892Y-71837499D01*
X46065325Y-71885715D01*
X46008504Y-71899500D01*
X40875833Y-71899500D01*
X40808794Y-71879815D01*
X40788152Y-71863181D01*
X39130735Y-70205764D01*
X39097250Y-70144441D01*
X39098642Y-70085987D01*
X39100500Y-70079057D01*
X39100500Y-69920943D01*
X39059577Y-69768216D01*
X39019904Y-69699500D01*
X38980524Y-69631290D01*
X38980518Y-69631282D01*
X38868717Y-69519481D01*
X38868709Y-69519475D01*
X38731790Y-69440426D01*
X38731786Y-69440424D01*
X38731784Y-69440423D01*
X38579057Y-69399500D01*
X38420943Y-69399500D01*
X38268216Y-69440423D01*
X38268209Y-69440426D01*
X38131290Y-69519475D01*
X38131282Y-69519481D01*
X38019481Y-69631282D01*
X38019475Y-69631290D01*
X37940426Y-69768209D01*
X37940423Y-69768216D01*
X37899500Y-69920943D01*
X25300500Y-69920943D01*
X25300500Y-67109411D01*
X28474000Y-67109411D01*
X28474000Y-67355588D01*
X28512511Y-67598737D01*
X28588587Y-67832872D01*
X28700347Y-68052215D01*
X28769521Y-68147423D01*
X28769522Y-68147424D01*
X29255453Y-67661492D01*
X29347469Y-67799204D01*
X29471296Y-67923031D01*
X29609006Y-68015046D01*
X29123074Y-68500977D01*
X29218284Y-68570152D01*
X29437627Y-68681912D01*
X29671762Y-68757988D01*
X29914912Y-68796500D01*
X30161088Y-68796500D01*
X30404237Y-68757988D01*
X30638372Y-68681912D01*
X30857715Y-68570152D01*
X30952923Y-68500977D01*
X30466992Y-68015046D01*
X30604704Y-67923031D01*
X30728531Y-67799204D01*
X30820546Y-67661492D01*
X31306477Y-68147423D01*
X31375652Y-68052215D01*
X31487412Y-67832872D01*
X31563488Y-67598737D01*
X31602000Y-67355588D01*
X31602000Y-67109411D01*
X31563488Y-66866262D01*
X31487412Y-66632127D01*
X31375652Y-66412784D01*
X31306477Y-66317575D01*
X31306477Y-66317574D01*
X30820545Y-66803506D01*
X30728531Y-66665796D01*
X30604704Y-66541969D01*
X30466992Y-66449953D01*
X30952924Y-65964022D01*
X30952923Y-65964021D01*
X30857715Y-65894847D01*
X30638372Y-65783087D01*
X30404237Y-65707011D01*
X30161088Y-65668500D01*
X29914912Y-65668500D01*
X29671762Y-65707011D01*
X29437627Y-65783087D01*
X29218280Y-65894849D01*
X29123075Y-65964019D01*
X29123074Y-65964021D01*
X29609007Y-66449953D01*
X29471296Y-66541969D01*
X29347469Y-66665796D01*
X29255453Y-66803506D01*
X28769521Y-66317574D01*
X28769519Y-66317575D01*
X28700349Y-66412780D01*
X28588587Y-66632127D01*
X28512511Y-66866262D01*
X28474000Y-67109411D01*
X25300500Y-67109411D01*
X25300500Y-59430247D01*
X39909501Y-59430247D01*
X39909501Y-61169752D01*
X39921132Y-61228229D01*
X39921133Y-61228230D01*
X39965448Y-61294552D01*
X40031770Y-61338867D01*
X40031771Y-61338868D01*
X40090248Y-61350499D01*
X40090251Y-61350500D01*
X40090253Y-61350500D01*
X41829751Y-61350500D01*
X41829752Y-61350499D01*
X41844569Y-61347552D01*
X41888230Y-61338868D01*
X41888230Y-61338867D01*
X41888232Y-61338867D01*
X41954553Y-61294552D01*
X41998868Y-61228231D01*
X41998868Y-61228229D01*
X41998869Y-61228229D01*
X42010500Y-61169752D01*
X42010501Y-61169750D01*
X42010501Y-60196530D01*
X42449501Y-60196530D01*
X42449501Y-60403469D01*
X42489869Y-60606412D01*
X42489871Y-60606420D01*
X42569059Y-60797596D01*
X42684025Y-60969657D01*
X42830343Y-61115975D01*
X42830346Y-61115977D01*
X43002403Y-61230941D01*
X43193581Y-61310130D01*
X43338053Y-61338867D01*
X43396531Y-61350499D01*
X43396535Y-61350500D01*
X43396536Y-61350500D01*
X43603467Y-61350500D01*
X43603468Y-61350499D01*
X43806421Y-61310130D01*
X43997599Y-61230941D01*
X44169656Y-61115977D01*
X44315978Y-60969655D01*
X44430942Y-60797598D01*
X44440142Y-60775389D01*
X44499165Y-60632893D01*
X44543006Y-60578489D01*
X44609300Y-60556424D01*
X44676999Y-60573703D01*
X44724610Y-60624840D01*
X44731657Y-60642027D01*
X44788904Y-60818217D01*
X44885375Y-61007550D01*
X44924728Y-61061716D01*
X45557037Y-60429408D01*
X45574075Y-60492993D01*
X45639901Y-60607007D01*
X45732993Y-60700099D01*
X45847007Y-60765925D01*
X45910590Y-60782962D01*
X45278282Y-61415269D01*
X45278282Y-61415270D01*
X45332449Y-61454624D01*
X45521782Y-61551095D01*
X45723870Y-61616757D01*
X45933754Y-61650000D01*
X46146246Y-61650000D01*
X46356127Y-61616757D01*
X46356130Y-61616757D01*
X46558217Y-61551095D01*
X46747554Y-61454622D01*
X46801716Y-61415270D01*
X46801717Y-61415270D01*
X46169408Y-60782962D01*
X46232993Y-60765925D01*
X46347007Y-60700099D01*
X46440099Y-60607007D01*
X46505925Y-60492993D01*
X46522962Y-60429408D01*
X47155270Y-61061717D01*
X47155270Y-61061716D01*
X47194622Y-61007554D01*
X47291095Y-60818217D01*
X47356757Y-60616130D01*
X47356757Y-60616127D01*
X47390000Y-60406246D01*
X47390000Y-60193753D01*
X47356757Y-59983872D01*
X47356757Y-59983869D01*
X47291095Y-59781782D01*
X47194624Y-59592449D01*
X47155270Y-59538282D01*
X47155269Y-59538282D01*
X46522962Y-60170590D01*
X46505925Y-60107007D01*
X46440099Y-59992993D01*
X46347007Y-59899901D01*
X46232993Y-59834075D01*
X46169409Y-59817037D01*
X46801716Y-59184728D01*
X46747550Y-59145375D01*
X46558217Y-59048904D01*
X46356129Y-58983242D01*
X46146246Y-58950000D01*
X45933754Y-58950000D01*
X45723872Y-58983242D01*
X45723869Y-58983242D01*
X45521782Y-59048904D01*
X45332439Y-59145380D01*
X45278282Y-59184727D01*
X45278282Y-59184728D01*
X45910591Y-59817037D01*
X45847007Y-59834075D01*
X45732993Y-59899901D01*
X45639901Y-59992993D01*
X45574075Y-60107007D01*
X45557037Y-60170591D01*
X44924728Y-59538282D01*
X44924727Y-59538282D01*
X44885380Y-59592439D01*
X44788904Y-59781783D01*
X44731657Y-59957972D01*
X44692220Y-60015648D01*
X44627861Y-60042846D01*
X44559015Y-60030931D01*
X44507539Y-59983687D01*
X44499165Y-59967107D01*
X44496044Y-59959573D01*
X44430942Y-59802402D01*
X44315978Y-59630345D01*
X44315976Y-59630342D01*
X44169658Y-59484024D01*
X44075249Y-59420943D01*
X43997599Y-59369059D01*
X43806421Y-59289870D01*
X43806413Y-59289868D01*
X43603470Y-59249500D01*
X43603466Y-59249500D01*
X43396536Y-59249500D01*
X43396531Y-59249500D01*
X43193588Y-59289868D01*
X43193580Y-59289870D01*
X43002404Y-59369058D01*
X42830343Y-59484024D01*
X42684025Y-59630342D01*
X42569059Y-59802403D01*
X42489871Y-59993579D01*
X42489869Y-59993587D01*
X42449501Y-60196530D01*
X42010501Y-60196530D01*
X42010501Y-59430249D01*
X42010500Y-59430247D01*
X41998869Y-59371770D01*
X41998868Y-59371769D01*
X41954553Y-59305447D01*
X41888231Y-59261132D01*
X41888230Y-59261131D01*
X41829753Y-59249500D01*
X41829749Y-59249500D01*
X40090253Y-59249500D01*
X40090248Y-59249500D01*
X40031771Y-59261131D01*
X40031770Y-59261132D01*
X39965448Y-59305447D01*
X39921133Y-59371769D01*
X39921132Y-59371770D01*
X39909501Y-59430247D01*
X25300500Y-59430247D01*
X25300500Y-56480376D01*
X35977963Y-56480376D01*
X35977963Y-56638490D01*
X35980122Y-56646545D01*
X36018886Y-56791216D01*
X36018889Y-56791223D01*
X36097938Y-56928142D01*
X36097942Y-56928147D01*
X36097943Y-56928149D01*
X36209747Y-57039953D01*
X36209749Y-57039954D01*
X36209753Y-57039957D01*
X36346672Y-57119006D01*
X36346679Y-57119010D01*
X36499406Y-57159933D01*
X36499408Y-57159933D01*
X36506562Y-57160875D01*
X36570459Y-57189140D01*
X36578060Y-57196133D01*
X37042416Y-57660489D01*
X37145143Y-57719799D01*
X37169351Y-57726284D01*
X37169354Y-57726286D01*
X37169355Y-57726286D01*
X37199477Y-57734357D01*
X37259721Y-57750500D01*
X40724314Y-57750500D01*
X40791353Y-57770185D01*
X40837108Y-57822989D01*
X40847052Y-57892147D01*
X40842087Y-57910247D01*
X40842527Y-57910365D01*
X40840423Y-57918214D01*
X40840423Y-57918216D01*
X40799500Y-58070943D01*
X40799500Y-58229057D01*
X40836788Y-58368216D01*
X40840423Y-58381783D01*
X40840426Y-58381790D01*
X40919475Y-58518709D01*
X40919479Y-58518714D01*
X40919480Y-58518716D01*
X41031284Y-58630520D01*
X41031286Y-58630521D01*
X41031290Y-58630524D01*
X41104843Y-58672989D01*
X41168216Y-58709577D01*
X41320943Y-58750500D01*
X41320945Y-58750500D01*
X41479055Y-58750500D01*
X41479057Y-58750500D01*
X41631784Y-58709577D01*
X41768716Y-58630520D01*
X41768721Y-58630514D01*
X41774443Y-58626125D01*
X41839612Y-58600930D01*
X41849931Y-58600500D01*
X47383303Y-58600500D01*
X47450342Y-58620185D01*
X47496097Y-58672989D01*
X47503074Y-58692397D01*
X47540289Y-58831284D01*
X47540423Y-58831783D01*
X47540426Y-58831790D01*
X47619475Y-58968709D01*
X47619479Y-58968714D01*
X47619480Y-58968716D01*
X47731284Y-59080520D01*
X47731286Y-59080521D01*
X47731290Y-59080524D01*
X47843617Y-59145375D01*
X47868216Y-59159577D01*
X48020943Y-59200500D01*
X48020945Y-59200500D01*
X48179055Y-59200500D01*
X48179057Y-59200500D01*
X48331784Y-59159577D01*
X48463501Y-59083530D01*
X48531400Y-59067058D01*
X48597427Y-59089911D01*
X48640618Y-59144832D01*
X48649500Y-59190918D01*
X48649500Y-75350069D01*
X48629815Y-75417108D01*
X48623875Y-75425557D01*
X48619475Y-75431290D01*
X48540426Y-75568209D01*
X48540423Y-75568216D01*
X48499500Y-75720943D01*
X48499500Y-75879056D01*
X48540423Y-76031783D01*
X48540426Y-76031790D01*
X48619475Y-76168709D01*
X48619479Y-76168714D01*
X48619480Y-76168716D01*
X48731284Y-76280520D01*
X48731286Y-76280521D01*
X48731290Y-76280524D01*
X48803712Y-76322336D01*
X48868216Y-76359577D01*
X49020943Y-76400500D01*
X49020945Y-76400500D01*
X49179055Y-76400500D01*
X49179057Y-76400500D01*
X49331784Y-76359577D01*
X49468716Y-76280520D01*
X49580520Y-76168716D01*
X49659577Y-76031784D01*
X49700500Y-75879057D01*
X49700500Y-75720943D01*
X49659577Y-75568216D01*
X49601430Y-75467501D01*
X49580524Y-75431290D01*
X49580521Y-75431287D01*
X49580520Y-75431284D01*
X49580517Y-75431281D01*
X49576125Y-75425557D01*
X49550930Y-75360388D01*
X49550500Y-75350069D01*
X49550500Y-60992691D01*
X50397500Y-60992691D01*
X50397500Y-75007308D01*
X50421712Y-75097672D01*
X50428200Y-75121885D01*
X50428200Y-75121886D01*
X50452110Y-75163299D01*
X50487511Y-75224614D01*
X50487513Y-75224616D01*
X51063299Y-75800402D01*
X51096784Y-75861725D01*
X51098556Y-75871893D01*
X51099498Y-75879050D01*
X51140423Y-76031783D01*
X51140426Y-76031790D01*
X51219475Y-76168709D01*
X51219479Y-76168714D01*
X51219480Y-76168716D01*
X51331284Y-76280520D01*
X51331286Y-76280521D01*
X51331290Y-76280524D01*
X51403712Y-76322336D01*
X51468216Y-76359577D01*
X51620943Y-76400500D01*
X51620945Y-76400500D01*
X51779055Y-76400500D01*
X51779057Y-76400500D01*
X51931784Y-76359577D01*
X52068716Y-76280520D01*
X52180520Y-76168716D01*
X52259577Y-76031784D01*
X52300500Y-75879057D01*
X52300500Y-75720943D01*
X52259577Y-75568216D01*
X52201430Y-75467501D01*
X52180524Y-75431290D01*
X52180518Y-75431282D01*
X52093647Y-75344411D01*
X64498000Y-75344411D01*
X64498000Y-75590588D01*
X64536511Y-75833737D01*
X64612587Y-76067872D01*
X64724347Y-76287215D01*
X64793521Y-76382423D01*
X64793522Y-76382424D01*
X65279453Y-75896492D01*
X65371469Y-76034204D01*
X65495296Y-76158031D01*
X65633006Y-76250046D01*
X65147074Y-76735977D01*
X65242284Y-76805152D01*
X65461627Y-76916912D01*
X65695762Y-76992988D01*
X65938912Y-77031500D01*
X66185088Y-77031500D01*
X66428237Y-76992988D01*
X66662372Y-76916912D01*
X66881715Y-76805152D01*
X66976923Y-76735977D01*
X66490992Y-76250046D01*
X66628704Y-76158031D01*
X66752531Y-76034204D01*
X66844546Y-75896493D01*
X67330477Y-76382424D01*
X67330477Y-76382423D01*
X67399652Y-76287215D01*
X67511412Y-76067872D01*
X67587488Y-75833737D01*
X67626000Y-75590588D01*
X67626000Y-75344411D01*
X67587488Y-75101262D01*
X67511412Y-74867127D01*
X67399652Y-74647784D01*
X67330477Y-74552575D01*
X67330477Y-74552574D01*
X66844545Y-75038506D01*
X66752531Y-74900796D01*
X66628704Y-74776969D01*
X66490992Y-74684953D01*
X66976924Y-74199022D01*
X66976923Y-74199021D01*
X66881715Y-74129847D01*
X66662372Y-74018087D01*
X66428237Y-73942011D01*
X66185088Y-73903500D01*
X65938912Y-73903500D01*
X65695762Y-73942011D01*
X65461627Y-74018087D01*
X65242280Y-74129849D01*
X65147075Y-74199019D01*
X65147074Y-74199021D01*
X65633007Y-74684953D01*
X65495296Y-74776969D01*
X65371469Y-74900796D01*
X65279453Y-75038506D01*
X64793521Y-74552574D01*
X64793519Y-74552575D01*
X64724349Y-74647780D01*
X64612587Y-74867127D01*
X64536511Y-75101262D01*
X64498000Y-75344411D01*
X52093647Y-75344411D01*
X52068717Y-75319481D01*
X52068709Y-75319475D01*
X51931790Y-75240426D01*
X51931786Y-75240424D01*
X51931784Y-75240423D01*
X51779057Y-75199500D01*
X51779050Y-75199498D01*
X51771893Y-75198556D01*
X51707997Y-75170287D01*
X51700402Y-75163299D01*
X51334819Y-74797716D01*
X51301334Y-74736393D01*
X51298500Y-74710035D01*
X51298500Y-72534965D01*
X51318185Y-72467926D01*
X51370989Y-72422171D01*
X51440147Y-72412227D01*
X51503703Y-72441252D01*
X51510181Y-72447284D01*
X52063299Y-73000402D01*
X52096784Y-73061725D01*
X52098556Y-73071893D01*
X52099498Y-73079050D01*
X52140423Y-73231783D01*
X52140426Y-73231790D01*
X52219475Y-73368709D01*
X52219479Y-73368714D01*
X52219480Y-73368716D01*
X52331284Y-73480520D01*
X52331286Y-73480521D01*
X52331290Y-73480524D01*
X52468209Y-73559573D01*
X52468216Y-73559577D01*
X52620943Y-73600500D01*
X52620945Y-73600500D01*
X52779055Y-73600500D01*
X52779057Y-73600500D01*
X52931784Y-73559577D01*
X53068716Y-73480520D01*
X53180520Y-73368716D01*
X53259577Y-73231784D01*
X53300500Y-73079057D01*
X53300500Y-72920943D01*
X53259577Y-72768216D01*
X53254587Y-72759573D01*
X53180524Y-72631290D01*
X53180518Y-72631282D01*
X53068717Y-72519481D01*
X53068709Y-72519475D01*
X52931790Y-72440426D01*
X52931786Y-72440424D01*
X52931784Y-72440423D01*
X52826555Y-72412227D01*
X52779050Y-72399498D01*
X52771893Y-72398556D01*
X52707997Y-72370287D01*
X52700403Y-72363299D01*
X52572707Y-72235603D01*
X52440495Y-72103392D01*
X52407011Y-72042070D01*
X52411995Y-71972379D01*
X52453866Y-71916445D01*
X52496081Y-71895938D01*
X52631784Y-71859577D01*
X52733675Y-71800750D01*
X52754022Y-71795814D01*
X52772671Y-71786290D01*
X52787292Y-71787742D01*
X52801573Y-71784278D01*
X52821362Y-71791127D01*
X52842198Y-71793197D01*
X52858454Y-71803964D01*
X52867600Y-71807130D01*
X52872696Y-71810961D01*
X52878298Y-71815401D01*
X52930886Y-71867989D01*
X52973663Y-71892686D01*
X53033614Y-71927299D01*
X53148191Y-71958000D01*
X64673500Y-71958000D01*
X64740539Y-71977685D01*
X64786294Y-72030489D01*
X64797500Y-72082000D01*
X64797500Y-72591252D01*
X64809131Y-72649729D01*
X64809132Y-72649730D01*
X64853447Y-72716052D01*
X64919769Y-72760367D01*
X64919770Y-72760368D01*
X64978247Y-72771999D01*
X64978250Y-72772000D01*
X64978252Y-72772000D01*
X67145750Y-72772000D01*
X67145751Y-72771999D01*
X67160568Y-72769052D01*
X67204229Y-72760368D01*
X67204229Y-72760367D01*
X67204231Y-72760367D01*
X67270552Y-72716052D01*
X67314867Y-72649731D01*
X67314867Y-72649729D01*
X67314868Y-72649729D01*
X67326499Y-72591252D01*
X67326500Y-72591250D01*
X67326500Y-72332000D01*
X67346185Y-72264961D01*
X67398989Y-72219206D01*
X67450500Y-72208000D01*
X70665981Y-72208000D01*
X70733020Y-72227685D01*
X70753662Y-72244319D01*
X71053453Y-72544111D01*
X71053454Y-72544112D01*
X71053457Y-72544114D01*
X71168189Y-72620775D01*
X71295671Y-72673580D01*
X71431001Y-72700498D01*
X71431005Y-72700499D01*
X71431006Y-72700499D01*
X71568995Y-72700499D01*
X71568996Y-72700498D01*
X71704328Y-72673580D01*
X71831811Y-72620775D01*
X71946543Y-72544114D01*
X72044114Y-72446543D01*
X72120775Y-72331811D01*
X72173580Y-72204328D01*
X72200499Y-72068994D01*
X72200499Y-71931006D01*
X72173580Y-71795671D01*
X72120775Y-71668189D01*
X72044114Y-71553457D01*
X72044112Y-71553454D01*
X71452839Y-70962181D01*
X71419354Y-70900858D01*
X71424338Y-70831166D01*
X71466210Y-70775233D01*
X71531674Y-70750816D01*
X71540520Y-70750500D01*
X98862035Y-70750500D01*
X98929074Y-70770185D01*
X98949716Y-70786819D01*
X100063299Y-71900402D01*
X100096784Y-71961725D01*
X100098556Y-71971893D01*
X100099498Y-71979050D01*
X100102214Y-71989187D01*
X100127083Y-72082000D01*
X100140423Y-72131783D01*
X100140426Y-72131790D01*
X100219475Y-72268709D01*
X100219479Y-72268714D01*
X100219480Y-72268716D01*
X100331284Y-72380520D01*
X100331286Y-72380521D01*
X100331290Y-72380524D01*
X100463751Y-72456999D01*
X100468216Y-72459577D01*
X100620943Y-72500500D01*
X100620945Y-72500500D01*
X100779055Y-72500500D01*
X100779057Y-72500500D01*
X100931784Y-72459577D01*
X101068716Y-72380520D01*
X101180520Y-72268716D01*
X101259577Y-72131784D01*
X101300500Y-71979057D01*
X101300500Y-71820943D01*
X101259577Y-71668216D01*
X101204652Y-71573082D01*
X101180524Y-71531290D01*
X101180518Y-71531282D01*
X101068717Y-71419481D01*
X101068709Y-71419475D01*
X100931790Y-71340426D01*
X100931786Y-71340424D01*
X100931784Y-71340423D01*
X100779057Y-71299500D01*
X100779050Y-71299498D01*
X100771893Y-71298556D01*
X100707997Y-71270287D01*
X100700403Y-71263299D01*
X99376616Y-69939513D01*
X99376614Y-69939511D01*
X99325250Y-69909856D01*
X99273888Y-69880201D01*
X99261780Y-69876957D01*
X99249673Y-69873713D01*
X99249670Y-69873712D01*
X99211478Y-69863478D01*
X99159309Y-69849500D01*
X99159308Y-69849500D01*
X68249931Y-69849500D01*
X68182892Y-69829815D01*
X68174443Y-69823875D01*
X68168709Y-69819475D01*
X68031790Y-69740426D01*
X68031786Y-69740424D01*
X68031784Y-69740423D01*
X67879057Y-69699500D01*
X67720943Y-69699500D01*
X67568216Y-69740423D01*
X67568209Y-69740426D01*
X67431290Y-69819475D01*
X67431282Y-69819481D01*
X67319481Y-69931282D01*
X67319475Y-69931290D01*
X67240426Y-70068209D01*
X67240423Y-70068216D01*
X67218215Y-70151095D01*
X67181852Y-70210754D01*
X67119006Y-70241283D01*
X67098442Y-70243000D01*
X64978247Y-70243000D01*
X64919770Y-70254631D01*
X64919769Y-70254632D01*
X64853447Y-70298947D01*
X64809132Y-70365269D01*
X64809131Y-70365270D01*
X64797500Y-70423747D01*
X64797500Y-70933000D01*
X64777815Y-71000039D01*
X64725011Y-71045794D01*
X64673500Y-71057000D01*
X53445465Y-71057000D01*
X53378426Y-71037315D01*
X53357784Y-71020681D01*
X53276616Y-70939513D01*
X53276614Y-70939511D01*
X53209666Y-70900858D01*
X53173888Y-70880201D01*
X53161780Y-70876957D01*
X53149673Y-70873713D01*
X53149670Y-70873712D01*
X53111478Y-70863478D01*
X53059309Y-70849500D01*
X53059308Y-70849500D01*
X52849931Y-70849500D01*
X52782892Y-70829815D01*
X52774443Y-70823875D01*
X52768709Y-70819475D01*
X52631790Y-70740426D01*
X52631786Y-70740424D01*
X52631784Y-70740423D01*
X52479057Y-70699500D01*
X52320943Y-70699500D01*
X52168216Y-70740423D01*
X52168214Y-70740423D01*
X52160365Y-70742527D01*
X52159818Y-70740488D01*
X52101470Y-70746755D01*
X52038994Y-70715473D01*
X52003348Y-70655381D01*
X51999500Y-70624728D01*
X51999500Y-68620943D01*
X110499500Y-68620943D01*
X110499500Y-68779057D01*
X110521031Y-68859410D01*
X110540423Y-68931783D01*
X110540426Y-68931790D01*
X110619475Y-69068709D01*
X110619479Y-69068714D01*
X110619480Y-69068716D01*
X110731284Y-69180520D01*
X110731286Y-69180521D01*
X110731290Y-69180524D01*
X110868209Y-69259573D01*
X110868216Y-69259577D01*
X111020943Y-69300500D01*
X111020945Y-69300500D01*
X111179055Y-69300500D01*
X111179057Y-69300500D01*
X111331784Y-69259577D01*
X111468716Y-69180520D01*
X111580520Y-69068716D01*
X111659577Y-68931784D01*
X111700500Y-68779057D01*
X111700500Y-68779044D01*
X111701441Y-68771901D01*
X111729707Y-68708003D01*
X111736687Y-68700415D01*
X112114010Y-68323094D01*
X112175333Y-68289609D01*
X112201691Y-68286775D01*
X118693149Y-68286775D01*
X118760188Y-68306460D01*
X118803634Y-68354480D01*
X118877282Y-68499020D01*
X118994264Y-68660035D01*
X119135016Y-68800787D01*
X119285689Y-68910255D01*
X119296035Y-68917772D01*
X119409035Y-68975349D01*
X119473373Y-69008131D01*
X119473375Y-69008131D01*
X119473378Y-69008133D01*
X119574843Y-69041101D01*
X119662672Y-69069639D01*
X119859254Y-69100775D01*
X119859259Y-69100775D01*
X120058300Y-69100775D01*
X120254881Y-69069639D01*
X120257743Y-69068709D01*
X120444176Y-69008133D01*
X120621519Y-68917772D01*
X120711925Y-68852088D01*
X120782537Y-68800787D01*
X120782539Y-68800784D01*
X120782543Y-68800782D01*
X120811596Y-68771729D01*
X120872919Y-68738244D01*
X120942611Y-68743228D01*
X120998544Y-68785100D01*
X121022961Y-68850564D01*
X121023277Y-68859410D01*
X121023277Y-71355983D01*
X121003592Y-71423022D01*
X120986958Y-71443664D01*
X119991441Y-72439181D01*
X119930118Y-72472666D01*
X119903760Y-72475500D01*
X118878247Y-72475500D01*
X118819770Y-72487131D01*
X118819769Y-72487132D01*
X118753447Y-72531447D01*
X118709132Y-72597769D01*
X118709131Y-72597770D01*
X118697500Y-72656247D01*
X118697500Y-74823752D01*
X118709131Y-74882229D01*
X118709132Y-74882230D01*
X118753447Y-74948552D01*
X118819769Y-74992867D01*
X118819770Y-74992868D01*
X118878247Y-75004499D01*
X118878250Y-75004500D01*
X118878252Y-75004500D01*
X119903760Y-75004500D01*
X119970799Y-75024185D01*
X119991441Y-75040819D01*
X120990181Y-76039559D01*
X121023666Y-76100882D01*
X121026500Y-76127240D01*
X121026500Y-76676865D01*
X121006815Y-76743904D01*
X120954011Y-76789659D01*
X120884853Y-76799603D01*
X120821297Y-76770578D01*
X120814819Y-76764546D01*
X120785760Y-76735487D01*
X120624745Y-76618505D01*
X120624744Y-76618504D01*
X120624742Y-76618503D01*
X120569361Y-76590285D01*
X120447403Y-76528143D01*
X120258104Y-76466635D01*
X120061523Y-76435500D01*
X120061518Y-76435500D01*
X119862482Y-76435500D01*
X119862477Y-76435500D01*
X119665895Y-76466635D01*
X119476596Y-76528143D01*
X119299254Y-76618505D01*
X119138239Y-76735487D01*
X118997487Y-76876239D01*
X118880505Y-77037254D01*
X118790143Y-77214596D01*
X118728635Y-77403895D01*
X118697500Y-77600476D01*
X118697500Y-77799523D01*
X118728635Y-77996104D01*
X118790143Y-78185403D01*
X118880505Y-78362745D01*
X118997487Y-78523760D01*
X119138239Y-78664512D01*
X119283688Y-78770185D01*
X119299258Y-78781497D01*
X119412258Y-78839074D01*
X119476596Y-78871856D01*
X119476598Y-78871856D01*
X119476601Y-78871858D01*
X119564752Y-78900500D01*
X119665895Y-78933364D01*
X119862477Y-78964500D01*
X119862482Y-78964500D01*
X120061523Y-78964500D01*
X120258104Y-78933364D01*
X120447399Y-78871858D01*
X120624742Y-78781497D01*
X120715148Y-78715813D01*
X120785760Y-78664512D01*
X120785762Y-78664509D01*
X120785766Y-78664507D01*
X120814819Y-78635454D01*
X120876142Y-78601969D01*
X120945834Y-78606953D01*
X121001767Y-78648825D01*
X121026184Y-78714289D01*
X121026500Y-78723135D01*
X121026500Y-83558261D01*
X121006815Y-83625300D01*
X120990181Y-83645942D01*
X120477942Y-84158181D01*
X120416619Y-84191666D01*
X120390261Y-84194500D01*
X119917748Y-84194500D01*
X119859271Y-84206131D01*
X119859270Y-84206132D01*
X119782794Y-84257233D01*
X119781460Y-84255237D01*
X119734892Y-84280666D01*
X119708534Y-84283500D01*
X116083454Y-84283500D01*
X116016415Y-84263815D01*
X116014563Y-84262602D01*
X115996373Y-84250448D01*
X115925836Y-84203316D01*
X115925835Y-84203315D01*
X115925833Y-84203314D01*
X115925831Y-84203313D01*
X115762233Y-84135549D01*
X115762221Y-84135546D01*
X115588548Y-84101000D01*
X115588544Y-84101000D01*
X115411456Y-84101000D01*
X115411451Y-84101000D01*
X115237778Y-84135546D01*
X115237766Y-84135549D01*
X115074170Y-84203312D01*
X115074157Y-84203319D01*
X114926921Y-84301700D01*
X114926917Y-84301703D01*
X114801703Y-84426917D01*
X114801700Y-84426921D01*
X114703319Y-84574157D01*
X114703312Y-84574170D01*
X114635549Y-84737766D01*
X114635546Y-84737778D01*
X114601000Y-84911451D01*
X114601000Y-85088548D01*
X114635546Y-85262221D01*
X114635549Y-85262233D01*
X114703312Y-85425829D01*
X114703319Y-85425842D01*
X114801700Y-85573078D01*
X114801703Y-85573082D01*
X114984201Y-85755579D01*
X115109421Y-85880799D01*
X115109422Y-85880800D01*
X115256657Y-85979180D01*
X115256670Y-85979187D01*
X115404516Y-86040426D01*
X115420271Y-86046952D01*
X115593951Y-86081499D01*
X115593955Y-86081500D01*
X115593956Y-86081500D01*
X119708534Y-86081500D01*
X119775573Y-86101185D01*
X119788337Y-86111471D01*
X119859270Y-86158867D01*
X119859271Y-86158868D01*
X119917748Y-86170499D01*
X119917751Y-86170500D01*
X119917753Y-86170500D01*
X120390261Y-86170500D01*
X120457300Y-86190185D01*
X120477942Y-86206819D01*
X120753942Y-86482819D01*
X120787427Y-86544142D01*
X120782443Y-86613834D01*
X120740571Y-86669767D01*
X120675107Y-86694184D01*
X120666261Y-86694500D01*
X120627686Y-86694500D01*
X120436819Y-86732465D01*
X120436810Y-86732468D01*
X120257013Y-86806941D01*
X120257000Y-86806948D01*
X120095187Y-86915069D01*
X120095183Y-86915072D01*
X119957573Y-87052682D01*
X119957570Y-87052686D01*
X119849449Y-87214499D01*
X119849442Y-87214512D01*
X119774969Y-87394309D01*
X119774966Y-87394318D01*
X119737001Y-87585185D01*
X119737001Y-87779814D01*
X119774966Y-87970681D01*
X119774969Y-87970690D01*
X119849442Y-88150487D01*
X119849449Y-88150500D01*
X119957570Y-88312313D01*
X119957573Y-88312317D01*
X120095183Y-88449927D01*
X120095187Y-88449930D01*
X120257000Y-88558051D01*
X120257013Y-88558058D01*
X120391860Y-88613912D01*
X120436812Y-88632532D01*
X120436814Y-88632532D01*
X120436819Y-88632534D01*
X120627686Y-88670499D01*
X120627690Y-88670500D01*
X120627691Y-88670500D01*
X120822312Y-88670500D01*
X120822313Y-88670499D01*
X120885937Y-88657844D01*
X121013182Y-88632534D01*
X121013185Y-88632532D01*
X121013190Y-88632532D01*
X121192995Y-88558055D01*
X121320110Y-88473118D01*
X121386787Y-88452241D01*
X121454167Y-88470725D01*
X121500858Y-88522704D01*
X121513001Y-88576221D01*
X121513001Y-93064259D01*
X121493316Y-93131298D01*
X121476682Y-93151940D01*
X120552941Y-94075681D01*
X120491618Y-94109166D01*
X120465260Y-94112000D01*
X119992747Y-94112000D01*
X119934270Y-94123631D01*
X119934269Y-94123632D01*
X119857793Y-94174733D01*
X119856459Y-94172737D01*
X119809891Y-94198166D01*
X119783533Y-94201000D01*
X115444910Y-94201000D01*
X115397458Y-94191561D01*
X115262233Y-94135549D01*
X115262221Y-94135546D01*
X115088548Y-94101000D01*
X115088544Y-94101000D01*
X114911456Y-94101000D01*
X114911451Y-94101000D01*
X114737778Y-94135546D01*
X114737766Y-94135549D01*
X114574170Y-94203312D01*
X114574157Y-94203319D01*
X114426921Y-94301700D01*
X114426917Y-94301703D01*
X114301703Y-94426917D01*
X114301700Y-94426921D01*
X114203319Y-94574157D01*
X114203312Y-94574170D01*
X114135549Y-94737766D01*
X114135546Y-94737778D01*
X114101000Y-94911451D01*
X114101000Y-95088548D01*
X114135546Y-95262221D01*
X114135549Y-95262233D01*
X114203312Y-95425829D01*
X114203319Y-95425842D01*
X114301699Y-95573077D01*
X114301700Y-95573078D01*
X114301701Y-95573079D01*
X114401701Y-95673079D01*
X114464434Y-95735812D01*
X114526922Y-95798300D01*
X114674157Y-95896680D01*
X114674170Y-95896687D01*
X114732735Y-95920945D01*
X114837771Y-95964452D01*
X115011451Y-95998999D01*
X115011455Y-95999000D01*
X115011456Y-95999000D01*
X119783533Y-95999000D01*
X119850572Y-96018685D01*
X119863336Y-96028971D01*
X119934269Y-96076367D01*
X119934270Y-96076368D01*
X119992747Y-96087999D01*
X119992750Y-96088000D01*
X119992752Y-96088000D01*
X121607250Y-96088000D01*
X121607251Y-96087999D01*
X121622068Y-96085052D01*
X121665729Y-96076368D01*
X121665729Y-96076367D01*
X121665731Y-96076367D01*
X121732052Y-96032052D01*
X121776367Y-95965731D01*
X121776367Y-95965729D01*
X121776368Y-95965729D01*
X121787999Y-95907252D01*
X121788000Y-95907250D01*
X121788000Y-95434740D01*
X121807685Y-95367701D01*
X121824319Y-95347059D01*
X123110297Y-94061081D01*
X123110300Y-94061078D01*
X123208685Y-93913835D01*
X123276453Y-93750228D01*
X123311001Y-93576543D01*
X123311001Y-93399455D01*
X123311001Y-86780956D01*
X123276453Y-86607271D01*
X123268698Y-86588548D01*
X123208688Y-86443670D01*
X123208681Y-86443657D01*
X123110301Y-86296422D01*
X123051647Y-86237768D01*
X122985080Y-86171201D01*
X122084060Y-85270181D01*
X122050575Y-85208858D01*
X122055559Y-85139166D01*
X122084060Y-85094819D01*
X122623796Y-84555083D01*
X122623799Y-84555080D01*
X122722184Y-84407837D01*
X122789952Y-84244230D01*
X122824500Y-84070545D01*
X122824500Y-83893457D01*
X122824500Y-75614956D01*
X122789952Y-75441271D01*
X122785815Y-75431284D01*
X122722187Y-75277670D01*
X122722180Y-75277657D01*
X122623800Y-75130422D01*
X122591050Y-75097672D01*
X122498579Y-75005201D01*
X121321059Y-73827681D01*
X121287574Y-73766358D01*
X121292558Y-73696666D01*
X121321059Y-73652319D01*
X122620573Y-72352805D01*
X122620576Y-72352802D01*
X122718961Y-72205559D01*
X122786729Y-72041952D01*
X122821277Y-71868267D01*
X122821277Y-71691179D01*
X122821277Y-65751231D01*
X122786729Y-65577546D01*
X122786727Y-65577541D01*
X122718964Y-65413945D01*
X122718957Y-65413932D01*
X122620577Y-65266697D01*
X122620576Y-65266696D01*
X122495356Y-65141476D01*
X121259596Y-63905716D01*
X121226111Y-63844393D01*
X121223277Y-63818035D01*
X121223277Y-62792524D01*
X121223276Y-62792522D01*
X121211645Y-62734045D01*
X121211644Y-62734044D01*
X121167329Y-62667722D01*
X121101007Y-62623407D01*
X121101006Y-62623406D01*
X121042529Y-62611775D01*
X121042525Y-62611775D01*
X118875029Y-62611775D01*
X118875024Y-62611775D01*
X118816547Y-62623406D01*
X118816546Y-62623407D01*
X118750224Y-62667722D01*
X118705909Y-62734044D01*
X118705908Y-62734045D01*
X118694277Y-62792522D01*
X118694277Y-62853275D01*
X118674592Y-62920314D01*
X118621788Y-62966069D01*
X118570277Y-62977275D01*
X114035176Y-62977275D01*
X113861503Y-63011821D01*
X113861491Y-63011824D01*
X113697895Y-63079587D01*
X113697882Y-63079594D01*
X113550646Y-63177975D01*
X113550642Y-63177978D01*
X112801703Y-63926917D01*
X112801700Y-63926921D01*
X112703319Y-64074157D01*
X112703312Y-64074170D01*
X112635549Y-64237766D01*
X112635546Y-64237778D01*
X112601000Y-64411451D01*
X112601000Y-64588548D01*
X112635546Y-64762221D01*
X112635549Y-64762233D01*
X112703312Y-64925829D01*
X112703319Y-64925842D01*
X112801700Y-65073078D01*
X112801703Y-65073082D01*
X112926917Y-65198296D01*
X112926921Y-65198299D01*
X113074157Y-65296680D01*
X113074170Y-65296687D01*
X113237766Y-65364450D01*
X113237771Y-65364452D01*
X113411451Y-65398999D01*
X113411455Y-65399000D01*
X113411456Y-65399000D01*
X113588545Y-65399000D01*
X113588546Y-65398999D01*
X113762229Y-65364452D01*
X113925836Y-65296684D01*
X114073079Y-65198299D01*
X114459784Y-64811594D01*
X114521107Y-64778109D01*
X114547465Y-64775275D01*
X118570277Y-64775275D01*
X118637316Y-64794960D01*
X118683071Y-64847764D01*
X118694277Y-64899275D01*
X118694277Y-64960027D01*
X118705908Y-65018504D01*
X118705909Y-65018505D01*
X118750224Y-65084827D01*
X118816546Y-65129142D01*
X118816547Y-65129143D01*
X118875024Y-65140774D01*
X118875027Y-65140775D01*
X118875029Y-65140775D01*
X119900537Y-65140775D01*
X119967576Y-65160460D01*
X119988218Y-65177094D01*
X120986958Y-66175834D01*
X121020443Y-66237157D01*
X121023277Y-66263515D01*
X121023277Y-66813140D01*
X121003592Y-66880179D01*
X120950788Y-66925934D01*
X120881630Y-66935878D01*
X120818074Y-66906853D01*
X120811596Y-66900821D01*
X120782537Y-66871762D01*
X120621522Y-66754780D01*
X120621521Y-66754779D01*
X120621519Y-66754778D01*
X120566138Y-66726560D01*
X120444180Y-66664418D01*
X120254881Y-66602910D01*
X120058300Y-66571775D01*
X120058295Y-66571775D01*
X119859259Y-66571775D01*
X119859254Y-66571775D01*
X119662672Y-66602910D01*
X119473373Y-66664418D01*
X119296031Y-66754780D01*
X119135016Y-66871762D01*
X118994264Y-67012514D01*
X118877282Y-67173529D01*
X118803634Y-67318070D01*
X118755659Y-67368866D01*
X118693149Y-67385775D01*
X111904416Y-67385775D01*
X111818483Y-67408800D01*
X111789838Y-67416476D01*
X111687111Y-67475784D01*
X111687109Y-67475786D01*
X111099597Y-68063299D01*
X111038274Y-68096784D01*
X111028107Y-68098556D01*
X111020949Y-68099498D01*
X110868216Y-68140423D01*
X110868209Y-68140426D01*
X110731290Y-68219475D01*
X110731282Y-68219481D01*
X110619481Y-68331282D01*
X110619475Y-68331290D01*
X110540426Y-68468209D01*
X110540423Y-68468216D01*
X110499500Y-68620943D01*
X51999500Y-68620943D01*
X51999500Y-66220943D01*
X53394500Y-66220943D01*
X53394500Y-66379057D01*
X53412084Y-66444679D01*
X53435423Y-66531783D01*
X53435426Y-66531790D01*
X53514475Y-66668709D01*
X53514479Y-66668714D01*
X53514480Y-66668716D01*
X53626284Y-66780520D01*
X53626286Y-66780521D01*
X53626290Y-66780524D01*
X53763209Y-66859573D01*
X53763216Y-66859577D01*
X53915943Y-66900500D01*
X53915945Y-66900500D01*
X54074055Y-66900500D01*
X54074057Y-66900500D01*
X54226784Y-66859577D01*
X54363716Y-66780520D01*
X54363721Y-66780514D01*
X54369443Y-66776125D01*
X54434612Y-66750930D01*
X54444931Y-66750500D01*
X58321637Y-66750500D01*
X58360179Y-66758165D01*
X58360365Y-66757473D01*
X58368214Y-66759576D01*
X58368216Y-66759577D01*
X58520943Y-66800500D01*
X58520945Y-66800500D01*
X58679055Y-66800500D01*
X58679057Y-66800500D01*
X58831784Y-66759577D01*
X58968716Y-66680520D01*
X59080520Y-66568716D01*
X59159577Y-66431784D01*
X59200500Y-66279057D01*
X59200500Y-66120943D01*
X59159577Y-65968216D01*
X59138258Y-65931290D01*
X59080524Y-65831290D01*
X59080518Y-65831282D01*
X58968717Y-65719481D01*
X58968709Y-65719475D01*
X58831790Y-65640426D01*
X58831786Y-65640424D01*
X58831784Y-65640423D01*
X58679057Y-65599500D01*
X58520943Y-65599500D01*
X58368216Y-65640423D01*
X58368209Y-65640426D01*
X58231290Y-65719475D01*
X58231282Y-65719481D01*
X58137583Y-65813181D01*
X58076260Y-65846666D01*
X58049902Y-65849500D01*
X54444931Y-65849500D01*
X54377892Y-65829815D01*
X54369443Y-65823875D01*
X54363709Y-65819475D01*
X54226790Y-65740426D01*
X54226786Y-65740424D01*
X54226784Y-65740423D01*
X54074057Y-65699500D01*
X53915943Y-65699500D01*
X53763216Y-65740423D01*
X53763209Y-65740426D01*
X53626290Y-65819475D01*
X53626282Y-65819481D01*
X53514481Y-65931282D01*
X53514475Y-65931290D01*
X53435426Y-66068209D01*
X53435423Y-66068216D01*
X53394500Y-66220943D01*
X51999500Y-66220943D01*
X51999500Y-61883965D01*
X52019185Y-61816926D01*
X52035819Y-61796284D01*
X53013886Y-60818217D01*
X53995404Y-59836698D01*
X54056725Y-59803215D01*
X54066901Y-59801441D01*
X54074045Y-59800500D01*
X54074057Y-59800500D01*
X54226784Y-59759577D01*
X54363716Y-59680520D01*
X54475520Y-59568716D01*
X54554577Y-59431784D01*
X54557482Y-59420943D01*
X61399500Y-59420943D01*
X61399500Y-59579057D01*
X61426687Y-59680518D01*
X61440423Y-59731783D01*
X61440426Y-59731790D01*
X61519475Y-59868709D01*
X61519479Y-59868714D01*
X61519480Y-59868716D01*
X61631284Y-59980520D01*
X61631286Y-59980521D01*
X61631290Y-59980524D01*
X61718599Y-60030931D01*
X61768216Y-60059577D01*
X61920943Y-60100500D01*
X61920945Y-60100500D01*
X62079055Y-60100500D01*
X62079057Y-60100500D01*
X62231784Y-60059577D01*
X62368716Y-59980520D01*
X62368721Y-59980514D01*
X62374443Y-59976125D01*
X62439612Y-59950930D01*
X62449931Y-59950500D01*
X66550069Y-59950500D01*
X66617108Y-59970185D01*
X66625557Y-59976125D01*
X66631281Y-59980517D01*
X66631284Y-59980520D01*
X66631287Y-59980521D01*
X66631290Y-59980524D01*
X66718599Y-60030931D01*
X66768216Y-60059577D01*
X66920943Y-60100500D01*
X66920945Y-60100500D01*
X67079055Y-60100500D01*
X67079057Y-60100500D01*
X67231784Y-60059577D01*
X67231785Y-60059576D01*
X67239635Y-60057473D01*
X67239820Y-60058165D01*
X67278363Y-60050500D01*
X69550069Y-60050500D01*
X69617108Y-60070185D01*
X69625557Y-60076125D01*
X69631281Y-60080517D01*
X69631284Y-60080520D01*
X69631287Y-60080521D01*
X69631290Y-60080524D01*
X69677161Y-60107007D01*
X69768216Y-60159577D01*
X69920943Y-60200500D01*
X69920945Y-60200500D01*
X70079055Y-60200500D01*
X70079057Y-60200500D01*
X70231784Y-60159577D01*
X70368716Y-60080520D01*
X70480520Y-59968716D01*
X70559577Y-59831784D01*
X70600500Y-59679057D01*
X70600500Y-59679044D01*
X70601441Y-59671901D01*
X70629707Y-59608003D01*
X70636688Y-59600414D01*
X70916159Y-59320943D01*
X77099500Y-59320943D01*
X77099500Y-59479057D01*
X77140038Y-59630345D01*
X77140423Y-59631783D01*
X77140426Y-59631790D01*
X77219475Y-59768709D01*
X77219479Y-59768714D01*
X77219480Y-59768716D01*
X77331284Y-59880520D01*
X77331286Y-59880521D01*
X77331290Y-59880524D01*
X77445472Y-59946446D01*
X77468216Y-59959577D01*
X77620943Y-60000500D01*
X77620945Y-60000500D01*
X77779055Y-60000500D01*
X77779057Y-60000500D01*
X77931784Y-59959577D01*
X78068716Y-59880520D01*
X78068721Y-59880514D01*
X78074443Y-59876125D01*
X78139612Y-59850930D01*
X78149931Y-59850500D01*
X82849902Y-59850500D01*
X82916941Y-59870185D01*
X82937583Y-59886819D01*
X83031284Y-59980520D01*
X83031286Y-59980521D01*
X83031290Y-59980524D01*
X83118599Y-60030931D01*
X83168216Y-60059577D01*
X83320943Y-60100500D01*
X83320945Y-60100500D01*
X83479055Y-60100500D01*
X83479057Y-60100500D01*
X83631784Y-60059577D01*
X83768716Y-59980520D01*
X83880520Y-59868716D01*
X83959577Y-59731784D01*
X84000500Y-59579057D01*
X84000500Y-59420943D01*
X83959577Y-59268216D01*
X83955487Y-59261131D01*
X83880524Y-59131290D01*
X83880518Y-59131282D01*
X83768717Y-59019481D01*
X83768709Y-59019475D01*
X83631790Y-58940426D01*
X83631786Y-58940424D01*
X83631784Y-58940423D01*
X83479057Y-58899500D01*
X83320943Y-58899500D01*
X83168216Y-58940423D01*
X83168214Y-58940423D01*
X83160365Y-58942527D01*
X83160179Y-58941834D01*
X83121637Y-58949500D01*
X78149931Y-58949500D01*
X78082892Y-58929815D01*
X78074443Y-58923875D01*
X78068709Y-58919475D01*
X77931790Y-58840426D01*
X77931786Y-58840424D01*
X77931784Y-58840423D01*
X77779057Y-58799500D01*
X77620943Y-58799500D01*
X77468216Y-58840423D01*
X77468209Y-58840426D01*
X77331290Y-58919475D01*
X77331282Y-58919481D01*
X77219481Y-59031282D01*
X77219475Y-59031290D01*
X77140426Y-59168209D01*
X77140423Y-59168216D01*
X77099500Y-59320943D01*
X70916159Y-59320943D01*
X72350285Y-57886819D01*
X72411608Y-57853334D01*
X72437966Y-57850500D01*
X77050069Y-57850500D01*
X77117108Y-57870185D01*
X77125557Y-57876125D01*
X77131281Y-57880517D01*
X77131284Y-57880520D01*
X77131287Y-57880521D01*
X77131290Y-57880524D01*
X77241433Y-57944114D01*
X77268216Y-57959577D01*
X77420943Y-58000500D01*
X77420945Y-58000500D01*
X77579055Y-58000500D01*
X77579057Y-58000500D01*
X77731784Y-57959577D01*
X77868716Y-57880520D01*
X77980520Y-57768716D01*
X78059577Y-57631784D01*
X78100500Y-57479057D01*
X78100500Y-57320943D01*
X78059577Y-57168216D01*
X78012397Y-57086498D01*
X77995926Y-57018599D01*
X78018779Y-56952572D01*
X78073701Y-56909382D01*
X78119786Y-56900500D01*
X89358481Y-56900500D01*
X89425520Y-56920185D01*
X89446162Y-56936819D01*
X90453453Y-57944111D01*
X90453454Y-57944112D01*
X90568190Y-58020776D01*
X90659342Y-58058532D01*
X90695671Y-58073580D01*
X90695672Y-58073580D01*
X90695677Y-58073582D01*
X90722545Y-58078925D01*
X90722551Y-58078926D01*
X90722591Y-58078934D01*
X90812937Y-58096905D01*
X90831006Y-58100500D01*
X90831007Y-58100500D01*
X99558481Y-58100500D01*
X99587921Y-58109144D01*
X99617908Y-58115668D01*
X99622923Y-58119422D01*
X99625520Y-58120185D01*
X99646162Y-58136819D01*
X99655886Y-58146543D01*
X100644452Y-59135110D01*
X100644453Y-59135111D01*
X100759191Y-59211776D01*
X100883817Y-59263397D01*
X100886671Y-59264579D01*
X100886675Y-59264579D01*
X100886676Y-59264580D01*
X101022002Y-59291499D01*
X101022005Y-59291499D01*
X120911442Y-59291499D01*
X121002486Y-59273388D01*
X121046774Y-59264579D01*
X121152107Y-59220949D01*
X121174253Y-59211776D01*
X121174254Y-59211775D01*
X121174257Y-59211774D01*
X121288989Y-59135113D01*
X122444114Y-57979988D01*
X122520775Y-57865256D01*
X122573580Y-57737774D01*
X122581569Y-57697609D01*
X122585745Y-57676617D01*
X122585745Y-57676614D01*
X122600500Y-57602438D01*
X122600500Y-52931007D01*
X122600500Y-52931004D01*
X122573581Y-52795677D01*
X122573580Y-52795676D01*
X122573580Y-52795672D01*
X122558280Y-52758735D01*
X122520778Y-52668195D01*
X122520771Y-52668182D01*
X122444114Y-52553458D01*
X122444111Y-52553454D01*
X122346545Y-52455888D01*
X122346541Y-52455885D01*
X122231817Y-52379228D01*
X122231804Y-52379221D01*
X122104332Y-52326421D01*
X122104322Y-52326418D01*
X121968995Y-52299500D01*
X121968993Y-52299500D01*
X121831007Y-52299500D01*
X121831005Y-52299500D01*
X121695677Y-52326418D01*
X121695667Y-52326421D01*
X121568195Y-52379221D01*
X121568182Y-52379228D01*
X121453458Y-52455885D01*
X121453454Y-52455888D01*
X121356859Y-52552483D01*
X121356855Y-52552488D01*
X121355886Y-52553458D01*
X121279225Y-52668189D01*
X121265057Y-52702392D01*
X121265051Y-52702403D01*
X121226420Y-52795672D01*
X121226418Y-52795677D01*
X121199500Y-52931004D01*
X121199500Y-53714505D01*
X121179815Y-53781544D01*
X121127011Y-53827299D01*
X121057853Y-53837243D01*
X120994297Y-53808218D01*
X120987819Y-53802186D01*
X120869657Y-53684024D01*
X120743156Y-53599500D01*
X120697598Y-53569059D01*
X120607606Y-53531783D01*
X120506420Y-53489870D01*
X120506412Y-53489868D01*
X120303469Y-53449500D01*
X120303465Y-53449500D01*
X120096535Y-53449500D01*
X120096530Y-53449500D01*
X119893587Y-53489868D01*
X119893579Y-53489870D01*
X119702403Y-53569058D01*
X119530342Y-53684024D01*
X119384024Y-53830342D01*
X119269058Y-54002403D01*
X119189870Y-54193579D01*
X119189868Y-54193587D01*
X119149500Y-54396530D01*
X119149500Y-54603469D01*
X119189868Y-54806412D01*
X119189870Y-54806420D01*
X119269058Y-54997596D01*
X119384024Y-55169657D01*
X119530342Y-55315975D01*
X119530345Y-55315977D01*
X119702402Y-55430941D01*
X119893580Y-55510130D01*
X120096530Y-55550499D01*
X120096534Y-55550500D01*
X120096535Y-55550500D01*
X120303466Y-55550500D01*
X120303467Y-55550499D01*
X120506420Y-55510130D01*
X120697598Y-55430941D01*
X120869655Y-55315977D01*
X120913731Y-55271901D01*
X120987819Y-55197814D01*
X121049142Y-55164329D01*
X121118834Y-55169313D01*
X121174767Y-55211185D01*
X121199184Y-55276649D01*
X121199500Y-55285495D01*
X121199500Y-56254504D01*
X121179815Y-56321543D01*
X121127011Y-56367298D01*
X121057853Y-56377242D01*
X120994297Y-56348217D01*
X120987819Y-56342185D01*
X120869657Y-56224023D01*
X120730447Y-56131007D01*
X120697598Y-56109058D01*
X120624824Y-56078914D01*
X120506420Y-56029869D01*
X120506412Y-56029867D01*
X120303469Y-55989499D01*
X120303465Y-55989499D01*
X120096535Y-55989499D01*
X120096530Y-55989499D01*
X119893587Y-56029867D01*
X119893579Y-56029869D01*
X119702403Y-56109057D01*
X119530342Y-56224023D01*
X119384024Y-56370341D01*
X119269058Y-56542402D01*
X119189870Y-56733578D01*
X119189868Y-56733586D01*
X119149500Y-56936529D01*
X119149500Y-57143468D01*
X119189868Y-57346411D01*
X119189870Y-57346419D01*
X119269059Y-57537598D01*
X119269059Y-57537599D01*
X119375974Y-57697609D01*
X119396852Y-57764286D01*
X119378367Y-57831666D01*
X119326388Y-57878356D01*
X119272872Y-57890499D01*
X101432518Y-57890499D01*
X101365479Y-57870814D01*
X101344837Y-57854180D01*
X100646543Y-57155886D01*
X100346546Y-56855888D01*
X100346545Y-56855887D01*
X100231807Y-56779222D01*
X100104332Y-56726421D01*
X100104322Y-56726418D01*
X99968996Y-56699500D01*
X99968994Y-56699500D01*
X99968993Y-56699500D01*
X91241519Y-56699500D01*
X91174480Y-56679815D01*
X91153838Y-56663181D01*
X90146546Y-55655888D01*
X90146545Y-55655887D01*
X90031807Y-55579222D01*
X89904332Y-55526421D01*
X89904322Y-55526418D01*
X89768996Y-55499500D01*
X89768994Y-55499500D01*
X89768993Y-55499500D01*
X73631007Y-55499500D01*
X73631005Y-55499500D01*
X73495677Y-55526418D01*
X73495667Y-55526421D01*
X73368195Y-55579221D01*
X73368182Y-55579228D01*
X73253458Y-55655885D01*
X73253454Y-55655888D01*
X73155888Y-55753454D01*
X73155885Y-55753458D01*
X73079228Y-55868182D01*
X73079221Y-55868195D01*
X73026421Y-55995667D01*
X73026418Y-55995677D01*
X72999500Y-56131004D01*
X72999500Y-56131007D01*
X72999500Y-56268993D01*
X72999500Y-56268995D01*
X72999499Y-56268995D01*
X73026418Y-56404322D01*
X73026421Y-56404332D01*
X73079221Y-56531804D01*
X73079228Y-56531817D01*
X73155885Y-56646541D01*
X73155888Y-56646545D01*
X73247162Y-56737819D01*
X73280647Y-56799142D01*
X73275663Y-56868834D01*
X73233791Y-56924767D01*
X73168327Y-56949184D01*
X73159481Y-56949500D01*
X72140691Y-56949500D01*
X72050325Y-56973713D01*
X72050324Y-56973712D01*
X72026115Y-56980200D01*
X72026106Y-56980204D01*
X71923392Y-57039505D01*
X71923384Y-57039511D01*
X69999597Y-58963299D01*
X69938274Y-58996784D01*
X69928107Y-58998556D01*
X69920949Y-58999498D01*
X69768216Y-59040423D01*
X69768209Y-59040426D01*
X69631290Y-59119475D01*
X69625557Y-59123875D01*
X69560388Y-59149070D01*
X69550069Y-59149500D01*
X67550098Y-59149500D01*
X67483059Y-59129815D01*
X67462417Y-59113181D01*
X67368717Y-59019481D01*
X67368709Y-59019475D01*
X67231790Y-58940426D01*
X67231786Y-58940424D01*
X67231784Y-58940423D01*
X67079057Y-58899500D01*
X66920943Y-58899500D01*
X66768216Y-58940423D01*
X66768209Y-58940426D01*
X66631290Y-59019475D01*
X66625557Y-59023875D01*
X66560388Y-59049070D01*
X66550069Y-59049500D01*
X62449931Y-59049500D01*
X62382892Y-59029815D01*
X62374443Y-59023875D01*
X62368709Y-59019475D01*
X62231790Y-58940426D01*
X62231786Y-58940424D01*
X62231784Y-58940423D01*
X62079057Y-58899500D01*
X61920943Y-58899500D01*
X61768216Y-58940423D01*
X61768209Y-58940426D01*
X61631290Y-59019475D01*
X61631282Y-59019481D01*
X61519481Y-59131282D01*
X61519475Y-59131290D01*
X61440426Y-59268209D01*
X61440423Y-59268216D01*
X61399500Y-59420943D01*
X54557482Y-59420943D01*
X54595500Y-59279057D01*
X54595500Y-59120943D01*
X54554577Y-58968216D01*
X54544060Y-58950000D01*
X54475524Y-58831290D01*
X54475518Y-58831282D01*
X54363717Y-58719481D01*
X54363709Y-58719475D01*
X54226790Y-58640426D01*
X54226786Y-58640424D01*
X54226784Y-58640423D01*
X54074057Y-58599500D01*
X53915943Y-58599500D01*
X53763216Y-58640423D01*
X53763209Y-58640426D01*
X53626290Y-58719475D01*
X53626282Y-58719481D01*
X53514481Y-58831282D01*
X53514475Y-58831290D01*
X53435426Y-58968209D01*
X53435423Y-58968214D01*
X53403877Y-59085947D01*
X53367511Y-59145607D01*
X53304664Y-59176136D01*
X53235289Y-59167841D01*
X53181411Y-59123355D01*
X53164327Y-59085945D01*
X53163680Y-59083531D01*
X53159577Y-59068216D01*
X53158908Y-59067058D01*
X53080524Y-58931290D01*
X53080518Y-58931282D01*
X52968717Y-58819481D01*
X52968709Y-58819475D01*
X52831790Y-58740426D01*
X52831786Y-58740424D01*
X52831784Y-58740423D01*
X52679057Y-58699500D01*
X52520943Y-58699500D01*
X52368216Y-58740423D01*
X52368209Y-58740426D01*
X52231290Y-58819475D01*
X52231282Y-58819481D01*
X52119481Y-58931282D01*
X52119475Y-58931290D01*
X52040426Y-59068209D01*
X52040423Y-59068216D01*
X51999498Y-59220949D01*
X51998556Y-59228107D01*
X51970287Y-59292003D01*
X51963299Y-59299597D01*
X50487513Y-60775383D01*
X50487509Y-60775389D01*
X50428201Y-60878112D01*
X50428200Y-60878117D01*
X50397500Y-60992691D01*
X49550500Y-60992691D01*
X49550500Y-59237965D01*
X49570185Y-59170926D01*
X49586819Y-59150284D01*
X50064114Y-58672989D01*
X50601445Y-58135657D01*
X50662766Y-58102174D01*
X50672942Y-58100400D01*
X50680086Y-58099459D01*
X50680098Y-58099459D01*
X50832825Y-58058536D01*
X50969757Y-57979479D01*
X51081561Y-57867675D01*
X51160618Y-57730743D01*
X51201541Y-57578016D01*
X51201541Y-57419902D01*
X51160618Y-57267175D01*
X51160614Y-57267168D01*
X51081565Y-57130249D01*
X51081559Y-57130241D01*
X50969758Y-57018440D01*
X50969750Y-57018434D01*
X50832831Y-56939385D01*
X50832827Y-56939383D01*
X50832825Y-56939382D01*
X50680098Y-56898459D01*
X50521984Y-56898459D01*
X50369257Y-56939382D01*
X50369250Y-56939385D01*
X50232331Y-57018434D01*
X50232323Y-57018440D01*
X50120522Y-57130241D01*
X50120516Y-57130249D01*
X50041467Y-57267168D01*
X50041464Y-57267175D01*
X50000539Y-57419908D01*
X49999597Y-57427066D01*
X49971328Y-57490962D01*
X49964340Y-57498556D01*
X48903393Y-58559503D01*
X48842070Y-58592988D01*
X48772378Y-58588004D01*
X48716445Y-58546132D01*
X48695937Y-58503915D01*
X48659577Y-58368216D01*
X48659573Y-58368209D01*
X48580524Y-58231290D01*
X48580518Y-58231282D01*
X48468717Y-58119481D01*
X48468709Y-58119475D01*
X48331790Y-58040426D01*
X48331786Y-58040424D01*
X48331784Y-58040423D01*
X48182789Y-58000500D01*
X48179050Y-57999498D01*
X48171893Y-57998556D01*
X48107997Y-57970287D01*
X48100402Y-57963299D01*
X47926616Y-57789513D01*
X47926614Y-57789511D01*
X47823887Y-57730201D01*
X47785065Y-57719799D01*
X47709309Y-57699500D01*
X47569410Y-57699500D01*
X47563157Y-57698865D01*
X47536383Y-57687959D01*
X47508647Y-57679815D01*
X47504423Y-57674941D01*
X47498450Y-57672508D01*
X47481820Y-57648855D01*
X47462892Y-57627011D01*
X47461974Y-57620628D01*
X47458264Y-57615351D01*
X47457061Y-57586464D01*
X47452948Y-57557853D01*
X47455486Y-57548598D01*
X47455359Y-57545542D01*
X47457175Y-57542438D01*
X47457912Y-57539752D01*
X47457473Y-57539635D01*
X47470515Y-57490962D01*
X47500500Y-57379057D01*
X47500500Y-57220943D01*
X47459577Y-57068216D01*
X47443262Y-57039957D01*
X47380524Y-56931290D01*
X47380518Y-56931282D01*
X47268717Y-56819481D01*
X47268709Y-56819475D01*
X47131790Y-56740426D01*
X47131786Y-56740424D01*
X47131784Y-56740423D01*
X46979057Y-56699500D01*
X46820943Y-56699500D01*
X46668216Y-56740423D01*
X46668209Y-56740426D01*
X46531290Y-56819475D01*
X46525557Y-56823875D01*
X46460388Y-56849070D01*
X46450069Y-56849500D01*
X37556995Y-56849500D01*
X37489956Y-56829815D01*
X37469314Y-56813181D01*
X37215163Y-56559030D01*
X37181678Y-56497707D01*
X37179905Y-56487532D01*
X37178963Y-56480378D01*
X37178963Y-56480376D01*
X37138040Y-56327649D01*
X37134515Y-56321543D01*
X37058987Y-56190723D01*
X37058981Y-56190715D01*
X36947180Y-56078914D01*
X36947172Y-56078908D01*
X36810253Y-55999859D01*
X36810249Y-55999857D01*
X36810247Y-55999856D01*
X36657520Y-55958933D01*
X36499406Y-55958933D01*
X36346679Y-55999856D01*
X36346672Y-55999859D01*
X36209753Y-56078908D01*
X36209745Y-56078914D01*
X36097944Y-56190715D01*
X36097938Y-56190723D01*
X36018889Y-56327642D01*
X36018886Y-56327649D01*
X35977963Y-56480376D01*
X25300500Y-56480376D01*
X25300500Y-49717273D01*
X25320185Y-49650234D01*
X25372989Y-49604479D01*
X25442147Y-49594535D01*
X25505703Y-49623560D01*
X25514192Y-49632282D01*
X25514300Y-49632175D01*
X25608514Y-49726389D01*
X25608522Y-49726395D01*
X25714238Y-49797032D01*
X25714241Y-49797034D01*
X25831715Y-49845694D01*
X25942508Y-49867732D01*
X25956419Y-49870499D01*
X25956423Y-49870500D01*
X25956424Y-49870500D01*
X26743577Y-49870500D01*
X26743578Y-49870499D01*
X26868285Y-49845694D01*
X26985759Y-49797034D01*
X27091482Y-49726392D01*
X27181392Y-49636482D01*
X27252034Y-49530759D01*
X27300694Y-49413285D01*
X27325500Y-49288576D01*
X27325500Y-49161424D01*
X27300694Y-49036715D01*
X27252034Y-48919241D01*
X27181392Y-48813518D01*
X27181389Y-48813514D01*
X27091485Y-48723610D01*
X27091477Y-48723604D01*
X26985761Y-48652967D01*
X26985757Y-48652965D01*
X26868285Y-48604306D01*
X26868277Y-48604304D01*
X26743580Y-48579500D01*
X26743576Y-48579500D01*
X25956424Y-48579500D01*
X25956419Y-48579500D01*
X25831722Y-48604304D01*
X25831714Y-48604306D01*
X25714242Y-48652965D01*
X25714238Y-48652967D01*
X25608522Y-48723604D01*
X25608514Y-48723610D01*
X25514300Y-48817825D01*
X25512925Y-48816450D01*
X25462607Y-48850725D01*
X25392763Y-48852596D01*
X25332994Y-48816408D01*
X25302279Y-48753652D01*
X25300500Y-48732726D01*
X25300500Y-48441532D01*
X28374499Y-48441532D01*
X28400458Y-48572029D01*
X28400461Y-48572039D01*
X28451376Y-48694960D01*
X28451386Y-48694978D01*
X28525301Y-48805600D01*
X28525307Y-48805608D01*
X28619390Y-48899691D01*
X28619398Y-48899697D01*
X28730020Y-48973612D01*
X28730023Y-48973613D01*
X28730031Y-48973619D01*
X28852964Y-49024539D01*
X28852968Y-49024539D01*
X28852969Y-49024540D01*
X28983466Y-49050499D01*
X28983469Y-49050499D01*
X29116533Y-49050499D01*
X29224328Y-49029056D01*
X29247036Y-49024539D01*
X29369969Y-48973619D01*
X29480606Y-48899694D01*
X29574695Y-48805605D01*
X29648620Y-48694968D01*
X29699540Y-48572035D01*
X29718781Y-48475307D01*
X29725500Y-48441532D01*
X29725500Y-48008465D01*
X29699541Y-47877968D01*
X29699540Y-47877967D01*
X29699540Y-47877963D01*
X29699538Y-47877958D01*
X29650790Y-47760268D01*
X29650789Y-47760267D01*
X29648624Y-47755039D01*
X29648622Y-47755036D01*
X29648620Y-47755030D01*
X29625843Y-47720943D01*
X37999500Y-47720943D01*
X37999500Y-47879057D01*
X38036188Y-48015976D01*
X38040423Y-48031783D01*
X38040426Y-48031790D01*
X38119475Y-48168709D01*
X38119479Y-48168714D01*
X38119480Y-48168716D01*
X38231284Y-48280520D01*
X38231286Y-48280521D01*
X38231290Y-48280524D01*
X38352494Y-48350500D01*
X38368216Y-48359577D01*
X38520943Y-48400500D01*
X38520945Y-48400500D01*
X38528099Y-48401442D01*
X38574908Y-48417573D01*
X38588466Y-48425569D01*
X38623386Y-48460489D01*
X38726113Y-48519799D01*
X38750326Y-48526286D01*
X38840691Y-48550500D01*
X41974315Y-48550500D01*
X42041354Y-48570185D01*
X42087109Y-48622989D01*
X42097053Y-48692147D01*
X42092088Y-48710247D01*
X42092528Y-48710365D01*
X42090424Y-48718214D01*
X42090424Y-48718216D01*
X42049501Y-48870943D01*
X42049501Y-49029057D01*
X42084969Y-49161423D01*
X42090424Y-49181783D01*
X42090427Y-49181790D01*
X42169476Y-49318709D01*
X42169480Y-49318714D01*
X42169481Y-49318716D01*
X42281285Y-49430520D01*
X42281287Y-49430521D01*
X42281291Y-49430524D01*
X42371917Y-49482846D01*
X42418217Y-49509577D01*
X42570944Y-49550500D01*
X42572860Y-49550500D01*
X42574711Y-49550995D01*
X42579004Y-49551561D01*
X42578929Y-49552125D01*
X42586955Y-49554275D01*
X42593285Y-49553365D01*
X42595933Y-49554281D01*
X42602066Y-49553988D01*
X42634794Y-49567087D01*
X42634833Y-49567097D01*
X42637625Y-49568709D01*
X42637637Y-49568716D01*
X42637639Y-49568717D01*
X42726109Y-49619796D01*
X42726110Y-49619797D01*
X42726112Y-49619797D01*
X42726115Y-49619799D01*
X42840692Y-49650500D01*
X62950069Y-49650500D01*
X63017108Y-49670185D01*
X63025557Y-49676125D01*
X63031281Y-49680517D01*
X63031284Y-49680520D01*
X63031287Y-49680521D01*
X63031290Y-49680524D01*
X63168209Y-49759573D01*
X63168216Y-49759577D01*
X63320943Y-49800500D01*
X63320945Y-49800500D01*
X63479055Y-49800500D01*
X63479057Y-49800500D01*
X63631784Y-49759577D01*
X63768716Y-49680520D01*
X63880520Y-49568716D01*
X63959577Y-49431784D01*
X64000500Y-49279057D01*
X64000500Y-49120943D01*
X63959577Y-48968216D01*
X63959573Y-48968209D01*
X63880524Y-48831290D01*
X63880518Y-48831282D01*
X63768717Y-48719481D01*
X63768709Y-48719475D01*
X63631790Y-48640426D01*
X63631786Y-48640424D01*
X63631784Y-48640423D01*
X63479057Y-48599500D01*
X63320943Y-48599500D01*
X63168216Y-48640423D01*
X63168209Y-48640426D01*
X63031290Y-48719475D01*
X63025557Y-48723875D01*
X62960388Y-48749070D01*
X62950069Y-48749500D01*
X62265603Y-48749500D01*
X62198564Y-48729815D01*
X62152809Y-48677011D01*
X62142865Y-48607853D01*
X62171890Y-48544297D01*
X62203603Y-48518113D01*
X62237579Y-48498496D01*
X62268716Y-48480520D01*
X62380520Y-48368716D01*
X62459577Y-48231784D01*
X62500500Y-48079057D01*
X62500500Y-47920943D01*
X62459577Y-47768216D01*
X62432284Y-47720943D01*
X62380524Y-47631290D01*
X62380518Y-47631282D01*
X62268717Y-47519481D01*
X62268709Y-47519475D01*
X62131790Y-47440426D01*
X62131786Y-47440424D01*
X62131784Y-47440423D01*
X61979057Y-47399500D01*
X61820943Y-47399500D01*
X61668216Y-47440423D01*
X61668209Y-47440426D01*
X61531290Y-47519475D01*
X61531282Y-47519481D01*
X61437583Y-47613181D01*
X61376260Y-47646666D01*
X61349902Y-47649500D01*
X39276100Y-47649500D01*
X39209061Y-47629815D01*
X39163306Y-47577011D01*
X39161539Y-47572952D01*
X39159576Y-47568213D01*
X39080524Y-47431290D01*
X39080518Y-47431282D01*
X38968717Y-47319481D01*
X38968709Y-47319475D01*
X38831790Y-47240426D01*
X38831786Y-47240424D01*
X38831784Y-47240423D01*
X38679057Y-47199500D01*
X38520943Y-47199500D01*
X38368216Y-47240423D01*
X38368209Y-47240426D01*
X38231290Y-47319475D01*
X38231282Y-47319481D01*
X38119481Y-47431282D01*
X38119475Y-47431290D01*
X38040426Y-47568209D01*
X38040423Y-47568216D01*
X37999500Y-47720943D01*
X29625843Y-47720943D01*
X29624022Y-47718217D01*
X29574698Y-47644397D01*
X29574692Y-47644389D01*
X29480609Y-47550306D01*
X29480601Y-47550300D01*
X29369979Y-47476385D01*
X29369972Y-47476381D01*
X29369969Y-47476379D01*
X29369965Y-47476377D01*
X29369961Y-47476375D01*
X29247040Y-47425460D01*
X29247030Y-47425457D01*
X29116533Y-47399499D01*
X29116531Y-47399499D01*
X28983469Y-47399499D01*
X28983467Y-47399499D01*
X28852969Y-47425457D01*
X28852959Y-47425460D01*
X28730038Y-47476375D01*
X28730020Y-47476385D01*
X28619398Y-47550300D01*
X28619390Y-47550306D01*
X28525307Y-47644389D01*
X28525301Y-47644397D01*
X28451386Y-47755019D01*
X28451376Y-47755037D01*
X28400461Y-47877958D01*
X28400458Y-47877968D01*
X28374500Y-48008465D01*
X28374500Y-48008468D01*
X28374500Y-48441530D01*
X28374500Y-48441532D01*
X28374499Y-48441532D01*
X25300500Y-48441532D01*
X25300500Y-44801164D01*
X40156584Y-44801164D01*
X40156584Y-44959278D01*
X40167362Y-44999500D01*
X40197507Y-45112004D01*
X40197510Y-45112011D01*
X40276559Y-45248930D01*
X40276565Y-45248938D01*
X40345167Y-45317540D01*
X40378652Y-45378863D01*
X40373668Y-45448555D01*
X40345167Y-45492902D01*
X40276565Y-45561503D01*
X40276559Y-45561511D01*
X40197510Y-45698430D01*
X40197507Y-45698437D01*
X40156584Y-45851164D01*
X40156584Y-46009278D01*
X40196857Y-46159577D01*
X40197507Y-46162004D01*
X40197510Y-46162011D01*
X40276559Y-46298930D01*
X40276563Y-46298935D01*
X40276564Y-46298937D01*
X40388368Y-46410741D01*
X40388370Y-46410742D01*
X40388374Y-46410745D01*
X40525293Y-46489794D01*
X40525300Y-46489798D01*
X40678027Y-46530721D01*
X40678029Y-46530721D01*
X40836139Y-46530721D01*
X40836141Y-46530721D01*
X40988868Y-46489798D01*
X41108129Y-46420943D01*
X43199500Y-46420943D01*
X43199500Y-46579057D01*
X43237127Y-46719481D01*
X43240423Y-46731783D01*
X43240426Y-46731790D01*
X43319475Y-46868709D01*
X43319479Y-46868714D01*
X43319480Y-46868716D01*
X43431284Y-46980520D01*
X43431286Y-46980521D01*
X43431290Y-46980524D01*
X43552494Y-47050500D01*
X43568216Y-47059577D01*
X43720943Y-47100500D01*
X43720945Y-47100500D01*
X43879055Y-47100500D01*
X43879057Y-47100500D01*
X44031784Y-47059577D01*
X44031785Y-47059576D01*
X44039635Y-47057473D01*
X44039820Y-47058165D01*
X44078363Y-47050500D01*
X69450069Y-47050500D01*
X69517108Y-47070185D01*
X69525557Y-47076125D01*
X69531281Y-47080517D01*
X69531284Y-47080520D01*
X69531287Y-47080521D01*
X69531290Y-47080524D01*
X69659244Y-47154397D01*
X69668216Y-47159577D01*
X69820943Y-47200500D01*
X69820945Y-47200500D01*
X69979055Y-47200500D01*
X69979057Y-47200500D01*
X70131784Y-47159577D01*
X70268716Y-47080520D01*
X70380520Y-46968716D01*
X70459577Y-46831784D01*
X70500500Y-46679057D01*
X70500500Y-46520943D01*
X70459577Y-46368216D01*
X70435427Y-46326386D01*
X70380524Y-46231290D01*
X70380518Y-46231282D01*
X70268717Y-46119481D01*
X70268709Y-46119475D01*
X70131790Y-46040426D01*
X70131786Y-46040424D01*
X70131784Y-46040423D01*
X69979057Y-45999500D01*
X69820943Y-45999500D01*
X69668216Y-46040423D01*
X69668209Y-46040426D01*
X69531290Y-46119475D01*
X69525557Y-46123875D01*
X69460388Y-46149070D01*
X69450069Y-46149500D01*
X44350098Y-46149500D01*
X44283059Y-46129815D01*
X44262417Y-46113181D01*
X44168717Y-46019481D01*
X44168709Y-46019475D01*
X44031790Y-45940426D01*
X44031786Y-45940424D01*
X44031784Y-45940423D01*
X43879057Y-45899500D01*
X43720943Y-45899500D01*
X43568216Y-45940423D01*
X43568209Y-45940426D01*
X43431290Y-46019475D01*
X43431282Y-46019481D01*
X43319481Y-46131282D01*
X43319475Y-46131290D01*
X43240426Y-46268209D01*
X43240423Y-46268216D01*
X43199500Y-46420943D01*
X41108129Y-46420943D01*
X41125800Y-46410741D01*
X41237604Y-46298937D01*
X41316661Y-46162005D01*
X41354007Y-46022627D01*
X41390371Y-45962968D01*
X41453218Y-45932439D01*
X41473781Y-45930722D01*
X42021701Y-45930722D01*
X42021717Y-45930721D01*
X42727537Y-45930721D01*
X42727539Y-45930721D01*
X42803966Y-45910242D01*
X42872488Y-45870681D01*
X42928437Y-45814732D01*
X45906349Y-42836820D01*
X45967672Y-42803335D01*
X45994030Y-42800501D01*
X57783303Y-42800501D01*
X57850342Y-42820186D01*
X57896097Y-42872990D01*
X57903075Y-42892401D01*
X57934176Y-43008470D01*
X57940423Y-43031783D01*
X57940426Y-43031790D01*
X58019475Y-43168709D01*
X58019479Y-43168714D01*
X58019480Y-43168716D01*
X58131284Y-43280520D01*
X58131285Y-43280521D01*
X58131287Y-43280522D01*
X58142825Y-43287183D01*
X58191043Y-43337748D01*
X58204268Y-43406354D01*
X58178302Y-43471220D01*
X58168511Y-43482252D01*
X58119481Y-43531282D01*
X58119475Y-43531290D01*
X58040426Y-43668209D01*
X58040423Y-43668216D01*
X57999500Y-43820943D01*
X57999500Y-43979057D01*
X58018644Y-44050501D01*
X58040423Y-44131783D01*
X58040426Y-44131790D01*
X58119475Y-44268709D01*
X58119479Y-44268714D01*
X58119480Y-44268716D01*
X58231284Y-44380520D01*
X58231286Y-44380521D01*
X58231290Y-44380524D01*
X58340307Y-44443464D01*
X58368216Y-44459577D01*
X58520943Y-44500500D01*
X58520945Y-44500500D01*
X58679055Y-44500500D01*
X58679057Y-44500500D01*
X58831784Y-44459577D01*
X58968716Y-44380520D01*
X58968721Y-44380514D01*
X58974443Y-44376125D01*
X59039612Y-44350930D01*
X59049931Y-44350500D01*
X59659308Y-44350500D01*
X59659309Y-44350500D01*
X59749673Y-44326286D01*
X59773887Y-44319799D01*
X59876614Y-44260489D01*
X62016159Y-42120943D01*
X63299500Y-42120943D01*
X63299500Y-42279057D01*
X63340289Y-42431282D01*
X63340423Y-42431783D01*
X63340426Y-42431790D01*
X63419475Y-42568709D01*
X63419479Y-42568714D01*
X63419480Y-42568716D01*
X63531284Y-42680520D01*
X63531286Y-42680521D01*
X63531290Y-42680524D01*
X63618613Y-42730939D01*
X63668216Y-42759577D01*
X63820943Y-42800500D01*
X63820945Y-42800500D01*
X63979055Y-42800500D01*
X63979057Y-42800500D01*
X64131784Y-42759577D01*
X64268716Y-42680520D01*
X64268721Y-42680514D01*
X64274443Y-42676125D01*
X64339612Y-42650930D01*
X64349931Y-42650500D01*
X73667175Y-42650500D01*
X73734214Y-42670185D01*
X73754856Y-42686819D01*
X77479526Y-46411489D01*
X77512042Y-46430262D01*
X77582254Y-46470799D01*
X77696831Y-46501500D01*
X82049500Y-46501500D01*
X82116539Y-46521185D01*
X82162294Y-46573989D01*
X82173500Y-46625500D01*
X82173500Y-46779057D01*
X82214195Y-46930931D01*
X82214423Y-46931783D01*
X82214426Y-46931790D01*
X82293475Y-47068709D01*
X82293479Y-47068714D01*
X82293480Y-47068716D01*
X82405284Y-47180520D01*
X82405286Y-47180521D01*
X82405290Y-47180524D01*
X82497078Y-47233517D01*
X82542216Y-47259577D01*
X82694943Y-47300500D01*
X82694945Y-47300500D01*
X82702099Y-47301442D01*
X82765996Y-47329707D01*
X82773597Y-47336700D01*
X85304629Y-49867732D01*
X85338114Y-49929055D01*
X85333130Y-49998747D01*
X85291258Y-50054680D01*
X85278948Y-50062800D01*
X85195462Y-50111000D01*
X85195457Y-50111004D01*
X85083656Y-50222805D01*
X85083650Y-50222813D01*
X85004601Y-50359732D01*
X85004598Y-50359739D01*
X84963675Y-50512466D01*
X84963675Y-50670580D01*
X84984991Y-50750130D01*
X85004598Y-50823306D01*
X85004601Y-50823313D01*
X85083650Y-50960232D01*
X85083656Y-50960240D01*
X85161235Y-51037819D01*
X85194720Y-51099142D01*
X85189736Y-51168834D01*
X85147864Y-51224767D01*
X85082400Y-51249184D01*
X85073554Y-51249500D01*
X80137966Y-51249500D01*
X80070927Y-51229815D01*
X80050285Y-51213181D01*
X74736700Y-45899596D01*
X74703215Y-45838273D01*
X74701442Y-45828100D01*
X74700500Y-45820944D01*
X74700108Y-45819480D01*
X74659577Y-45668216D01*
X74619960Y-45599597D01*
X74580524Y-45531290D01*
X74580518Y-45531282D01*
X74468717Y-45419481D01*
X74468709Y-45419475D01*
X74331790Y-45340426D01*
X74331786Y-45340424D01*
X74331784Y-45340423D01*
X74179057Y-45299500D01*
X74020943Y-45299500D01*
X73868216Y-45340423D01*
X73868209Y-45340426D01*
X73731290Y-45419475D01*
X73731282Y-45419481D01*
X73619481Y-45531282D01*
X73619475Y-45531290D01*
X73540426Y-45668209D01*
X73540423Y-45668216D01*
X73499500Y-45820943D01*
X73499500Y-45850902D01*
X73479815Y-45917941D01*
X73427011Y-45963696D01*
X73357853Y-45973640D01*
X73294297Y-45944615D01*
X73287819Y-45938583D01*
X73268717Y-45919481D01*
X73268709Y-45919475D01*
X73131790Y-45840426D01*
X73131786Y-45840424D01*
X73131784Y-45840423D01*
X72979057Y-45799500D01*
X72820943Y-45799500D01*
X72668216Y-45840423D01*
X72668209Y-45840426D01*
X72531290Y-45919475D01*
X72531282Y-45919481D01*
X72419481Y-46031282D01*
X72419475Y-46031290D01*
X72340426Y-46168209D01*
X72340423Y-46168216D01*
X72299500Y-46320943D01*
X72299500Y-46479057D01*
X72338899Y-46626094D01*
X72340423Y-46631783D01*
X72340426Y-46631790D01*
X72419475Y-46768709D01*
X72419479Y-46768714D01*
X72419480Y-46768716D01*
X72531284Y-46880520D01*
X72531286Y-46880521D01*
X72531290Y-46880524D01*
X72620087Y-46931790D01*
X72668216Y-46959577D01*
X72820943Y-47000500D01*
X72820945Y-47000500D01*
X72828099Y-47001442D01*
X72891996Y-47029707D01*
X72899597Y-47036700D01*
X78700716Y-52837819D01*
X78734201Y-52899142D01*
X78729217Y-52968834D01*
X78687345Y-53024767D01*
X78621881Y-53049184D01*
X78613035Y-53049500D01*
X78137965Y-53049500D01*
X78070926Y-53029815D01*
X78050284Y-53013181D01*
X72236700Y-47199597D01*
X72203215Y-47138274D01*
X72201442Y-47128099D01*
X72200500Y-47120945D01*
X72200500Y-47120943D01*
X72159577Y-46968216D01*
X72116486Y-46893579D01*
X72080524Y-46831290D01*
X72080518Y-46831282D01*
X71968717Y-46719481D01*
X71968709Y-46719475D01*
X71831790Y-46640426D01*
X71831786Y-46640424D01*
X71831784Y-46640423D01*
X71679057Y-46599500D01*
X71520943Y-46599500D01*
X71368216Y-46640423D01*
X71368209Y-46640426D01*
X71231290Y-46719475D01*
X71231282Y-46719481D01*
X71119481Y-46831282D01*
X71119475Y-46831290D01*
X71040426Y-46968209D01*
X71040423Y-46968216D01*
X70999500Y-47120943D01*
X70999500Y-47279057D01*
X71040289Y-47431282D01*
X71040423Y-47431783D01*
X71040426Y-47431790D01*
X71119475Y-47568709D01*
X71119479Y-47568714D01*
X71119480Y-47568716D01*
X71231284Y-47680520D01*
X71231286Y-47680521D01*
X71231290Y-47680524D01*
X71301299Y-47720943D01*
X71368216Y-47759577D01*
X71520943Y-47800500D01*
X71520945Y-47800500D01*
X71528099Y-47801442D01*
X71591996Y-47829707D01*
X71599597Y-47836700D01*
X77623386Y-53860489D01*
X77637636Y-53868716D01*
X77637635Y-53868716D01*
X77637638Y-53868717D01*
X77723194Y-53918114D01*
X77771409Y-53968681D01*
X77784631Y-54037288D01*
X77758663Y-54102153D01*
X77701748Y-54142681D01*
X77661193Y-54149500D01*
X71437965Y-54149500D01*
X71370926Y-54129815D01*
X71350284Y-54113181D01*
X69336700Y-52099597D01*
X69303215Y-52038274D01*
X69301442Y-52028099D01*
X69300500Y-52020945D01*
X69300500Y-52020943D01*
X69259577Y-51868216D01*
X69259573Y-51868209D01*
X69180524Y-51731290D01*
X69180518Y-51731282D01*
X69068717Y-51619481D01*
X69068709Y-51619475D01*
X68931790Y-51540426D01*
X68931786Y-51540424D01*
X68931784Y-51540423D01*
X68779057Y-51499500D01*
X68620943Y-51499500D01*
X68468216Y-51540423D01*
X68468209Y-51540426D01*
X68331290Y-51619475D01*
X68331282Y-51619481D01*
X68219481Y-51731282D01*
X68219475Y-51731290D01*
X68140426Y-51868209D01*
X68140423Y-51868216D01*
X68099500Y-52020943D01*
X68099500Y-52179057D01*
X68132041Y-52300500D01*
X68140423Y-52331783D01*
X68140426Y-52331790D01*
X68219475Y-52468709D01*
X68219479Y-52468714D01*
X68219480Y-52468716D01*
X68331284Y-52580520D01*
X68331286Y-52580521D01*
X68331290Y-52580524D01*
X68453959Y-52651346D01*
X68468216Y-52659577D01*
X68620943Y-52700500D01*
X68620945Y-52700500D01*
X68628099Y-52701442D01*
X68691996Y-52729707D01*
X68699597Y-52736700D01*
X70923386Y-54960489D01*
X71026113Y-55019799D01*
X71049674Y-55026112D01*
X71049676Y-55026113D01*
X71049677Y-55026113D01*
X71068910Y-55031266D01*
X71140691Y-55050500D01*
X96950069Y-55050500D01*
X97017108Y-55070185D01*
X97025557Y-55076125D01*
X97031281Y-55080517D01*
X97031284Y-55080520D01*
X97031287Y-55080521D01*
X97031290Y-55080524D01*
X97101299Y-55120943D01*
X97168216Y-55159577D01*
X97320943Y-55200500D01*
X97320945Y-55200500D01*
X97479055Y-55200500D01*
X97479057Y-55200500D01*
X97631784Y-55159577D01*
X97768716Y-55080520D01*
X97880520Y-54968716D01*
X97959577Y-54831784D01*
X98000500Y-54679057D01*
X98000500Y-54520943D01*
X97959577Y-54368216D01*
X97908101Y-54279056D01*
X97880524Y-54231290D01*
X97880518Y-54231282D01*
X97811417Y-54162181D01*
X97777932Y-54100858D01*
X97782916Y-54031166D01*
X97824788Y-53975233D01*
X97890252Y-53950816D01*
X97899098Y-53950500D01*
X101550069Y-53950500D01*
X101617108Y-53970185D01*
X101625557Y-53976125D01*
X101631281Y-53980517D01*
X101631284Y-53980520D01*
X101631287Y-53980521D01*
X101631290Y-53980524D01*
X101719006Y-54031166D01*
X101768216Y-54059577D01*
X101903916Y-54095937D01*
X101963576Y-54132302D01*
X101994105Y-54195149D01*
X101985810Y-54264525D01*
X101959503Y-54303393D01*
X101699597Y-54563299D01*
X101638274Y-54596784D01*
X101628107Y-54598556D01*
X101620949Y-54599498D01*
X101468216Y-54640423D01*
X101468209Y-54640426D01*
X101331290Y-54719475D01*
X101331282Y-54719481D01*
X101219481Y-54831282D01*
X101219475Y-54831290D01*
X101140426Y-54968209D01*
X101140423Y-54968216D01*
X101099500Y-55120943D01*
X101099500Y-55279056D01*
X101140423Y-55431783D01*
X101140426Y-55431790D01*
X101219475Y-55568709D01*
X101219479Y-55568714D01*
X101219480Y-55568716D01*
X101331284Y-55680520D01*
X101331286Y-55680521D01*
X101331290Y-55680524D01*
X101457617Y-55753458D01*
X101468216Y-55759577D01*
X101620943Y-55800500D01*
X101620945Y-55800500D01*
X101779055Y-55800500D01*
X101779057Y-55800500D01*
X101931784Y-55759577D01*
X102068716Y-55680520D01*
X102180520Y-55568716D01*
X102259577Y-55431784D01*
X102300500Y-55279057D01*
X102300500Y-55279044D01*
X102301441Y-55271901D01*
X102329707Y-55208003D01*
X102336688Y-55200414D01*
X102850284Y-54686819D01*
X102911607Y-54653334D01*
X102937965Y-54650500D01*
X107550069Y-54650500D01*
X107617108Y-54670185D01*
X107625557Y-54676125D01*
X107631281Y-54680517D01*
X107631284Y-54680520D01*
X107631287Y-54680521D01*
X107631290Y-54680524D01*
X107698765Y-54719480D01*
X107768216Y-54759577D01*
X107920943Y-54800500D01*
X107920945Y-54800500D01*
X108079055Y-54800500D01*
X108079057Y-54800500D01*
X108231784Y-54759577D01*
X108368716Y-54680520D01*
X108480520Y-54568716D01*
X108559577Y-54431784D01*
X108600500Y-54279057D01*
X108600500Y-54120943D01*
X108559577Y-53968216D01*
X108502132Y-53868717D01*
X108480524Y-53831290D01*
X108480518Y-53831282D01*
X108368717Y-53719481D01*
X108368709Y-53719475D01*
X108231790Y-53640426D01*
X108231786Y-53640424D01*
X108231784Y-53640423D01*
X108079057Y-53599500D01*
X107920943Y-53599500D01*
X107768216Y-53640423D01*
X107768209Y-53640426D01*
X107631290Y-53719475D01*
X107625557Y-53723875D01*
X107560388Y-53749070D01*
X107550069Y-53749500D01*
X102716430Y-53749500D01*
X102649391Y-53729815D01*
X102603636Y-53677011D01*
X102593692Y-53607853D01*
X102596655Y-53593409D01*
X102600499Y-53579061D01*
X102600500Y-53579055D01*
X102600500Y-53420945D01*
X102600500Y-53420943D01*
X102559577Y-53268216D01*
X102521433Y-53202148D01*
X102480524Y-53131290D01*
X102480518Y-53131282D01*
X102368717Y-53019481D01*
X102368709Y-53019475D01*
X102231790Y-52940426D01*
X102231786Y-52940424D01*
X102231784Y-52940423D01*
X102079057Y-52899500D01*
X101920943Y-52899500D01*
X101768216Y-52940423D01*
X101768209Y-52940426D01*
X101631290Y-53019475D01*
X101625557Y-53023875D01*
X101560388Y-53049070D01*
X101550069Y-53049500D01*
X100848653Y-53049500D01*
X100781614Y-53029815D01*
X100735859Y-52977011D01*
X100725915Y-52907853D01*
X100741266Y-52863500D01*
X100742716Y-52860987D01*
X100759577Y-52831784D01*
X100800500Y-52679057D01*
X100800500Y-52520943D01*
X100759577Y-52368216D01*
X100741266Y-52336500D01*
X100724793Y-52268599D01*
X100747646Y-52202573D01*
X100802567Y-52159382D01*
X100848653Y-52150500D01*
X102950069Y-52150500D01*
X103017108Y-52170185D01*
X103025557Y-52176125D01*
X103031281Y-52180517D01*
X103031284Y-52180520D01*
X103031287Y-52180521D01*
X103031290Y-52180524D01*
X103168209Y-52259573D01*
X103168216Y-52259577D01*
X103320943Y-52300500D01*
X103320945Y-52300500D01*
X103479055Y-52300500D01*
X103479057Y-52300500D01*
X103631784Y-52259577D01*
X103768716Y-52180520D01*
X103880520Y-52068716D01*
X103959577Y-51931784D01*
X104000500Y-51779057D01*
X104000500Y-51620943D01*
X103959577Y-51468216D01*
X103958943Y-51467118D01*
X103880524Y-51331290D01*
X103880518Y-51331282D01*
X103802940Y-51253704D01*
X103792327Y-51234267D01*
X103777827Y-51217534D01*
X103775910Y-51204202D01*
X103769455Y-51192381D01*
X103771034Y-51170294D01*
X103767883Y-51148376D01*
X103773478Y-51136124D01*
X103774439Y-51122689D01*
X103787709Y-51104962D01*
X103796908Y-51084820D01*
X103808239Y-51077537D01*
X103816311Y-51066756D01*
X103837056Y-51059018D01*
X103855686Y-51047046D01*
X103877604Y-51043894D01*
X103881775Y-51042339D01*
X103890621Y-51042023D01*
X104133559Y-51042023D01*
X104200598Y-51061708D01*
X104221240Y-51078342D01*
X105014053Y-51871156D01*
X105047538Y-51932479D01*
X105047990Y-51983027D01*
X105023390Y-52106703D01*
X105009582Y-52176125D01*
X105009500Y-52176535D01*
X105009500Y-52383468D01*
X105049868Y-52586411D01*
X105049870Y-52586419D01*
X105128387Y-52775976D01*
X105129059Y-52777597D01*
X105141140Y-52795677D01*
X105244024Y-52949656D01*
X105390342Y-53095974D01*
X105390345Y-53095976D01*
X105562402Y-53210940D01*
X105753580Y-53290129D01*
X105942187Y-53327645D01*
X105956530Y-53330498D01*
X105956534Y-53330499D01*
X105956535Y-53330499D01*
X106163466Y-53330499D01*
X106163467Y-53330498D01*
X106366420Y-53290129D01*
X106557598Y-53210940D01*
X106729655Y-53095976D01*
X106875977Y-52949654D01*
X106990941Y-52777597D01*
X107070130Y-52586419D01*
X107110500Y-52383464D01*
X107110500Y-52176534D01*
X107070130Y-51973579D01*
X106990941Y-51782401D01*
X106930353Y-51691724D01*
X106930352Y-51691721D01*
X106875980Y-51610348D01*
X106875974Y-51610340D01*
X106729657Y-51464023D01*
X106643626Y-51406540D01*
X106557598Y-51349058D01*
X106514683Y-51331282D01*
X106366420Y-51269869D01*
X106366412Y-51269867D01*
X106163469Y-51229499D01*
X106163465Y-51229499D01*
X105956535Y-51229499D01*
X105913138Y-51238130D01*
X105763028Y-51267989D01*
X105693437Y-51261761D01*
X105651157Y-51234052D01*
X105240411Y-50823306D01*
X104819283Y-50402179D01*
X104785799Y-50340857D01*
X104790783Y-50271166D01*
X104832655Y-50215232D01*
X104898119Y-50190815D01*
X104906965Y-50190499D01*
X105031309Y-50190499D01*
X105098348Y-50210184D01*
X105134411Y-50245608D01*
X105244022Y-50409654D01*
X105390342Y-50555974D01*
X105390345Y-50555976D01*
X105562402Y-50670940D01*
X105753580Y-50750129D01*
X105956530Y-50790498D01*
X105956534Y-50790499D01*
X105956535Y-50790499D01*
X106163466Y-50790499D01*
X106163467Y-50790498D01*
X106366420Y-50750129D01*
X106557598Y-50670940D01*
X106729655Y-50555976D01*
X106875977Y-50409654D01*
X106990941Y-50237597D01*
X107059165Y-50072888D01*
X107103004Y-50018487D01*
X107169298Y-49996422D01*
X107236998Y-50013701D01*
X107284609Y-50064838D01*
X107291656Y-50082025D01*
X107348904Y-50258215D01*
X107445375Y-50447549D01*
X107484728Y-50501715D01*
X108117037Y-49869407D01*
X108134075Y-49932992D01*
X108199901Y-50047006D01*
X108292993Y-50140098D01*
X108407007Y-50205924D01*
X108470590Y-50222961D01*
X107838282Y-50855268D01*
X107838282Y-50855269D01*
X107892449Y-50894623D01*
X108086121Y-50993305D01*
X108085603Y-50994320D01*
X108135808Y-51034778D01*
X108157873Y-51101072D01*
X108140594Y-51168771D01*
X108089458Y-51216382D01*
X108033952Y-51229499D01*
X107945730Y-51229499D01*
X107915300Y-51232352D01*
X107915298Y-51232352D01*
X107787119Y-51277205D01*
X107787117Y-51277206D01*
X107677850Y-51357849D01*
X107597207Y-51467116D01*
X107597206Y-51467118D01*
X107552353Y-51595297D01*
X107552353Y-51595299D01*
X107549500Y-51625729D01*
X107549500Y-52934268D01*
X107552353Y-52964698D01*
X107552353Y-52964700D01*
X107582027Y-53049500D01*
X107597207Y-53092881D01*
X107677850Y-53202149D01*
X107787118Y-53282792D01*
X107808089Y-53290130D01*
X107915299Y-53327645D01*
X107945730Y-53330499D01*
X107945734Y-53330499D01*
X109254270Y-53330499D01*
X109278612Y-53328215D01*
X109284699Y-53327645D01*
X109342350Y-53307471D01*
X109412129Y-53303909D01*
X109472757Y-53338638D01*
X109503080Y-53392418D01*
X109540423Y-53531783D01*
X109540426Y-53531790D01*
X109619475Y-53668709D01*
X109619479Y-53668714D01*
X109619480Y-53668716D01*
X109731284Y-53780520D01*
X109731286Y-53780521D01*
X109731290Y-53780524D01*
X109819221Y-53831290D01*
X109868216Y-53859577D01*
X110020943Y-53900500D01*
X110020945Y-53900500D01*
X110179055Y-53900500D01*
X110179057Y-53900500D01*
X110331784Y-53859577D01*
X110468716Y-53780520D01*
X110468721Y-53780514D01*
X110474443Y-53776125D01*
X110539612Y-53750930D01*
X110549931Y-53750500D01*
X113839307Y-53750500D01*
X113839308Y-53750500D01*
X113929672Y-53726286D01*
X113953886Y-53719799D01*
X114056613Y-53660489D01*
X115860572Y-51856529D01*
X119149500Y-51856529D01*
X119149500Y-52063468D01*
X119189868Y-52266411D01*
X119189870Y-52266419D01*
X119238353Y-52383468D01*
X119269059Y-52457597D01*
X119326541Y-52543625D01*
X119384024Y-52629656D01*
X119530342Y-52775974D01*
X119530345Y-52775976D01*
X119702402Y-52890940D01*
X119893580Y-52970129D01*
X120096530Y-53010498D01*
X120096534Y-53010499D01*
X120096535Y-53010499D01*
X120303466Y-53010499D01*
X120303467Y-53010498D01*
X120506420Y-52970129D01*
X120697598Y-52890940D01*
X120869655Y-52775976D01*
X121015977Y-52629654D01*
X121130941Y-52457597D01*
X121210130Y-52266419D01*
X121250500Y-52063464D01*
X121250500Y-51856534D01*
X121210130Y-51653579D01*
X121130941Y-51462401D01*
X121015977Y-51290344D01*
X121015975Y-51290341D01*
X120869657Y-51144023D01*
X120754017Y-51066756D01*
X120697598Y-51029058D01*
X120506420Y-50949869D01*
X120506412Y-50949867D01*
X120303469Y-50909499D01*
X120303465Y-50909499D01*
X120096535Y-50909499D01*
X120096530Y-50909499D01*
X119893587Y-50949867D01*
X119893579Y-50949869D01*
X119702403Y-51029057D01*
X119530342Y-51144023D01*
X119384024Y-51290341D01*
X119269058Y-51462402D01*
X119189870Y-51653578D01*
X119189868Y-51653586D01*
X119149500Y-51856529D01*
X115860572Y-51856529D01*
X118400571Y-49316529D01*
X119149500Y-49316529D01*
X119149500Y-49523468D01*
X119189868Y-49726411D01*
X119189870Y-49726419D01*
X119269058Y-49917595D01*
X119384024Y-50089656D01*
X119530342Y-50235974D01*
X119530345Y-50235976D01*
X119702402Y-50350940D01*
X119893580Y-50430129D01*
X120096530Y-50470498D01*
X120096534Y-50470499D01*
X120096535Y-50470499D01*
X120303466Y-50470499D01*
X120303467Y-50470498D01*
X120506420Y-50430129D01*
X120697598Y-50350940D01*
X120869655Y-50235976D01*
X121015977Y-50089654D01*
X121130941Y-49917597D01*
X121210130Y-49726419D01*
X121250500Y-49523464D01*
X121250500Y-49316534D01*
X121210130Y-49113579D01*
X121130941Y-48922401D01*
X121015977Y-48750344D01*
X121015975Y-48750341D01*
X120869657Y-48604023D01*
X120741082Y-48518113D01*
X120697598Y-48489058D01*
X120676990Y-48480522D01*
X120506420Y-48409869D01*
X120506412Y-48409867D01*
X120303469Y-48369499D01*
X120303465Y-48369499D01*
X120096535Y-48369499D01*
X120096530Y-48369499D01*
X119893587Y-48409867D01*
X119893579Y-48409869D01*
X119702403Y-48489057D01*
X119530342Y-48604023D01*
X119384024Y-48750341D01*
X119269058Y-48922402D01*
X119189870Y-49113578D01*
X119189868Y-49113586D01*
X119149500Y-49316529D01*
X118400571Y-49316529D01*
X119791158Y-47925942D01*
X119852479Y-47892459D01*
X119903026Y-47892008D01*
X120096533Y-47930498D01*
X120096534Y-47930499D01*
X120096535Y-47930499D01*
X120303466Y-47930499D01*
X120303467Y-47930498D01*
X120506420Y-47890129D01*
X120697598Y-47810940D01*
X120869655Y-47695976D01*
X121015977Y-47549654D01*
X121130941Y-47377597D01*
X121210130Y-47186419D01*
X121250500Y-46983464D01*
X121250500Y-46776534D01*
X121210130Y-46573579D01*
X121130941Y-46382401D01*
X121015977Y-46210344D01*
X121015975Y-46210341D01*
X120869657Y-46064023D01*
X120718416Y-45962968D01*
X120697598Y-45949058D01*
X120697226Y-45948904D01*
X120506420Y-45869869D01*
X120506412Y-45869867D01*
X120303469Y-45829499D01*
X120303465Y-45829499D01*
X120096535Y-45829499D01*
X120096530Y-45829499D01*
X119893587Y-45869867D01*
X119893579Y-45869869D01*
X119702403Y-45949057D01*
X119530342Y-46064023D01*
X119384024Y-46210341D01*
X119269058Y-46382402D01*
X119189870Y-46573578D01*
X119189868Y-46573586D01*
X119149500Y-46776529D01*
X119149500Y-46983468D01*
X119187989Y-47176969D01*
X119181762Y-47246561D01*
X119154053Y-47288841D01*
X113629715Y-52813181D01*
X113568392Y-52846666D01*
X113542034Y-52849500D01*
X110549931Y-52849500D01*
X110482892Y-52829815D01*
X110474443Y-52823875D01*
X110468709Y-52819475D01*
X110331790Y-52740426D01*
X110331786Y-52740424D01*
X110331784Y-52740423D01*
X110179057Y-52699500D01*
X110020943Y-52699500D01*
X109868216Y-52740423D01*
X109868213Y-52740424D01*
X109836497Y-52758735D01*
X109768597Y-52775205D01*
X109702571Y-52752352D01*
X109659381Y-52697429D01*
X109650500Y-52651346D01*
X109650500Y-51625729D01*
X109647646Y-51595299D01*
X109647646Y-51595297D01*
X109614006Y-51499162D01*
X109602793Y-51467117D01*
X109522150Y-51357849D01*
X109412882Y-51277206D01*
X109412880Y-51277205D01*
X109284700Y-51232352D01*
X109254270Y-51229499D01*
X109254266Y-51229499D01*
X109166048Y-51229499D01*
X109099009Y-51209814D01*
X109053254Y-51157010D01*
X109043310Y-51087852D01*
X109072335Y-51024296D01*
X109114264Y-50994060D01*
X109113879Y-50993305D01*
X109307554Y-50894621D01*
X109361716Y-50855269D01*
X109361717Y-50855269D01*
X108729408Y-50222961D01*
X108792993Y-50205924D01*
X108907007Y-50140098D01*
X109000099Y-50047006D01*
X109065925Y-49932992D01*
X109082962Y-49869407D01*
X109715270Y-50501716D01*
X109715270Y-50501715D01*
X109754622Y-50447553D01*
X109851095Y-50258216D01*
X109916757Y-50056129D01*
X109916757Y-50056126D01*
X109950000Y-49846245D01*
X109950000Y-49633752D01*
X109916757Y-49423871D01*
X109916757Y-49423868D01*
X109851095Y-49221781D01*
X109754624Y-49032448D01*
X109715270Y-48978281D01*
X109715269Y-48978281D01*
X109082962Y-49610589D01*
X109065925Y-49547006D01*
X109000099Y-49432992D01*
X108907007Y-49339900D01*
X108792993Y-49274074D01*
X108729409Y-49257036D01*
X109361716Y-48624727D01*
X109307547Y-48585372D01*
X109297952Y-48580483D01*
X109247156Y-48532508D01*
X109230362Y-48464687D01*
X109252900Y-48398552D01*
X109297958Y-48359512D01*
X109307553Y-48354623D01*
X109361716Y-48315270D01*
X109361717Y-48315270D01*
X108729408Y-47682962D01*
X108792993Y-47665925D01*
X108907007Y-47600099D01*
X109000099Y-47507007D01*
X109065925Y-47392993D01*
X109082962Y-47329408D01*
X109715270Y-47961717D01*
X109715270Y-47961716D01*
X109754622Y-47907554D01*
X109851095Y-47718217D01*
X109916757Y-47516130D01*
X109916757Y-47516127D01*
X109950000Y-47306246D01*
X109950000Y-47093753D01*
X109916757Y-46883872D01*
X109916757Y-46883869D01*
X109851095Y-46681782D01*
X109754624Y-46492449D01*
X109715270Y-46438282D01*
X109715269Y-46438282D01*
X109082962Y-47070590D01*
X109065925Y-47007007D01*
X109000099Y-46892993D01*
X108907007Y-46799901D01*
X108792993Y-46734075D01*
X108729409Y-46717037D01*
X109361716Y-46084728D01*
X109307550Y-46045375D01*
X109118217Y-45948904D01*
X108942025Y-45891656D01*
X108884349Y-45852218D01*
X108857151Y-45787860D01*
X108869066Y-45719014D01*
X108916310Y-45667538D01*
X108932887Y-45659165D01*
X109013487Y-45625780D01*
X109097594Y-45590942D01*
X109097595Y-45590941D01*
X109097598Y-45590940D01*
X109269655Y-45475976D01*
X109415977Y-45329654D01*
X109530941Y-45157597D01*
X109610130Y-44966419D01*
X109650500Y-44763464D01*
X109650500Y-44556534D01*
X109610130Y-44353579D01*
X109530941Y-44162401D01*
X109415977Y-43990344D01*
X109415975Y-43990341D01*
X109269657Y-43844023D01*
X109183626Y-43786540D01*
X109097598Y-43729058D01*
X109097593Y-43729056D01*
X109015283Y-43694962D01*
X108932890Y-43660833D01*
X108878488Y-43616993D01*
X108856423Y-43550699D01*
X108873702Y-43483000D01*
X108924839Y-43435389D01*
X108942026Y-43428342D01*
X109118217Y-43371094D01*
X109307554Y-43274621D01*
X109361716Y-43235269D01*
X109361717Y-43235269D01*
X108729408Y-42602961D01*
X108792993Y-42585924D01*
X108907007Y-42520098D01*
X109000099Y-42427006D01*
X109065925Y-42312992D01*
X109082962Y-42249408D01*
X109715270Y-42881716D01*
X109715270Y-42881715D01*
X109754622Y-42827553D01*
X109851095Y-42638216D01*
X109916757Y-42436129D01*
X109916757Y-42436126D01*
X109950000Y-42226245D01*
X109950000Y-42013752D01*
X109916757Y-41803871D01*
X109916757Y-41803868D01*
X109851095Y-41601781D01*
X109773653Y-41449794D01*
X109760757Y-41381125D01*
X109787033Y-41316385D01*
X109844139Y-41276127D01*
X109884138Y-41269499D01*
X116441035Y-41269499D01*
X116508074Y-41289184D01*
X116528716Y-41305818D01*
X119154054Y-43931156D01*
X119187539Y-43992479D01*
X119187990Y-44043028D01*
X119149500Y-44236529D01*
X119149500Y-44443468D01*
X119189868Y-44646411D01*
X119189870Y-44646419D01*
X119266446Y-44831290D01*
X119269059Y-44837597D01*
X119297205Y-44879721D01*
X119384024Y-45009656D01*
X119530342Y-45155974D01*
X119530345Y-45155976D01*
X119702402Y-45270940D01*
X119893580Y-45350129D01*
X120038037Y-45378863D01*
X120096530Y-45390498D01*
X120096534Y-45390499D01*
X120096535Y-45390499D01*
X120303466Y-45390499D01*
X120303467Y-45390498D01*
X120506420Y-45350129D01*
X120697598Y-45270940D01*
X120869655Y-45155976D01*
X121015977Y-45009654D01*
X121130941Y-44837597D01*
X121210130Y-44646419D01*
X121250500Y-44443464D01*
X121250500Y-44236534D01*
X121210130Y-44033579D01*
X121130941Y-43842401D01*
X121015977Y-43670344D01*
X121015975Y-43670341D01*
X120869657Y-43524023D01*
X120753883Y-43446666D01*
X120697598Y-43409058D01*
X120639961Y-43385184D01*
X120506420Y-43329869D01*
X120506412Y-43329867D01*
X120303469Y-43289499D01*
X120303465Y-43289499D01*
X120096535Y-43289499D01*
X120096530Y-43289499D01*
X119903029Y-43327989D01*
X119833437Y-43321762D01*
X119791157Y-43294053D01*
X117277284Y-40780180D01*
X117243799Y-40718857D01*
X117248783Y-40649165D01*
X117290655Y-40593232D01*
X117356119Y-40568815D01*
X117364965Y-40568499D01*
X118280036Y-40568499D01*
X118347075Y-40588184D01*
X118367717Y-40604818D01*
X119154053Y-41391155D01*
X119187538Y-41452478D01*
X119187990Y-41503026D01*
X119149500Y-41696534D01*
X119149500Y-41903467D01*
X119189868Y-42106410D01*
X119189870Y-42106418D01*
X119258568Y-42272270D01*
X119269059Y-42297596D01*
X119326541Y-42383624D01*
X119384024Y-42469655D01*
X119530342Y-42615973D01*
X119530345Y-42615975D01*
X119702402Y-42730939D01*
X119893580Y-42810128D01*
X120072384Y-42845694D01*
X120096530Y-42850497D01*
X120096534Y-42850498D01*
X120096535Y-42850498D01*
X120303466Y-42850498D01*
X120303467Y-42850497D01*
X120506420Y-42810128D01*
X120697598Y-42730939D01*
X120869655Y-42615975D01*
X121015977Y-42469653D01*
X121130941Y-42297596D01*
X121210130Y-42106418D01*
X121250500Y-41903463D01*
X121250500Y-41696533D01*
X121210130Y-41493578D01*
X121130941Y-41302400D01*
X121015977Y-41130343D01*
X121015975Y-41130340D01*
X120869657Y-40984022D01*
X120697596Y-40869055D01*
X120532892Y-40800833D01*
X120478489Y-40756992D01*
X120456424Y-40690698D01*
X120473703Y-40622998D01*
X120524841Y-40575388D01*
X120542028Y-40568341D01*
X120718215Y-40511095D01*
X120907554Y-40414621D01*
X120961716Y-40375269D01*
X120961717Y-40375269D01*
X120329408Y-39742961D01*
X120392993Y-39725924D01*
X120507007Y-39660098D01*
X120600099Y-39567006D01*
X120665925Y-39452992D01*
X120682962Y-39389407D01*
X121315270Y-40021716D01*
X121315270Y-40021715D01*
X121354622Y-39967553D01*
X121451095Y-39778216D01*
X121516757Y-39576129D01*
X121516757Y-39576126D01*
X121550000Y-39366245D01*
X121550000Y-39153752D01*
X121516757Y-38943871D01*
X121516757Y-38943868D01*
X121451095Y-38741781D01*
X121354624Y-38552448D01*
X121315270Y-38498281D01*
X121315269Y-38498281D01*
X120682962Y-39130589D01*
X120665925Y-39067006D01*
X120600099Y-38952992D01*
X120507007Y-38859900D01*
X120392993Y-38794074D01*
X120329409Y-38777036D01*
X120961716Y-38144727D01*
X120907550Y-38105374D01*
X120713879Y-38006693D01*
X120714396Y-38005677D01*
X120664192Y-37965220D01*
X120642127Y-37898926D01*
X120659406Y-37831227D01*
X120710542Y-37783616D01*
X120766048Y-37770499D01*
X121069750Y-37770499D01*
X121069751Y-37770498D01*
X121084568Y-37767551D01*
X121128229Y-37758867D01*
X121128229Y-37758866D01*
X121128231Y-37758866D01*
X121194552Y-37714551D01*
X121238867Y-37648230D01*
X121238867Y-37648228D01*
X121238868Y-37648228D01*
X121250499Y-37589751D01*
X121250500Y-37589749D01*
X121250500Y-35850248D01*
X121250499Y-35850246D01*
X121238868Y-35791769D01*
X121238867Y-35791768D01*
X121194552Y-35725446D01*
X121128230Y-35681131D01*
X121128229Y-35681130D01*
X121069752Y-35669499D01*
X121069748Y-35669499D01*
X119330252Y-35669499D01*
X119330247Y-35669499D01*
X119271770Y-35681130D01*
X119271769Y-35681131D01*
X119205447Y-35725446D01*
X119161132Y-35791768D01*
X119161131Y-35791769D01*
X119149500Y-35850246D01*
X119149500Y-37589751D01*
X119161131Y-37648228D01*
X119161132Y-37648229D01*
X119205447Y-37714551D01*
X119271769Y-37758866D01*
X119271770Y-37758867D01*
X119330247Y-37770498D01*
X119330250Y-37770499D01*
X119633952Y-37770499D01*
X119700991Y-37790184D01*
X119746746Y-37842988D01*
X119756690Y-37912146D01*
X119727665Y-37975702D01*
X119685735Y-38005937D01*
X119686121Y-38006693D01*
X119492439Y-38105379D01*
X119438282Y-38144726D01*
X119438282Y-38144727D01*
X120070591Y-38777036D01*
X120007007Y-38794074D01*
X119892993Y-38859900D01*
X119799901Y-38952992D01*
X119734075Y-39067006D01*
X119717037Y-39130590D01*
X119084728Y-38498281D01*
X119084727Y-38498281D01*
X119045380Y-38552438D01*
X118948904Y-38741781D01*
X118883242Y-38943868D01*
X118883242Y-38943871D01*
X118850000Y-39153752D01*
X118850000Y-39366245D01*
X118883113Y-39575312D01*
X118874158Y-39644606D01*
X118829162Y-39698057D01*
X118762411Y-39718697D01*
X118717192Y-39710849D01*
X118707546Y-39707240D01*
X118691888Y-39698200D01*
X118667674Y-39691712D01*
X118661910Y-39690167D01*
X118661906Y-39690166D01*
X118608170Y-39675767D01*
X118577310Y-39667499D01*
X118577309Y-39667499D01*
X75061906Y-39667499D01*
X74999907Y-39650886D01*
X74981784Y-39640423D01*
X74829057Y-39599500D01*
X74670943Y-39599500D01*
X74518216Y-39640423D01*
X74518209Y-39640426D01*
X74381290Y-39719475D01*
X74381282Y-39719481D01*
X74269481Y-39831282D01*
X74269475Y-39831290D01*
X74190426Y-39968209D01*
X74190423Y-39968216D01*
X74149500Y-40120943D01*
X74149500Y-40279056D01*
X74190423Y-40431783D01*
X74190426Y-40431790D01*
X74269475Y-40568709D01*
X74269479Y-40568714D01*
X74269480Y-40568716D01*
X74381284Y-40680520D01*
X74381286Y-40680521D01*
X74381290Y-40680524D01*
X74409506Y-40696814D01*
X74518216Y-40759577D01*
X74670943Y-40800500D01*
X74670945Y-40800500D01*
X74829055Y-40800500D01*
X74829057Y-40800500D01*
X74981784Y-40759577D01*
X75118716Y-40680520D01*
X75194419Y-40604817D01*
X75255743Y-40571333D01*
X75282100Y-40568499D01*
X76495036Y-40568499D01*
X76516281Y-40574737D01*
X76538370Y-40576317D01*
X76549154Y-40584389D01*
X76562075Y-40588184D01*
X76576573Y-40604915D01*
X76594304Y-40618189D01*
X76599011Y-40630810D01*
X76607830Y-40640988D01*
X76610981Y-40662904D01*
X76618720Y-40683654D01*
X76615857Y-40696814D01*
X76617774Y-40710146D01*
X76608575Y-40730288D01*
X76603868Y-40751927D01*
X76590597Y-40769653D01*
X76588749Y-40773702D01*
X76582736Y-40780160D01*
X76499597Y-40863300D01*
X76438273Y-40896784D01*
X76428107Y-40898556D01*
X76420949Y-40899498D01*
X76268216Y-40940423D01*
X76268209Y-40940426D01*
X76131290Y-41019475D01*
X76131282Y-41019481D01*
X76019481Y-41131282D01*
X76019475Y-41131290D01*
X75940426Y-41268209D01*
X75940423Y-41268216D01*
X75899500Y-41420943D01*
X75899500Y-41579057D01*
X75939896Y-41729815D01*
X75940423Y-41731783D01*
X75940424Y-41731786D01*
X75953127Y-41753788D01*
X75969600Y-41821688D01*
X75946747Y-41887715D01*
X75891826Y-41930906D01*
X75822273Y-41937547D01*
X75813647Y-41935563D01*
X75752720Y-41919238D01*
X75679057Y-41899500D01*
X75520943Y-41899500D01*
X75368216Y-41940423D01*
X75368209Y-41940426D01*
X75231290Y-42019475D01*
X75231282Y-42019481D01*
X75119481Y-42131282D01*
X75119475Y-42131290D01*
X75040426Y-42268209D01*
X75040423Y-42268216D01*
X75005246Y-42399501D01*
X75005149Y-42399862D01*
X74968784Y-42459523D01*
X74905937Y-42490052D01*
X74836561Y-42481757D01*
X74797693Y-42455450D01*
X74181756Y-41839513D01*
X74181754Y-41839511D01*
X74129845Y-41809541D01*
X74079025Y-41780199D01*
X74040874Y-41769978D01*
X74002661Y-41759739D01*
X73964449Y-41749500D01*
X73964448Y-41749500D01*
X64349931Y-41749500D01*
X64282892Y-41729815D01*
X64274443Y-41723875D01*
X64268709Y-41719475D01*
X64131790Y-41640426D01*
X64131786Y-41640424D01*
X64131784Y-41640423D01*
X63979057Y-41599500D01*
X63820943Y-41599500D01*
X63668216Y-41640423D01*
X63668209Y-41640426D01*
X63531290Y-41719475D01*
X63531282Y-41719481D01*
X63419481Y-41831282D01*
X63419475Y-41831290D01*
X63340426Y-41968209D01*
X63340423Y-41968216D01*
X63299500Y-42120943D01*
X62016159Y-42120943D01*
X62500404Y-41636698D01*
X62561725Y-41603215D01*
X62571901Y-41601441D01*
X62579045Y-41600500D01*
X62579057Y-41600500D01*
X62731784Y-41559577D01*
X62868716Y-41480520D01*
X62980520Y-41368716D01*
X63059577Y-41231784D01*
X63100500Y-41079057D01*
X63100500Y-40920943D01*
X63059577Y-40768216D01*
X63048770Y-40749498D01*
X62980524Y-40631290D01*
X62980518Y-40631282D01*
X62868717Y-40519481D01*
X62868709Y-40519475D01*
X62731790Y-40440426D01*
X62731786Y-40440424D01*
X62731784Y-40440423D01*
X62579057Y-40399500D01*
X62420943Y-40399500D01*
X62268216Y-40440423D01*
X62268209Y-40440426D01*
X62131290Y-40519475D01*
X62131282Y-40519481D01*
X62019481Y-40631282D01*
X62019475Y-40631290D01*
X61940426Y-40768209D01*
X61940423Y-40768216D01*
X61899498Y-40920949D01*
X61898556Y-40928107D01*
X61870287Y-40992003D01*
X61863299Y-40999597D01*
X59449716Y-43413181D01*
X59388393Y-43446666D01*
X59362035Y-43449500D01*
X59049931Y-43449500D01*
X59032420Y-43444358D01*
X59014168Y-43444231D01*
X58990253Y-43431976D01*
X58982892Y-43429815D01*
X58982167Y-43429346D01*
X58971849Y-43422613D01*
X58968716Y-43419480D01*
X58954240Y-43411122D01*
X58951406Y-43409273D01*
X58930825Y-43385184D01*
X58908955Y-43362249D01*
X58908292Y-43358811D01*
X58906020Y-43356152D01*
X58901729Y-43324764D01*
X58895731Y-43293642D01*
X58897031Y-43290392D01*
X58896558Y-43286926D01*
X58909918Y-43258201D01*
X58921698Y-43228777D01*
X58925704Y-43224263D01*
X58926025Y-43223574D01*
X58926689Y-43223153D01*
X58931482Y-43217753D01*
X58980520Y-43168716D01*
X59059577Y-43031784D01*
X59100500Y-42879057D01*
X59100500Y-42720943D01*
X59059577Y-42568216D01*
X59049237Y-42550306D01*
X58980524Y-42431290D01*
X58980518Y-42431282D01*
X58911917Y-42362681D01*
X58878432Y-42301358D01*
X58883416Y-42231666D01*
X58911917Y-42187319D01*
X58937817Y-42161419D01*
X58980520Y-42118716D01*
X59059577Y-41981784D01*
X59100500Y-41829057D01*
X59100500Y-41670943D01*
X59059577Y-41518216D01*
X59049292Y-41500401D01*
X58980524Y-41381290D01*
X58980518Y-41381282D01*
X58868717Y-41269481D01*
X58868709Y-41269475D01*
X58731790Y-41190426D01*
X58731786Y-41190424D01*
X58731784Y-41190423D01*
X58579057Y-41149500D01*
X58420943Y-41149500D01*
X58268216Y-41190423D01*
X58268209Y-41190426D01*
X58131290Y-41269475D01*
X58131282Y-41269481D01*
X58019481Y-41381282D01*
X58019475Y-41381290D01*
X57940426Y-41518209D01*
X57940423Y-41518216D01*
X57903076Y-41657593D01*
X57866713Y-41717253D01*
X57803866Y-41747782D01*
X57783303Y-41749499D01*
X45592241Y-41749499D01*
X45554027Y-41759738D01*
X45515812Y-41769978D01*
X45515811Y-41769979D01*
X45464680Y-41799500D01*
X45447295Y-41809537D01*
X45447289Y-41809541D01*
X42413429Y-44843402D01*
X42352106Y-44876887D01*
X42325748Y-44879721D01*
X42021717Y-44879721D01*
X42021701Y-44879720D01*
X42014105Y-44879720D01*
X41473781Y-44879720D01*
X41406742Y-44860035D01*
X41360987Y-44807231D01*
X41354008Y-44787819D01*
X41316661Y-44648437D01*
X41312034Y-44640423D01*
X41237608Y-44511511D01*
X41237602Y-44511503D01*
X41125801Y-44399702D01*
X41125793Y-44399696D01*
X40988874Y-44320647D01*
X40988870Y-44320645D01*
X40988868Y-44320644D01*
X40836141Y-44279721D01*
X40678027Y-44279721D01*
X40525300Y-44320644D01*
X40525293Y-44320647D01*
X40388374Y-44399696D01*
X40388366Y-44399702D01*
X40276565Y-44511503D01*
X40276559Y-44511511D01*
X40197510Y-44648430D01*
X40197507Y-44648437D01*
X40156584Y-44801164D01*
X25300500Y-44801164D01*
X25300500Y-43441534D01*
X28374499Y-43441534D01*
X28400458Y-43572031D01*
X28400461Y-43572041D01*
X28451376Y-43694962D01*
X28451386Y-43694980D01*
X28525301Y-43805602D01*
X28525307Y-43805610D01*
X28619390Y-43899693D01*
X28619398Y-43899699D01*
X28730020Y-43973614D01*
X28730023Y-43973615D01*
X28730031Y-43973621D01*
X28730037Y-43973623D01*
X28730038Y-43973624D01*
X28852959Y-44024539D01*
X28852964Y-44024541D01*
X28852968Y-44024541D01*
X28852969Y-44024542D01*
X28983466Y-44050501D01*
X28983469Y-44050501D01*
X29116533Y-44050501D01*
X29204325Y-44033036D01*
X29247036Y-44024541D01*
X29369969Y-43973621D01*
X29480606Y-43899696D01*
X29574695Y-43805607D01*
X29648620Y-43694970D01*
X29699540Y-43572037D01*
X29717400Y-43482252D01*
X29725500Y-43441534D01*
X29725500Y-43008467D01*
X29699541Y-42877970D01*
X29699540Y-42877969D01*
X29699540Y-42877965D01*
X29688163Y-42850498D01*
X29648623Y-42755039D01*
X29648622Y-42755038D01*
X29648620Y-42755032D01*
X29629485Y-42726395D01*
X29574698Y-42644399D01*
X29574692Y-42644391D01*
X29480609Y-42550308D01*
X29480601Y-42550302D01*
X29369979Y-42476387D01*
X29369972Y-42476383D01*
X29369969Y-42476381D01*
X29369965Y-42476379D01*
X29369961Y-42476377D01*
X29247040Y-42425462D01*
X29247030Y-42425459D01*
X29116533Y-42399501D01*
X29116531Y-42399501D01*
X28983469Y-42399501D01*
X28983467Y-42399501D01*
X28852969Y-42425459D01*
X28852959Y-42425462D01*
X28730038Y-42476377D01*
X28730020Y-42476387D01*
X28619398Y-42550302D01*
X28619390Y-42550308D01*
X28525307Y-42644391D01*
X28525301Y-42644399D01*
X28451386Y-42755021D01*
X28451376Y-42755039D01*
X28400461Y-42877960D01*
X28400458Y-42877970D01*
X28374500Y-43008467D01*
X28374500Y-43008470D01*
X28374500Y-43441532D01*
X28374500Y-43441534D01*
X28374499Y-43441534D01*
X25300500Y-43441534D01*
X25300500Y-42717273D01*
X25320185Y-42650234D01*
X25372989Y-42604479D01*
X25442147Y-42594535D01*
X25505703Y-42623560D01*
X25514192Y-42632282D01*
X25514300Y-42632175D01*
X25608514Y-42726389D01*
X25608522Y-42726395D01*
X25703196Y-42789654D01*
X25714241Y-42797034D01*
X25831715Y-42845694D01*
X25956419Y-42870499D01*
X25956423Y-42870500D01*
X25956424Y-42870500D01*
X26743577Y-42870500D01*
X26743578Y-42870499D01*
X26868285Y-42845694D01*
X26985759Y-42797034D01*
X27091482Y-42726392D01*
X27181392Y-42636482D01*
X27252034Y-42530759D01*
X27300694Y-42413285D01*
X27325500Y-42288576D01*
X27325500Y-42161424D01*
X27300694Y-42036715D01*
X27252034Y-41919241D01*
X27241492Y-41903464D01*
X27181395Y-41813522D01*
X27181389Y-41813514D01*
X27091485Y-41723610D01*
X27091477Y-41723604D01*
X26985761Y-41652967D01*
X26985757Y-41652965D01*
X26868285Y-41604306D01*
X26868277Y-41604304D01*
X26743580Y-41579500D01*
X26743576Y-41579500D01*
X25956424Y-41579500D01*
X25956419Y-41579500D01*
X25831722Y-41604304D01*
X25831714Y-41604306D01*
X25714242Y-41652965D01*
X25714238Y-41652967D01*
X25608522Y-41723604D01*
X25608514Y-41723610D01*
X25514300Y-41817825D01*
X25512925Y-41816450D01*
X25462607Y-41850725D01*
X25392763Y-41852596D01*
X25332994Y-41816408D01*
X25302279Y-41753652D01*
X25300500Y-41732726D01*
X25300500Y-32320943D01*
X35599500Y-32320943D01*
X35599500Y-32479057D01*
X35630269Y-32593886D01*
X35640423Y-32631783D01*
X35640426Y-32631790D01*
X35719475Y-32768709D01*
X35719479Y-32768714D01*
X35719480Y-32768716D01*
X35831284Y-32880520D01*
X35831286Y-32880521D01*
X35831290Y-32880524D01*
X35878886Y-32908003D01*
X35968216Y-32959577D01*
X36120943Y-33000500D01*
X36120945Y-33000500D01*
X36128099Y-33001442D01*
X36191996Y-33029707D01*
X36199597Y-33036700D01*
X40423386Y-37260489D01*
X40526113Y-37319799D01*
X40550321Y-37326284D01*
X40550324Y-37326286D01*
X40550325Y-37326286D01*
X40580447Y-37334357D01*
X40640691Y-37350500D01*
X44550069Y-37350500D01*
X44617108Y-37370185D01*
X44625557Y-37376125D01*
X44631281Y-37380517D01*
X44631284Y-37380520D01*
X44631287Y-37380521D01*
X44631290Y-37380524D01*
X44768209Y-37459573D01*
X44768216Y-37459577D01*
X44920943Y-37500500D01*
X44920945Y-37500500D01*
X45079055Y-37500500D01*
X45079057Y-37500500D01*
X45231784Y-37459577D01*
X45368716Y-37380520D01*
X45368721Y-37380514D01*
X45374443Y-37376125D01*
X45439612Y-37350930D01*
X45449931Y-37350500D01*
X50050069Y-37350500D01*
X50117108Y-37370185D01*
X50125557Y-37376125D01*
X50131281Y-37380517D01*
X50131284Y-37380520D01*
X50131287Y-37380521D01*
X50131290Y-37380524D01*
X50268209Y-37459573D01*
X50268216Y-37459577D01*
X50420943Y-37500500D01*
X50420945Y-37500500D01*
X50579055Y-37500500D01*
X50579057Y-37500500D01*
X50731784Y-37459577D01*
X50868716Y-37380520D01*
X50980520Y-37268716D01*
X51059577Y-37131784D01*
X51100500Y-36979057D01*
X51100500Y-36820943D01*
X51059577Y-36668216D01*
X51059573Y-36668209D01*
X50980524Y-36531290D01*
X50980518Y-36531282D01*
X50868717Y-36419481D01*
X50868709Y-36419475D01*
X50731790Y-36340426D01*
X50731786Y-36340424D01*
X50731784Y-36340423D01*
X50579057Y-36299500D01*
X50420943Y-36299500D01*
X50268216Y-36340423D01*
X50268209Y-36340426D01*
X50131290Y-36419475D01*
X50125557Y-36423875D01*
X50060388Y-36449070D01*
X50050069Y-36449500D01*
X45449931Y-36449500D01*
X45382892Y-36429815D01*
X45374443Y-36423875D01*
X45368709Y-36419475D01*
X45231790Y-36340426D01*
X45231786Y-36340424D01*
X45231784Y-36340423D01*
X45079057Y-36299500D01*
X44920943Y-36299500D01*
X44768216Y-36340423D01*
X44768209Y-36340426D01*
X44631290Y-36419475D01*
X44625557Y-36423875D01*
X44560388Y-36449070D01*
X44550069Y-36449500D01*
X40937965Y-36449500D01*
X40870926Y-36429815D01*
X40850284Y-36413181D01*
X37258046Y-32820943D01*
X107099500Y-32820943D01*
X107099500Y-32979057D01*
X107114946Y-33036700D01*
X107140423Y-33131783D01*
X107140426Y-33131790D01*
X107219475Y-33268709D01*
X107219479Y-33268714D01*
X107219480Y-33268716D01*
X107331284Y-33380520D01*
X107331286Y-33380521D01*
X107331290Y-33380524D01*
X107468209Y-33459573D01*
X107468216Y-33459577D01*
X107620943Y-33500500D01*
X107620945Y-33500500D01*
X107779055Y-33500500D01*
X107779057Y-33500500D01*
X107931784Y-33459577D01*
X108068716Y-33380520D01*
X108180520Y-33268716D01*
X108259577Y-33131784D01*
X108300500Y-32979057D01*
X108300500Y-32979044D01*
X108301441Y-32971901D01*
X108329707Y-32908003D01*
X108336688Y-32900414D01*
X108540490Y-32696613D01*
X108599799Y-32593886D01*
X108616573Y-32531284D01*
X108630500Y-32479309D01*
X108630500Y-32028690D01*
X108650185Y-31961651D01*
X108685608Y-31925588D01*
X108849655Y-31815977D01*
X108995977Y-31669655D01*
X109110941Y-31497598D01*
X109190130Y-31306420D01*
X109230500Y-31103465D01*
X109230500Y-30896535D01*
X109190130Y-30693580D01*
X109110941Y-30502402D01*
X108995977Y-30330345D01*
X108995975Y-30330342D01*
X108849657Y-30184024D01*
X108769173Y-30130247D01*
X109669500Y-30130247D01*
X109669500Y-31869752D01*
X109681131Y-31928229D01*
X109681132Y-31928230D01*
X109725447Y-31994552D01*
X109791769Y-32038867D01*
X109791770Y-32038868D01*
X109850247Y-32050499D01*
X109850250Y-32050500D01*
X109850252Y-32050500D01*
X111589750Y-32050500D01*
X111589751Y-32050499D01*
X111604568Y-32047552D01*
X111648229Y-32038868D01*
X111648229Y-32038867D01*
X111648231Y-32038867D01*
X111714552Y-31994552D01*
X111758867Y-31928231D01*
X111758867Y-31928229D01*
X111758868Y-31928229D01*
X111770499Y-31869752D01*
X111770500Y-31869750D01*
X111770500Y-30130249D01*
X111770499Y-30130247D01*
X111758868Y-30071770D01*
X111758867Y-30071769D01*
X111714552Y-30005447D01*
X111668251Y-29974510D01*
X111668240Y-29974503D01*
X111648231Y-29961133D01*
X111648229Y-29961132D01*
X111648227Y-29961131D01*
X111648229Y-29961131D01*
X111589752Y-29949500D01*
X111589748Y-29949500D01*
X109850252Y-29949500D01*
X109850247Y-29949500D01*
X109791770Y-29961131D01*
X109791769Y-29961132D01*
X109725447Y-30005447D01*
X109681132Y-30071769D01*
X109681131Y-30071770D01*
X109669500Y-30130247D01*
X108769173Y-30130247D01*
X108681655Y-30071770D01*
X108677598Y-30069059D01*
X108676772Y-30068717D01*
X108486420Y-29989870D01*
X108486412Y-29989868D01*
X108283469Y-29949500D01*
X108283465Y-29949500D01*
X108076535Y-29949500D01*
X108076530Y-29949500D01*
X107873587Y-29989868D01*
X107873579Y-29989870D01*
X107682403Y-30069058D01*
X107510342Y-30184024D01*
X107364024Y-30330342D01*
X107249058Y-30502403D01*
X107169870Y-30693579D01*
X107169868Y-30693587D01*
X107129500Y-30896530D01*
X107129500Y-31103469D01*
X107169868Y-31306412D01*
X107169870Y-31306420D01*
X107249058Y-31497596D01*
X107364024Y-31669657D01*
X107510342Y-31815975D01*
X107510345Y-31815977D01*
X107674391Y-31925588D01*
X107679481Y-31931678D01*
X107686703Y-31934977D01*
X107701564Y-31958102D01*
X107719196Y-31979199D01*
X107721148Y-31988575D01*
X107724477Y-31993755D01*
X107729500Y-32028690D01*
X107729500Y-32176463D01*
X107709815Y-32243502D01*
X107657011Y-32289257D01*
X107628784Y-32297364D01*
X107628793Y-32297397D01*
X107626950Y-32297890D01*
X107621692Y-32299401D01*
X107620948Y-32299498D01*
X107468216Y-32340423D01*
X107468209Y-32340426D01*
X107331290Y-32419475D01*
X107331282Y-32419481D01*
X107219481Y-32531282D01*
X107219475Y-32531290D01*
X107140426Y-32668209D01*
X107140423Y-32668216D01*
X107099500Y-32820943D01*
X37258046Y-32820943D01*
X36836700Y-32399597D01*
X36803215Y-32338274D01*
X36801442Y-32328099D01*
X36800500Y-32320945D01*
X36800500Y-32320943D01*
X36759577Y-32168216D01*
X36759573Y-32168209D01*
X36680524Y-32031290D01*
X36680518Y-32031282D01*
X36568717Y-31919481D01*
X36568709Y-31919475D01*
X36431790Y-31840426D01*
X36431786Y-31840424D01*
X36431784Y-31840423D01*
X36279057Y-31799500D01*
X36120943Y-31799500D01*
X35968216Y-31840423D01*
X35968209Y-31840426D01*
X35831290Y-31919475D01*
X35831282Y-31919481D01*
X35719481Y-32031282D01*
X35719475Y-32031290D01*
X35640426Y-32168209D01*
X35640423Y-32168216D01*
X35599500Y-32320943D01*
X25300500Y-32320943D01*
X25300500Y-29875441D01*
X28099500Y-29875441D01*
X28099500Y-30124558D01*
X28099501Y-30124575D01*
X28132017Y-30371561D01*
X28196498Y-30612207D01*
X28291830Y-30842361D01*
X28291837Y-30842376D01*
X28416400Y-31058126D01*
X28568060Y-31255774D01*
X28568066Y-31255781D01*
X28744218Y-31431933D01*
X28744225Y-31431939D01*
X28941873Y-31583599D01*
X29157623Y-31708162D01*
X29157638Y-31708169D01*
X29214665Y-31731790D01*
X29387793Y-31803502D01*
X29628435Y-31867982D01*
X29875435Y-31900500D01*
X29875442Y-31900500D01*
X30124558Y-31900500D01*
X30124565Y-31900500D01*
X30371565Y-31867982D01*
X30612207Y-31803502D01*
X30842373Y-31708164D01*
X31058127Y-31583599D01*
X31255776Y-31431938D01*
X31431938Y-31255776D01*
X31583599Y-31058127D01*
X31708164Y-30842373D01*
X31803502Y-30612207D01*
X31867982Y-30371565D01*
X31900500Y-30124565D01*
X31900500Y-29875435D01*
X31867982Y-29628435D01*
X31865975Y-29620943D01*
X79199500Y-29620943D01*
X79199500Y-29779057D01*
X79225325Y-29875435D01*
X79240423Y-29931783D01*
X79240426Y-29931790D01*
X79319475Y-30068709D01*
X79319479Y-30068714D01*
X79319480Y-30068716D01*
X79431284Y-30180520D01*
X79431286Y-30180521D01*
X79431290Y-30180524D01*
X79563498Y-30256853D01*
X79568216Y-30259577D01*
X79720943Y-30300500D01*
X79720945Y-30300500D01*
X79879055Y-30300500D01*
X79879057Y-30300500D01*
X80031784Y-30259577D01*
X80168716Y-30180520D01*
X80168721Y-30180514D01*
X80174443Y-30176125D01*
X80239612Y-30150930D01*
X80249931Y-30150500D01*
X99275352Y-30150500D01*
X99342391Y-30170185D01*
X99388146Y-30222989D01*
X99398090Y-30292147D01*
X99385837Y-30330795D01*
X99308904Y-30481782D01*
X99243242Y-30683869D01*
X99243242Y-30683872D01*
X99210000Y-30893753D01*
X99210000Y-31106246D01*
X99243242Y-31316127D01*
X99243242Y-31316130D01*
X99308904Y-31518217D01*
X99386347Y-31670205D01*
X99399243Y-31738874D01*
X99372967Y-31803614D01*
X99315861Y-31843872D01*
X99275862Y-31850500D01*
X80838965Y-31850500D01*
X80771926Y-31830815D01*
X80751284Y-31814181D01*
X80436700Y-31499597D01*
X80403215Y-31438274D01*
X80401442Y-31428099D01*
X80400500Y-31420945D01*
X80400500Y-31420943D01*
X80359577Y-31268216D01*
X80352394Y-31255774D01*
X80280524Y-31131290D01*
X80280518Y-31131282D01*
X80168717Y-31019481D01*
X80168709Y-31019475D01*
X80031790Y-30940426D01*
X80031786Y-30940424D01*
X80031784Y-30940423D01*
X79879057Y-30899500D01*
X79720943Y-30899500D01*
X79568216Y-30940423D01*
X79568209Y-30940426D01*
X79431290Y-31019475D01*
X79431282Y-31019481D01*
X79319481Y-31131282D01*
X79319475Y-31131290D01*
X79240426Y-31268209D01*
X79240423Y-31268216D01*
X79199500Y-31420943D01*
X79199500Y-31579057D01*
X79234096Y-31708169D01*
X79240423Y-31731783D01*
X79240426Y-31731790D01*
X79319475Y-31868709D01*
X79319479Y-31868714D01*
X79319480Y-31868716D01*
X79431284Y-31980520D01*
X79431286Y-31980521D01*
X79431290Y-31980524D01*
X79544606Y-32045946D01*
X79568216Y-32059577D01*
X79720943Y-32100500D01*
X79720945Y-32100500D01*
X79728099Y-32101442D01*
X79791996Y-32129707D01*
X79799597Y-32136700D01*
X80324386Y-32661489D01*
X80427113Y-32720799D01*
X80446941Y-32726111D01*
X80446944Y-32726113D01*
X80446945Y-32726113D01*
X80466967Y-32731477D01*
X80541691Y-32751500D01*
X80541693Y-32751500D01*
X101858307Y-32751500D01*
X101858309Y-32751500D01*
X101953054Y-32726113D01*
X101972887Y-32720799D01*
X102075614Y-32661489D01*
X102691158Y-32045944D01*
X102752479Y-32012461D01*
X102803028Y-32012010D01*
X102996530Y-32050499D01*
X102996534Y-32050500D01*
X102996535Y-32050500D01*
X103203466Y-32050500D01*
X103203467Y-32050499D01*
X103406420Y-32010130D01*
X103597598Y-31930941D01*
X103769655Y-31815977D01*
X103915977Y-31669655D01*
X104030941Y-31497598D01*
X104110130Y-31306420D01*
X104150500Y-31103465D01*
X104150500Y-30896535D01*
X104110130Y-30693580D01*
X104030941Y-30502402D01*
X104030940Y-30502400D01*
X104030940Y-30502399D01*
X103924694Y-30343390D01*
X103921657Y-30333691D01*
X103915002Y-30326011D01*
X103911392Y-30300911D01*
X103903816Y-30276713D01*
X103906504Y-30266913D01*
X103905058Y-30256853D01*
X103915592Y-30233784D01*
X103922301Y-30209333D01*
X103929860Y-30202542D01*
X103934083Y-30193297D01*
X103955417Y-30179586D01*
X103974280Y-30162643D01*
X103985876Y-30160011D01*
X103992861Y-30155523D01*
X104027796Y-30150500D01*
X104102036Y-30150500D01*
X104169075Y-30170185D01*
X104189716Y-30186818D01*
X104594056Y-30591158D01*
X104627540Y-30652480D01*
X104627991Y-30703029D01*
X104589501Y-30896530D01*
X104589501Y-31103469D01*
X104629869Y-31306412D01*
X104629871Y-31306420D01*
X104709059Y-31497596D01*
X104824025Y-31669657D01*
X104970343Y-31815975D01*
X104970346Y-31815977D01*
X105142403Y-31930941D01*
X105333581Y-32010130D01*
X105536531Y-32050499D01*
X105536535Y-32050500D01*
X105536536Y-32050500D01*
X105743467Y-32050500D01*
X105743468Y-32050499D01*
X105946421Y-32010130D01*
X106137599Y-31930941D01*
X106309656Y-31815977D01*
X106455978Y-31669655D01*
X106570942Y-31497598D01*
X106650131Y-31306420D01*
X106690501Y-31103465D01*
X106690501Y-30896535D01*
X106650131Y-30693580D01*
X106570942Y-30502402D01*
X106455978Y-30330345D01*
X106455976Y-30330342D01*
X106309658Y-30184024D01*
X106141656Y-30071770D01*
X106137599Y-30069059D01*
X106136773Y-30068717D01*
X105946421Y-29989870D01*
X105946413Y-29989868D01*
X105743470Y-29949500D01*
X105743466Y-29949500D01*
X105536536Y-29949500D01*
X105493139Y-29958131D01*
X105343029Y-29987990D01*
X105273438Y-29981762D01*
X105231158Y-29954053D01*
X105152546Y-29875441D01*
X118099500Y-29875441D01*
X118099500Y-30124558D01*
X118099501Y-30124575D01*
X118132017Y-30371561D01*
X118196498Y-30612207D01*
X118291830Y-30842361D01*
X118291837Y-30842376D01*
X118416400Y-31058126D01*
X118568060Y-31255774D01*
X118568066Y-31255781D01*
X118744218Y-31431933D01*
X118744225Y-31431939D01*
X118941873Y-31583599D01*
X119157623Y-31708162D01*
X119157638Y-31708169D01*
X119214665Y-31731790D01*
X119387793Y-31803502D01*
X119628435Y-31867982D01*
X119875435Y-31900500D01*
X119875442Y-31900500D01*
X120124558Y-31900500D01*
X120124565Y-31900500D01*
X120371565Y-31867982D01*
X120612207Y-31803502D01*
X120842373Y-31708164D01*
X121058127Y-31583599D01*
X121255776Y-31431938D01*
X121431938Y-31255776D01*
X121583599Y-31058127D01*
X121708164Y-30842373D01*
X121803502Y-30612207D01*
X121867982Y-30371565D01*
X121900500Y-30124565D01*
X121900500Y-29875435D01*
X121867982Y-29628435D01*
X121803502Y-29387793D01*
X121733785Y-29219481D01*
X121708169Y-29157638D01*
X121708162Y-29157623D01*
X121583599Y-28941873D01*
X121431939Y-28744225D01*
X121431933Y-28744218D01*
X121255781Y-28568066D01*
X121255774Y-28568060D01*
X121058126Y-28416400D01*
X120842376Y-28291837D01*
X120842361Y-28291830D01*
X120612207Y-28196498D01*
X120371561Y-28132017D01*
X120124575Y-28099501D01*
X120124570Y-28099500D01*
X120124565Y-28099500D01*
X119875435Y-28099500D01*
X119875429Y-28099500D01*
X119875424Y-28099501D01*
X119628438Y-28132017D01*
X119387792Y-28196498D01*
X119157638Y-28291830D01*
X119157623Y-28291837D01*
X118941873Y-28416400D01*
X118744225Y-28568060D01*
X118744218Y-28568066D01*
X118568066Y-28744218D01*
X118568060Y-28744225D01*
X118416400Y-28941873D01*
X118291837Y-29157623D01*
X118291830Y-29157638D01*
X118196498Y-29387792D01*
X118132017Y-29628438D01*
X118099501Y-29875424D01*
X118099500Y-29875441D01*
X105152546Y-29875441D01*
X104616617Y-29339513D01*
X104616615Y-29339511D01*
X104565251Y-29309856D01*
X104513889Y-29280201D01*
X104501781Y-29276957D01*
X104489674Y-29273713D01*
X104489671Y-29273712D01*
X104451479Y-29263478D01*
X104399310Y-29249500D01*
X104399309Y-29249500D01*
X80249931Y-29249500D01*
X80182892Y-29229815D01*
X80174443Y-29223875D01*
X80168709Y-29219475D01*
X80031790Y-29140426D01*
X80031786Y-29140424D01*
X80031784Y-29140423D01*
X79879057Y-29099500D01*
X79720943Y-29099500D01*
X79568216Y-29140423D01*
X79568209Y-29140426D01*
X79431290Y-29219475D01*
X79431282Y-29219481D01*
X79319481Y-29331282D01*
X79319475Y-29331290D01*
X79240426Y-29468209D01*
X79240423Y-29468216D01*
X79199500Y-29620943D01*
X31865975Y-29620943D01*
X31803502Y-29387793D01*
X31733785Y-29219481D01*
X31708169Y-29157638D01*
X31708162Y-29157623D01*
X31583599Y-28941873D01*
X31431939Y-28744225D01*
X31431933Y-28744218D01*
X31255781Y-28568066D01*
X31255774Y-28568060D01*
X31058126Y-28416400D01*
X30842376Y-28291837D01*
X30842361Y-28291830D01*
X30612207Y-28196498D01*
X30371561Y-28132017D01*
X30124575Y-28099501D01*
X30124570Y-28099500D01*
X30124565Y-28099500D01*
X29875435Y-28099500D01*
X29875429Y-28099500D01*
X29875424Y-28099501D01*
X29628438Y-28132017D01*
X29387792Y-28196498D01*
X29157638Y-28291830D01*
X29157623Y-28291837D01*
X28941873Y-28416400D01*
X28744225Y-28568060D01*
X28744218Y-28568066D01*
X28568066Y-28744218D01*
X28568060Y-28744225D01*
X28416400Y-28941873D01*
X28291837Y-29157623D01*
X28291830Y-29157638D01*
X28196498Y-29387792D01*
X28132017Y-29628438D01*
X28099501Y-29875424D01*
X28099500Y-29875441D01*
X25300500Y-29875441D01*
X25300500Y-25424500D01*
X25320185Y-25357461D01*
X25372989Y-25311706D01*
X25424500Y-25300500D01*
X124575500Y-25300500D01*
X124642539Y-25320185D01*
G37*
%TD.AperFunction*%
%TD*%
M02*
