M48
; DRILL file {KiCad 9.0.7} date 2026-02-26T01:00:16-0600
; FORMAT={-:-/ absolute / metric / decimal}
; #@! TF.CreationDate,2026-02-26T01:00:16-06:00
; #@! TF.GenerationSoftware,Kicad,Pcbnew,9.0.7
; #@! TF.FileFunction,Plated,1,2,PTH
FMAT,2
METRIC
; #@! TA.AperFunction,Plated,PTH,ViaDrill
T1C0.400
; #@! TA.AperFunction,Plated,PTH,ComponentDrill
T2C0.500
; #@! TA.AperFunction,Plated,PTH,ComponentDrill
T3C0.550
; #@! TA.AperFunction,Plated,PTH,ComponentDrill
T4C1.000
; #@! TA.AperFunction,Plated,PTH,ComponentDrill
T5C1.050
; #@! TA.AperFunction,Plated,PTH,ComponentDrill
T6C1.778
%
G90
G05
T1
X29.2Y-59.6
X29.6Y-36.0
X34.6Y-54.6
X36.8Y-48.4
X36.8Y-122.0
X40.0Y-30.4
X41.4Y-116.4
X43.6Y-48.6
X43.8Y-54.8
X46.0Y-119.4
X47.2Y-30.6
X47.8Y-115.8
X48.0Y-100.0
X48.0Y-108.4
X48.2Y-69.0
X48.2Y-97.4
X48.4Y-88.6
X48.933Y-83.933
X49.2Y-26.4
X49.2Y-32.2
X49.6Y-57.2
X50.4Y-48.8
X52.6Y-69.6
X53.0Y-100.6
X53.4Y-35.4
X54.4Y-36.0
X55.4Y-36.4
X55.6Y-37.8
X56.8Y-31.6
X56.97Y-37.83
X57.2Y-26.2
X57.9Y-39.1
X58.2Y-111.8
X58.41Y-30.21
X58.8Y-40.4
X60.2Y-100.6
X61.8Y-53.8
X62.4Y-90.6
X62.6Y-29.0
X64.871Y-54.507
X65.4Y-33.4
X65.4Y-34.8
X66.0Y-53.8
X67.0Y-95.6
X67.2Y-31.6
X67.2Y-36.6
X67.4Y-81.6
X67.6Y-63.2
X68.4Y-112.8
X68.6Y-36.6
X68.8Y-31.6
X69.4Y-53.6
X69.8Y-46.6
X70.6Y-33.4
X70.6Y-34.8
X70.6Y-101.8
X70.8Y-42.0
X71.2Y-86.4
X74.4Y-28.2
X75.2Y-49.8
X75.2Y-51.4
X75.3Y-48.1
X75.4Y-46.6
X75.4Y-55.2
X75.6Y-29.4
X75.9Y-53.9
X76.0Y-42.0
X76.2Y-38.2
X76.6Y-96.8
X77.6Y-60.0
X77.6Y-65.8
X77.6Y-90.0
X77.8Y-84.6
X78.0Y-75.0
X78.2Y-112.2
X78.4Y-47.0
X80.0Y-101.6
X80.6Y-31.8
X81.0Y-41.0
X82.5Y-31.5
X84.0Y-47.4
X84.0Y-52.6
X84.4Y-31.0
X86.4Y-31.0
X87.4Y-27.0
X87.8Y-54.2
X87.8Y-90.4
X87.8Y-111.6
X89.4Y-52.2
X89.8Y-60.0
X90.4Y-96.8
X90.4Y-101.6
X91.2Y-39.4
X93.6Y-45.0
X95.6Y-41.2
X97.0Y-41.0
X97.0Y-81.4
X97.2Y-65.2
X97.2Y-110.8
X97.6Y-40.0
X97.6Y-74.6
X98.4Y-52.4
X98.5Y-39.3
X98.6Y-101.2
X99.2Y-38.4
X99.4Y-48.4
X99.6Y-85.6
X99.6Y-95.4
X100.2Y-26.8
X100.6Y-35.0
X101.6Y-51.6
X101.6Y-60.6
X102.6Y-43.4
X102.6Y-46.0
X104.0Y-43.2
X107.2Y-71.6
X107.6Y-62.4
X109.6Y-109.4
X112.2Y-91.8
X112.8Y-27.0
X113.8Y-35.8
X114.0Y-58.6
X114.2Y-103.8
X115.1Y-114.7
X116.0Y-120.8
X122.0Y-114.2
X123.4Y-49.6
T4
X40.96Y-60.3
X43.5Y-60.3
X46.04Y-60.3
X100.56Y-31.0
X103.1Y-31.0
X105.64Y-31.0
X106.06Y-42.12
X106.06Y-44.66
X106.06Y-47.2
X106.06Y-49.74
X106.06Y-52.28
X108.18Y-31.0
X108.6Y-42.12
X108.6Y-44.66
X108.6Y-47.2
X108.6Y-49.74
X108.6Y-52.28
X110.72Y-31.0
X120.2Y-36.72
X120.2Y-39.26
X120.2Y-41.8
X120.2Y-44.34
X120.2Y-46.88
X120.2Y-49.42
X120.2Y-51.96
X120.2Y-54.5
X120.2Y-57.04
T5
X29.775Y-107.483
X29.775Y-109.983
X29.85Y-81.6
X29.85Y-84.1
X29.9Y-94.032
X29.9Y-96.532
X52.017Y-120.525
X54.517Y-120.525
X62.417Y-120.625
X64.917Y-120.625
X72.5Y-120.6
X75.0Y-120.6
X82.5Y-120.9
X85.0Y-120.9
X91.9Y-120.8
X94.4Y-120.8
X101.8Y-120.6
X104.3Y-120.6
X120.725Y-85.182
X120.725Y-87.682
X120.8Y-95.1
X120.8Y-97.6
T6
X30.038Y-67.233
X30.038Y-71.192
X66.062Y-71.507
X66.062Y-75.468
X119.959Y-63.876
X119.959Y-67.836
X119.962Y-73.74
X119.962Y-77.7
T2
G00X26.825Y-42.225
M15
G01X26.175Y-42.225
M16
G05
G00X26.825Y-49.225
M15
G01X26.175Y-49.225
M16
G05
T3
G00X29.2Y-43.075
M15
G01X29.2Y-43.375
M16
G05
G00X29.2Y-48.075
M15
G01X29.2Y-48.375
M16
G05
M30
