%TF.GenerationSoftware,KiCad,Pcbnew,9.0.7*%
%TF.CreationDate,2026-02-26T01:00:25-06:00*%
%TF.ProjectId,esp32_example,65737033-325f-4657-9861-6d706c652e6b,rev?*%
%TF.SameCoordinates,Original*%
%TF.FileFunction,Copper,L2,Bot*%
%TF.FilePolarity,Positive*%
%FSLAX46Y46*%
G04 Gerber Fmt 4.6, Leading zero omitted, Abs format (unit mm)*
G04 Created by KiCad (PCBNEW 9.0.7) date 2026-02-26 01:00:25*
%MOMM*%
%LPD*%
G01*
G04 APERTURE LIST*
G04 Aperture macros list*
%AMRoundRect*
0 Rectangle with rounded corners*
0 $1 Rounding radius*
0 $2 $3 $4 $5 $6 $7 $8 $9 X,Y pos of 4 corners*
0 Add a 4 corners polygon primitive as box body*
4,1,4,$2,$3,$4,$5,$6,$7,$8,$9,$2,$3,0*
0 Add four circle primitives for the rounded corners*
1,1,$1+$1,$2,$3*
1,1,$1+$1,$4,$5*
1,1,$1+$1,$6,$7*
1,1,$1+$1,$8,$9*
0 Add four rect primitives between the rounded corners*
20,1,$1+$1,$2,$3,$4,$5,0*
20,1,$1+$1,$4,$5,$6,$7,0*
20,1,$1+$1,$6,$7,$8,$9,0*
20,1,$1+$1,$8,$9,$2,$3,0*%
G04 Aperture macros list end*
%TA.AperFunction,ComponentPad*%
%ADD10R,1.575000X1.575000*%
%TD*%
%TA.AperFunction,ComponentPad*%
%ADD11C,1.575000*%
%TD*%
%TA.AperFunction,ComponentPad*%
%ADD12R,1.700000X1.700000*%
%TD*%
%TA.AperFunction,ComponentPad*%
%ADD13C,1.700000*%
%TD*%
%TA.AperFunction,ComponentPad*%
%ADD14R,2.128000X2.128000*%
%TD*%
%TA.AperFunction,ComponentPad*%
%ADD15C,2.128000*%
%TD*%
%TA.AperFunction,HeatsinkPad*%
%ADD16O,1.550000X0.890000*%
%TD*%
%TA.AperFunction,HeatsinkPad*%
%ADD17O,0.950000X1.250000*%
%TD*%
%TA.AperFunction,ComponentPad*%
%ADD18RoundRect,0.250000X0.600000X0.600000X-0.600000X0.600000X-0.600000X-0.600000X0.600000X-0.600000X0*%
%TD*%
%TA.AperFunction,ViaPad*%
%ADD19C,0.800000*%
%TD*%
%TA.AperFunction,Conductor*%
%ADD20C,0.500000*%
%TD*%
%TA.AperFunction,Conductor*%
%ADD21C,1.000000*%
%TD*%
G04 APERTURE END LIST*
D10*
%TO.P,J4,1,1*%
%TO.N,/VDD_5V*%
X29849998Y-84100000D03*
D11*
%TO.P,J4,2,2*%
%TO.N,Net-(D15-PadC)*%
X29849998Y-81600000D03*
%TD*%
D10*
%TO.P,J5,1,1*%
%TO.N,/VDD_5V*%
X29900000Y-96532500D03*
D11*
%TO.P,J5,2,2*%
%TO.N,Net-(D19-PadC)*%
X29900000Y-94032500D03*
%TD*%
D12*
%TO.P,J18,1,Pin_1*%
%TO.N,/VDD_5V*%
X40960001Y-60300000D03*
D13*
%TO.P,J18,2,Pin_2*%
%TO.N,/SERVO_SLIDE*%
X43500001Y-60300000D03*
%TO.P,J18,3,Pin_3*%
%TO.N,GND*%
X46040000Y-60300000D03*
%TD*%
D12*
%TO.P,J3,1,Pin_1*%
%TO.N,/RTS*%
X110720000Y-31000000D03*
D13*
%TO.P,J3,2,Pin_2*%
%TO.N,/DTR*%
X108180000Y-31000000D03*
%TO.P,J3,3,Pin_3*%
%TO.N,/TX*%
X105640001Y-31000000D03*
%TO.P,J3,4,Pin_4*%
%TO.N,/RX*%
X103100000Y-31000000D03*
%TO.P,J3,5,Pin_5*%
%TO.N,GND*%
X100560000Y-31000000D03*
%TD*%
D12*
%TO.P,J19,1,Pin_1*%
%TO.N,VDD_3V3*%
X120200000Y-36719999D03*
D13*
%TO.P,J19,2,Pin_2*%
%TO.N,GND*%
X120200000Y-39259999D03*
%TO.P,J19,3,Pin_3*%
%TO.N,/CS*%
X120200000Y-41799998D03*
%TO.P,J19,4,Pin_4*%
%TO.N,/RST*%
X120200000Y-44339999D03*
%TO.P,J19,5,Pin_5*%
%TO.N,/DC*%
X120200000Y-46879999D03*
%TO.P,J19,6,Pin_6*%
%TO.N,/MOSI*%
X120200000Y-49419999D03*
%TO.P,J19,7,Pin_7*%
%TO.N,/SCK*%
X120200000Y-51959999D03*
%TO.P,J19,8,Pin_8*%
%TO.N,/LED*%
X120200000Y-54500000D03*
%TO.P,J19,9,Pin_9*%
%TO.N,/MISO*%
X120200000Y-57039999D03*
%TD*%
D10*
%TO.P,J11,1,1*%
%TO.N,/VDD_5V*%
X85000000Y-120900000D03*
D11*
%TO.P,J11,2,2*%
%TO.N,Net-(D8-PadA)*%
X82500000Y-120900000D03*
%TD*%
D14*
%TO.P,J16,1,1*%
%TO.N,/VDD_5V*%
X119958777Y-63876275D03*
D15*
%TO.P,J16,2,2*%
%TO.N,Net-(D10-PadA)*%
X119958777Y-67836275D03*
%TD*%
D14*
%TO.P,J20,1,1*%
%TO.N,VDD_3V3*%
X66062000Y-71507500D03*
D15*
%TO.P,J20,2,2*%
%TO.N,GND*%
X66062000Y-75467500D03*
%TD*%
D10*
%TO.P,J10,1,1*%
%TO.N,/VDD_5V*%
X75000000Y-120600000D03*
D11*
%TO.P,J10,2,2*%
%TO.N,Net-(D7-PadA)*%
X72500000Y-120600000D03*
%TD*%
D10*
%TO.P,J9,1,1*%
%TO.N,/VDD_5V*%
X64917499Y-120625000D03*
D11*
%TO.P,J9,2,2*%
%TO.N,Net-(D6-PadA)*%
X62417499Y-120625000D03*
%TD*%
D10*
%TO.P,J8,1,1*%
%TO.N,/VDD_5V*%
X54517500Y-120525001D03*
D11*
%TO.P,J8,2,2*%
%TO.N,Net-(D5-PadA)*%
X52017500Y-120525001D03*
%TD*%
D10*
%TO.P,J14,1,1*%
%TO.N,/VDD_5V*%
X120800000Y-95100000D03*
D11*
%TO.P,J14,2,2*%
%TO.N,Net-(D13-PadA)*%
X120800000Y-97600000D03*
%TD*%
D14*
%TO.P,J1,1,1*%
%TO.N,/VDD_5V*%
X119962000Y-73740000D03*
D15*
%TO.P,J1,2,2*%
%TO.N,Net-(D21-PadC)*%
X119962000Y-77700000D03*
%TD*%
D16*
%TO.P,J2,6,Shield*%
%TO.N,unconnected-(J2-Shield-Pad6)*%
X26500000Y-42225000D03*
D17*
X29200000Y-43225001D03*
X29200000Y-48224999D03*
D16*
X26500000Y-49225000D03*
%TD*%
D18*
%TO.P,J7,1,VTref*%
%TO.N,Net-(J7-VTref)*%
X108600000Y-52279999D03*
D13*
%TO.P,J7,2,SWDIO/TMS*%
%TO.N,/MTMS*%
X106060000Y-52279999D03*
%TO.P,J7,3,GND*%
%TO.N,GND*%
X108600000Y-49739999D03*
%TO.P,J7,4,SWDCLK/TCK*%
%TO.N,/MTCK*%
X106060000Y-49739999D03*
%TO.P,J7,5,GND*%
%TO.N,GND*%
X108600000Y-47200000D03*
%TO.P,J7,6,SWO/TDO*%
%TO.N,/MTDO*%
X106060000Y-47199999D03*
%TO.P,J7,7,KEY*%
%TO.N,unconnected-(J7-KEY-Pad7)*%
X108600000Y-44659999D03*
%TO.P,J7,8,NC/TDI*%
%TO.N,/MTDI*%
X106060000Y-44659999D03*
%TO.P,J7,9,GNDDetect*%
%TO.N,GND*%
X108600000Y-42119999D03*
%TO.P,J7,10,~{RESET}*%
%TO.N,/CHIP_PU*%
X106060000Y-42119999D03*
%TD*%
D10*
%TO.P,J6,1,1*%
%TO.N,/VDD_5V*%
X29774999Y-109982500D03*
D11*
%TO.P,J6,2,2*%
%TO.N,Net-(D20-PadC)*%
X29774999Y-107482500D03*
%TD*%
D10*
%TO.P,J13,1,1*%
%TO.N,/VDD_5V*%
X104300000Y-120600000D03*
D11*
%TO.P,J13,2,2*%
%TO.N,Net-(D14-PadA)*%
X101800000Y-120600000D03*
%TD*%
D10*
%TO.P,J12,1,1*%
%TO.N,/VDD_5V*%
X94399999Y-120799999D03*
D11*
%TO.P,J12,2,2*%
%TO.N,Net-(D9-PadA)*%
X91899999Y-120799999D03*
%TD*%
D10*
%TO.P,J15,1,1*%
%TO.N,/VDD_5V*%
X120725001Y-85182500D03*
D11*
%TO.P,J15,2,2*%
%TO.N,Net-(D12-PadA)*%
X120725001Y-87682500D03*
%TD*%
D14*
%TO.P,J17,1,1*%
%TO.N,/VDD_5V*%
X30038000Y-71192500D03*
D15*
%TO.P,J17,2,2*%
%TO.N,GND*%
X30038000Y-67232500D03*
%TD*%
D19*
%TO.N,GND*%
X77600000Y-60000000D03*
X89800000Y-60000000D03*
X107600000Y-62400000D03*
X114000000Y-58600000D03*
X107200000Y-71600000D03*
X112200000Y-91800000D03*
X97200000Y-110800000D03*
X87800000Y-111600000D03*
X78200000Y-112200000D03*
X58200000Y-111800000D03*
X68400000Y-112800000D03*
X46000000Y-119400000D03*
X48000000Y-100000000D03*
X48400000Y-88600000D03*
X69400000Y-53600000D03*
X84000000Y-47400000D03*
X84000000Y-52600000D03*
X78400000Y-47000000D03*
X91200000Y-39400000D03*
X100600000Y-35000000D03*
X113800000Y-35800000D03*
X112800000Y-27000000D03*
X100200000Y-26800000D03*
X87400000Y-27000000D03*
X29600000Y-36000000D03*
X40000000Y-30400000D03*
X29200000Y-59600000D03*
X34600000Y-54600000D03*
X36800000Y-122000000D03*
X47800000Y-115800000D03*
X41400000Y-116400000D03*
X122000000Y-114200000D03*
X116000000Y-120800000D03*
X109600000Y-109400000D03*
X114200000Y-103800000D03*
X90400000Y-96800000D03*
X76600000Y-96800000D03*
X67000000Y-95600000D03*
X62400000Y-90600000D03*
X97000000Y-81400000D03*
X87800000Y-90400000D03*
X77600000Y-90000000D03*
X71200000Y-86400000D03*
X67400000Y-81600000D03*
X67600000Y-63200000D03*
X49600000Y-57200000D03*
X43800000Y-54800000D03*
X50400000Y-48800000D03*
X43600000Y-48600000D03*
%TO.N,VDD_3V3*%
X101600000Y-60600000D03*
X123400000Y-49600000D03*
%TO.N,GND*%
X65400000Y-34800000D03*
X65400000Y-33400000D03*
X67200000Y-31600000D03*
X68800000Y-31600000D03*
X70600000Y-33400000D03*
X70600000Y-34800000D03*
X68600000Y-36600000D03*
X67200000Y-36600000D03*
X47200000Y-30600000D03*
X49200000Y-26400000D03*
X57200000Y-26200000D03*
X101600000Y-51600000D03*
X98400000Y-52400000D03*
X99400000Y-48400000D03*
%TO.N,/CHIP_PU*%
X70800000Y-42000000D03*
X76000000Y-42000000D03*
%TO.N,/BTN_1*%
X77800000Y-84600000D03*
%TO.N,/BTN_2*%
X78000000Y-75000000D03*
%TO.N,/BTN_3*%
X77600000Y-65800000D03*
%TO.N,/SERVO_SLIDE*%
X69800000Y-46600000D03*
%TO.N,/BTN_3*%
X76200000Y-38200000D03*
%TO.N,/RST*%
X95600000Y-41200000D03*
X81000000Y-41000000D03*
%TO.N,/SCK*%
X75200000Y-51400000D03*
%TO.N,/MOSI*%
X75200000Y-49800000D03*
%TO.N,/DC*%
X75300000Y-48100000D03*
%TO.N,/CS*%
X75400000Y-46600000D03*
%TO.N,/BTN_1*%
X74400000Y-28200000D03*
%TO.N,/BTN_2*%
X75600000Y-29400000D03*
%TO.N,/MTDO*%
X102600000Y-46000000D03*
X102600000Y-43400000D03*
%TO.N,/MTCK*%
X104000000Y-43200000D03*
%TO.N,/MTMS*%
X97000000Y-41000000D03*
%TO.N,/MTDI*%
X97600000Y-40000000D03*
%TO.N,/MTDO*%
X98500000Y-39300000D03*
%TO.N,/MTCK*%
X99200000Y-38400000D03*
X86400000Y-31000000D03*
%TO.N,/MTDI*%
X82500000Y-31500000D03*
%TO.N,/MTDO*%
X84400000Y-31000000D03*
%TO.N,/MTMS*%
X80600000Y-31800000D03*
%TO.N,/CHIP_PU*%
X87800000Y-54200000D03*
%TO.N,VDD_3V3*%
X36800000Y-48400000D03*
X49200000Y-32200000D03*
%TO.N,/DTR*%
X93600000Y-45000000D03*
%TO.N,/RTS*%
X89400000Y-52200000D03*
%TO.N,/VDD_5V*%
X115100000Y-114700000D03*
%TO.N,/SERVO_SLIDE*%
X61800000Y-53800000D03*
%TO.N,/PUMP_PWM_2*%
X75900000Y-53900000D03*
%TO.N,/PUMP_PWM_1*%
X75400000Y-55200000D03*
%TO.N,/PUMP_SOLENOID*%
X66000000Y-53800000D03*
%TO.N,/SOLENOID_EN_10*%
X64871495Y-54507243D03*
%TO.N,/SOLENOID_EN_3*%
X48000000Y-108400000D03*
%TO.N,/SOLENOID_EN_1*%
X48932501Y-83932501D03*
%TO.N,/SOLENOID_EN_2*%
X48200000Y-97400000D03*
%TO.N,/SOLENOID_EN_6*%
X55600000Y-37800000D03*
%TO.N,/SOLENOID_EN_5*%
X55400000Y-36400000D03*
%TO.N,/SOLENOID_EN_4*%
X54400000Y-36000000D03*
%TO.N,/SOLENOID_EN_3*%
X53400000Y-35400000D03*
%TO.N,/SOLENOID_EN_2*%
X56800000Y-31600000D03*
%TO.N,/SOLENOID_EN_8*%
X90400000Y-101600000D03*
%TO.N,/SOLENOID_EN_7*%
X80000000Y-101600000D03*
%TO.N,/SOLENOID_EN_6*%
X70600000Y-101800000D03*
%TO.N,/SOLENOID_EN_5*%
X60200000Y-100600000D03*
%TO.N,/SOLENOID_EN_4*%
X53000000Y-100600000D03*
%TO.N,/SOLENOID_EN_9*%
X98600000Y-101200000D03*
%TO.N,/SOLENOID_EN_10*%
X99600000Y-95400000D03*
%TO.N,/PUMP_SOLENOID*%
X99600000Y-85600000D03*
%TO.N,/PUMP_PWM_1*%
X97600000Y-74600000D03*
%TO.N,/PUMP_PWM_2*%
X97200000Y-65200000D03*
%TO.N,/SOLENOID_EN_7*%
X56970000Y-37830000D03*
%TO.N,/SOLENOID_EN_8*%
X57900000Y-39100000D03*
%TO.N,/SOLENOID_EN_9*%
X58800000Y-40400000D03*
%TO.N,/SOLENOID_EN_1*%
X58410000Y-30210000D03*
%TO.N,Net-(U6-FB)*%
X52600000Y-69600000D03*
X48200000Y-69000000D03*
%TO.N,/CHIP_PU*%
X62600000Y-29000000D03*
%TD*%
D20*
%TO.N,VDD_3V3*%
X118479891Y-60600000D02*
X101600000Y-60600000D01*
X123400000Y-55679891D02*
X118479891Y-60600000D01*
X123400000Y-49600000D02*
X123400000Y-55679891D01*
%TO.N,/CHIP_PU*%
X64000000Y-30400000D02*
X62600000Y-29000000D01*
X65400000Y-42000000D02*
X64000000Y-40600000D01*
X70800000Y-42000000D02*
X65400000Y-42000000D01*
X64000000Y-40600000D02*
X64000000Y-30400000D01*
X87800000Y-53800000D02*
X76000000Y-42000000D01*
X87800000Y-54200000D02*
X87800000Y-53800000D01*
%TO.N,/BTN_1*%
X72000000Y-78800000D02*
X77800000Y-84600000D01*
X72000000Y-30600000D02*
X72000000Y-78800000D01*
X74400000Y-28200000D02*
X72000000Y-30600000D01*
%TO.N,/BTN_2*%
X73648000Y-70648000D02*
X78000000Y-75000000D01*
X73648000Y-31352000D02*
X73648000Y-70648000D01*
X75600000Y-29400000D02*
X73648000Y-31352000D01*
%TO.N,/BTN_3*%
X74349000Y-62549000D02*
X77600000Y-65800000D01*
X74349000Y-40051000D02*
X74349000Y-62549000D01*
X76200000Y-38200000D02*
X74349000Y-40051000D01*
%TO.N,/PUMP_SOLENOID*%
X99600000Y-89400000D02*
X99600000Y-85600000D01*
X95400000Y-93600000D02*
X99600000Y-89400000D01*
X62600000Y-58591364D02*
X62600000Y-86008636D01*
X66000000Y-55191364D02*
X62600000Y-58591364D01*
X66000000Y-53800000D02*
X66000000Y-55191364D01*
X62600000Y-86008636D02*
X70191364Y-93600000D01*
X70191364Y-93600000D02*
X95400000Y-93600000D01*
%TO.N,/SOLENOID_EN_10*%
X70000000Y-94400000D02*
X98600000Y-94400000D01*
X61800000Y-86200000D02*
X70000000Y-94400000D01*
X61800000Y-58400000D02*
X61800000Y-86200000D01*
X64871495Y-55328505D02*
X61800000Y-58400000D01*
X64871495Y-54507243D02*
X64871495Y-55328505D01*
X98600000Y-94400000D02*
X99600000Y-95400000D01*
%TO.N,/PUMP_PWM_2*%
X87200000Y-65200000D02*
X97200000Y-65200000D01*
X75900000Y-53900000D02*
X87200000Y-65200000D01*
%TO.N,/PUMP_PWM_1*%
X86909636Y-65901000D02*
X95301000Y-65901000D01*
X95301000Y-65901000D02*
X97600000Y-68200000D01*
X76208636Y-55200000D02*
X86909636Y-65901000D01*
X75400000Y-55200000D02*
X76208636Y-55200000D01*
X97600000Y-68200000D02*
X97600000Y-74600000D01*
%TO.N,/SCK*%
X120159999Y-52000000D02*
X120200000Y-51959999D01*
X111446000Y-57154000D02*
X116600000Y-52000000D01*
X80954000Y-57154000D02*
X111446000Y-57154000D01*
X116600000Y-52000000D02*
X120159999Y-52000000D01*
X75200000Y-51400000D02*
X80954000Y-57154000D01*
%TO.N,/DC*%
X82952000Y-55752000D02*
X108317655Y-55752000D01*
X75300000Y-48100000D02*
X82952000Y-55752000D01*
X108317655Y-55752000D02*
X117189656Y-46879999D01*
X117189656Y-46879999D02*
X120200000Y-46879999D01*
%TO.N,/MOSI*%
X116819999Y-49419999D02*
X120200000Y-49419999D01*
X116800000Y-49400000D02*
X116819999Y-49419999D01*
X109747000Y-56453000D02*
X116800000Y-49400000D01*
X75200000Y-49800000D02*
X81853000Y-56453000D01*
X81853000Y-56453000D02*
X109747000Y-56453000D01*
%TO.N,/RST*%
X95400000Y-41000000D02*
X95600000Y-41200000D01*
X81000000Y-41000000D02*
X95400000Y-41000000D01*
%TO.N,/CS*%
X118600002Y-41799998D02*
X120200000Y-41799998D01*
X118600000Y-41800000D02*
X118600002Y-41799998D01*
X113200000Y-41800000D02*
X118600000Y-41800000D01*
X110600000Y-44400000D02*
X113200000Y-41800000D01*
X110600000Y-52478291D02*
X110600000Y-44400000D01*
X108027291Y-55051000D02*
X110600000Y-52478291D01*
X83851000Y-55051000D02*
X108027291Y-55051000D01*
X75400000Y-46600000D02*
X83851000Y-55051000D01*
%TO.N,/MTDO*%
X102600000Y-43400000D02*
X102600000Y-46000000D01*
%TO.N,/MTCK*%
X104000000Y-47679999D02*
X106060000Y-49739999D01*
X104000000Y-43200000D02*
X104000000Y-47679999D01*
%TO.N,/MTMS*%
X90200000Y-34200000D02*
X97000000Y-41000000D01*
X83000000Y-34200000D02*
X90200000Y-34200000D01*
X80600000Y-31800000D02*
X83000000Y-34200000D01*
%TO.N,/MTDI*%
X90600000Y-33000000D02*
X97600000Y-40000000D01*
X84000000Y-33000000D02*
X90600000Y-33000000D01*
X82500000Y-31500000D02*
X84000000Y-33000000D01*
%TO.N,/MTDO*%
X91200000Y-32000000D02*
X98500000Y-39300000D01*
X85400000Y-32000000D02*
X91200000Y-32000000D01*
X84400000Y-31000000D02*
X85400000Y-32000000D01*
%TO.N,/MTCK*%
X91800000Y-31000000D02*
X99200000Y-38400000D01*
X86400000Y-31000000D02*
X91800000Y-31000000D01*
%TO.N,/DTR*%
X108180000Y-32220000D02*
X108180000Y-31000000D01*
X95400000Y-45000000D02*
X108180000Y-32220000D01*
X93600000Y-45000000D02*
X95400000Y-45000000D01*
%TO.N,/CHIP_PU*%
X89000000Y-54200000D02*
X101080001Y-42119999D01*
X101080001Y-42119999D02*
X106060000Y-42119999D01*
X87800000Y-54200000D02*
X89000000Y-54200000D01*
%TO.N,VDD_3V3*%
X36800000Y-44600000D02*
X49200000Y-32200000D01*
X36800000Y-48400000D02*
X36800000Y-44600000D01*
%TO.N,/SOLENOID_EN_9*%
X96200000Y-98800000D02*
X98600000Y-101200000D01*
X66800000Y-98800000D02*
X96200000Y-98800000D01*
X58800000Y-90800000D02*
X66800000Y-98800000D01*
X58800000Y-40400000D02*
X58800000Y-90800000D01*
%TO.N,/SOLENOID_EN_8*%
X72240364Y-100749000D02*
X89549000Y-100749000D01*
X89549000Y-100749000D02*
X90400000Y-101600000D01*
X71190364Y-99699000D02*
X72240364Y-100749000D01*
X57900000Y-39100000D02*
X57900000Y-91900000D01*
X57900000Y-91900000D02*
X65699000Y-99699000D01*
X65699000Y-99699000D02*
X71190364Y-99699000D01*
%TO.N,/SOLENOID_EN_7*%
X71800000Y-101600000D02*
X80000000Y-101600000D01*
X56970000Y-93570000D02*
X63800000Y-100400000D01*
X63800000Y-100400000D02*
X70600000Y-100400000D01*
X56970000Y-37830000D02*
X56970000Y-93570000D01*
X70600000Y-100400000D02*
X71800000Y-101600000D01*
%TO.N,/SOLENOID_EN_6*%
X60549000Y-99749000D02*
X55600000Y-94800000D01*
X55600000Y-94800000D02*
X55600000Y-37800000D01*
X60552496Y-99749000D02*
X60549000Y-99749000D01*
X61051000Y-100247504D02*
X60552496Y-99749000D01*
X61051000Y-100251000D02*
X61051000Y-100247504D01*
X62600000Y-101800000D02*
X61051000Y-100251000D01*
X70600000Y-101800000D02*
X62600000Y-101800000D01*
%TO.N,/RTS*%
X89520000Y-52200000D02*
X110720000Y-31000000D01*
X89400000Y-52200000D02*
X89520000Y-52200000D01*
D21*
%TO.N,/VDD_5V*%
X122200000Y-71502000D02*
X122200000Y-66117498D01*
X119962000Y-73740000D02*
X122200000Y-71502000D01*
X122200000Y-66117498D02*
X119958777Y-63876275D01*
X115100000Y-114700000D02*
X123800000Y-106000000D01*
X123800000Y-98100000D02*
X120800000Y-95100000D01*
X123800000Y-106000000D02*
X123800000Y-98100000D01*
X109200000Y-120600000D02*
X115100000Y-114700000D01*
X104300000Y-120600000D02*
X109200000Y-120600000D01*
D20*
%TO.N,/SOLENOID_EN_5*%
X54800000Y-95200000D02*
X60200000Y-100600000D01*
X54800000Y-85200000D02*
X54800000Y-95200000D01*
X54749000Y-85149000D02*
X54800000Y-85200000D01*
%TO.N,/SOLENOID_EN_3*%
X47200000Y-62200000D02*
X53347000Y-56053000D01*
X53347000Y-56053000D02*
X53347000Y-35453000D01*
X47200000Y-70800000D02*
X47200000Y-62200000D01*
X52800000Y-98800000D02*
X52800000Y-76400000D01*
X53347000Y-35453000D02*
X53400000Y-35400000D01*
X48000000Y-103600000D02*
X52800000Y-98800000D01*
X48000000Y-108400000D02*
X48000000Y-103600000D01*
X52800000Y-76400000D02*
X47200000Y-70800000D01*
%TO.N,/SOLENOID_EN_1*%
X56395140Y-30210000D02*
X58410000Y-30210000D01*
X38958001Y-47647139D02*
X56395140Y-30210000D01*
X38958001Y-73958001D02*
X38958001Y-47647139D01*
X48932501Y-83932501D02*
X38958001Y-73958001D01*
%TO.N,/SOLENOID_EN_2*%
X51600000Y-94000000D02*
X48200000Y-97400000D01*
X39659001Y-72459001D02*
X51600000Y-84400000D01*
X51600000Y-84400000D02*
X51600000Y-94000000D01*
X39659001Y-47937503D02*
X39659001Y-72459001D01*
X56800000Y-31600000D02*
X55996504Y-31600000D01*
X55996504Y-31600000D02*
X39659001Y-47937503D01*
%TO.N,/SOLENOID_EN_4*%
X54048000Y-99552000D02*
X53000000Y-100600000D01*
X54048000Y-36352000D02*
X54048000Y-99552000D01*
X54400000Y-36000000D02*
X54048000Y-36352000D01*
%TO.N,/SOLENOID_EN_5*%
X54749000Y-37051000D02*
X54749000Y-85149000D01*
X55400000Y-36400000D02*
X54749000Y-37051000D01*
D21*
%TO.N,/VDD_5V*%
X51842501Y-123200000D02*
X54517500Y-120525001D01*
X42992499Y-123200000D02*
X51842501Y-123200000D01*
X29774999Y-109982500D02*
X42992499Y-123200000D01*
X28361498Y-82611500D02*
X28361498Y-72869002D01*
X28361498Y-72869002D02*
X30038000Y-71192500D01*
X29849998Y-84100000D02*
X28361498Y-82611500D01*
X28411500Y-85538498D02*
X29849998Y-84100000D01*
X28411500Y-95044000D02*
X28411500Y-85538498D01*
X29900000Y-96532500D02*
X28411500Y-95044000D01*
X28286499Y-98146001D02*
X29900000Y-96532500D01*
X28286499Y-108494000D02*
X28286499Y-98146001D01*
X29774999Y-109982500D02*
X28286499Y-108494000D01*
X121727000Y-84180501D02*
X121727000Y-75505000D01*
X120725001Y-85182500D02*
X121727000Y-84180501D01*
X121727000Y-75505000D02*
X119962000Y-73740000D01*
X122213501Y-86671000D02*
X120725001Y-85182500D01*
X120800000Y-95100000D02*
X122213501Y-93686499D01*
X122213501Y-93686499D02*
X122213501Y-86671000D01*
X56105999Y-122113500D02*
X54517500Y-120525001D01*
X63428999Y-122113500D02*
X56105999Y-122113500D01*
X64917499Y-120625000D02*
X63428999Y-122113500D01*
X66380999Y-122088500D02*
X64917499Y-120625000D01*
X73511500Y-122088500D02*
X66380999Y-122088500D01*
X75000000Y-120600000D02*
X73511500Y-122088500D01*
X83500000Y-122400000D02*
X76800000Y-122400000D01*
X76800000Y-122400000D02*
X75000000Y-120600000D01*
X85000000Y-120900000D02*
X83500000Y-122400000D01*
X86500000Y-122400000D02*
X85000000Y-120900000D01*
X92799998Y-122400000D02*
X86500000Y-122400000D01*
X94399999Y-120799999D02*
X92799998Y-122400000D01*
X95688500Y-122088500D02*
X94399999Y-120799999D01*
X102811500Y-122088500D02*
X95688500Y-122088500D01*
X104300000Y-120600000D02*
X102811500Y-122088500D01*
D20*
%TO.N,Net-(U6-FB)*%
X48800000Y-69600000D02*
X52600000Y-69600000D01*
X48200000Y-69000000D02*
X48800000Y-69600000D01*
%TO.N,/SERVO_SLIDE*%
X61800000Y-53800000D02*
X64400000Y-53800000D01*
X69800000Y-48400000D02*
X69800000Y-46600000D01*
X64400000Y-53800000D02*
X69800000Y-48400000D01*
%TD*%
%TA.AperFunction,Conductor*%
%TO.N,GND*%
G36*
X102500753Y-42590184D02*
G01*
X102546508Y-42642988D01*
X102556452Y-42712146D01*
X102527427Y-42775702D01*
X102468649Y-42813476D01*
X102465836Y-42814265D01*
X102402301Y-42831290D01*
X102368216Y-42840423D01*
X102368209Y-42840426D01*
X102231290Y-42919475D01*
X102231282Y-42919481D01*
X102119481Y-43031282D01*
X102119475Y-43031290D01*
X102040426Y-43168209D01*
X102040423Y-43168216D01*
X101999500Y-43320943D01*
X101999500Y-43479057D01*
X102024413Y-43572031D01*
X102040423Y-43631783D01*
X102040426Y-43631790D01*
X102119473Y-43768706D01*
X102119477Y-43768712D01*
X102119480Y-43768716D01*
X102119482Y-43768718D01*
X102123872Y-43774438D01*
X102149069Y-43839606D01*
X102149500Y-43849930D01*
X102149500Y-45550069D01*
X102129815Y-45617108D01*
X102123875Y-45625557D01*
X102119475Y-45631290D01*
X102040426Y-45768209D01*
X102040423Y-45768216D01*
X101999500Y-45920943D01*
X101999500Y-46079057D01*
X102040289Y-46231282D01*
X102040423Y-46231783D01*
X102040426Y-46231790D01*
X102119475Y-46368709D01*
X102119479Y-46368714D01*
X102119480Y-46368716D01*
X102231284Y-46480520D01*
X102231286Y-46480521D01*
X102231290Y-46480524D01*
X102317577Y-46530341D01*
X102368216Y-46559577D01*
X102520943Y-46600500D01*
X102520945Y-46600500D01*
X102679055Y-46600500D01*
X102679057Y-46600500D01*
X102831784Y-46559577D01*
X102968716Y-46480520D01*
X103080520Y-46368716D01*
X103159577Y-46231784D01*
X103200500Y-46079057D01*
X103200500Y-45920943D01*
X103159577Y-45768216D01*
X103159573Y-45768209D01*
X103080524Y-45631290D01*
X103080521Y-45631287D01*
X103080520Y-45631284D01*
X103080517Y-45631281D01*
X103076125Y-45625557D01*
X103050930Y-45560388D01*
X103050500Y-45550069D01*
X103050500Y-43849930D01*
X103070185Y-43782891D01*
X103076128Y-43774438D01*
X103080512Y-43768723D01*
X103080520Y-43768716D01*
X103159577Y-43631784D01*
X103200500Y-43479057D01*
X103200500Y-43475948D01*
X103201241Y-43473422D01*
X103201290Y-43473049D01*
X103200627Y-43470342D01*
X103211101Y-43439841D01*
X103220185Y-43408909D01*
X103222378Y-43407008D01*
X103223322Y-43404261D01*
X103248630Y-43384261D01*
X103272989Y-43363154D01*
X103275862Y-43362740D01*
X103278141Y-43360940D01*
X103310239Y-43357797D01*
X103342147Y-43353210D01*
X103344787Y-43354415D01*
X103347678Y-43354133D01*
X103376377Y-43368842D01*
X103405703Y-43382235D01*
X103408057Y-43385079D01*
X103409857Y-43386002D01*
X103414927Y-43393380D01*
X103431740Y-43413693D01*
X103438863Y-43425963D01*
X103440423Y-43431784D01*
X103519480Y-43568716D01*
X103524853Y-43574089D01*
X103532740Y-43587675D01*
X103539233Y-43614168D01*
X103549069Y-43639606D01*
X103549500Y-43649930D01*
X103549500Y-47739307D01*
X103572029Y-47823387D01*
X103572029Y-47823388D01*
X103580199Y-47853882D01*
X103580200Y-47853884D01*
X103580201Y-47853886D01*
X103639511Y-47956613D01*
X103639513Y-47956615D01*
X105014054Y-49331156D01*
X105047539Y-49392479D01*
X105047990Y-49443028D01*
X105009500Y-49636529D01*
X105009500Y-49843468D01*
X105049868Y-50046411D01*
X105049870Y-50046419D01*
X105128387Y-50235976D01*
X105129059Y-50237597D01*
X105142836Y-50258216D01*
X105244024Y-50409656D01*
X105390342Y-50555974D01*
X105390345Y-50555976D01*
X105562402Y-50670940D01*
X105753580Y-50750129D01*
X105956530Y-50790498D01*
X105956534Y-50790499D01*
X105956535Y-50790499D01*
X106163466Y-50790499D01*
X106163467Y-50790498D01*
X106366420Y-50750129D01*
X106557598Y-50670940D01*
X106729655Y-50555976D01*
X106875977Y-50409654D01*
X106990941Y-50237597D01*
X107059165Y-50072888D01*
X107103004Y-50018487D01*
X107169298Y-49996422D01*
X107236998Y-50013701D01*
X107284609Y-50064838D01*
X107291656Y-50082025D01*
X107348904Y-50258215D01*
X107445375Y-50447549D01*
X107484728Y-50501715D01*
X108117037Y-49869407D01*
X108134075Y-49932992D01*
X108199901Y-50047006D01*
X108292993Y-50140098D01*
X108407007Y-50205924D01*
X108470590Y-50222961D01*
X107838282Y-50855268D01*
X107838282Y-50855269D01*
X107892449Y-50894623D01*
X108086121Y-50993305D01*
X108085603Y-50994320D01*
X108135808Y-51034778D01*
X108157873Y-51101072D01*
X108140594Y-51168771D01*
X108089458Y-51216382D01*
X108033952Y-51229499D01*
X107945730Y-51229499D01*
X107915300Y-51232352D01*
X107915298Y-51232352D01*
X107787119Y-51277205D01*
X107787117Y-51277206D01*
X107677850Y-51357849D01*
X107597207Y-51467116D01*
X107597206Y-51467118D01*
X107552353Y-51595297D01*
X107552353Y-51595299D01*
X107549500Y-51625729D01*
X107549500Y-52934268D01*
X107552353Y-52964698D01*
X107552353Y-52964700D01*
X107584950Y-53057853D01*
X107597207Y-53092881D01*
X107677850Y-53202149D01*
X107787118Y-53282792D01*
X107808089Y-53290130D01*
X107915299Y-53327645D01*
X107945730Y-53330499D01*
X107945734Y-53330499D01*
X108811327Y-53330499D01*
X108878366Y-53350184D01*
X108924121Y-53402988D01*
X108934065Y-53472146D01*
X108905040Y-53535702D01*
X108899008Y-53542180D01*
X107877007Y-54564181D01*
X107815684Y-54597666D01*
X107789326Y-54600500D01*
X89535965Y-54600500D01*
X89468926Y-54580815D01*
X89423171Y-54528011D01*
X89413227Y-54458853D01*
X89442252Y-54395297D01*
X89448284Y-54388819D01*
X91660574Y-52176529D01*
X105009500Y-52176529D01*
X105009500Y-52383468D01*
X105049868Y-52586411D01*
X105049870Y-52586419D01*
X105129058Y-52777595D01*
X105244024Y-52949656D01*
X105390342Y-53095974D01*
X105390345Y-53095976D01*
X105562402Y-53210940D01*
X105753580Y-53290129D01*
X105923234Y-53323875D01*
X105956530Y-53330498D01*
X105956534Y-53330499D01*
X105956535Y-53330499D01*
X106163466Y-53330499D01*
X106163467Y-53330498D01*
X106366420Y-53290129D01*
X106557598Y-53210940D01*
X106729655Y-53095976D01*
X106875977Y-52949654D01*
X106990941Y-52777597D01*
X107070130Y-52586419D01*
X107110500Y-52383464D01*
X107110500Y-52176534D01*
X107070130Y-51973579D01*
X106990941Y-51782401D01*
X106875977Y-51610344D01*
X106875975Y-51610341D01*
X106729657Y-51464023D01*
X106579056Y-51363396D01*
X106557598Y-51349058D01*
X106415843Y-51290341D01*
X106366420Y-51269869D01*
X106366412Y-51269867D01*
X106163469Y-51229499D01*
X106163465Y-51229499D01*
X105956535Y-51229499D01*
X105956530Y-51229499D01*
X105753587Y-51269867D01*
X105753579Y-51269869D01*
X105562403Y-51349057D01*
X105390342Y-51464023D01*
X105244024Y-51610341D01*
X105129058Y-51782402D01*
X105049870Y-51973578D01*
X105049868Y-51973586D01*
X105009500Y-52176529D01*
X91660574Y-52176529D01*
X101230285Y-42606818D01*
X101291608Y-42573333D01*
X101317966Y-42570499D01*
X102433714Y-42570499D01*
X102500753Y-42590184D01*
G37*
%TD.AperFunction*%
%TA.AperFunction,Conductor*%
G36*
X109715270Y-50501716D02*
G01*
X109715270Y-50501715D01*
X109754622Y-50447553D01*
X109851095Y-50258216D01*
X109907569Y-50084407D01*
X109947006Y-50026732D01*
X110011365Y-49999533D01*
X110080211Y-50011447D01*
X110131687Y-50058691D01*
X110149500Y-50122725D01*
X110149500Y-52240326D01*
X110129815Y-52307365D01*
X110113181Y-52328007D01*
X109862181Y-52579007D01*
X109800858Y-52612492D01*
X109731166Y-52607508D01*
X109675233Y-52565636D01*
X109650816Y-52500172D01*
X109650500Y-52491326D01*
X109650500Y-51625729D01*
X109647646Y-51595299D01*
X109647646Y-51595297D01*
X109602793Y-51467118D01*
X109602792Y-51467116D01*
X109522150Y-51357849D01*
X109412882Y-51277206D01*
X109412880Y-51277205D01*
X109284700Y-51232352D01*
X109254270Y-51229499D01*
X109254266Y-51229499D01*
X109166048Y-51229499D01*
X109099009Y-51209814D01*
X109053254Y-51157010D01*
X109043310Y-51087852D01*
X109072335Y-51024296D01*
X109114264Y-50994060D01*
X109113879Y-50993305D01*
X109307554Y-50894621D01*
X109361716Y-50855269D01*
X109361717Y-50855269D01*
X108729408Y-50222961D01*
X108792993Y-50205924D01*
X108907007Y-50140098D01*
X109000099Y-50047006D01*
X109065925Y-49932992D01*
X109082962Y-49869407D01*
X109715270Y-50501716D01*
G37*
%TD.AperFunction*%
%TA.AperFunction,Conductor*%
G36*
X108134075Y-42312992D02*
G01*
X108199901Y-42427006D01*
X108292993Y-42520098D01*
X108407007Y-42585924D01*
X108470590Y-42602961D01*
X107838282Y-43235268D01*
X107838282Y-43235269D01*
X107892449Y-43274623D01*
X108081782Y-43371094D01*
X108257973Y-43428342D01*
X108315648Y-43467779D01*
X108342847Y-43532138D01*
X108330932Y-43600984D01*
X108283688Y-43652460D01*
X108267108Y-43660834D01*
X108102403Y-43729056D01*
X107930342Y-43844023D01*
X107784024Y-43990341D01*
X107669058Y-44162402D01*
X107589870Y-44353578D01*
X107589868Y-44353586D01*
X107549500Y-44556529D01*
X107549500Y-44763468D01*
X107589868Y-44966411D01*
X107589870Y-44966419D01*
X107669058Y-45157595D01*
X107784024Y-45329656D01*
X107930342Y-45475974D01*
X107930345Y-45475976D01*
X108102402Y-45590940D01*
X108267109Y-45659164D01*
X108321512Y-45703005D01*
X108343577Y-45769299D01*
X108326298Y-45836998D01*
X108275161Y-45884609D01*
X108257974Y-45891656D01*
X108081783Y-45948904D01*
X107892439Y-46045380D01*
X107838282Y-46084727D01*
X107838282Y-46084728D01*
X108470591Y-46717037D01*
X108407007Y-46734075D01*
X108292993Y-46799901D01*
X108199901Y-46892993D01*
X108134075Y-47007007D01*
X108117037Y-47070591D01*
X107484728Y-46438282D01*
X107484727Y-46438282D01*
X107445380Y-46492439D01*
X107348904Y-46681783D01*
X107291657Y-46857972D01*
X107252220Y-46915648D01*
X107187861Y-46942846D01*
X107119015Y-46930931D01*
X107067539Y-46883687D01*
X107059165Y-46867107D01*
X106990942Y-46702402D01*
X106875975Y-46530341D01*
X106729657Y-46384023D01*
X106643626Y-46326540D01*
X106557598Y-46269058D01*
X106415843Y-46210341D01*
X106366420Y-46189869D01*
X106366412Y-46189867D01*
X106163469Y-46149499D01*
X106163465Y-46149499D01*
X105956535Y-46149499D01*
X105956530Y-46149499D01*
X105753587Y-46189867D01*
X105753579Y-46189869D01*
X105562403Y-46269057D01*
X105390342Y-46384023D01*
X105244024Y-46530341D01*
X105129058Y-46702402D01*
X105049870Y-46893578D01*
X105049868Y-46893586D01*
X105009500Y-47096529D01*
X105009500Y-47303468D01*
X105049868Y-47506411D01*
X105049870Y-47506419D01*
X105129058Y-47697595D01*
X105244024Y-47869656D01*
X105390342Y-48015974D01*
X105390345Y-48015976D01*
X105562402Y-48130940D01*
X105753580Y-48210129D01*
X105952599Y-48249716D01*
X105956530Y-48250498D01*
X105956534Y-48250499D01*
X105956535Y-48250499D01*
X106163466Y-48250499D01*
X106163467Y-48250498D01*
X106366420Y-48210129D01*
X106475359Y-48165004D01*
X106503255Y-48153450D01*
X106557596Y-48130941D01*
X106557596Y-48130940D01*
X106557598Y-48130940D01*
X106729655Y-48015976D01*
X106875977Y-47869654D01*
X106990941Y-47697597D01*
X106991613Y-47695976D01*
X107051952Y-47550304D01*
X107059164Y-47532890D01*
X107103005Y-47478488D01*
X107169299Y-47456423D01*
X107236998Y-47473702D01*
X107284609Y-47524839D01*
X107291656Y-47542026D01*
X107348904Y-47718216D01*
X107445375Y-47907550D01*
X107484728Y-47961716D01*
X108117037Y-47329408D01*
X108134075Y-47392993D01*
X108199901Y-47507007D01*
X108292993Y-47600099D01*
X108407007Y-47665925D01*
X108470590Y-47682962D01*
X107869970Y-48283581D01*
X107948710Y-48400894D01*
X107949919Y-48404727D01*
X107952841Y-48407487D01*
X107960341Y-48437773D01*
X107969726Y-48467528D01*
X107968670Y-48471405D01*
X107969637Y-48475307D01*
X107959574Y-48504836D01*
X107951382Y-48534947D01*
X107948397Y-48537639D01*
X107947101Y-48541443D01*
X107902053Y-48580480D01*
X107892446Y-48585375D01*
X107892440Y-48585379D01*
X107838282Y-48624726D01*
X107838282Y-48624727D01*
X108470591Y-49257036D01*
X108407007Y-49274074D01*
X108292993Y-49339900D01*
X108199901Y-49432992D01*
X108134075Y-49547006D01*
X108117037Y-49610590D01*
X107484728Y-48978281D01*
X107484727Y-48978281D01*
X107445380Y-49032438D01*
X107348905Y-49221780D01*
X107291656Y-49397973D01*
X107252218Y-49455648D01*
X107187859Y-49482846D01*
X107119013Y-49470931D01*
X107067537Y-49423687D01*
X107059164Y-49407106D01*
X107053105Y-49392479D01*
X107023531Y-49321079D01*
X106990943Y-49242404D01*
X106875975Y-49070341D01*
X106729657Y-48924023D01*
X106643626Y-48866540D01*
X106557598Y-48809058D01*
X106460204Y-48768716D01*
X106366420Y-48729869D01*
X106366412Y-48729867D01*
X106163469Y-48689499D01*
X106163465Y-48689499D01*
X105956535Y-48689499D01*
X105956530Y-48689499D01*
X105763029Y-48727989D01*
X105693437Y-48721762D01*
X105651157Y-48694053D01*
X104486819Y-47529715D01*
X104453334Y-47468392D01*
X104450500Y-47442034D01*
X104450500Y-44556529D01*
X105009500Y-44556529D01*
X105009500Y-44763468D01*
X105049868Y-44966411D01*
X105049870Y-44966419D01*
X105129058Y-45157595D01*
X105244024Y-45329656D01*
X105390342Y-45475974D01*
X105390345Y-45475976D01*
X105562402Y-45590940D01*
X105753580Y-45670129D01*
X105918860Y-45703005D01*
X105956530Y-45710498D01*
X105956534Y-45710499D01*
X105956535Y-45710499D01*
X106163466Y-45710499D01*
X106163467Y-45710498D01*
X106366420Y-45670129D01*
X106557598Y-45590940D01*
X106729655Y-45475976D01*
X106875977Y-45329654D01*
X106990941Y-45157597D01*
X107070130Y-44966419D01*
X107110500Y-44763464D01*
X107110500Y-44556534D01*
X107070130Y-44353579D01*
X106990941Y-44162401D01*
X106875977Y-43990344D01*
X106875975Y-43990341D01*
X106729657Y-43844023D01*
X106616936Y-43768706D01*
X106557598Y-43729058D01*
X106557593Y-43729056D01*
X106366420Y-43649869D01*
X106366412Y-43649867D01*
X106163469Y-43609499D01*
X106163465Y-43609499D01*
X105956535Y-43609499D01*
X105956530Y-43609499D01*
X105753587Y-43649867D01*
X105753579Y-43649869D01*
X105562403Y-43729057D01*
X105390342Y-43844023D01*
X105244024Y-43990341D01*
X105129058Y-44162402D01*
X105049870Y-44353578D01*
X105049868Y-44353586D01*
X105009500Y-44556529D01*
X104450500Y-44556529D01*
X104450500Y-43649930D01*
X104470185Y-43582891D01*
X104476128Y-43574438D01*
X104480512Y-43568723D01*
X104480520Y-43568716D01*
X104559577Y-43431784D01*
X104600500Y-43279057D01*
X104600500Y-43120943D01*
X104559577Y-42968216D01*
X104559573Y-42968209D01*
X104480524Y-42831290D01*
X104480518Y-42831282D01*
X104431416Y-42782180D01*
X104397931Y-42720857D01*
X104402915Y-42651165D01*
X104444787Y-42595232D01*
X104510251Y-42570815D01*
X104519097Y-42570499D01*
X105031309Y-42570499D01*
X105098348Y-42590184D01*
X105134411Y-42625608D01*
X105244022Y-42789654D01*
X105390342Y-42935974D01*
X105390345Y-42935976D01*
X105562402Y-43050940D01*
X105753580Y-43130129D01*
X105945058Y-43168216D01*
X105956530Y-43170498D01*
X105956534Y-43170499D01*
X105956535Y-43170499D01*
X106163466Y-43170499D01*
X106163467Y-43170498D01*
X106366420Y-43130129D01*
X106557598Y-43050940D01*
X106729655Y-42935976D01*
X106875977Y-42789654D01*
X106990941Y-42617597D01*
X107059165Y-42452888D01*
X107103004Y-42398487D01*
X107169298Y-42376422D01*
X107236998Y-42393701D01*
X107284609Y-42444838D01*
X107291656Y-42462025D01*
X107348904Y-42638215D01*
X107445375Y-42827549D01*
X107484728Y-42881715D01*
X108117037Y-42249407D01*
X108134075Y-42312992D01*
G37*
%TD.AperFunction*%
%TA.AperFunction,Conductor*%
G36*
X109715270Y-47961717D02*
G01*
X109715270Y-47961716D01*
X109754622Y-47907554D01*
X109851095Y-47718217D01*
X109907569Y-47544408D01*
X109947006Y-47486733D01*
X110011365Y-47459534D01*
X110080211Y-47471448D01*
X110131687Y-47518692D01*
X110149500Y-47582726D01*
X110149500Y-49357272D01*
X110129815Y-49424311D01*
X110077011Y-49470066D01*
X110007853Y-49480010D01*
X109944297Y-49450985D01*
X109907569Y-49395590D01*
X109851095Y-49221781D01*
X109754624Y-49032448D01*
X109715270Y-48978281D01*
X109715269Y-48978281D01*
X109082962Y-49610589D01*
X109065925Y-49547006D01*
X109000099Y-49432992D01*
X108907007Y-49339900D01*
X108792993Y-49274074D01*
X108729409Y-49257036D01*
X109361716Y-48624727D01*
X109307547Y-48585372D01*
X109297952Y-48580483D01*
X109247156Y-48532508D01*
X109230362Y-48464687D01*
X109252900Y-48398552D01*
X109297958Y-48359512D01*
X109307553Y-48354623D01*
X109361716Y-48315270D01*
X109361717Y-48315270D01*
X108729408Y-47682962D01*
X108792993Y-47665925D01*
X108907007Y-47600099D01*
X109000099Y-47507007D01*
X109065925Y-47392993D01*
X109082962Y-47329408D01*
X109715270Y-47961717D01*
G37*
%TD.AperFunction*%
%TA.AperFunction,Conductor*%
G36*
X124917539Y-25045185D02*
G01*
X124963294Y-25097989D01*
X124974500Y-25149500D01*
X124974500Y-124850500D01*
X124954815Y-124917539D01*
X124902011Y-124963294D01*
X124850500Y-124974500D01*
X25149500Y-124974500D01*
X25082461Y-124954815D01*
X25036706Y-124902011D01*
X25025500Y-124850500D01*
X25025500Y-121135258D01*
X26999500Y-121135258D01*
X26999500Y-121364741D01*
X27021528Y-121532052D01*
X27029452Y-121592238D01*
X27059221Y-121703338D01*
X27088842Y-121813887D01*
X27176650Y-122025876D01*
X27176657Y-122025890D01*
X27291392Y-122224617D01*
X27431081Y-122406661D01*
X27431089Y-122406670D01*
X27593330Y-122568911D01*
X27593338Y-122568918D01*
X27775382Y-122708607D01*
X27775385Y-122708608D01*
X27775388Y-122708611D01*
X27974112Y-122823344D01*
X27974117Y-122823346D01*
X27974123Y-122823349D01*
X28065480Y-122861190D01*
X28186113Y-122911158D01*
X28407762Y-122970548D01*
X28635266Y-123000500D01*
X28635273Y-123000500D01*
X28864727Y-123000500D01*
X28864734Y-123000500D01*
X29092238Y-122970548D01*
X29313887Y-122911158D01*
X29525888Y-122823344D01*
X29724612Y-122708611D01*
X29906661Y-122568919D01*
X29906665Y-122568914D01*
X29906670Y-122568911D01*
X30068911Y-122406670D01*
X30068914Y-122406665D01*
X30068919Y-122406661D01*
X30208611Y-122224612D01*
X30323344Y-122025888D01*
X30411158Y-121813887D01*
X30470548Y-121592238D01*
X30500500Y-121364734D01*
X30500500Y-121135266D01*
X30470548Y-120907762D01*
X30411158Y-120686113D01*
X30345537Y-120527690D01*
X30323349Y-120474123D01*
X30323346Y-120474117D01*
X30323344Y-120474112D01*
X30208611Y-120275388D01*
X30208608Y-120275385D01*
X30208607Y-120275382D01*
X30068918Y-120093338D01*
X30068911Y-120093330D01*
X29906670Y-119931089D01*
X29906661Y-119931081D01*
X29724617Y-119791392D01*
X29525890Y-119676657D01*
X29525876Y-119676650D01*
X29313887Y-119588842D01*
X29092238Y-119529452D01*
X29054215Y-119524446D01*
X28864741Y-119499500D01*
X28864734Y-119499500D01*
X28635266Y-119499500D01*
X28635258Y-119499500D01*
X28418715Y-119528009D01*
X28407762Y-119529452D01*
X28336177Y-119548633D01*
X28186112Y-119588842D01*
X27974123Y-119676650D01*
X27974109Y-119676657D01*
X27775382Y-119791392D01*
X27593338Y-119931081D01*
X27431081Y-120093338D01*
X27291392Y-120275382D01*
X27176657Y-120474109D01*
X27176650Y-120474123D01*
X27088842Y-120686112D01*
X27079143Y-120722310D01*
X27038944Y-120872339D01*
X27029453Y-120907759D01*
X27029451Y-120907770D01*
X26999500Y-121135258D01*
X25025500Y-121135258D01*
X25025500Y-108562996D01*
X27585998Y-108562996D01*
X27612917Y-108698322D01*
X27612920Y-108698332D01*
X27665721Y-108825807D01*
X27742386Y-108940545D01*
X27742387Y-108940546D01*
X28750680Y-109948838D01*
X28784165Y-110010161D01*
X28786999Y-110036519D01*
X28786999Y-110789752D01*
X28798630Y-110848229D01*
X28798631Y-110848230D01*
X28842946Y-110914552D01*
X28909268Y-110958867D01*
X28909269Y-110958868D01*
X28967746Y-110970499D01*
X28967749Y-110970500D01*
X28967751Y-110970500D01*
X29720980Y-110970500D01*
X29788019Y-110990185D01*
X29808661Y-111006819D01*
X42545952Y-123744111D01*
X42545953Y-123744112D01*
X42660691Y-123820777D01*
X42788166Y-123873578D01*
X42788171Y-123873580D01*
X42788175Y-123873580D01*
X42788176Y-123873581D01*
X42923502Y-123900500D01*
X42923505Y-123900500D01*
X51911497Y-123900500D01*
X52002541Y-123882389D01*
X52046829Y-123873580D01*
X52110570Y-123847177D01*
X52174308Y-123820777D01*
X52174309Y-123820776D01*
X52174312Y-123820775D01*
X52289044Y-123744114D01*
X54429820Y-121603337D01*
X54491141Y-121569854D01*
X54560833Y-121574838D01*
X54605180Y-121603339D01*
X55659453Y-122657612D01*
X55774191Y-122734277D01*
X55901666Y-122787078D01*
X55901671Y-122787080D01*
X55901675Y-122787080D01*
X55901676Y-122787081D01*
X56037002Y-122814000D01*
X56037005Y-122814000D01*
X63497995Y-122814000D01*
X63589039Y-122795889D01*
X63633327Y-122787080D01*
X63697068Y-122760677D01*
X63760806Y-122734277D01*
X63760807Y-122734276D01*
X63760810Y-122734275D01*
X63875542Y-122657614D01*
X64829819Y-121703336D01*
X64891140Y-121669853D01*
X64960831Y-121674837D01*
X65005179Y-121703338D01*
X65934453Y-122632612D01*
X66049191Y-122709277D01*
X66176666Y-122762078D01*
X66176671Y-122762080D01*
X66176675Y-122762080D01*
X66176676Y-122762081D01*
X66312002Y-122789000D01*
X66312005Y-122789000D01*
X73580496Y-122789000D01*
X73671540Y-122770889D01*
X73715828Y-122762080D01*
X73782955Y-122734275D01*
X73843307Y-122709277D01*
X73843308Y-122709276D01*
X73843311Y-122709275D01*
X73958043Y-122632614D01*
X74912319Y-121678336D01*
X74973642Y-121644852D01*
X75043333Y-121649836D01*
X75087681Y-121678337D01*
X76255886Y-122846542D01*
X76320501Y-122911157D01*
X76353459Y-122944115D01*
X76468182Y-123020771D01*
X76468186Y-123020773D01*
X76468189Y-123020775D01*
X76542866Y-123051707D01*
X76595671Y-123073580D01*
X76622591Y-123078934D01*
X76719630Y-123098237D01*
X76731006Y-123100500D01*
X76731007Y-123100500D01*
X83568996Y-123100500D01*
X83677412Y-123078934D01*
X83704328Y-123073580D01*
X83768069Y-123047177D01*
X83831807Y-123020777D01*
X83831808Y-123020776D01*
X83831811Y-123020775D01*
X83946543Y-122944114D01*
X84912318Y-121978336D01*
X84973641Y-121944852D01*
X85043332Y-121949836D01*
X85087680Y-121978337D01*
X85572525Y-122463181D01*
X85955886Y-122846542D01*
X86020501Y-122911157D01*
X86053459Y-122944115D01*
X86168182Y-123020771D01*
X86168186Y-123020773D01*
X86168189Y-123020775D01*
X86242866Y-123051707D01*
X86295671Y-123073580D01*
X86322591Y-123078934D01*
X86419630Y-123098237D01*
X86431006Y-123100500D01*
X86431007Y-123100500D01*
X92868994Y-123100500D01*
X92977410Y-123078934D01*
X93004326Y-123073580D01*
X93068067Y-123047177D01*
X93131805Y-123020777D01*
X93131806Y-123020776D01*
X93131809Y-123020775D01*
X93246541Y-122944114D01*
X94312319Y-121878335D01*
X94373640Y-121844852D01*
X94443331Y-121849836D01*
X94487679Y-121878337D01*
X95241954Y-122632612D01*
X95356692Y-122709277D01*
X95484167Y-122762078D01*
X95484172Y-122762080D01*
X95484176Y-122762080D01*
X95484177Y-122762081D01*
X95619503Y-122789000D01*
X95619506Y-122789000D01*
X102880496Y-122789000D01*
X102971540Y-122770889D01*
X103015828Y-122762080D01*
X103082955Y-122734275D01*
X103143307Y-122709277D01*
X103143308Y-122709276D01*
X103143311Y-122709275D01*
X103258043Y-122632614D01*
X104266338Y-121624319D01*
X104327661Y-121590834D01*
X104354019Y-121588000D01*
X105107250Y-121588000D01*
X105107251Y-121587999D01*
X105122068Y-121585052D01*
X105165729Y-121576368D01*
X105165729Y-121576367D01*
X105165731Y-121576367D01*
X105232052Y-121532052D01*
X105276367Y-121465731D01*
X105276367Y-121465729D01*
X105276368Y-121465729D01*
X105289189Y-121401274D01*
X105291763Y-121401786D01*
X105313655Y-121347563D01*
X105370688Y-121307202D01*
X105410901Y-121300500D01*
X109268996Y-121300500D01*
X109360040Y-121282389D01*
X109404328Y-121273580D01*
X109509989Y-121229814D01*
X109531807Y-121220777D01*
X109531808Y-121220776D01*
X109531811Y-121220775D01*
X109646543Y-121144114D01*
X109655399Y-121135258D01*
X119499500Y-121135258D01*
X119499500Y-121364741D01*
X119521528Y-121532052D01*
X119529452Y-121592238D01*
X119559221Y-121703338D01*
X119588842Y-121813887D01*
X119676650Y-122025876D01*
X119676657Y-122025890D01*
X119791392Y-122224617D01*
X119931081Y-122406661D01*
X119931089Y-122406670D01*
X120093330Y-122568911D01*
X120093338Y-122568918D01*
X120275382Y-122708607D01*
X120275385Y-122708608D01*
X120275388Y-122708611D01*
X120474112Y-122823344D01*
X120474117Y-122823346D01*
X120474123Y-122823349D01*
X120565480Y-122861190D01*
X120686113Y-122911158D01*
X120907762Y-122970548D01*
X121135266Y-123000500D01*
X121135273Y-123000500D01*
X121364727Y-123000500D01*
X121364734Y-123000500D01*
X121592238Y-122970548D01*
X121813887Y-122911158D01*
X122025888Y-122823344D01*
X122224612Y-122708611D01*
X122406661Y-122568919D01*
X122406665Y-122568914D01*
X122406670Y-122568911D01*
X122568911Y-122406670D01*
X122568914Y-122406665D01*
X122568919Y-122406661D01*
X122708611Y-122224612D01*
X122823344Y-122025888D01*
X122911158Y-121813887D01*
X122970548Y-121592238D01*
X123000500Y-121364734D01*
X123000500Y-121135266D01*
X122970548Y-120907762D01*
X122911158Y-120686113D01*
X122845537Y-120527690D01*
X122823349Y-120474123D01*
X122823346Y-120474117D01*
X122823344Y-120474112D01*
X122708611Y-120275388D01*
X122708608Y-120275385D01*
X122708607Y-120275382D01*
X122568918Y-120093338D01*
X122568911Y-120093330D01*
X122406670Y-119931089D01*
X122406661Y-119931081D01*
X122224617Y-119791392D01*
X122025890Y-119676657D01*
X122025876Y-119676650D01*
X121813887Y-119588842D01*
X121592238Y-119529452D01*
X121554215Y-119524446D01*
X121364741Y-119499500D01*
X121364734Y-119499500D01*
X121135266Y-119499500D01*
X121135258Y-119499500D01*
X120918715Y-119528009D01*
X120907762Y-119529452D01*
X120836177Y-119548633D01*
X120686112Y-119588842D01*
X120474123Y-119676650D01*
X120474109Y-119676657D01*
X120275382Y-119791392D01*
X120093338Y-119931081D01*
X119931081Y-120093338D01*
X119791392Y-120275382D01*
X119676657Y-120474109D01*
X119676650Y-120474123D01*
X119588842Y-120686112D01*
X119579143Y-120722310D01*
X119538944Y-120872339D01*
X119529453Y-120907759D01*
X119529451Y-120907770D01*
X119499500Y-121135258D01*
X109655399Y-121135258D01*
X109666444Y-121124213D01*
X109747132Y-121043526D01*
X115644114Y-115146543D01*
X124344112Y-106446545D01*
X124344114Y-106446543D01*
X124420775Y-106331811D01*
X124473580Y-106204328D01*
X124500500Y-106068994D01*
X124500500Y-105931006D01*
X124500500Y-98031007D01*
X124500500Y-98031004D01*
X124473581Y-97895677D01*
X124473580Y-97895676D01*
X124473580Y-97895672D01*
X124470481Y-97888190D01*
X124420778Y-97768195D01*
X124420776Y-97768191D01*
X124420775Y-97768189D01*
X124374851Y-97699459D01*
X124374851Y-97699458D01*
X124344115Y-97653458D01*
X124344109Y-97653451D01*
X121878338Y-95187681D01*
X121844853Y-95126358D01*
X121849837Y-95056666D01*
X121878338Y-95012319D01*
X122757613Y-94133044D01*
X122757615Y-94133042D01*
X122812767Y-94050500D01*
X122834276Y-94018310D01*
X122887081Y-93890827D01*
X122914001Y-93755492D01*
X122914001Y-86602007D01*
X122905742Y-86560489D01*
X122887081Y-86466672D01*
X122834276Y-86339189D01*
X122757615Y-86224457D01*
X122757613Y-86224454D01*
X122757612Y-86224453D01*
X121803339Y-85270181D01*
X121769854Y-85208858D01*
X121774838Y-85139167D01*
X121803339Y-85094819D01*
X122271112Y-84627046D01*
X122271114Y-84627044D01*
X122347775Y-84512312D01*
X122400580Y-84384829D01*
X122417213Y-84301210D01*
X122427500Y-84249496D01*
X122427500Y-75436005D01*
X122416347Y-75379941D01*
X122412478Y-75360489D01*
X122412478Y-75360486D01*
X122400581Y-75300678D01*
X122400580Y-75300672D01*
X122347775Y-75173189D01*
X122271114Y-75058457D01*
X122271112Y-75058454D01*
X121262819Y-74050161D01*
X121229334Y-73988838D01*
X121226500Y-73962480D01*
X121226500Y-73517519D01*
X121246185Y-73450480D01*
X121262819Y-73429838D01*
X122744112Y-71948545D01*
X122744114Y-71948543D01*
X122820775Y-71833811D01*
X122873580Y-71706328D01*
X122900500Y-71570994D01*
X122900500Y-71433006D01*
X122900500Y-66048505D01*
X122900495Y-66048480D01*
X122899984Y-66045910D01*
X122899984Y-66045909D01*
X122899981Y-66045901D01*
X122873580Y-65913170D01*
X122865991Y-65894849D01*
X122820777Y-65785690D01*
X122744112Y-65670952D01*
X121259596Y-64186436D01*
X121226111Y-64125113D01*
X121223277Y-64098755D01*
X121223277Y-62792524D01*
X121223276Y-62792522D01*
X121211645Y-62734045D01*
X121211644Y-62734044D01*
X121167329Y-62667722D01*
X121101007Y-62623407D01*
X121101006Y-62623406D01*
X121042529Y-62611775D01*
X121042525Y-62611775D01*
X118875029Y-62611775D01*
X118875024Y-62611775D01*
X118816547Y-62623406D01*
X118816546Y-62623407D01*
X118750224Y-62667722D01*
X118705909Y-62734044D01*
X118705908Y-62734045D01*
X118694277Y-62792522D01*
X118694277Y-64960027D01*
X118705908Y-65018504D01*
X118705909Y-65018505D01*
X118750224Y-65084827D01*
X118816546Y-65129142D01*
X118816547Y-65129143D01*
X118875024Y-65140774D01*
X118875027Y-65140775D01*
X118875029Y-65140775D01*
X120181258Y-65140775D01*
X120248297Y-65160460D01*
X120268939Y-65177094D01*
X121463181Y-66371336D01*
X121496666Y-66432659D01*
X121499500Y-66459017D01*
X121499500Y-71160481D01*
X121479815Y-71227520D01*
X121463181Y-71248162D01*
X120272162Y-72439181D01*
X120210839Y-72472666D01*
X120184481Y-72475500D01*
X118878247Y-72475500D01*
X118819770Y-72487131D01*
X118819769Y-72487132D01*
X118753447Y-72531447D01*
X118709132Y-72597769D01*
X118709131Y-72597770D01*
X118697500Y-72656247D01*
X118697500Y-74823752D01*
X118709131Y-74882229D01*
X118709132Y-74882230D01*
X118753447Y-74948552D01*
X118819769Y-74992867D01*
X118819770Y-74992868D01*
X118878247Y-75004499D01*
X118878250Y-75004500D01*
X118878252Y-75004500D01*
X120184481Y-75004500D01*
X120251520Y-75024185D01*
X120272162Y-75040819D01*
X120990181Y-75758838D01*
X121023666Y-75820161D01*
X121026500Y-75846519D01*
X121026500Y-76676865D01*
X121006815Y-76743904D01*
X120954011Y-76789659D01*
X120884853Y-76799603D01*
X120821297Y-76770578D01*
X120814819Y-76764546D01*
X120785760Y-76735487D01*
X120624745Y-76618505D01*
X120624744Y-76618504D01*
X120624742Y-76618503D01*
X120562135Y-76586603D01*
X120447403Y-76528143D01*
X120258104Y-76466635D01*
X120061523Y-76435500D01*
X120061518Y-76435500D01*
X119862482Y-76435500D01*
X119862477Y-76435500D01*
X119665895Y-76466635D01*
X119476596Y-76528143D01*
X119299254Y-76618505D01*
X119138239Y-76735487D01*
X118997487Y-76876239D01*
X118880505Y-77037254D01*
X118790143Y-77214596D01*
X118728635Y-77403895D01*
X118697500Y-77600476D01*
X118697500Y-77799523D01*
X118728635Y-77996104D01*
X118790143Y-78185403D01*
X118880505Y-78362745D01*
X118997487Y-78523760D01*
X119138239Y-78664512D01*
X119288912Y-78773980D01*
X119299258Y-78781497D01*
X119412258Y-78839074D01*
X119476596Y-78871856D01*
X119476598Y-78871856D01*
X119476601Y-78871858D01*
X119578066Y-78904826D01*
X119665895Y-78933364D01*
X119862477Y-78964500D01*
X119862482Y-78964500D01*
X120061523Y-78964500D01*
X120258104Y-78933364D01*
X120447399Y-78871858D01*
X120624742Y-78781497D01*
X120715148Y-78715813D01*
X120785760Y-78664512D01*
X120785762Y-78664509D01*
X120785766Y-78664507D01*
X120814819Y-78635454D01*
X120876142Y-78601969D01*
X120945834Y-78606953D01*
X121001767Y-78648825D01*
X121026184Y-78714289D01*
X121026500Y-78723135D01*
X121026500Y-83838982D01*
X121006815Y-83906021D01*
X120990181Y-83926663D01*
X120758663Y-84158181D01*
X120697340Y-84191666D01*
X120670982Y-84194500D01*
X119917748Y-84194500D01*
X119859271Y-84206131D01*
X119859270Y-84206132D01*
X119792948Y-84250447D01*
X119748633Y-84316769D01*
X119748632Y-84316770D01*
X119737001Y-84375247D01*
X119737001Y-85989752D01*
X119748632Y-86048229D01*
X119748633Y-86048230D01*
X119792948Y-86114552D01*
X119859270Y-86158867D01*
X119859271Y-86158868D01*
X119917748Y-86170499D01*
X119917751Y-86170500D01*
X119917753Y-86170500D01*
X120670982Y-86170500D01*
X120738021Y-86190185D01*
X120758663Y-86206819D01*
X121062586Y-86510742D01*
X121096071Y-86572065D01*
X121091087Y-86641757D01*
X121049215Y-86697690D01*
X120983751Y-86722107D01*
X120950714Y-86720040D01*
X120822315Y-86694500D01*
X120822311Y-86694500D01*
X120627691Y-86694500D01*
X120627686Y-86694500D01*
X120436819Y-86732465D01*
X120436810Y-86732468D01*
X120257013Y-86806941D01*
X120257000Y-86806948D01*
X120095187Y-86915069D01*
X120095183Y-86915072D01*
X119957573Y-87052682D01*
X119957570Y-87052686D01*
X119849449Y-87214499D01*
X119849442Y-87214512D01*
X119774969Y-87394309D01*
X119774966Y-87394318D01*
X119737001Y-87585185D01*
X119737001Y-87779814D01*
X119774966Y-87970681D01*
X119774969Y-87970690D01*
X119849442Y-88150487D01*
X119849449Y-88150500D01*
X119957570Y-88312313D01*
X119957573Y-88312317D01*
X120095183Y-88449927D01*
X120095187Y-88449930D01*
X120257000Y-88558051D01*
X120257013Y-88558058D01*
X120391860Y-88613912D01*
X120436812Y-88632532D01*
X120436814Y-88632532D01*
X120436819Y-88632534D01*
X120627686Y-88670499D01*
X120627690Y-88670500D01*
X120627691Y-88670500D01*
X120822312Y-88670500D01*
X120822313Y-88670499D01*
X120885937Y-88657844D01*
X121013182Y-88632534D01*
X121013185Y-88632532D01*
X121013190Y-88632532D01*
X121192995Y-88558055D01*
X121320110Y-88473118D01*
X121386787Y-88452241D01*
X121454167Y-88470725D01*
X121500858Y-88522704D01*
X121513001Y-88576221D01*
X121513001Y-93344980D01*
X121493316Y-93412019D01*
X121476682Y-93432661D01*
X120833662Y-94075681D01*
X120772339Y-94109166D01*
X120745981Y-94112000D01*
X119992747Y-94112000D01*
X119934270Y-94123631D01*
X119934269Y-94123632D01*
X119867947Y-94167947D01*
X119823632Y-94234269D01*
X119823631Y-94234270D01*
X119812000Y-94292747D01*
X119812000Y-95907252D01*
X119823631Y-95965729D01*
X119823632Y-95965730D01*
X119867947Y-96032052D01*
X119934269Y-96076367D01*
X119934270Y-96076368D01*
X119992747Y-96087999D01*
X119992750Y-96088000D01*
X119992752Y-96088000D01*
X120745981Y-96088000D01*
X120813020Y-96107685D01*
X120833662Y-96124319D01*
X121137585Y-96428242D01*
X121171070Y-96489565D01*
X121166086Y-96559257D01*
X121124214Y-96615190D01*
X121058750Y-96639607D01*
X121025713Y-96637540D01*
X120897314Y-96612000D01*
X120897310Y-96612000D01*
X120702690Y-96612000D01*
X120702685Y-96612000D01*
X120511818Y-96649965D01*
X120511809Y-96649968D01*
X120332012Y-96724441D01*
X120331999Y-96724448D01*
X120170186Y-96832569D01*
X120170182Y-96832572D01*
X120032572Y-96970182D01*
X120032569Y-96970186D01*
X119924448Y-97131999D01*
X119924441Y-97132012D01*
X119849968Y-97311809D01*
X119849965Y-97311818D01*
X119812000Y-97502685D01*
X119812000Y-97697314D01*
X119849965Y-97888181D01*
X119849968Y-97888190D01*
X119924441Y-98067987D01*
X119924448Y-98068000D01*
X120032569Y-98229813D01*
X120032572Y-98229817D01*
X120170182Y-98367427D01*
X120170186Y-98367430D01*
X120331999Y-98475551D01*
X120332012Y-98475558D01*
X120466859Y-98531412D01*
X120511811Y-98550032D01*
X120511813Y-98550032D01*
X120511818Y-98550034D01*
X120702685Y-98587999D01*
X120702689Y-98588000D01*
X120702690Y-98588000D01*
X120897311Y-98588000D01*
X120897312Y-98587999D01*
X120960936Y-98575344D01*
X121088181Y-98550034D01*
X121088184Y-98550032D01*
X121088189Y-98550032D01*
X121267994Y-98475555D01*
X121429814Y-98367430D01*
X121567430Y-98229814D01*
X121675555Y-98067994D01*
X121750032Y-97888189D01*
X121751558Y-97880520D01*
X121783392Y-97720477D01*
X121788000Y-97697310D01*
X121788000Y-97502690D01*
X121762459Y-97374286D01*
X121768686Y-97304695D01*
X121811549Y-97249518D01*
X121877439Y-97226273D01*
X121945436Y-97242341D01*
X121971757Y-97262414D01*
X123063181Y-98353838D01*
X123096666Y-98415161D01*
X123099500Y-98441519D01*
X123099500Y-105658481D01*
X123079815Y-105725520D01*
X123063181Y-105746162D01*
X108946162Y-119863181D01*
X108884839Y-119896666D01*
X108858481Y-119899500D01*
X105410901Y-119899500D01*
X105343862Y-119879815D01*
X105298107Y-119827011D01*
X105290417Y-119798481D01*
X105289189Y-119798726D01*
X105276368Y-119734270D01*
X105276367Y-119734269D01*
X105232052Y-119667947D01*
X105165730Y-119623632D01*
X105165729Y-119623631D01*
X105107252Y-119612000D01*
X105107248Y-119612000D01*
X103492752Y-119612000D01*
X103492747Y-119612000D01*
X103434270Y-119623631D01*
X103434269Y-119623632D01*
X103367947Y-119667947D01*
X103323632Y-119734269D01*
X103323631Y-119734270D01*
X103312000Y-119792747D01*
X103312000Y-120545981D01*
X103292315Y-120613020D01*
X103275681Y-120633662D01*
X102971757Y-120937585D01*
X102910434Y-120971070D01*
X102840742Y-120966086D01*
X102784809Y-120924214D01*
X102760392Y-120858750D01*
X102762459Y-120825712D01*
X102764950Y-120813190D01*
X102788000Y-120697310D01*
X102788000Y-120502690D01*
X102781693Y-120470982D01*
X102750034Y-120311818D01*
X102750031Y-120311809D01*
X102675558Y-120132012D01*
X102675551Y-120131999D01*
X102567430Y-119970186D01*
X102567427Y-119970182D01*
X102429817Y-119832572D01*
X102429813Y-119832569D01*
X102268000Y-119724448D01*
X102267987Y-119724441D01*
X102088190Y-119649968D01*
X102088181Y-119649965D01*
X101897314Y-119612000D01*
X101897310Y-119612000D01*
X101702690Y-119612000D01*
X101702685Y-119612000D01*
X101511818Y-119649965D01*
X101511809Y-119649968D01*
X101332012Y-119724441D01*
X101331999Y-119724448D01*
X101170186Y-119832569D01*
X101170182Y-119832572D01*
X101032572Y-119970182D01*
X101032569Y-119970186D01*
X100924448Y-120131999D01*
X100924441Y-120132012D01*
X100849968Y-120311809D01*
X100849965Y-120311818D01*
X100812000Y-120502685D01*
X100812000Y-120697314D01*
X100849965Y-120888181D01*
X100849968Y-120888190D01*
X100924441Y-121067987D01*
X100924448Y-121068000D01*
X101009380Y-121195109D01*
X101030258Y-121261787D01*
X101011773Y-121329167D01*
X100959795Y-121375857D01*
X100906278Y-121388000D01*
X96030019Y-121388000D01*
X95962980Y-121368315D01*
X95942338Y-121351681D01*
X95424318Y-120833661D01*
X95390833Y-120772338D01*
X95387999Y-120745980D01*
X95387999Y-119992748D01*
X95387998Y-119992746D01*
X95376367Y-119934269D01*
X95376366Y-119934268D01*
X95332051Y-119867946D01*
X95265729Y-119823631D01*
X95265728Y-119823630D01*
X95207251Y-119811999D01*
X95207247Y-119811999D01*
X93592751Y-119811999D01*
X93592746Y-119811999D01*
X93534269Y-119823630D01*
X93534268Y-119823631D01*
X93467946Y-119867946D01*
X93423631Y-119934268D01*
X93423630Y-119934269D01*
X93411999Y-119992746D01*
X93411999Y-120745980D01*
X93392314Y-120813019D01*
X93375680Y-120833661D01*
X93071756Y-121137584D01*
X93010433Y-121171069D01*
X92940741Y-121166085D01*
X92884808Y-121124213D01*
X92860391Y-121058749D01*
X92862458Y-121025711D01*
X92887999Y-120897309D01*
X92887999Y-120702689D01*
X92874269Y-120633662D01*
X92850033Y-120511817D01*
X92850030Y-120511808D01*
X92775557Y-120332011D01*
X92775550Y-120331998D01*
X92667429Y-120170185D01*
X92667426Y-120170181D01*
X92529816Y-120032571D01*
X92529812Y-120032568D01*
X92367999Y-119924447D01*
X92367986Y-119924440D01*
X92188189Y-119849967D01*
X92188180Y-119849964D01*
X91997313Y-119811999D01*
X91997309Y-119811999D01*
X91802689Y-119811999D01*
X91802684Y-119811999D01*
X91611817Y-119849964D01*
X91611808Y-119849967D01*
X91432011Y-119924440D01*
X91431998Y-119924447D01*
X91270185Y-120032568D01*
X91270181Y-120032571D01*
X91132571Y-120170181D01*
X91132568Y-120170185D01*
X91024447Y-120331998D01*
X91024440Y-120332011D01*
X90949967Y-120511808D01*
X90949964Y-120511817D01*
X90911999Y-120702684D01*
X90911999Y-120897313D01*
X90949964Y-121088180D01*
X90949967Y-121088189D01*
X91024440Y-121267986D01*
X91024447Y-121267999D01*
X91132568Y-121429812D01*
X91132571Y-121429816D01*
X91190574Y-121487819D01*
X91224059Y-121549142D01*
X91219075Y-121618834D01*
X91177203Y-121674767D01*
X91111739Y-121699184D01*
X91102893Y-121699500D01*
X86841518Y-121699500D01*
X86774479Y-121679815D01*
X86753837Y-121663181D01*
X86024319Y-120933662D01*
X85990834Y-120872339D01*
X85988000Y-120845981D01*
X85988000Y-120092749D01*
X85987999Y-120092747D01*
X85976368Y-120034270D01*
X85976367Y-120034269D01*
X85932052Y-119967947D01*
X85865730Y-119923632D01*
X85865729Y-119923631D01*
X85807252Y-119912000D01*
X85807248Y-119912000D01*
X84192752Y-119912000D01*
X84192747Y-119912000D01*
X84134270Y-119923631D01*
X84134269Y-119923632D01*
X84067947Y-119967947D01*
X84023632Y-120034269D01*
X84023631Y-120034270D01*
X84012000Y-120092747D01*
X84012000Y-120845981D01*
X83992315Y-120913020D01*
X83975681Y-120933662D01*
X83671757Y-121237585D01*
X83610434Y-121271070D01*
X83540742Y-121266086D01*
X83484809Y-121224214D01*
X83460392Y-121158750D01*
X83462459Y-121125712D01*
X83488000Y-120997310D01*
X83488000Y-120802690D01*
X83476720Y-120745980D01*
X83450034Y-120611818D01*
X83450031Y-120611809D01*
X83444037Y-120597339D01*
X83422765Y-120545981D01*
X83375558Y-120432012D01*
X83375551Y-120431999D01*
X83267430Y-120270186D01*
X83267427Y-120270182D01*
X83129817Y-120132572D01*
X83129813Y-120132569D01*
X82968000Y-120024448D01*
X82967987Y-120024441D01*
X82788190Y-119949968D01*
X82788181Y-119949965D01*
X82597314Y-119912000D01*
X82597310Y-119912000D01*
X82402690Y-119912000D01*
X82402685Y-119912000D01*
X82211818Y-119949965D01*
X82211809Y-119949968D01*
X82032012Y-120024441D01*
X82031999Y-120024448D01*
X81870186Y-120132569D01*
X81870182Y-120132572D01*
X81732572Y-120270182D01*
X81732569Y-120270186D01*
X81624448Y-120431999D01*
X81624441Y-120432012D01*
X81549968Y-120611809D01*
X81549965Y-120611818D01*
X81512000Y-120802685D01*
X81512000Y-120997314D01*
X81549965Y-121188181D01*
X81549968Y-121188190D01*
X81624441Y-121367987D01*
X81624448Y-121368000D01*
X81717064Y-121506609D01*
X81737942Y-121573287D01*
X81719457Y-121640667D01*
X81667479Y-121687357D01*
X81613962Y-121699500D01*
X77141518Y-121699500D01*
X77074479Y-121679815D01*
X77053837Y-121663181D01*
X76024319Y-120633662D01*
X75990834Y-120572339D01*
X75988000Y-120545981D01*
X75988000Y-119792749D01*
X75987999Y-119792747D01*
X75976368Y-119734270D01*
X75976367Y-119734269D01*
X75932052Y-119667947D01*
X75865730Y-119623632D01*
X75865729Y-119623631D01*
X75807252Y-119612000D01*
X75807248Y-119612000D01*
X74192752Y-119612000D01*
X74192747Y-119612000D01*
X74134270Y-119623631D01*
X74134269Y-119623632D01*
X74067947Y-119667947D01*
X74023632Y-119734269D01*
X74023631Y-119734270D01*
X74012000Y-119792747D01*
X74012000Y-120545981D01*
X73992315Y-120613020D01*
X73975681Y-120633662D01*
X73671757Y-120937585D01*
X73610434Y-120971070D01*
X73540742Y-120966086D01*
X73484809Y-120924214D01*
X73460392Y-120858750D01*
X73462459Y-120825712D01*
X73464950Y-120813190D01*
X73488000Y-120697310D01*
X73488000Y-120502690D01*
X73481693Y-120470982D01*
X73450034Y-120311818D01*
X73450031Y-120311809D01*
X73375558Y-120132012D01*
X73375551Y-120131999D01*
X73267430Y-119970186D01*
X73267427Y-119970182D01*
X73129817Y-119832572D01*
X73129813Y-119832569D01*
X72968000Y-119724448D01*
X72967987Y-119724441D01*
X72788190Y-119649968D01*
X72788181Y-119649965D01*
X72597314Y-119612000D01*
X72597310Y-119612000D01*
X72402690Y-119612000D01*
X72402685Y-119612000D01*
X72211818Y-119649965D01*
X72211809Y-119649968D01*
X72032012Y-119724441D01*
X72031999Y-119724448D01*
X71870186Y-119832569D01*
X71870182Y-119832572D01*
X71732572Y-119970182D01*
X71732569Y-119970186D01*
X71624448Y-120131999D01*
X71624441Y-120132012D01*
X71549968Y-120311809D01*
X71549965Y-120311818D01*
X71512000Y-120502685D01*
X71512000Y-120697314D01*
X71549965Y-120888181D01*
X71549968Y-120888190D01*
X71624441Y-121067987D01*
X71624448Y-121068000D01*
X71709380Y-121195109D01*
X71730258Y-121261787D01*
X71711773Y-121329167D01*
X71659795Y-121375857D01*
X71606278Y-121388000D01*
X66722518Y-121388000D01*
X66655479Y-121368315D01*
X66634837Y-121351681D01*
X65941818Y-120658662D01*
X65908333Y-120597339D01*
X65905499Y-120570981D01*
X65905499Y-119817749D01*
X65905498Y-119817747D01*
X65893867Y-119759270D01*
X65893866Y-119759269D01*
X65849551Y-119692947D01*
X65783229Y-119648632D01*
X65783228Y-119648631D01*
X65724751Y-119637000D01*
X65724747Y-119637000D01*
X64110251Y-119637000D01*
X64110246Y-119637000D01*
X64051769Y-119648631D01*
X64051768Y-119648632D01*
X63985446Y-119692947D01*
X63941131Y-119759269D01*
X63941130Y-119759270D01*
X63929499Y-119817747D01*
X63929499Y-120570981D01*
X63909814Y-120638020D01*
X63893180Y-120658662D01*
X63589256Y-120962585D01*
X63527933Y-120996070D01*
X63458241Y-120991086D01*
X63402308Y-120949214D01*
X63377891Y-120883750D01*
X63379958Y-120850712D01*
X63384931Y-120825712D01*
X63405499Y-120722310D01*
X63405499Y-120527690D01*
X63386468Y-120432012D01*
X63367533Y-120336818D01*
X63367530Y-120336809D01*
X63293057Y-120157012D01*
X63293050Y-120156999D01*
X63184929Y-119995186D01*
X63184926Y-119995182D01*
X63047316Y-119857572D01*
X63047312Y-119857569D01*
X62885499Y-119749448D01*
X62885486Y-119749441D01*
X62705689Y-119674968D01*
X62705680Y-119674965D01*
X62514813Y-119637000D01*
X62514809Y-119637000D01*
X62320189Y-119637000D01*
X62320184Y-119637000D01*
X62129317Y-119674965D01*
X62129308Y-119674968D01*
X61949511Y-119749441D01*
X61949498Y-119749448D01*
X61787685Y-119857569D01*
X61787681Y-119857572D01*
X61650071Y-119995182D01*
X61650068Y-119995186D01*
X61541947Y-120156999D01*
X61541940Y-120157012D01*
X61467467Y-120336809D01*
X61467464Y-120336818D01*
X61429499Y-120527685D01*
X61429499Y-120722314D01*
X61467464Y-120913181D01*
X61467467Y-120913190D01*
X61541940Y-121092987D01*
X61541947Y-121093000D01*
X61626879Y-121220109D01*
X61647757Y-121286787D01*
X61629272Y-121354167D01*
X61577294Y-121400857D01*
X61523777Y-121413000D01*
X56447518Y-121413000D01*
X56380479Y-121393315D01*
X56359837Y-121376681D01*
X55541819Y-120558663D01*
X55508334Y-120497340D01*
X55505500Y-120470982D01*
X55505500Y-119717750D01*
X55505499Y-119717748D01*
X55493868Y-119659271D01*
X55493867Y-119659270D01*
X55449552Y-119592948D01*
X55383230Y-119548633D01*
X55383229Y-119548632D01*
X55324752Y-119537001D01*
X55324748Y-119537001D01*
X53710252Y-119537001D01*
X53710247Y-119537001D01*
X53651770Y-119548632D01*
X53651769Y-119548633D01*
X53585447Y-119592948D01*
X53541132Y-119659270D01*
X53541131Y-119659271D01*
X53529500Y-119717748D01*
X53529500Y-120470982D01*
X53509815Y-120538021D01*
X53493181Y-120558663D01*
X53189257Y-120862586D01*
X53127934Y-120896071D01*
X53058242Y-120891087D01*
X53002309Y-120849215D01*
X52977892Y-120783751D01*
X52979959Y-120750713D01*
X53005500Y-120622311D01*
X53005500Y-120427691D01*
X53005161Y-120425991D01*
X52967534Y-120236819D01*
X52967531Y-120236810D01*
X52893058Y-120057013D01*
X52893051Y-120057000D01*
X52784930Y-119895187D01*
X52784927Y-119895183D01*
X52647317Y-119757573D01*
X52647313Y-119757570D01*
X52485500Y-119649449D01*
X52485487Y-119649442D01*
X52305690Y-119574969D01*
X52305681Y-119574966D01*
X52114814Y-119537001D01*
X52114810Y-119537001D01*
X51920190Y-119537001D01*
X51920185Y-119537001D01*
X51729318Y-119574966D01*
X51729309Y-119574969D01*
X51549512Y-119649442D01*
X51549499Y-119649449D01*
X51387686Y-119757570D01*
X51387682Y-119757573D01*
X51250072Y-119895183D01*
X51250069Y-119895187D01*
X51141948Y-120057000D01*
X51141941Y-120057013D01*
X51067468Y-120236810D01*
X51067465Y-120236819D01*
X51029500Y-120427686D01*
X51029500Y-120622315D01*
X51067465Y-120813182D01*
X51067468Y-120813191D01*
X51141941Y-120992988D01*
X51141948Y-120993001D01*
X51250069Y-121154814D01*
X51250072Y-121154818D01*
X51387682Y-121292428D01*
X51387686Y-121292431D01*
X51549499Y-121400552D01*
X51549512Y-121400559D01*
X51684359Y-121456413D01*
X51729311Y-121475033D01*
X51729313Y-121475033D01*
X51729318Y-121475035D01*
X51920185Y-121513000D01*
X51920189Y-121513001D01*
X51920190Y-121513001D01*
X52114811Y-121513001D01*
X52114811Y-121513000D01*
X52243213Y-121487460D01*
X52312804Y-121493687D01*
X52367981Y-121536550D01*
X52391226Y-121602439D01*
X52375158Y-121670437D01*
X52355085Y-121696758D01*
X51588663Y-122463181D01*
X51527340Y-122496666D01*
X51500982Y-122499500D01*
X43334018Y-122499500D01*
X43266979Y-122479815D01*
X43246337Y-122463181D01*
X30799318Y-110016162D01*
X30765833Y-109954839D01*
X30762999Y-109928481D01*
X30762999Y-109175249D01*
X30762998Y-109175247D01*
X30751367Y-109116770D01*
X30751366Y-109116769D01*
X30707051Y-109050447D01*
X30640729Y-109006132D01*
X30640728Y-109006131D01*
X30582251Y-108994500D01*
X30582247Y-108994500D01*
X29829018Y-108994500D01*
X29761979Y-108974815D01*
X29741337Y-108958181D01*
X29437413Y-108654257D01*
X29403928Y-108592934D01*
X29408912Y-108523242D01*
X29450784Y-108467309D01*
X29516248Y-108442892D01*
X29549284Y-108444958D01*
X29677687Y-108470499D01*
X29677688Y-108470500D01*
X29677689Y-108470500D01*
X29872310Y-108470500D01*
X29872311Y-108470499D01*
X29935935Y-108457844D01*
X30063180Y-108432534D01*
X30063183Y-108432532D01*
X30063188Y-108432532D01*
X30242993Y-108358055D01*
X30404813Y-108249930D01*
X30542429Y-108112314D01*
X30650554Y-107950494D01*
X30725031Y-107770689D01*
X30762999Y-107579810D01*
X30762999Y-107385190D01*
X30762660Y-107383490D01*
X30725033Y-107194318D01*
X30725030Y-107194309D01*
X30650557Y-107014512D01*
X30650550Y-107014499D01*
X30542429Y-106852686D01*
X30542426Y-106852682D01*
X30404816Y-106715072D01*
X30404812Y-106715069D01*
X30242999Y-106606948D01*
X30242986Y-106606941D01*
X30063189Y-106532468D01*
X30063180Y-106532465D01*
X29872313Y-106494500D01*
X29872309Y-106494500D01*
X29677689Y-106494500D01*
X29677684Y-106494500D01*
X29486817Y-106532465D01*
X29486808Y-106532468D01*
X29307011Y-106606941D01*
X29306998Y-106606948D01*
X29179890Y-106691880D01*
X29113212Y-106712758D01*
X29045832Y-106694273D01*
X28999142Y-106642295D01*
X28986999Y-106588778D01*
X28986999Y-98487520D01*
X29006684Y-98420481D01*
X29023318Y-98399839D01*
X29866338Y-97556819D01*
X29927661Y-97523334D01*
X29954019Y-97520500D01*
X30707250Y-97520500D01*
X30707251Y-97520499D01*
X30722068Y-97517552D01*
X30765729Y-97508868D01*
X30765729Y-97508867D01*
X30765731Y-97508867D01*
X30832052Y-97464552D01*
X30876367Y-97398231D01*
X30876367Y-97398229D01*
X30876368Y-97398229D01*
X30887999Y-97339752D01*
X30888000Y-97339750D01*
X30888000Y-95725249D01*
X30887999Y-95725247D01*
X30876368Y-95666770D01*
X30876367Y-95666769D01*
X30832052Y-95600447D01*
X30765730Y-95556132D01*
X30765729Y-95556131D01*
X30707252Y-95544500D01*
X30707248Y-95544500D01*
X29954019Y-95544500D01*
X29886980Y-95524815D01*
X29866338Y-95508181D01*
X29562414Y-95204257D01*
X29528929Y-95142934D01*
X29533913Y-95073242D01*
X29575785Y-95017309D01*
X29641249Y-94992892D01*
X29674285Y-94994958D01*
X29802688Y-95020499D01*
X29802689Y-95020500D01*
X29802690Y-95020500D01*
X29997311Y-95020500D01*
X29997312Y-95020499D01*
X30060936Y-95007844D01*
X30188181Y-94982534D01*
X30188184Y-94982532D01*
X30188189Y-94982532D01*
X30367994Y-94908055D01*
X30529814Y-94799930D01*
X30667430Y-94662314D01*
X30775555Y-94500494D01*
X30850032Y-94320689D01*
X30888000Y-94129810D01*
X30888000Y-93935190D01*
X30886931Y-93929815D01*
X30850034Y-93744318D01*
X30850031Y-93744309D01*
X30849855Y-93743885D01*
X30802397Y-93629308D01*
X30775558Y-93564512D01*
X30775551Y-93564499D01*
X30667430Y-93402686D01*
X30667427Y-93402682D01*
X30529817Y-93265072D01*
X30529813Y-93265069D01*
X30368000Y-93156948D01*
X30367987Y-93156941D01*
X30188190Y-93082468D01*
X30188181Y-93082465D01*
X29997314Y-93044500D01*
X29997310Y-93044500D01*
X29802690Y-93044500D01*
X29802685Y-93044500D01*
X29611818Y-93082465D01*
X29611809Y-93082468D01*
X29432012Y-93156941D01*
X29431999Y-93156948D01*
X29304891Y-93241880D01*
X29238213Y-93262758D01*
X29170833Y-93244273D01*
X29124143Y-93192295D01*
X29112000Y-93138778D01*
X29112000Y-85880016D01*
X29131685Y-85812977D01*
X29148319Y-85792335D01*
X29816335Y-85124319D01*
X29877658Y-85090834D01*
X29904016Y-85088000D01*
X30657248Y-85088000D01*
X30657249Y-85087999D01*
X30672066Y-85085052D01*
X30715727Y-85076368D01*
X30715727Y-85076367D01*
X30715729Y-85076367D01*
X30782050Y-85032052D01*
X30826365Y-84965731D01*
X30826365Y-84965729D01*
X30826366Y-84965729D01*
X30837997Y-84907252D01*
X30837998Y-84907250D01*
X30837998Y-83292749D01*
X30837997Y-83292747D01*
X30826366Y-83234270D01*
X30826365Y-83234269D01*
X30782050Y-83167947D01*
X30715728Y-83123632D01*
X30715727Y-83123631D01*
X30657250Y-83112000D01*
X30657246Y-83112000D01*
X29904017Y-83112000D01*
X29836978Y-83092315D01*
X29816336Y-83075681D01*
X29512412Y-82771757D01*
X29478927Y-82710434D01*
X29483911Y-82640742D01*
X29525783Y-82584809D01*
X29591247Y-82560392D01*
X29624283Y-82562458D01*
X29752686Y-82587999D01*
X29752687Y-82588000D01*
X29752688Y-82588000D01*
X29947309Y-82588000D01*
X29947310Y-82587999D01*
X30010934Y-82575344D01*
X30138179Y-82550034D01*
X30138182Y-82550032D01*
X30138187Y-82550032D01*
X30317992Y-82475555D01*
X30479812Y-82367430D01*
X30617428Y-82229814D01*
X30725553Y-82067994D01*
X30800030Y-81888189D01*
X30837998Y-81697310D01*
X30837998Y-81502690D01*
X30837659Y-81500990D01*
X30800032Y-81311818D01*
X30800029Y-81311809D01*
X30725556Y-81132012D01*
X30725549Y-81131999D01*
X30617428Y-80970186D01*
X30617425Y-80970182D01*
X30479815Y-80832572D01*
X30479811Y-80832569D01*
X30317998Y-80724448D01*
X30317985Y-80724441D01*
X30138188Y-80649968D01*
X30138179Y-80649965D01*
X29947312Y-80612000D01*
X29947308Y-80612000D01*
X29752688Y-80612000D01*
X29752683Y-80612000D01*
X29561816Y-80649965D01*
X29561807Y-80649968D01*
X29382010Y-80724441D01*
X29381997Y-80724448D01*
X29254889Y-80809380D01*
X29188211Y-80830258D01*
X29120831Y-80811773D01*
X29074141Y-80759795D01*
X29061998Y-80706278D01*
X29061998Y-73210521D01*
X29081683Y-73143482D01*
X29098317Y-73122840D01*
X29727838Y-72493319D01*
X29789161Y-72459834D01*
X29815519Y-72457000D01*
X31121750Y-72457000D01*
X31121751Y-72456999D01*
X31136568Y-72454052D01*
X31180229Y-72445368D01*
X31180229Y-72445367D01*
X31180231Y-72445367D01*
X31246552Y-72401052D01*
X31290867Y-72334731D01*
X31290867Y-72334729D01*
X31290868Y-72334729D01*
X31302499Y-72276252D01*
X31302500Y-72276250D01*
X31302500Y-70108749D01*
X31302499Y-70108747D01*
X31290868Y-70050270D01*
X31290867Y-70050269D01*
X31246552Y-69983947D01*
X31180230Y-69939632D01*
X31180229Y-69939631D01*
X31121752Y-69928000D01*
X31121748Y-69928000D01*
X28954252Y-69928000D01*
X28954247Y-69928000D01*
X28895770Y-69939631D01*
X28895769Y-69939632D01*
X28829447Y-69983947D01*
X28785132Y-70050269D01*
X28785131Y-70050270D01*
X28773500Y-70108747D01*
X28773500Y-71414980D01*
X28753815Y-71482019D01*
X28737181Y-71502661D01*
X27817388Y-72422453D01*
X27817385Y-72422456D01*
X27754094Y-72517180D01*
X27754093Y-72517181D01*
X27740725Y-72537186D01*
X27740720Y-72537195D01*
X27687919Y-72664669D01*
X27687916Y-72664679D01*
X27660998Y-72800006D01*
X27660998Y-72800009D01*
X27660998Y-82542506D01*
X27660998Y-82680494D01*
X27660998Y-82680496D01*
X27660997Y-82680496D01*
X27687916Y-82815822D01*
X27687919Y-82815832D01*
X27740720Y-82943307D01*
X27817385Y-83058045D01*
X27817386Y-83058046D01*
X28771659Y-84012318D01*
X28805144Y-84073641D01*
X28800160Y-84143332D01*
X28771659Y-84187680D01*
X27867387Y-85091952D01*
X27790722Y-85206690D01*
X27737921Y-85334165D01*
X27737918Y-85334177D01*
X27719731Y-85425612D01*
X27719731Y-85425614D01*
X27711000Y-85469505D01*
X27711000Y-94975006D01*
X27711000Y-95112994D01*
X27711000Y-95112996D01*
X27710999Y-95112996D01*
X27737918Y-95248322D01*
X27737921Y-95248332D01*
X27790722Y-95375807D01*
X27867387Y-95490545D01*
X28821661Y-96444819D01*
X28855146Y-96506142D01*
X28850162Y-96575834D01*
X28821661Y-96620181D01*
X27742385Y-97699458D01*
X27728341Y-97720477D01*
X27728339Y-97720480D01*
X27665727Y-97814183D01*
X27665720Y-97814196D01*
X27612920Y-97941668D01*
X27612917Y-97941678D01*
X27585999Y-98077005D01*
X27585999Y-98077008D01*
X27585999Y-108425006D01*
X27585999Y-108562994D01*
X27585999Y-108562996D01*
X27585998Y-108562996D01*
X25025500Y-108562996D01*
X25025500Y-67109411D01*
X28474000Y-67109411D01*
X28474000Y-67355588D01*
X28512511Y-67598737D01*
X28588587Y-67832872D01*
X28700347Y-68052215D01*
X28769521Y-68147423D01*
X28769522Y-68147424D01*
X29255453Y-67661492D01*
X29347469Y-67799204D01*
X29471296Y-67923031D01*
X29609006Y-68015046D01*
X29123074Y-68500977D01*
X29218284Y-68570152D01*
X29437627Y-68681912D01*
X29671762Y-68757988D01*
X29914912Y-68796500D01*
X30161088Y-68796500D01*
X30404237Y-68757988D01*
X30638372Y-68681912D01*
X30857715Y-68570152D01*
X30952923Y-68500977D01*
X30466992Y-68015046D01*
X30604704Y-67923031D01*
X30728531Y-67799204D01*
X30820546Y-67661492D01*
X31306477Y-68147423D01*
X31375652Y-68052215D01*
X31487412Y-67832872D01*
X31563488Y-67598737D01*
X31602000Y-67355588D01*
X31602000Y-67109411D01*
X31563488Y-66866262D01*
X31487412Y-66632127D01*
X31375652Y-66412784D01*
X31306477Y-66317575D01*
X31306477Y-66317574D01*
X30820545Y-66803506D01*
X30728531Y-66665796D01*
X30604704Y-66541969D01*
X30466992Y-66449953D01*
X30952924Y-65964022D01*
X30952923Y-65964021D01*
X30857715Y-65894847D01*
X30638372Y-65783087D01*
X30404237Y-65707011D01*
X30161088Y-65668500D01*
X29914912Y-65668500D01*
X29671762Y-65707011D01*
X29437627Y-65783087D01*
X29218280Y-65894849D01*
X29123075Y-65964019D01*
X29123074Y-65964021D01*
X29609007Y-66449953D01*
X29471296Y-66541969D01*
X29347469Y-66665796D01*
X29255453Y-66803506D01*
X28769521Y-66317574D01*
X28769519Y-66317575D01*
X28700349Y-66412780D01*
X28588587Y-66632127D01*
X28512511Y-66866262D01*
X28474000Y-67109411D01*
X25025500Y-67109411D01*
X25025500Y-49161419D01*
X25524500Y-49161419D01*
X25524500Y-49288580D01*
X25549304Y-49413277D01*
X25549306Y-49413285D01*
X25597965Y-49530757D01*
X25597967Y-49530761D01*
X25668604Y-49636477D01*
X25668610Y-49636485D01*
X25758514Y-49726389D01*
X25758522Y-49726395D01*
X25778882Y-49739999D01*
X25864241Y-49797034D01*
X25981715Y-49845694D01*
X26106419Y-49870499D01*
X26106423Y-49870500D01*
X26106424Y-49870500D01*
X26893577Y-49870500D01*
X26893578Y-49870499D01*
X27018285Y-49845694D01*
X27135759Y-49797034D01*
X27241482Y-49726392D01*
X27331392Y-49636482D01*
X27402034Y-49530759D01*
X27450694Y-49413285D01*
X27475500Y-49288576D01*
X27475500Y-49161424D01*
X27450694Y-49036715D01*
X27402034Y-48919241D01*
X27376164Y-48880524D01*
X27331395Y-48813522D01*
X27331389Y-48813514D01*
X27241485Y-48723610D01*
X27241477Y-48723604D01*
X27135761Y-48652967D01*
X27135757Y-48652965D01*
X27018285Y-48604306D01*
X27018277Y-48604304D01*
X26893580Y-48579500D01*
X26893576Y-48579500D01*
X26106424Y-48579500D01*
X26106419Y-48579500D01*
X25981722Y-48604304D01*
X25981714Y-48604306D01*
X25864242Y-48652965D01*
X25864238Y-48652967D01*
X25758522Y-48723604D01*
X25758514Y-48723610D01*
X25668610Y-48813514D01*
X25668604Y-48813522D01*
X25597967Y-48919238D01*
X25597965Y-48919242D01*
X25549306Y-49036714D01*
X25549304Y-49036722D01*
X25524500Y-49161419D01*
X25025500Y-49161419D01*
X25025500Y-48441532D01*
X28524499Y-48441532D01*
X28550458Y-48572029D01*
X28550461Y-48572039D01*
X28601376Y-48694960D01*
X28601386Y-48694978D01*
X28675301Y-48805600D01*
X28675307Y-48805608D01*
X28769390Y-48899691D01*
X28769398Y-48899697D01*
X28880020Y-48973612D01*
X28880023Y-48973613D01*
X28880031Y-48973619D01*
X28880037Y-48973621D01*
X28880038Y-48973622D01*
X28942514Y-48999500D01*
X29002964Y-49024539D01*
X29002968Y-49024539D01*
X29002969Y-49024540D01*
X29133466Y-49050499D01*
X29133469Y-49050499D01*
X29266533Y-49050499D01*
X29357326Y-49032438D01*
X29397036Y-49024539D01*
X29519969Y-48973619D01*
X29630606Y-48899694D01*
X29724695Y-48805605D01*
X29798620Y-48694968D01*
X29849540Y-48572035D01*
X29868035Y-48479057D01*
X29875500Y-48441532D01*
X29875500Y-48320943D01*
X36199500Y-48320943D01*
X36199500Y-48479057D01*
X36233061Y-48604306D01*
X36240423Y-48631783D01*
X36240426Y-48631790D01*
X36319475Y-48768709D01*
X36319479Y-48768714D01*
X36319480Y-48768716D01*
X36431284Y-48880520D01*
X36431286Y-48880521D01*
X36431290Y-48880524D01*
X36503826Y-48922402D01*
X36568216Y-48959577D01*
X36720943Y-49000500D01*
X36720945Y-49000500D01*
X36879055Y-49000500D01*
X36879057Y-49000500D01*
X37031784Y-48959577D01*
X37168716Y-48880520D01*
X37280520Y-48768716D01*
X37359577Y-48631784D01*
X37400500Y-48479057D01*
X37400500Y-48320943D01*
X37359577Y-48168216D01*
X37351052Y-48153450D01*
X37280524Y-48031290D01*
X37280521Y-48031287D01*
X37280520Y-48031284D01*
X37280517Y-48031281D01*
X37276125Y-48025557D01*
X37250930Y-47960388D01*
X37250500Y-47950069D01*
X37250500Y-47587830D01*
X38507501Y-47587830D01*
X38507501Y-74017310D01*
X38522105Y-74071813D01*
X38538200Y-74131885D01*
X38538202Y-74131888D01*
X38597512Y-74234615D01*
X38597514Y-74234617D01*
X48295800Y-83932903D01*
X48329285Y-83994226D01*
X48331057Y-84004394D01*
X48331999Y-84011551D01*
X48332001Y-84011557D01*
X48332001Y-84011558D01*
X48371288Y-84158181D01*
X48372924Y-84164284D01*
X48372927Y-84164291D01*
X48451976Y-84301210D01*
X48451980Y-84301215D01*
X48451981Y-84301217D01*
X48563785Y-84413021D01*
X48563787Y-84413022D01*
X48563791Y-84413025D01*
X48700710Y-84492074D01*
X48700717Y-84492078D01*
X48853444Y-84533001D01*
X48853446Y-84533001D01*
X49011556Y-84533001D01*
X49011558Y-84533001D01*
X49164285Y-84492078D01*
X49301217Y-84413021D01*
X49413021Y-84301217D01*
X49492078Y-84164285D01*
X49533001Y-84011558D01*
X49533001Y-83853444D01*
X49492078Y-83700717D01*
X49492074Y-83700710D01*
X49413025Y-83563791D01*
X49413019Y-83563783D01*
X49301218Y-83451982D01*
X49301210Y-83451976D01*
X49164291Y-83372927D01*
X49164287Y-83372925D01*
X49164285Y-83372924D01*
X49011558Y-83332001D01*
X49011551Y-83331999D01*
X49004394Y-83331057D01*
X48940498Y-83302788D01*
X48932903Y-83295800D01*
X39444820Y-73807717D01*
X39411335Y-73746394D01*
X39408501Y-73720036D01*
X39408501Y-73144966D01*
X39428186Y-73077927D01*
X39480990Y-73032172D01*
X39550148Y-73022228D01*
X39613704Y-73051253D01*
X39620182Y-73057285D01*
X51113181Y-84550284D01*
X51146666Y-84611607D01*
X51149500Y-84637965D01*
X51149500Y-93762035D01*
X51129815Y-93829074D01*
X51113181Y-93849716D01*
X48199597Y-96763299D01*
X48138274Y-96796784D01*
X48128107Y-96798556D01*
X48120949Y-96799498D01*
X47968216Y-96840423D01*
X47968209Y-96840426D01*
X47831290Y-96919475D01*
X47831282Y-96919481D01*
X47719481Y-97031282D01*
X47719475Y-97031290D01*
X47640426Y-97168209D01*
X47640423Y-97168216D01*
X47599500Y-97320943D01*
X47599500Y-97479057D01*
X47610605Y-97520499D01*
X47640423Y-97631783D01*
X47640426Y-97631790D01*
X47719475Y-97768709D01*
X47719479Y-97768714D01*
X47719480Y-97768716D01*
X47831284Y-97880520D01*
X47831286Y-97880521D01*
X47831290Y-97880524D01*
X47968209Y-97959573D01*
X47968216Y-97959577D01*
X48120943Y-98000500D01*
X48120945Y-98000500D01*
X48279055Y-98000500D01*
X48279057Y-98000500D01*
X48431784Y-97959577D01*
X48568716Y-97880520D01*
X48680520Y-97768716D01*
X48759577Y-97631784D01*
X48800500Y-97479057D01*
X48800500Y-97479044D01*
X48801441Y-97471901D01*
X48829707Y-97408003D01*
X48836688Y-97400414D01*
X51960489Y-94276614D01*
X52019799Y-94173887D01*
X52019800Y-94173884D01*
X52033330Y-94123389D01*
X52033330Y-94123388D01*
X52037141Y-94109166D01*
X52050500Y-94059309D01*
X52050500Y-84340691D01*
X52026320Y-84250448D01*
X52026064Y-84249493D01*
X52026064Y-84249492D01*
X52021186Y-84231290D01*
X52019799Y-84226113D01*
X52008263Y-84206132D01*
X51960494Y-84123392D01*
X51960488Y-84123384D01*
X40145820Y-72308716D01*
X40112335Y-72247393D01*
X40109501Y-72221035D01*
X40109501Y-61474500D01*
X40129186Y-61407461D01*
X40181990Y-61361706D01*
X40233501Y-61350500D01*
X41829751Y-61350500D01*
X41829752Y-61350499D01*
X41844569Y-61347552D01*
X41888230Y-61338868D01*
X41888230Y-61338867D01*
X41888232Y-61338867D01*
X41954553Y-61294552D01*
X41998868Y-61228231D01*
X41998868Y-61228229D01*
X41998869Y-61228229D01*
X42010500Y-61169752D01*
X42010501Y-61169750D01*
X42010501Y-60196530D01*
X42449501Y-60196530D01*
X42449501Y-60403469D01*
X42489869Y-60606412D01*
X42489871Y-60606420D01*
X42569059Y-60797596D01*
X42684025Y-60969657D01*
X42830343Y-61115975D01*
X42830346Y-61115977D01*
X43002403Y-61230941D01*
X43193581Y-61310130D01*
X43338053Y-61338867D01*
X43396531Y-61350499D01*
X43396535Y-61350500D01*
X43396536Y-61350500D01*
X43603467Y-61350500D01*
X43603468Y-61350499D01*
X43806421Y-61310130D01*
X43997599Y-61230941D01*
X44169656Y-61115977D01*
X44315978Y-60969655D01*
X44430942Y-60797598D01*
X44444062Y-60765925D01*
X44471328Y-60700099D01*
X44499165Y-60632891D01*
X44543006Y-60578489D01*
X44609300Y-60556424D01*
X44676999Y-60573703D01*
X44724610Y-60624840D01*
X44731657Y-60642027D01*
X44788904Y-60818217D01*
X44885375Y-61007550D01*
X44924728Y-61061716D01*
X45557037Y-60429408D01*
X45574075Y-60492993D01*
X45639901Y-60607007D01*
X45732993Y-60700099D01*
X45847007Y-60765925D01*
X45910590Y-60782962D01*
X45278282Y-61415269D01*
X45278282Y-61415270D01*
X45332449Y-61454624D01*
X45521782Y-61551095D01*
X45723870Y-61616757D01*
X45933754Y-61650000D01*
X46146246Y-61650000D01*
X46356127Y-61616757D01*
X46356130Y-61616757D01*
X46558217Y-61551095D01*
X46747554Y-61454622D01*
X46801716Y-61415270D01*
X46801717Y-61415270D01*
X46169408Y-60782962D01*
X46232993Y-60765925D01*
X46347007Y-60700099D01*
X46440099Y-60607007D01*
X46505925Y-60492993D01*
X46522962Y-60429408D01*
X47155270Y-61061717D01*
X47155270Y-61061716D01*
X47194622Y-61007554D01*
X47291095Y-60818217D01*
X47356757Y-60616130D01*
X47356757Y-60616127D01*
X47390000Y-60406246D01*
X47390000Y-60193753D01*
X47356757Y-59983872D01*
X47356757Y-59983869D01*
X47291095Y-59781782D01*
X47194624Y-59592449D01*
X47155270Y-59538282D01*
X47155269Y-59538282D01*
X46522962Y-60170590D01*
X46505925Y-60107007D01*
X46440099Y-59992993D01*
X46347007Y-59899901D01*
X46232993Y-59834075D01*
X46169409Y-59817037D01*
X46801716Y-59184728D01*
X46747550Y-59145375D01*
X46558217Y-59048904D01*
X46356129Y-58983242D01*
X46146246Y-58950000D01*
X45933754Y-58950000D01*
X45723872Y-58983242D01*
X45723869Y-58983242D01*
X45521782Y-59048904D01*
X45332439Y-59145380D01*
X45278282Y-59184727D01*
X45278282Y-59184728D01*
X45910591Y-59817037D01*
X45847007Y-59834075D01*
X45732993Y-59899901D01*
X45639901Y-59992993D01*
X45574075Y-60107007D01*
X45557037Y-60170591D01*
X44924728Y-59538282D01*
X44924727Y-59538282D01*
X44885380Y-59592439D01*
X44788904Y-59781783D01*
X44731657Y-59957972D01*
X44692220Y-60015648D01*
X44627861Y-60042846D01*
X44559015Y-60030931D01*
X44507539Y-59983687D01*
X44499165Y-59967107D01*
X44495381Y-59957972D01*
X44430942Y-59802402D01*
X44315978Y-59630345D01*
X44315976Y-59630342D01*
X44169658Y-59484024D01*
X44001656Y-59371770D01*
X43997599Y-59369059D01*
X43806421Y-59289870D01*
X43806413Y-59289868D01*
X43603470Y-59249500D01*
X43603466Y-59249500D01*
X43396536Y-59249500D01*
X43396531Y-59249500D01*
X43193588Y-59289868D01*
X43193580Y-59289870D01*
X43002404Y-59369058D01*
X42830343Y-59484024D01*
X42684025Y-59630342D01*
X42569059Y-59802403D01*
X42489871Y-59993579D01*
X42489869Y-59993587D01*
X42449501Y-60196530D01*
X42010501Y-60196530D01*
X42010501Y-59430249D01*
X42010500Y-59430247D01*
X41998869Y-59371770D01*
X41998868Y-59371769D01*
X41954553Y-59305447D01*
X41888231Y-59261132D01*
X41888230Y-59261131D01*
X41829753Y-59249500D01*
X41829749Y-59249500D01*
X40233501Y-59249500D01*
X40166462Y-59229815D01*
X40120707Y-59177011D01*
X40109501Y-59125500D01*
X40109501Y-48175468D01*
X40129186Y-48108429D01*
X40145820Y-48087787D01*
X46382676Y-41850931D01*
X52639316Y-35594290D01*
X52661637Y-35582102D01*
X52681752Y-35566521D01*
X52691792Y-35565636D01*
X52700637Y-35560807D01*
X52726011Y-35562621D01*
X52751352Y-35560389D01*
X52760275Y-35565071D01*
X52770329Y-35565791D01*
X52790694Y-35581036D01*
X52813219Y-35592858D01*
X52820205Y-35603128D01*
X52826262Y-35607663D01*
X52834833Y-35620760D01*
X52839826Y-35629556D01*
X52840423Y-35631784D01*
X52880147Y-35700589D01*
X52880338Y-35700925D01*
X52882042Y-35708181D01*
X52896500Y-35762138D01*
X52896500Y-55815034D01*
X52876815Y-55882073D01*
X52860181Y-55902715D01*
X46839513Y-61923383D01*
X46839509Y-61923389D01*
X46780201Y-62026112D01*
X46780200Y-62026117D01*
X46749500Y-62140691D01*
X46749500Y-70859308D01*
X46770418Y-70937376D01*
X46780199Y-70973885D01*
X46815440Y-71034922D01*
X46839511Y-71076614D01*
X46839513Y-71076616D01*
X52313181Y-76550284D01*
X52346666Y-76611607D01*
X52349500Y-76637965D01*
X52349500Y-98562035D01*
X52329815Y-98629074D01*
X52313181Y-98649716D01*
X47639513Y-103323383D01*
X47639509Y-103323389D01*
X47580201Y-103426112D01*
X47580200Y-103426117D01*
X47549500Y-103540691D01*
X47549500Y-107950069D01*
X47529815Y-108017108D01*
X47523875Y-108025557D01*
X47519475Y-108031290D01*
X47440426Y-108168209D01*
X47440423Y-108168216D01*
X47399500Y-108320943D01*
X47399500Y-108479057D01*
X47421992Y-108562996D01*
X47440423Y-108631783D01*
X47440426Y-108631790D01*
X47519475Y-108768709D01*
X47519479Y-108768714D01*
X47519480Y-108768716D01*
X47631284Y-108880520D01*
X47631286Y-108880521D01*
X47631290Y-108880524D01*
X47735248Y-108940543D01*
X47768216Y-108959577D01*
X47920943Y-109000500D01*
X47920945Y-109000500D01*
X48079055Y-109000500D01*
X48079057Y-109000500D01*
X48231784Y-108959577D01*
X48368716Y-108880520D01*
X48480520Y-108768716D01*
X48559577Y-108631784D01*
X48600500Y-108479057D01*
X48600500Y-108320943D01*
X48559577Y-108168216D01*
X48527304Y-108112317D01*
X48480524Y-108031290D01*
X48480521Y-108031287D01*
X48480520Y-108031284D01*
X48480517Y-108031281D01*
X48476125Y-108025557D01*
X48450930Y-107960388D01*
X48450500Y-107950069D01*
X48450500Y-103837965D01*
X48470185Y-103770926D01*
X48486819Y-103750284D01*
X50805320Y-101431783D01*
X53160489Y-99076614D01*
X53219799Y-98973887D01*
X53226285Y-98949675D01*
X53226286Y-98949675D01*
X53226286Y-98949671D01*
X53250500Y-98859309D01*
X53250500Y-76340691D01*
X53219799Y-76226114D01*
X53219799Y-76226113D01*
X53160489Y-76123386D01*
X47686819Y-70649716D01*
X47653334Y-70588393D01*
X47650500Y-70562035D01*
X47650500Y-69590918D01*
X47670185Y-69523879D01*
X47722989Y-69478124D01*
X47792147Y-69468180D01*
X47836498Y-69483530D01*
X47968216Y-69559577D01*
X48120943Y-69600500D01*
X48120945Y-69600500D01*
X48128099Y-69601442D01*
X48191996Y-69629707D01*
X48199597Y-69636700D01*
X48523386Y-69960489D01*
X48626113Y-70019799D01*
X48650321Y-70026284D01*
X48650324Y-70026286D01*
X48650325Y-70026286D01*
X48680447Y-70034357D01*
X48740691Y-70050500D01*
X52150069Y-70050500D01*
X52217108Y-70070185D01*
X52225557Y-70076125D01*
X52231281Y-70080517D01*
X52231284Y-70080520D01*
X52231287Y-70080521D01*
X52231290Y-70080524D01*
X52368209Y-70159573D01*
X52368216Y-70159577D01*
X52520943Y-70200500D01*
X52520945Y-70200500D01*
X52679055Y-70200500D01*
X52679057Y-70200500D01*
X52831784Y-70159577D01*
X52968716Y-70080520D01*
X53080520Y-69968716D01*
X53159577Y-69831784D01*
X53200500Y-69679057D01*
X53200500Y-69520943D01*
X53159577Y-69368216D01*
X53090886Y-69249238D01*
X53080524Y-69231290D01*
X53080518Y-69231282D01*
X52968717Y-69119481D01*
X52968709Y-69119475D01*
X52831790Y-69040426D01*
X52831786Y-69040424D01*
X52831784Y-69040423D01*
X52679057Y-68999500D01*
X52520943Y-68999500D01*
X52368216Y-69040423D01*
X52368209Y-69040426D01*
X52231290Y-69119475D01*
X52225557Y-69123875D01*
X52160388Y-69149070D01*
X52150069Y-69149500D01*
X49037965Y-69149500D01*
X49008524Y-69140855D01*
X48978538Y-69134332D01*
X48973522Y-69130577D01*
X48970926Y-69129815D01*
X48950284Y-69113181D01*
X48836700Y-68999597D01*
X48803215Y-68938274D01*
X48801442Y-68928099D01*
X48800500Y-68920945D01*
X48800500Y-68920943D01*
X48759577Y-68768216D01*
X48753672Y-68757988D01*
X48680524Y-68631290D01*
X48680518Y-68631282D01*
X48568717Y-68519481D01*
X48568709Y-68519475D01*
X48431790Y-68440426D01*
X48431786Y-68440424D01*
X48431784Y-68440423D01*
X48279057Y-68399500D01*
X48120943Y-68399500D01*
X47968216Y-68440423D01*
X47968215Y-68440423D01*
X47836499Y-68516469D01*
X47768599Y-68532941D01*
X47702572Y-68510088D01*
X47659382Y-68455166D01*
X47650500Y-68409081D01*
X47650500Y-62437965D01*
X47670185Y-62370926D01*
X47686819Y-62350284D01*
X53385819Y-56651284D01*
X53447142Y-56617799D01*
X53516834Y-56622783D01*
X53572767Y-56664655D01*
X53597184Y-56730119D01*
X53597500Y-56738965D01*
X53597500Y-99314034D01*
X53577815Y-99381073D01*
X53561181Y-99401715D01*
X52999597Y-99963299D01*
X52938274Y-99996784D01*
X52928107Y-99998556D01*
X52920949Y-99999498D01*
X52768216Y-100040423D01*
X52768209Y-100040426D01*
X52631290Y-100119475D01*
X52631282Y-100119481D01*
X52519481Y-100231282D01*
X52519475Y-100231290D01*
X52440426Y-100368209D01*
X52440423Y-100368216D01*
X52399500Y-100520943D01*
X52399500Y-100679057D01*
X52440289Y-100831282D01*
X52440423Y-100831783D01*
X52440426Y-100831790D01*
X52519475Y-100968709D01*
X52519479Y-100968714D01*
X52519480Y-100968716D01*
X52631284Y-101080520D01*
X52631286Y-101080521D01*
X52631290Y-101080524D01*
X52712866Y-101127621D01*
X52768216Y-101159577D01*
X52920943Y-101200500D01*
X52920945Y-101200500D01*
X53079055Y-101200500D01*
X53079057Y-101200500D01*
X53231784Y-101159577D01*
X53368716Y-101080520D01*
X53480520Y-100968716D01*
X53559577Y-100831784D01*
X53600500Y-100679057D01*
X53600500Y-100679044D01*
X53601441Y-100671901D01*
X53629707Y-100608003D01*
X53636687Y-100600415D01*
X54408490Y-99828614D01*
X54467799Y-99725887D01*
X54477497Y-99689691D01*
X54498500Y-99611309D01*
X54498500Y-95834965D01*
X54518185Y-95767926D01*
X54570989Y-95722171D01*
X54640147Y-95712227D01*
X54703703Y-95741252D01*
X54710181Y-95747284D01*
X59563299Y-100600402D01*
X59596784Y-100661725D01*
X59598556Y-100671893D01*
X59599498Y-100679050D01*
X59599500Y-100679056D01*
X59599500Y-100679057D01*
X59640288Y-100831282D01*
X59640423Y-100831783D01*
X59640426Y-100831790D01*
X59719475Y-100968709D01*
X59719479Y-100968714D01*
X59719480Y-100968716D01*
X59831284Y-101080520D01*
X59831286Y-101080521D01*
X59831290Y-101080524D01*
X59912866Y-101127621D01*
X59968216Y-101159577D01*
X60120943Y-101200500D01*
X60120945Y-101200500D01*
X60279055Y-101200500D01*
X60279057Y-101200500D01*
X60431784Y-101159577D01*
X60568716Y-101080520D01*
X60680520Y-100968716D01*
X60727803Y-100886819D01*
X60763641Y-100824746D01*
X60766134Y-100826185D01*
X60801234Y-100782607D01*
X60867522Y-100760525D01*
X60935226Y-100777787D01*
X60959660Y-100796763D01*
X62323386Y-102160490D01*
X62426113Y-102219799D01*
X62450321Y-102226284D01*
X62450324Y-102226286D01*
X62450325Y-102226286D01*
X62480447Y-102234357D01*
X62540691Y-102250500D01*
X70150069Y-102250500D01*
X70217108Y-102270185D01*
X70225557Y-102276125D01*
X70231281Y-102280517D01*
X70231284Y-102280520D01*
X70231287Y-102280521D01*
X70231290Y-102280524D01*
X70368209Y-102359573D01*
X70368216Y-102359577D01*
X70520943Y-102400500D01*
X70520945Y-102400500D01*
X70679055Y-102400500D01*
X70679057Y-102400500D01*
X70831784Y-102359577D01*
X70968716Y-102280520D01*
X71080520Y-102168716D01*
X71159577Y-102031784D01*
X71195938Y-101896082D01*
X71232302Y-101836423D01*
X71295149Y-101805894D01*
X71364524Y-101814189D01*
X71403393Y-101840496D01*
X71523386Y-101960489D01*
X71523387Y-101960490D01*
X71523389Y-101960491D01*
X71582693Y-101994729D01*
X71582696Y-101994732D01*
X71616937Y-102014500D01*
X71626114Y-102019799D01*
X71740691Y-102050500D01*
X79550069Y-102050500D01*
X79617108Y-102070185D01*
X79625557Y-102076125D01*
X79631281Y-102080517D01*
X79631284Y-102080520D01*
X79631287Y-102080521D01*
X79631290Y-102080524D01*
X79768209Y-102159573D01*
X79768216Y-102159577D01*
X79920943Y-102200500D01*
X79920945Y-102200500D01*
X80079055Y-102200500D01*
X80079057Y-102200500D01*
X80231784Y-102159577D01*
X80368716Y-102080520D01*
X80480520Y-101968716D01*
X80559577Y-101831784D01*
X80600500Y-101679057D01*
X80600500Y-101520943D01*
X80559577Y-101368216D01*
X80559576Y-101368214D01*
X80557473Y-101360365D01*
X80559514Y-101359818D01*
X80553240Y-101301492D01*
X80584510Y-101239010D01*
X80644597Y-101203354D01*
X80675271Y-101199500D01*
X89311035Y-101199500D01*
X89378074Y-101219185D01*
X89398716Y-101235819D01*
X89763299Y-101600402D01*
X89796784Y-101661725D01*
X89798556Y-101671893D01*
X89799498Y-101679050D01*
X89799500Y-101679056D01*
X89799500Y-101679057D01*
X89835708Y-101814189D01*
X89840423Y-101831783D01*
X89840426Y-101831790D01*
X89919475Y-101968709D01*
X89919479Y-101968714D01*
X89919480Y-101968716D01*
X90031284Y-102080520D01*
X90031286Y-102080521D01*
X90031290Y-102080524D01*
X90168209Y-102159573D01*
X90168216Y-102159577D01*
X90320943Y-102200500D01*
X90320945Y-102200500D01*
X90479055Y-102200500D01*
X90479057Y-102200500D01*
X90631784Y-102159577D01*
X90768716Y-102080520D01*
X90880520Y-101968716D01*
X90959577Y-101831784D01*
X91000500Y-101679057D01*
X91000500Y-101520943D01*
X90959577Y-101368216D01*
X90955044Y-101360365D01*
X90880524Y-101231290D01*
X90880518Y-101231282D01*
X90768717Y-101119481D01*
X90768709Y-101119475D01*
X90631790Y-101040426D01*
X90631786Y-101040424D01*
X90631784Y-101040423D01*
X90479057Y-100999500D01*
X90479050Y-100999498D01*
X90471893Y-100998556D01*
X90407997Y-100970287D01*
X90400403Y-100963299D01*
X89825616Y-100388513D01*
X89825614Y-100388511D01*
X89774250Y-100358856D01*
X89722888Y-100329201D01*
X89710780Y-100325957D01*
X89698673Y-100322713D01*
X89698670Y-100322712D01*
X89660478Y-100312478D01*
X89608309Y-100298500D01*
X89608308Y-100298500D01*
X72478329Y-100298500D01*
X72411290Y-100278815D01*
X72390648Y-100262181D01*
X71590648Y-99462181D01*
X71557163Y-99400858D01*
X71562147Y-99331166D01*
X71604019Y-99275233D01*
X71669483Y-99250816D01*
X71678329Y-99250500D01*
X95962035Y-99250500D01*
X96029074Y-99270185D01*
X96049716Y-99286819D01*
X97963299Y-101200402D01*
X97996784Y-101261725D01*
X97998556Y-101271893D01*
X97999498Y-101279050D01*
X98040423Y-101431783D01*
X98040426Y-101431790D01*
X98119475Y-101568709D01*
X98119479Y-101568714D01*
X98119480Y-101568716D01*
X98231284Y-101680520D01*
X98231286Y-101680521D01*
X98231290Y-101680524D01*
X98301299Y-101720943D01*
X98368216Y-101759577D01*
X98520943Y-101800500D01*
X98520945Y-101800500D01*
X98679055Y-101800500D01*
X98679057Y-101800500D01*
X98831784Y-101759577D01*
X98968716Y-101680520D01*
X99080520Y-101568716D01*
X99159577Y-101431784D01*
X99200500Y-101279057D01*
X99200500Y-101120943D01*
X99159577Y-100968216D01*
X99112583Y-100886819D01*
X99080524Y-100831290D01*
X99080518Y-100831282D01*
X98968717Y-100719481D01*
X98968709Y-100719475D01*
X98831790Y-100640426D01*
X98831786Y-100640424D01*
X98831784Y-100640423D01*
X98710791Y-100608003D01*
X98679050Y-100599498D01*
X98671893Y-100598556D01*
X98607997Y-100570287D01*
X98600402Y-100563299D01*
X96476616Y-98439513D01*
X96476614Y-98439511D01*
X96407901Y-98399839D01*
X96373888Y-98380201D01*
X96361780Y-98376957D01*
X96349673Y-98373713D01*
X96349670Y-98373712D01*
X96311478Y-98363478D01*
X96259309Y-98349500D01*
X96259308Y-98349500D01*
X67037965Y-98349500D01*
X66970926Y-98329815D01*
X66950284Y-98313181D01*
X59286819Y-90649716D01*
X59253334Y-90588393D01*
X59250500Y-90562035D01*
X59250500Y-53720943D01*
X61199500Y-53720943D01*
X61199500Y-53879057D01*
X61232551Y-54002403D01*
X61240423Y-54031783D01*
X61240426Y-54031790D01*
X61319475Y-54168709D01*
X61319479Y-54168714D01*
X61319480Y-54168716D01*
X61431284Y-54280520D01*
X61431286Y-54280521D01*
X61431290Y-54280524D01*
X61504843Y-54322989D01*
X61568216Y-54359577D01*
X61720943Y-54400500D01*
X61720945Y-54400500D01*
X61879055Y-54400500D01*
X61879057Y-54400500D01*
X62031784Y-54359577D01*
X62168716Y-54280520D01*
X62168721Y-54280514D01*
X62174443Y-54276125D01*
X62239612Y-54250930D01*
X62249931Y-54250500D01*
X64157006Y-54250500D01*
X64224045Y-54270185D01*
X64269800Y-54322989D01*
X64279744Y-54392147D01*
X64276781Y-54406590D01*
X64270995Y-54428186D01*
X64270995Y-54586300D01*
X64308485Y-54726212D01*
X64311918Y-54739026D01*
X64311921Y-54739033D01*
X64390968Y-54875949D01*
X64390972Y-54875955D01*
X64390975Y-54875959D01*
X64390977Y-54875961D01*
X64395367Y-54881681D01*
X64403611Y-54903005D01*
X64415972Y-54922238D01*
X64418886Y-54942511D01*
X64420564Y-54946849D01*
X64420995Y-54957173D01*
X64420995Y-55090540D01*
X64401310Y-55157579D01*
X64384676Y-55178221D01*
X61439513Y-58123383D01*
X61439509Y-58123389D01*
X61380201Y-58226112D01*
X61380200Y-58226117D01*
X61349500Y-58340691D01*
X61349500Y-86259308D01*
X61370904Y-86339190D01*
X61370904Y-86339191D01*
X61380199Y-86373884D01*
X61380201Y-86373887D01*
X61439511Y-86476614D01*
X69723386Y-94760489D01*
X69826113Y-94819799D01*
X69850321Y-94826284D01*
X69850324Y-94826286D01*
X69850325Y-94826286D01*
X69880447Y-94834357D01*
X69940691Y-94850500D01*
X98362035Y-94850500D01*
X98429074Y-94870185D01*
X98449716Y-94886819D01*
X98963299Y-95400402D01*
X98996784Y-95461725D01*
X98998556Y-95471893D01*
X98999498Y-95479050D01*
X99040423Y-95631783D01*
X99040426Y-95631790D01*
X99119475Y-95768709D01*
X99119479Y-95768714D01*
X99119480Y-95768716D01*
X99231284Y-95880520D01*
X99231286Y-95880521D01*
X99231290Y-95880524D01*
X99368209Y-95959573D01*
X99368216Y-95959577D01*
X99520943Y-96000500D01*
X99520945Y-96000500D01*
X99679055Y-96000500D01*
X99679057Y-96000500D01*
X99831784Y-95959577D01*
X99968716Y-95880520D01*
X100080520Y-95768716D01*
X100159577Y-95631784D01*
X100200500Y-95479057D01*
X100200500Y-95320943D01*
X100159577Y-95168216D01*
X100144981Y-95142934D01*
X100080524Y-95031290D01*
X100080518Y-95031282D01*
X99968717Y-94919481D01*
X99968709Y-94919475D01*
X99831790Y-94840426D01*
X99831786Y-94840424D01*
X99831784Y-94840423D01*
X99679057Y-94799500D01*
X99679050Y-94799498D01*
X99671893Y-94798556D01*
X99607997Y-94770287D01*
X99600402Y-94763299D01*
X98876616Y-94039513D01*
X98876614Y-94039511D01*
X98825250Y-94009856D01*
X98773888Y-93980201D01*
X98761780Y-93976957D01*
X98749673Y-93973713D01*
X98749670Y-93973712D01*
X98711478Y-93963478D01*
X98659309Y-93949500D01*
X98659308Y-93949500D01*
X95986965Y-93949500D01*
X95919926Y-93929815D01*
X95874171Y-93877011D01*
X95864227Y-93807853D01*
X95893252Y-93744297D01*
X95899284Y-93737819D01*
X97923707Y-91713396D01*
X99960489Y-89676614D01*
X100019799Y-89573887D01*
X100026285Y-89549675D01*
X100026286Y-89549675D01*
X100026286Y-89549671D01*
X100050500Y-89459309D01*
X100050500Y-86049930D01*
X100070185Y-85982891D01*
X100076128Y-85974438D01*
X100080512Y-85968723D01*
X100080520Y-85968716D01*
X100159577Y-85831784D01*
X100200500Y-85679057D01*
X100200500Y-85520943D01*
X100159577Y-85368216D01*
X100102977Y-85270181D01*
X100080524Y-85231290D01*
X100080518Y-85231282D01*
X99968717Y-85119481D01*
X99968709Y-85119475D01*
X99831790Y-85040426D01*
X99831786Y-85040424D01*
X99831784Y-85040423D01*
X99679057Y-84999500D01*
X99520943Y-84999500D01*
X99368216Y-85040423D01*
X99368209Y-85040426D01*
X99231290Y-85119475D01*
X99231282Y-85119481D01*
X99119481Y-85231282D01*
X99119475Y-85231290D01*
X99040426Y-85368209D01*
X99040423Y-85368216D01*
X98999500Y-85520943D01*
X98999500Y-85679057D01*
X99039585Y-85828654D01*
X99040423Y-85831783D01*
X99040426Y-85831790D01*
X99119473Y-85968706D01*
X99119477Y-85968712D01*
X99119480Y-85968716D01*
X99119482Y-85968718D01*
X99123872Y-85974438D01*
X99149069Y-86039606D01*
X99149500Y-86049930D01*
X99149500Y-89162035D01*
X99129815Y-89229074D01*
X99113181Y-89249716D01*
X95249716Y-93113181D01*
X95188393Y-93146666D01*
X95162035Y-93149500D01*
X70429329Y-93149500D01*
X70362290Y-93129815D01*
X70341648Y-93113181D01*
X63086819Y-85858352D01*
X63053334Y-85797029D01*
X63050500Y-85770671D01*
X63050500Y-75344411D01*
X64498000Y-75344411D01*
X64498000Y-75590588D01*
X64536511Y-75833737D01*
X64612587Y-76067872D01*
X64724347Y-76287215D01*
X64793521Y-76382423D01*
X64793522Y-76382424D01*
X65279453Y-75896492D01*
X65371469Y-76034204D01*
X65495296Y-76158031D01*
X65633006Y-76250046D01*
X65147074Y-76735977D01*
X65242284Y-76805152D01*
X65461627Y-76916912D01*
X65695762Y-76992988D01*
X65938912Y-77031500D01*
X66185088Y-77031500D01*
X66428237Y-76992988D01*
X66662372Y-76916912D01*
X66881715Y-76805152D01*
X66976923Y-76735977D01*
X66490992Y-76250046D01*
X66628704Y-76158031D01*
X66752531Y-76034204D01*
X66844546Y-75896493D01*
X67330477Y-76382424D01*
X67330477Y-76382423D01*
X67399652Y-76287215D01*
X67511412Y-76067872D01*
X67587488Y-75833737D01*
X67626000Y-75590588D01*
X67626000Y-75344411D01*
X67587488Y-75101262D01*
X67511412Y-74867127D01*
X67399652Y-74647784D01*
X67330477Y-74552575D01*
X67330477Y-74552574D01*
X66844545Y-75038506D01*
X66752531Y-74900796D01*
X66628704Y-74776969D01*
X66490992Y-74684953D01*
X66976924Y-74199022D01*
X66976923Y-74199021D01*
X66881715Y-74129847D01*
X66662372Y-74018087D01*
X66428237Y-73942011D01*
X66185088Y-73903500D01*
X65938912Y-73903500D01*
X65695762Y-73942011D01*
X65461627Y-74018087D01*
X65242280Y-74129849D01*
X65147075Y-74199019D01*
X65147074Y-74199021D01*
X65633007Y-74684953D01*
X65495296Y-74776969D01*
X65371469Y-74900796D01*
X65279453Y-75038506D01*
X64793521Y-74552574D01*
X64793519Y-74552575D01*
X64724349Y-74647780D01*
X64612587Y-74867127D01*
X64536511Y-75101262D01*
X64498000Y-75344411D01*
X63050500Y-75344411D01*
X63050500Y-70423747D01*
X64797500Y-70423747D01*
X64797500Y-72591252D01*
X64809131Y-72649729D01*
X64809132Y-72649730D01*
X64853447Y-72716052D01*
X64919769Y-72760367D01*
X64919770Y-72760368D01*
X64978247Y-72771999D01*
X64978250Y-72772000D01*
X64978252Y-72772000D01*
X67145750Y-72772000D01*
X67145751Y-72771999D01*
X67160568Y-72769052D01*
X67204229Y-72760368D01*
X67204229Y-72760367D01*
X67204231Y-72760367D01*
X67270552Y-72716052D01*
X67314867Y-72649731D01*
X67314867Y-72649729D01*
X67314868Y-72649729D01*
X67326499Y-72591252D01*
X67326500Y-72591250D01*
X67326500Y-70423749D01*
X67326499Y-70423747D01*
X67314868Y-70365270D01*
X67314867Y-70365269D01*
X67270552Y-70298947D01*
X67204230Y-70254632D01*
X67204229Y-70254631D01*
X67145752Y-70243000D01*
X67145748Y-70243000D01*
X64978252Y-70243000D01*
X64978247Y-70243000D01*
X64919770Y-70254631D01*
X64919769Y-70254632D01*
X64853447Y-70298947D01*
X64809132Y-70365269D01*
X64809131Y-70365270D01*
X64797500Y-70423747D01*
X63050500Y-70423747D01*
X63050500Y-58829329D01*
X63070185Y-58762290D01*
X63086819Y-58741648D01*
X64685003Y-57143464D01*
X66360489Y-55467978D01*
X66419799Y-55365251D01*
X66426285Y-55341039D01*
X66426286Y-55341039D01*
X66426286Y-55341035D01*
X66450500Y-55250673D01*
X66450500Y-54249930D01*
X66470185Y-54182891D01*
X66476128Y-54174438D01*
X66480512Y-54168723D01*
X66480520Y-54168716D01*
X66497950Y-54138527D01*
X66504012Y-54128025D01*
X66559577Y-54031784D01*
X66600500Y-53879057D01*
X66600500Y-53720943D01*
X66559577Y-53568216D01*
X66544545Y-53542180D01*
X66480524Y-53431290D01*
X66480518Y-53431282D01*
X66368717Y-53319481D01*
X66368709Y-53319475D01*
X66231790Y-53240426D01*
X66231786Y-53240424D01*
X66231784Y-53240423D01*
X66079057Y-53199500D01*
X65936965Y-53199500D01*
X65869926Y-53179815D01*
X65824171Y-53127011D01*
X65814227Y-53057853D01*
X65843252Y-52994297D01*
X65849284Y-52987819D01*
X67996680Y-50840423D01*
X70160489Y-48676614D01*
X70219799Y-48573887D01*
X70226285Y-48549675D01*
X70226286Y-48549675D01*
X70226286Y-48549671D01*
X70250500Y-48459309D01*
X70250500Y-47049930D01*
X70270185Y-46982891D01*
X70276128Y-46974438D01*
X70280512Y-46968723D01*
X70280520Y-46968716D01*
X70359577Y-46831784D01*
X70400500Y-46679057D01*
X70400500Y-46520943D01*
X70359577Y-46368216D01*
X70302328Y-46269057D01*
X70280524Y-46231290D01*
X70280518Y-46231282D01*
X70168717Y-46119481D01*
X70168709Y-46119475D01*
X70031790Y-46040426D01*
X70031786Y-46040424D01*
X70031784Y-46040423D01*
X69879057Y-45999500D01*
X69720943Y-45999500D01*
X69568216Y-46040423D01*
X69568209Y-46040426D01*
X69431290Y-46119475D01*
X69431282Y-46119481D01*
X69319481Y-46231282D01*
X69319475Y-46231290D01*
X69240426Y-46368209D01*
X69240423Y-46368216D01*
X69199500Y-46520943D01*
X69199500Y-46679057D01*
X69225618Y-46776529D01*
X69240423Y-46831783D01*
X69240426Y-46831790D01*
X69319473Y-46968706D01*
X69319477Y-46968712D01*
X69319480Y-46968716D01*
X69319482Y-46968718D01*
X69323872Y-46974438D01*
X69349069Y-47039606D01*
X69349500Y-47049930D01*
X69349500Y-48162035D01*
X69329815Y-48229074D01*
X69313181Y-48249716D01*
X64249716Y-53313181D01*
X64188393Y-53346666D01*
X64162035Y-53349500D01*
X62249931Y-53349500D01*
X62182892Y-53329815D01*
X62174443Y-53323875D01*
X62168709Y-53319475D01*
X62031790Y-53240426D01*
X62031786Y-53240424D01*
X62031784Y-53240423D01*
X61879057Y-53199500D01*
X61720943Y-53199500D01*
X61568216Y-53240423D01*
X61568209Y-53240426D01*
X61431290Y-53319475D01*
X61431282Y-53319481D01*
X61319481Y-53431282D01*
X61319475Y-53431290D01*
X61240426Y-53568209D01*
X61240423Y-53568216D01*
X61199500Y-53720943D01*
X59250500Y-53720943D01*
X59250500Y-40849930D01*
X59270185Y-40782891D01*
X59276128Y-40774438D01*
X59280512Y-40768723D01*
X59280520Y-40768716D01*
X59285342Y-40760365D01*
X59308946Y-40719480D01*
X59359577Y-40631784D01*
X59400500Y-40479057D01*
X59400500Y-40320943D01*
X59359577Y-40168216D01*
X59308101Y-40079056D01*
X59280524Y-40031290D01*
X59280518Y-40031282D01*
X59168717Y-39919481D01*
X59168709Y-39919475D01*
X59031790Y-39840426D01*
X59031786Y-39840424D01*
X59031784Y-39840423D01*
X58879057Y-39799500D01*
X58720943Y-39799500D01*
X58568216Y-39840423D01*
X58568213Y-39840424D01*
X58536497Y-39858735D01*
X58530597Y-39860166D01*
X58526011Y-39864140D01*
X58497041Y-39868305D01*
X58468597Y-39875205D01*
X58462861Y-39873219D01*
X58456853Y-39874084D01*
X58430226Y-39861924D01*
X58402571Y-39852352D01*
X58398819Y-39847580D01*
X58393297Y-39845059D01*
X58377471Y-39820434D01*
X58359381Y-39797429D01*
X58357964Y-39790080D01*
X58355523Y-39786281D01*
X58350500Y-39751346D01*
X58350500Y-39549930D01*
X58370185Y-39482891D01*
X58376128Y-39474438D01*
X58380512Y-39468723D01*
X58380520Y-39468716D01*
X58459577Y-39331784D01*
X58500500Y-39179057D01*
X58500500Y-39020943D01*
X58459577Y-38868216D01*
X58454776Y-38859900D01*
X58380524Y-38731290D01*
X58380518Y-38731282D01*
X58268717Y-38619481D01*
X58268709Y-38619475D01*
X58131790Y-38540426D01*
X58131786Y-38540424D01*
X58131784Y-38540423D01*
X57979057Y-38499500D01*
X57820943Y-38499500D01*
X57668216Y-38540423D01*
X57668215Y-38540423D01*
X57606499Y-38576055D01*
X57600597Y-38577486D01*
X57596011Y-38581461D01*
X57567048Y-38585625D01*
X57538599Y-38592527D01*
X57532861Y-38590541D01*
X57526853Y-38591405D01*
X57500231Y-38579247D01*
X57472572Y-38569674D01*
X57468819Y-38564901D01*
X57463297Y-38562380D01*
X57447473Y-38537757D01*
X57429382Y-38514752D01*
X57427965Y-38507402D01*
X57425523Y-38503602D01*
X57420500Y-38468667D01*
X57420500Y-38279930D01*
X57440185Y-38212891D01*
X57446128Y-38204438D01*
X57450512Y-38198723D01*
X57450520Y-38198716D01*
X57459657Y-38182891D01*
X57495418Y-38120949D01*
X57529577Y-38061784D01*
X57570500Y-37909057D01*
X57570500Y-37750943D01*
X57529577Y-37598216D01*
X57524689Y-37589749D01*
X57450524Y-37461290D01*
X57450518Y-37461282D01*
X57338717Y-37349481D01*
X57338709Y-37349475D01*
X57201790Y-37270426D01*
X57201786Y-37270424D01*
X57201784Y-37270423D01*
X57049057Y-37229500D01*
X56890943Y-37229500D01*
X56738216Y-37270423D01*
X56738209Y-37270426D01*
X56601290Y-37349475D01*
X56601282Y-37349481D01*
X56489481Y-37461282D01*
X56489475Y-37461290D01*
X56410426Y-37598209D01*
X56410422Y-37598217D01*
X56408793Y-37604299D01*
X56372426Y-37663959D01*
X56309578Y-37694486D01*
X56240203Y-37686189D01*
X56186326Y-37641702D01*
X56169245Y-37604299D01*
X56159577Y-37568216D01*
X56097844Y-37461290D01*
X56080524Y-37431290D01*
X56080518Y-37431282D01*
X55968717Y-37319481D01*
X55968709Y-37319475D01*
X55831790Y-37240426D01*
X55831786Y-37240424D01*
X55831784Y-37240423D01*
X55679057Y-37199500D01*
X55675948Y-37199500D01*
X55673422Y-37198758D01*
X55670997Y-37198439D01*
X55671046Y-37198060D01*
X55608909Y-37179815D01*
X55563154Y-37127011D01*
X55553210Y-37057853D01*
X55582235Y-36994297D01*
X55624747Y-36963642D01*
X55624746Y-36963641D01*
X55624763Y-36963631D01*
X55628498Y-36960938D01*
X55631781Y-36959577D01*
X55631784Y-36959577D01*
X55631786Y-36959575D01*
X55631788Y-36959575D01*
X55768709Y-36880524D01*
X55768708Y-36880524D01*
X55768716Y-36880520D01*
X55880520Y-36768716D01*
X55959577Y-36631784D01*
X56000500Y-36479057D01*
X56000500Y-36320943D01*
X55959577Y-36168216D01*
X55959573Y-36168209D01*
X55880524Y-36031290D01*
X55880518Y-36031282D01*
X55768717Y-35919481D01*
X55768709Y-35919475D01*
X55631790Y-35840426D01*
X55631786Y-35840424D01*
X55631784Y-35840423D01*
X55479057Y-35799500D01*
X55320943Y-35799500D01*
X55168216Y-35840423D01*
X55168213Y-35840424D01*
X55144231Y-35854270D01*
X55076331Y-35870740D01*
X55010305Y-35847887D01*
X54967115Y-35792964D01*
X54962459Y-35778973D01*
X54959577Y-35768217D01*
X54959573Y-35768209D01*
X54880524Y-35631290D01*
X54880518Y-35631282D01*
X54768717Y-35519481D01*
X54768709Y-35519475D01*
X54631790Y-35440426D01*
X54631786Y-35440424D01*
X54631784Y-35440423D01*
X54479057Y-35399500D01*
X54320943Y-35399500D01*
X54168216Y-35440423D01*
X54168214Y-35440423D01*
X54160365Y-35442527D01*
X54159739Y-35440190D01*
X54102472Y-35446342D01*
X54039996Y-35415061D01*
X54004349Y-35354969D01*
X54000500Y-35324314D01*
X54000500Y-35320945D01*
X54000500Y-35320943D01*
X53959577Y-35168216D01*
X53959573Y-35168209D01*
X53880524Y-35031290D01*
X53880518Y-35031282D01*
X53768717Y-34919481D01*
X53768709Y-34919475D01*
X53624746Y-34836359D01*
X53625801Y-34834531D01*
X53580112Y-34797708D01*
X53558052Y-34731413D01*
X53575335Y-34663714D01*
X53594288Y-34639318D01*
X56146788Y-32086819D01*
X56173715Y-32072115D01*
X56199534Y-32055523D01*
X56205734Y-32054631D01*
X56208111Y-32053334D01*
X56234469Y-32050500D01*
X56350069Y-32050500D01*
X56417108Y-32070185D01*
X56425557Y-32076125D01*
X56431281Y-32080517D01*
X56431284Y-32080520D01*
X56431287Y-32080521D01*
X56431290Y-32080524D01*
X56559637Y-32154624D01*
X56568216Y-32159577D01*
X56720943Y-32200500D01*
X56720945Y-32200500D01*
X56879055Y-32200500D01*
X56879057Y-32200500D01*
X57031784Y-32159577D01*
X57168716Y-32080520D01*
X57280520Y-31968716D01*
X57359577Y-31831784D01*
X57400500Y-31679057D01*
X57400500Y-31520943D01*
X57359577Y-31368216D01*
X57331437Y-31319475D01*
X57280524Y-31231290D01*
X57280518Y-31231282D01*
X57168717Y-31119481D01*
X57168709Y-31119475D01*
X57031790Y-31040426D01*
X57031786Y-31040424D01*
X57031784Y-31040423D01*
X56879057Y-30999500D01*
X56720943Y-30999500D01*
X56568216Y-31040423D01*
X56568211Y-31040425D01*
X56516997Y-31069993D01*
X56449097Y-31086464D01*
X56383070Y-31063611D01*
X56339881Y-31008689D01*
X56333240Y-30939136D01*
X56365257Y-30877034D01*
X56367275Y-30874967D01*
X56545424Y-30696819D01*
X56606747Y-30663334D01*
X56633105Y-30660500D01*
X57960069Y-30660500D01*
X58027108Y-30680185D01*
X58035557Y-30686125D01*
X58041281Y-30690517D01*
X58041284Y-30690520D01*
X58041287Y-30690521D01*
X58041290Y-30690524D01*
X58175859Y-30768216D01*
X58178216Y-30769577D01*
X58330943Y-30810500D01*
X58330945Y-30810500D01*
X58489055Y-30810500D01*
X58489057Y-30810500D01*
X58641784Y-30769577D01*
X58778716Y-30690520D01*
X58890520Y-30578716D01*
X58969577Y-30441784D01*
X59010500Y-30289057D01*
X59010500Y-30130943D01*
X58969577Y-29978216D01*
X58952998Y-29949500D01*
X58890524Y-29841290D01*
X58890518Y-29841282D01*
X58778717Y-29729481D01*
X58778709Y-29729475D01*
X58641790Y-29650426D01*
X58641786Y-29650424D01*
X58641784Y-29650423D01*
X58489057Y-29609500D01*
X58330943Y-29609500D01*
X58178216Y-29650423D01*
X58178209Y-29650426D01*
X58041290Y-29729475D01*
X58035557Y-29733875D01*
X57970388Y-29759070D01*
X57960069Y-29759500D01*
X56335831Y-29759500D01*
X56267084Y-29777920D01*
X56221252Y-29790201D01*
X56221247Y-29790204D01*
X56177835Y-29815267D01*
X56177836Y-29815268D01*
X56118529Y-29849508D01*
X56118523Y-29849513D01*
X38597514Y-47370522D01*
X38597510Y-47370528D01*
X38538202Y-47473251D01*
X38538201Y-47473256D01*
X38507501Y-47587830D01*
X37250500Y-47587830D01*
X37250500Y-44837965D01*
X37270185Y-44770926D01*
X37286819Y-44750284D01*
X43243029Y-38794074D01*
X49200404Y-32836698D01*
X49261725Y-32803215D01*
X49271901Y-32801441D01*
X49279045Y-32800500D01*
X49279057Y-32800500D01*
X49431784Y-32759577D01*
X49568716Y-32680520D01*
X49680520Y-32568716D01*
X49759577Y-32431784D01*
X49800500Y-32279057D01*
X49800500Y-32120943D01*
X49759577Y-31968216D01*
X49749319Y-31950449D01*
X49680524Y-31831290D01*
X49680518Y-31831282D01*
X49568717Y-31719481D01*
X49568709Y-31719475D01*
X49431790Y-31640426D01*
X49431786Y-31640424D01*
X49431784Y-31640423D01*
X49279057Y-31599500D01*
X49120943Y-31599500D01*
X48968216Y-31640423D01*
X48968209Y-31640426D01*
X48831290Y-31719475D01*
X48831282Y-31719481D01*
X48719481Y-31831282D01*
X48719475Y-31831290D01*
X48640426Y-31968209D01*
X48640423Y-31968216D01*
X48599498Y-32120949D01*
X48598556Y-32128107D01*
X48570287Y-32192003D01*
X48563299Y-32199597D01*
X36439513Y-44323383D01*
X36439509Y-44323389D01*
X36380201Y-44426112D01*
X36380200Y-44426117D01*
X36349500Y-44540691D01*
X36349500Y-47950069D01*
X36329815Y-48017108D01*
X36323875Y-48025557D01*
X36319475Y-48031290D01*
X36240426Y-48168209D01*
X36240423Y-48168216D01*
X36199500Y-48320943D01*
X29875500Y-48320943D01*
X29875500Y-48008465D01*
X29849541Y-47877968D01*
X29849540Y-47877967D01*
X29849540Y-47877963D01*
X29839566Y-47853884D01*
X29798623Y-47755037D01*
X29798622Y-47755036D01*
X29798620Y-47755030D01*
X29788114Y-47739307D01*
X29724698Y-47644397D01*
X29724692Y-47644389D01*
X29630609Y-47550306D01*
X29630601Y-47550300D01*
X29519979Y-47476385D01*
X29519972Y-47476381D01*
X29519969Y-47476379D01*
X29519965Y-47476377D01*
X29519961Y-47476375D01*
X29397040Y-47425460D01*
X29397030Y-47425457D01*
X29266533Y-47399499D01*
X29266531Y-47399499D01*
X29133469Y-47399499D01*
X29133467Y-47399499D01*
X29002969Y-47425457D01*
X29002959Y-47425460D01*
X28880038Y-47476375D01*
X28880020Y-47476385D01*
X28769398Y-47550300D01*
X28769390Y-47550306D01*
X28675307Y-47644389D01*
X28675301Y-47644397D01*
X28601386Y-47755019D01*
X28601376Y-47755037D01*
X28550461Y-47877958D01*
X28550458Y-47877968D01*
X28524500Y-48008465D01*
X28524500Y-48008468D01*
X28524500Y-48441530D01*
X28524500Y-48441532D01*
X28524499Y-48441532D01*
X25025500Y-48441532D01*
X25025500Y-43441534D01*
X28524499Y-43441534D01*
X28550458Y-43572031D01*
X28550461Y-43572041D01*
X28601376Y-43694962D01*
X28601386Y-43694980D01*
X28675301Y-43805602D01*
X28675307Y-43805610D01*
X28769390Y-43899693D01*
X28769398Y-43899699D01*
X28880020Y-43973614D01*
X28880023Y-43973615D01*
X28880031Y-43973621D01*
X29002964Y-44024541D01*
X29002968Y-44024541D01*
X29002969Y-44024542D01*
X29133466Y-44050501D01*
X29133469Y-44050501D01*
X29266533Y-44050501D01*
X29354325Y-44033036D01*
X29397036Y-44024541D01*
X29519969Y-43973621D01*
X29630606Y-43899696D01*
X29724695Y-43805607D01*
X29798620Y-43694970D01*
X29849540Y-43572037D01*
X29868654Y-43475948D01*
X29875500Y-43441534D01*
X29875500Y-43008467D01*
X29849541Y-42877970D01*
X29849540Y-42877969D01*
X29849540Y-42877965D01*
X29838163Y-42850498D01*
X29798623Y-42755039D01*
X29798622Y-42755038D01*
X29798620Y-42755032D01*
X29779485Y-42726395D01*
X29724698Y-42644399D01*
X29724692Y-42644391D01*
X29630609Y-42550308D01*
X29630601Y-42550302D01*
X29519979Y-42476387D01*
X29519972Y-42476383D01*
X29519969Y-42476381D01*
X29519965Y-42476379D01*
X29519961Y-42476377D01*
X29397040Y-42425462D01*
X29397030Y-42425459D01*
X29266533Y-42399501D01*
X29266531Y-42399501D01*
X29133469Y-42399501D01*
X29133467Y-42399501D01*
X29002969Y-42425459D01*
X29002959Y-42425462D01*
X28880038Y-42476377D01*
X28880020Y-42476387D01*
X28769398Y-42550302D01*
X28769390Y-42550308D01*
X28675307Y-42644391D01*
X28675301Y-42644399D01*
X28601386Y-42755021D01*
X28601376Y-42755039D01*
X28550461Y-42877960D01*
X28550458Y-42877970D01*
X28524500Y-43008467D01*
X28524500Y-43008470D01*
X28524500Y-43441532D01*
X28524500Y-43441534D01*
X28524499Y-43441534D01*
X25025500Y-43441534D01*
X25025500Y-42161419D01*
X25524500Y-42161419D01*
X25524500Y-42288580D01*
X25549304Y-42413277D01*
X25549306Y-42413285D01*
X25597965Y-42530757D01*
X25597967Y-42530761D01*
X25668604Y-42636477D01*
X25668610Y-42636485D01*
X25758514Y-42726389D01*
X25758522Y-42726395D01*
X25801391Y-42755039D01*
X25864241Y-42797034D01*
X25981715Y-42845694D01*
X26106419Y-42870499D01*
X26106423Y-42870500D01*
X26106424Y-42870500D01*
X26893577Y-42870500D01*
X26893578Y-42870499D01*
X27018285Y-42845694D01*
X27135759Y-42797034D01*
X27241482Y-42726392D01*
X27331392Y-42636482D01*
X27402034Y-42530759D01*
X27450694Y-42413285D01*
X27475500Y-42288576D01*
X27475500Y-42161424D01*
X27450694Y-42036715D01*
X27402034Y-41919241D01*
X27391492Y-41903464D01*
X27331395Y-41813522D01*
X27331389Y-41813514D01*
X27241485Y-41723610D01*
X27241477Y-41723604D01*
X27135761Y-41652967D01*
X27135757Y-41652965D01*
X27018285Y-41604306D01*
X27018277Y-41604304D01*
X26893580Y-41579500D01*
X26893576Y-41579500D01*
X26106424Y-41579500D01*
X26106419Y-41579500D01*
X25981722Y-41604304D01*
X25981714Y-41604306D01*
X25864242Y-41652965D01*
X25864238Y-41652967D01*
X25758522Y-41723604D01*
X25758514Y-41723610D01*
X25668610Y-41813514D01*
X25668604Y-41813522D01*
X25597967Y-41919238D01*
X25597965Y-41919242D01*
X25549306Y-42036714D01*
X25549304Y-42036722D01*
X25524500Y-42161419D01*
X25025500Y-42161419D01*
X25025500Y-28635258D01*
X26999500Y-28635258D01*
X26999500Y-28864741D01*
X27012489Y-28963397D01*
X27029452Y-29092238D01*
X27088842Y-29313887D01*
X27176650Y-29525876D01*
X27176657Y-29525890D01*
X27291392Y-29724617D01*
X27431081Y-29906661D01*
X27431089Y-29906670D01*
X27593330Y-30068911D01*
X27593338Y-30068918D01*
X27593339Y-30068919D01*
X27643962Y-30107764D01*
X27775382Y-30208607D01*
X27775385Y-30208608D01*
X27775388Y-30208611D01*
X27974112Y-30323344D01*
X27974117Y-30323346D01*
X27974123Y-30323349D01*
X28065480Y-30361190D01*
X28186113Y-30411158D01*
X28407762Y-30470548D01*
X28635266Y-30500500D01*
X28635273Y-30500500D01*
X28864727Y-30500500D01*
X28864734Y-30500500D01*
X29092238Y-30470548D01*
X29313887Y-30411158D01*
X29525888Y-30323344D01*
X29724612Y-30208611D01*
X29906661Y-30068919D01*
X29906665Y-30068914D01*
X29906670Y-30068911D01*
X30068911Y-29906670D01*
X30068914Y-29906665D01*
X30068919Y-29906661D01*
X30208611Y-29724612D01*
X30323344Y-29525888D01*
X30411158Y-29313887D01*
X30470548Y-29092238D01*
X30493100Y-28920943D01*
X61999500Y-28920943D01*
X61999500Y-29079057D01*
X62003033Y-29092240D01*
X62040423Y-29231783D01*
X62040426Y-29231790D01*
X62119475Y-29368709D01*
X62119479Y-29368714D01*
X62119480Y-29368716D01*
X62231284Y-29480520D01*
X62231286Y-29480521D01*
X62231290Y-29480524D01*
X62368209Y-29559573D01*
X62368216Y-29559577D01*
X62520943Y-29600500D01*
X62520945Y-29600500D01*
X62528099Y-29601442D01*
X62591996Y-29629707D01*
X62599597Y-29636700D01*
X63513181Y-30550284D01*
X63546666Y-30611607D01*
X63549500Y-30637965D01*
X63549500Y-40659309D01*
X63566670Y-40723388D01*
X63566670Y-40723389D01*
X63580199Y-40773884D01*
X63589428Y-40789868D01*
X63639511Y-40876614D01*
X65123386Y-42360489D01*
X65226113Y-42419799D01*
X65247240Y-42425459D01*
X65247243Y-42425461D01*
X65247244Y-42425461D01*
X65266991Y-42430752D01*
X65340691Y-42450500D01*
X70350069Y-42450500D01*
X70417108Y-42470185D01*
X70425557Y-42476125D01*
X70431281Y-42480517D01*
X70431284Y-42480520D01*
X70431287Y-42480521D01*
X70431290Y-42480524D01*
X70552151Y-42550302D01*
X70568216Y-42559577D01*
X70720943Y-42600500D01*
X70720945Y-42600500D01*
X70879055Y-42600500D01*
X70879057Y-42600500D01*
X71031784Y-42559577D01*
X71168716Y-42480520D01*
X71280520Y-42368716D01*
X71318113Y-42303601D01*
X71368679Y-42255387D01*
X71437286Y-42242163D01*
X71502151Y-42268131D01*
X71542680Y-42325044D01*
X71549500Y-42365602D01*
X71549500Y-78859309D01*
X71552863Y-78871858D01*
X71580201Y-78973887D01*
X71639511Y-79076614D01*
X71639513Y-79076616D01*
X77163299Y-84600402D01*
X77196784Y-84661725D01*
X77198556Y-84671893D01*
X77199498Y-84679050D01*
X77240423Y-84831783D01*
X77240426Y-84831790D01*
X77319475Y-84968709D01*
X77319479Y-84968714D01*
X77319480Y-84968716D01*
X77431284Y-85080520D01*
X77431286Y-85080521D01*
X77431290Y-85080524D01*
X77568209Y-85159573D01*
X77568216Y-85159577D01*
X77720943Y-85200500D01*
X77720945Y-85200500D01*
X77879055Y-85200500D01*
X77879057Y-85200500D01*
X78031784Y-85159577D01*
X78168716Y-85080520D01*
X78280520Y-84968716D01*
X78359577Y-84831784D01*
X78400500Y-84679057D01*
X78400500Y-84520943D01*
X78359577Y-84368216D01*
X78329875Y-84316770D01*
X78280524Y-84231290D01*
X78280518Y-84231282D01*
X78168717Y-84119481D01*
X78168709Y-84119475D01*
X78031790Y-84040426D01*
X78031786Y-84040424D01*
X78031784Y-84040423D01*
X77879057Y-83999500D01*
X77879050Y-83999498D01*
X77871893Y-83998556D01*
X77807997Y-83970287D01*
X77800403Y-83963299D01*
X72486819Y-78649715D01*
X72453334Y-78588392D01*
X72450500Y-78562034D01*
X72450500Y-31292691D01*
X73197500Y-31292691D01*
X73197500Y-31299779D01*
X73197500Y-70707309D01*
X73206433Y-70740649D01*
X73206445Y-70740691D01*
X73228201Y-70821887D01*
X73287511Y-70924614D01*
X73287513Y-70924616D01*
X77363299Y-75000402D01*
X77396784Y-75061725D01*
X77398556Y-75071893D01*
X77399498Y-75079050D01*
X77399500Y-75079056D01*
X77399500Y-75079057D01*
X77434100Y-75208188D01*
X77440423Y-75231783D01*
X77440426Y-75231790D01*
X77519475Y-75368709D01*
X77519479Y-75368714D01*
X77519480Y-75368716D01*
X77631284Y-75480520D01*
X77631286Y-75480521D01*
X77631290Y-75480524D01*
X77768209Y-75559573D01*
X77768216Y-75559577D01*
X77920943Y-75600500D01*
X77920945Y-75600500D01*
X78079055Y-75600500D01*
X78079057Y-75600500D01*
X78231784Y-75559577D01*
X78368716Y-75480520D01*
X78480520Y-75368716D01*
X78559577Y-75231784D01*
X78600500Y-75079057D01*
X78600500Y-74920943D01*
X78559577Y-74768216D01*
X78508101Y-74679056D01*
X78480524Y-74631290D01*
X78480518Y-74631282D01*
X78368717Y-74519481D01*
X78368709Y-74519475D01*
X78231790Y-74440426D01*
X78231786Y-74440424D01*
X78231784Y-74440423D01*
X78079057Y-74399500D01*
X78079050Y-74399498D01*
X78071893Y-74398556D01*
X78007997Y-74370287D01*
X78000402Y-74363299D01*
X74134819Y-70497716D01*
X74101334Y-70436393D01*
X74098500Y-70410035D01*
X74098500Y-63234965D01*
X74118185Y-63167926D01*
X74170989Y-63122171D01*
X74240147Y-63112227D01*
X74303703Y-63141252D01*
X74310181Y-63147284D01*
X76963299Y-65800402D01*
X76996784Y-65861725D01*
X76998556Y-65871893D01*
X76999498Y-65879050D01*
X77012470Y-65927465D01*
X77022265Y-65964019D01*
X77040423Y-66031783D01*
X77040426Y-66031790D01*
X77119475Y-66168709D01*
X77119479Y-66168714D01*
X77119480Y-66168716D01*
X77231284Y-66280520D01*
X77231286Y-66280521D01*
X77231290Y-66280524D01*
X77354226Y-66351500D01*
X77368216Y-66359577D01*
X77520943Y-66400500D01*
X77520945Y-66400500D01*
X77679055Y-66400500D01*
X77679057Y-66400500D01*
X77831784Y-66359577D01*
X77968716Y-66280520D01*
X78080520Y-66168716D01*
X78159577Y-66031784D01*
X78200500Y-65879057D01*
X78200500Y-65720943D01*
X78159577Y-65568216D01*
X78159573Y-65568209D01*
X78080524Y-65431290D01*
X78080518Y-65431282D01*
X77968717Y-65319481D01*
X77968709Y-65319475D01*
X77831790Y-65240426D01*
X77831786Y-65240424D01*
X77831784Y-65240423D01*
X77679057Y-65199500D01*
X77679050Y-65199498D01*
X77671893Y-65198556D01*
X77607997Y-65170287D01*
X77600402Y-65163299D01*
X74835819Y-62398716D01*
X74802334Y-62337393D01*
X74799500Y-62311035D01*
X74799500Y-55748098D01*
X74819185Y-55681059D01*
X74871989Y-55635304D01*
X74941147Y-55625360D01*
X75004703Y-55654385D01*
X75011181Y-55660417D01*
X75031284Y-55680520D01*
X75031286Y-55680521D01*
X75031290Y-55680524D01*
X75168209Y-55759573D01*
X75168216Y-55759577D01*
X75320943Y-55800500D01*
X75320945Y-55800500D01*
X75479055Y-55800500D01*
X75479057Y-55800500D01*
X75631784Y-55759577D01*
X75768716Y-55680520D01*
X75768721Y-55680514D01*
X75774443Y-55676125D01*
X75795765Y-55667881D01*
X75814996Y-55655523D01*
X75835272Y-55652607D01*
X75839612Y-55650930D01*
X75849931Y-55650500D01*
X75970671Y-55650500D01*
X76037710Y-55670185D01*
X76058352Y-55686819D01*
X86633022Y-66261489D01*
X86665985Y-66280520D01*
X86735750Y-66320799D01*
X86850327Y-66351500D01*
X95063035Y-66351500D01*
X95130074Y-66371185D01*
X95150716Y-66387819D01*
X97113181Y-68350284D01*
X97146666Y-68411607D01*
X97149500Y-68437965D01*
X97149500Y-74150069D01*
X97129815Y-74217108D01*
X97123875Y-74225557D01*
X97119475Y-74231290D01*
X97040426Y-74368209D01*
X97040423Y-74368216D01*
X96999500Y-74520943D01*
X96999500Y-74679057D01*
X97025736Y-74776969D01*
X97040423Y-74831783D01*
X97040426Y-74831790D01*
X97119475Y-74968709D01*
X97119479Y-74968714D01*
X97119480Y-74968716D01*
X97231284Y-75080520D01*
X97231286Y-75080521D01*
X97231290Y-75080524D01*
X97368209Y-75159573D01*
X97368216Y-75159577D01*
X97520943Y-75200500D01*
X97520945Y-75200500D01*
X97679055Y-75200500D01*
X97679057Y-75200500D01*
X97831784Y-75159577D01*
X97968716Y-75080520D01*
X98080520Y-74968716D01*
X98159577Y-74831784D01*
X98200500Y-74679057D01*
X98200500Y-74520943D01*
X98159577Y-74368216D01*
X98156738Y-74363299D01*
X98080524Y-74231290D01*
X98080521Y-74231287D01*
X98080520Y-74231284D01*
X98080517Y-74231281D01*
X98076125Y-74225557D01*
X98050930Y-74160388D01*
X98050500Y-74150069D01*
X98050500Y-68140693D01*
X98050500Y-68140691D01*
X98019799Y-68026114D01*
X98019799Y-68026113D01*
X97960489Y-67923386D01*
X97773854Y-67736751D01*
X118694277Y-67736751D01*
X118694277Y-67935798D01*
X118725412Y-68132379D01*
X118786920Y-68321678D01*
X118877282Y-68499020D01*
X118994264Y-68660035D01*
X119135016Y-68800787D01*
X119285689Y-68910255D01*
X119296035Y-68917772D01*
X119385579Y-68963397D01*
X119473373Y-69008131D01*
X119473375Y-69008131D01*
X119473378Y-69008133D01*
X119572756Y-69040423D01*
X119662672Y-69069639D01*
X119859254Y-69100775D01*
X119859259Y-69100775D01*
X120058300Y-69100775D01*
X120254881Y-69069639D01*
X120444176Y-69008133D01*
X120621519Y-68917772D01*
X120711925Y-68852088D01*
X120782537Y-68800787D01*
X120782539Y-68800784D01*
X120782543Y-68800782D01*
X120923284Y-68660041D01*
X120923286Y-68660037D01*
X120923289Y-68660035D01*
X120988592Y-68570152D01*
X121040274Y-68499017D01*
X121130635Y-68321674D01*
X121192141Y-68132379D01*
X121204838Y-68052215D01*
X121223277Y-67935798D01*
X121223277Y-67736751D01*
X121192141Y-67540170D01*
X121130633Y-67350871D01*
X121070319Y-67232500D01*
X121040274Y-67173533D01*
X120993687Y-67109411D01*
X120923289Y-67012514D01*
X120782537Y-66871762D01*
X120621522Y-66754780D01*
X120621521Y-66754779D01*
X120621519Y-66754778D01*
X120566138Y-66726560D01*
X120444180Y-66664418D01*
X120254881Y-66602910D01*
X120058300Y-66571775D01*
X120058295Y-66571775D01*
X119859259Y-66571775D01*
X119859254Y-66571775D01*
X119662672Y-66602910D01*
X119473373Y-66664418D01*
X119296031Y-66754780D01*
X119135016Y-66871762D01*
X118994264Y-67012514D01*
X118877282Y-67173529D01*
X118786920Y-67350871D01*
X118725412Y-67540170D01*
X118694277Y-67736751D01*
X97773854Y-67736751D01*
X95899284Y-65862181D01*
X95865799Y-65800858D01*
X95870783Y-65731166D01*
X95912655Y-65675233D01*
X95978119Y-65650816D01*
X95986965Y-65650500D01*
X96750069Y-65650500D01*
X96817108Y-65670185D01*
X96825557Y-65676125D01*
X96831281Y-65680517D01*
X96831284Y-65680520D01*
X96831287Y-65680521D01*
X96831290Y-65680524D01*
X96919006Y-65731166D01*
X96968216Y-65759577D01*
X97120943Y-65800500D01*
X97120945Y-65800500D01*
X97279055Y-65800500D01*
X97279057Y-65800500D01*
X97431784Y-65759577D01*
X97568716Y-65680520D01*
X97680520Y-65568716D01*
X97759577Y-65431784D01*
X97800500Y-65279057D01*
X97800500Y-65120943D01*
X97759577Y-64968216D01*
X97754847Y-64960023D01*
X97680524Y-64831290D01*
X97680518Y-64831282D01*
X97568717Y-64719481D01*
X97568709Y-64719475D01*
X97431790Y-64640426D01*
X97431786Y-64640424D01*
X97431784Y-64640423D01*
X97279057Y-64599500D01*
X97120943Y-64599500D01*
X96968216Y-64640423D01*
X96968209Y-64640426D01*
X96831290Y-64719475D01*
X96825557Y-64723875D01*
X96760388Y-64749070D01*
X96750069Y-64749500D01*
X87437965Y-64749500D01*
X87370926Y-64729815D01*
X87350284Y-64713181D01*
X83158046Y-60520943D01*
X100999500Y-60520943D01*
X100999500Y-60679057D01*
X101031263Y-60797596D01*
X101040423Y-60831783D01*
X101040426Y-60831790D01*
X101119475Y-60968709D01*
X101119479Y-60968714D01*
X101119480Y-60968716D01*
X101231284Y-61080520D01*
X101231286Y-61080521D01*
X101231290Y-61080524D01*
X101368209Y-61159573D01*
X101368216Y-61159577D01*
X101520943Y-61200500D01*
X101520945Y-61200500D01*
X101679055Y-61200500D01*
X101679057Y-61200500D01*
X101831784Y-61159577D01*
X101968716Y-61080520D01*
X101968721Y-61080514D01*
X101974443Y-61076125D01*
X102039612Y-61050930D01*
X102049931Y-61050500D01*
X118539199Y-61050500D01*
X118539200Y-61050500D01*
X118629564Y-61026286D01*
X118653778Y-61019799D01*
X118756505Y-60960489D01*
X123760489Y-55956505D01*
X123819799Y-55853778D01*
X123831178Y-55811309D01*
X123850500Y-55739200D01*
X123850500Y-50049930D01*
X123870185Y-49982891D01*
X123876128Y-49974438D01*
X123880512Y-49968723D01*
X123880520Y-49968716D01*
X123959577Y-49831784D01*
X124000500Y-49679057D01*
X124000500Y-49520943D01*
X123959577Y-49368216D01*
X123953259Y-49357272D01*
X123880524Y-49231290D01*
X123880518Y-49231282D01*
X123768717Y-49119481D01*
X123768709Y-49119475D01*
X123631790Y-49040426D01*
X123631786Y-49040424D01*
X123631784Y-49040423D01*
X123479057Y-48999500D01*
X123320943Y-48999500D01*
X123168216Y-49040423D01*
X123168209Y-49040426D01*
X123031290Y-49119475D01*
X123031282Y-49119481D01*
X122919481Y-49231282D01*
X122919475Y-49231290D01*
X122840426Y-49368209D01*
X122840423Y-49368216D01*
X122799500Y-49520943D01*
X122799500Y-49679057D01*
X122833468Y-49805825D01*
X122840423Y-49831783D01*
X122840426Y-49831790D01*
X122919473Y-49968706D01*
X122919477Y-49968712D01*
X122919480Y-49968716D01*
X122919482Y-49968718D01*
X122923872Y-49974438D01*
X122949069Y-50039606D01*
X122949500Y-50049930D01*
X122949500Y-55441925D01*
X122929815Y-55508964D01*
X122913181Y-55529606D01*
X121456972Y-56985814D01*
X121395649Y-57019299D01*
X121325957Y-57014315D01*
X121270024Y-56972443D01*
X121247674Y-56922324D01*
X121210131Y-56733586D01*
X121210130Y-56733579D01*
X121130941Y-56542401D01*
X121015977Y-56370344D01*
X121015975Y-56370341D01*
X120869657Y-56224023D01*
X120783626Y-56166540D01*
X120697598Y-56109058D01*
X120506420Y-56029869D01*
X120506412Y-56029867D01*
X120303469Y-55989499D01*
X120303465Y-55989499D01*
X120096535Y-55989499D01*
X120096530Y-55989499D01*
X119893587Y-56029867D01*
X119893579Y-56029869D01*
X119702403Y-56109057D01*
X119530342Y-56224023D01*
X119384024Y-56370341D01*
X119269058Y-56542402D01*
X119189870Y-56733578D01*
X119189868Y-56733586D01*
X119149500Y-56936529D01*
X119149500Y-57143468D01*
X119189868Y-57346411D01*
X119189870Y-57346419D01*
X119269059Y-57537597D01*
X119297582Y-57580285D01*
X119384024Y-57709656D01*
X119530342Y-57855974D01*
X119530345Y-57855976D01*
X119702402Y-57970940D01*
X119893580Y-58050129D01*
X119974175Y-58066160D01*
X120082325Y-58087673D01*
X120144236Y-58120058D01*
X120178810Y-58180773D01*
X120175071Y-58250543D01*
X120145815Y-58296971D01*
X118329607Y-60113181D01*
X118268284Y-60146666D01*
X118241926Y-60149500D01*
X102049931Y-60149500D01*
X101982892Y-60129815D01*
X101974443Y-60123875D01*
X101968709Y-60119475D01*
X101831790Y-60040426D01*
X101831786Y-60040424D01*
X101831784Y-60040423D01*
X101679057Y-59999500D01*
X101520943Y-59999500D01*
X101368216Y-60040423D01*
X101368209Y-60040426D01*
X101231290Y-60119475D01*
X101231282Y-60119481D01*
X101119481Y-60231282D01*
X101119475Y-60231290D01*
X101040426Y-60368209D01*
X101040423Y-60368216D01*
X100999500Y-60520943D01*
X83158046Y-60520943D01*
X76536700Y-53899597D01*
X76503215Y-53838274D01*
X76501442Y-53828099D01*
X76500500Y-53820945D01*
X76500500Y-53820943D01*
X76459577Y-53668216D01*
X76422985Y-53604837D01*
X76406513Y-53536939D01*
X76429365Y-53470912D01*
X76484286Y-53427722D01*
X76553840Y-53421080D01*
X76615943Y-53453096D01*
X76618054Y-53455158D01*
X77930980Y-54768084D01*
X80677386Y-57514490D01*
X80780113Y-57573799D01*
X80804321Y-57580284D01*
X80804324Y-57580286D01*
X80804325Y-57580286D01*
X80834447Y-57588357D01*
X80894691Y-57604500D01*
X80894693Y-57604500D01*
X111505308Y-57604500D01*
X111505309Y-57604500D01*
X111595673Y-57580286D01*
X111619887Y-57573799D01*
X111722614Y-57514489D01*
X114116160Y-55120943D01*
X114840574Y-54396530D01*
X119149500Y-54396530D01*
X119149500Y-54603469D01*
X119189868Y-54806412D01*
X119189870Y-54806420D01*
X119269058Y-54997596D01*
X119384024Y-55169657D01*
X119530342Y-55315975D01*
X119530345Y-55315977D01*
X119702402Y-55430941D01*
X119893580Y-55510130D01*
X120096530Y-55550499D01*
X120096534Y-55550500D01*
X120096535Y-55550500D01*
X120303466Y-55550500D01*
X120303467Y-55550499D01*
X120506420Y-55510130D01*
X120697598Y-55430941D01*
X120869655Y-55315977D01*
X121015977Y-55169655D01*
X121130941Y-54997598D01*
X121210130Y-54806420D01*
X121250500Y-54603465D01*
X121250500Y-54396535D01*
X121210130Y-54193580D01*
X121130941Y-54002402D01*
X121015977Y-53830345D01*
X121015975Y-53830342D01*
X120869657Y-53684024D01*
X120751147Y-53604839D01*
X120697598Y-53569059D01*
X120506420Y-53489870D01*
X120506412Y-53489868D01*
X120303469Y-53449500D01*
X120303465Y-53449500D01*
X120096535Y-53449500D01*
X120096530Y-53449500D01*
X119893587Y-53489868D01*
X119893579Y-53489870D01*
X119702403Y-53569058D01*
X119530342Y-53684024D01*
X119384024Y-53830342D01*
X119269058Y-54002403D01*
X119189870Y-54193579D01*
X119189868Y-54193587D01*
X119149500Y-54396530D01*
X114840574Y-54396530D01*
X114934342Y-54302762D01*
X116750285Y-52486819D01*
X116811608Y-52453334D01*
X116837966Y-52450500D01*
X119198037Y-52450500D01*
X119265076Y-52470185D01*
X119301139Y-52505610D01*
X119384019Y-52629649D01*
X119384025Y-52629657D01*
X119530342Y-52775974D01*
X119530345Y-52775976D01*
X119702402Y-52890940D01*
X119893580Y-52970129D01*
X120015082Y-52994297D01*
X120096530Y-53010498D01*
X120096534Y-53010499D01*
X120096535Y-53010499D01*
X120303466Y-53010499D01*
X120303467Y-53010498D01*
X120506420Y-52970129D01*
X120697598Y-52890940D01*
X120869655Y-52775976D01*
X121015977Y-52629654D01*
X121130941Y-52457597D01*
X121210130Y-52266419D01*
X121250500Y-52063464D01*
X121250500Y-51856534D01*
X121210130Y-51653579D01*
X121130941Y-51462401D01*
X121015977Y-51290344D01*
X121015975Y-51290341D01*
X120869657Y-51144023D01*
X120783626Y-51086540D01*
X120697598Y-51029058D01*
X120506420Y-50949869D01*
X120506412Y-50949867D01*
X120303469Y-50909499D01*
X120303465Y-50909499D01*
X120096535Y-50909499D01*
X120096530Y-50909499D01*
X119893587Y-50949867D01*
X119893579Y-50949869D01*
X119702403Y-51029057D01*
X119530342Y-51144023D01*
X119384024Y-51290341D01*
X119269057Y-51462402D01*
X119264688Y-51472953D01*
X119220847Y-51527356D01*
X119154553Y-51549421D01*
X119150127Y-51549500D01*
X116540691Y-51549500D01*
X116450325Y-51573713D01*
X116450324Y-51573712D01*
X116426115Y-51580200D01*
X116426106Y-51580204D01*
X116323392Y-51639505D01*
X116323384Y-51639511D01*
X111295716Y-56667181D01*
X111234393Y-56700666D01*
X111208035Y-56703500D01*
X110432965Y-56703500D01*
X110365926Y-56683815D01*
X110320171Y-56631011D01*
X110310227Y-56561853D01*
X110339252Y-56498297D01*
X110345284Y-56491819D01*
X116930285Y-49906818D01*
X116991608Y-49873333D01*
X117017966Y-49870499D01*
X119171309Y-49870499D01*
X119238348Y-49890184D01*
X119274411Y-49925608D01*
X119384022Y-50089654D01*
X119530342Y-50235974D01*
X119530345Y-50235976D01*
X119702402Y-50350940D01*
X119893580Y-50430129D01*
X120096530Y-50470498D01*
X120096534Y-50470499D01*
X120096535Y-50470499D01*
X120303466Y-50470499D01*
X120303467Y-50470498D01*
X120506420Y-50430129D01*
X120697598Y-50350940D01*
X120869655Y-50235976D01*
X121015977Y-50089654D01*
X121130941Y-49917597D01*
X121210130Y-49726419D01*
X121250500Y-49523464D01*
X121250500Y-49316534D01*
X121210130Y-49113579D01*
X121130941Y-48922401D01*
X121015977Y-48750344D01*
X121015976Y-48750343D01*
X121015975Y-48750341D01*
X120869657Y-48604023D01*
X120762626Y-48532508D01*
X120697598Y-48489058D01*
X120673451Y-48479056D01*
X120506420Y-48409869D01*
X120506412Y-48409867D01*
X120303469Y-48369499D01*
X120303465Y-48369499D01*
X120096535Y-48369499D01*
X120096530Y-48369499D01*
X119893587Y-48409867D01*
X119893579Y-48409869D01*
X119702403Y-48489057D01*
X119530342Y-48604023D01*
X119384022Y-48750343D01*
X119274411Y-48914390D01*
X119220799Y-48959195D01*
X119171309Y-48969499D01*
X116950269Y-48969499D01*
X116918177Y-48965274D01*
X116859310Y-48949501D01*
X116859309Y-48949501D01*
X116740691Y-48949501D01*
X116740689Y-48949501D01*
X116626114Y-48980199D01*
X116523386Y-49039511D01*
X116523383Y-49039513D01*
X109596716Y-55966181D01*
X109535393Y-55999666D01*
X109509035Y-56002500D01*
X109003620Y-56002500D01*
X108936581Y-55982815D01*
X108890826Y-55930011D01*
X108880882Y-55860853D01*
X108909907Y-55797297D01*
X108915939Y-55790819D01*
X117339940Y-47366818D01*
X117401263Y-47333333D01*
X117427621Y-47330499D01*
X119171309Y-47330499D01*
X119238348Y-47350184D01*
X119274411Y-47385608D01*
X119384022Y-47549654D01*
X119530342Y-47695974D01*
X119530345Y-47695976D01*
X119702402Y-47810940D01*
X119893580Y-47890129D01*
X120096530Y-47930498D01*
X120096534Y-47930499D01*
X120096535Y-47930499D01*
X120303466Y-47930499D01*
X120303467Y-47930498D01*
X120506420Y-47890129D01*
X120697598Y-47810940D01*
X120869655Y-47695976D01*
X121015977Y-47549654D01*
X121130941Y-47377597D01*
X121210130Y-47186419D01*
X121250500Y-46983464D01*
X121250500Y-46776534D01*
X121210130Y-46573579D01*
X121130941Y-46382401D01*
X121015977Y-46210344D01*
X121015976Y-46210343D01*
X121015975Y-46210341D01*
X120869657Y-46064023D01*
X120773090Y-45999500D01*
X120697598Y-45949058D01*
X120697226Y-45948904D01*
X120506420Y-45869869D01*
X120506412Y-45869867D01*
X120303469Y-45829499D01*
X120303465Y-45829499D01*
X120096535Y-45829499D01*
X120096530Y-45829499D01*
X119893587Y-45869867D01*
X119893579Y-45869869D01*
X119702403Y-45949057D01*
X119530342Y-46064023D01*
X119384022Y-46210343D01*
X119274411Y-46374390D01*
X119220799Y-46419195D01*
X119171309Y-46429499D01*
X117130347Y-46429499D01*
X117051970Y-46450500D01*
X117051969Y-46450499D01*
X117015770Y-46460199D01*
X117015767Y-46460200D01*
X116913042Y-46519510D01*
X116913039Y-46519512D01*
X111262181Y-52170371D01*
X111200858Y-52203856D01*
X111131166Y-52198872D01*
X111075233Y-52157000D01*
X111050816Y-52091536D01*
X111050500Y-52082690D01*
X111050500Y-44637965D01*
X111070185Y-44570926D01*
X111086819Y-44550284D01*
X111400574Y-44236529D01*
X119149500Y-44236529D01*
X119149500Y-44443468D01*
X119189868Y-44646411D01*
X119189870Y-44646419D01*
X119269058Y-44837595D01*
X119384024Y-45009656D01*
X119530342Y-45155974D01*
X119530345Y-45155976D01*
X119702402Y-45270940D01*
X119893580Y-45350129D01*
X120096530Y-45390498D01*
X120096534Y-45390499D01*
X120096535Y-45390499D01*
X120303466Y-45390499D01*
X120303467Y-45390498D01*
X120506420Y-45350129D01*
X120697598Y-45270940D01*
X120869655Y-45155976D01*
X121015977Y-45009654D01*
X121130941Y-44837597D01*
X121210130Y-44646419D01*
X121250500Y-44443464D01*
X121250500Y-44236534D01*
X121210130Y-44033579D01*
X121130941Y-43842401D01*
X121015977Y-43670344D01*
X121015975Y-43670341D01*
X120869657Y-43524023D01*
X120731610Y-43431784D01*
X120697598Y-43409058D01*
X120697238Y-43408909D01*
X120506420Y-43329869D01*
X120506412Y-43329867D01*
X120303469Y-43289499D01*
X120303465Y-43289499D01*
X120096535Y-43289499D01*
X120096530Y-43289499D01*
X119893587Y-43329867D01*
X119893579Y-43329869D01*
X119702403Y-43409057D01*
X119530342Y-43524023D01*
X119384024Y-43670341D01*
X119269058Y-43842402D01*
X119189870Y-44033578D01*
X119189868Y-44033586D01*
X119149500Y-44236529D01*
X111400574Y-44236529D01*
X113350284Y-42286819D01*
X113411607Y-42253334D01*
X113437965Y-42250500D01*
X118667936Y-42250500D01*
X118667964Y-42250498D01*
X119171309Y-42250498D01*
X119238348Y-42270183D01*
X119274411Y-42305607D01*
X119384022Y-42469653D01*
X119530342Y-42615973D01*
X119530345Y-42615975D01*
X119702402Y-42730939D01*
X119893580Y-42810128D01*
X120072384Y-42845694D01*
X120096530Y-42850497D01*
X120096534Y-42850498D01*
X120096535Y-42850498D01*
X120303466Y-42850498D01*
X120303467Y-42850497D01*
X120506420Y-42810128D01*
X120697598Y-42730939D01*
X120869655Y-42615975D01*
X121015977Y-42469653D01*
X121130941Y-42297596D01*
X121210130Y-42106418D01*
X121250500Y-41903463D01*
X121250500Y-41696533D01*
X121210130Y-41493578D01*
X121130941Y-41302400D01*
X121015977Y-41130343D01*
X121015976Y-41130342D01*
X121015975Y-41130340D01*
X120869657Y-40984022D01*
X120697596Y-40869055D01*
X120532892Y-40800833D01*
X120478489Y-40756992D01*
X120456424Y-40690698D01*
X120473703Y-40622998D01*
X120524841Y-40575388D01*
X120542028Y-40568341D01*
X120718215Y-40511095D01*
X120907554Y-40414621D01*
X120961716Y-40375269D01*
X120961717Y-40375269D01*
X120329408Y-39742961D01*
X120392993Y-39725924D01*
X120507007Y-39660098D01*
X120600099Y-39567006D01*
X120665925Y-39452992D01*
X120682962Y-39389407D01*
X121315270Y-40021716D01*
X121315270Y-40021715D01*
X121354622Y-39967553D01*
X121451095Y-39778216D01*
X121516757Y-39576129D01*
X121516757Y-39576126D01*
X121550000Y-39366245D01*
X121550000Y-39153752D01*
X121516757Y-38943871D01*
X121516757Y-38943868D01*
X121451095Y-38741781D01*
X121354624Y-38552448D01*
X121315270Y-38498281D01*
X121315269Y-38498281D01*
X120682962Y-39130589D01*
X120665925Y-39067006D01*
X120600099Y-38952992D01*
X120507007Y-38859900D01*
X120392993Y-38794074D01*
X120329409Y-38777036D01*
X120961716Y-38144727D01*
X120907550Y-38105374D01*
X120713879Y-38006693D01*
X120714396Y-38005677D01*
X120664192Y-37965220D01*
X120642127Y-37898926D01*
X120659406Y-37831227D01*
X120710542Y-37783616D01*
X120766048Y-37770499D01*
X121069750Y-37770499D01*
X121069751Y-37770498D01*
X121084568Y-37767551D01*
X121128229Y-37758867D01*
X121128229Y-37758866D01*
X121128231Y-37758866D01*
X121194552Y-37714551D01*
X121238867Y-37648230D01*
X121238867Y-37648228D01*
X121238868Y-37648228D01*
X121250499Y-37589751D01*
X121250500Y-37589749D01*
X121250500Y-35850248D01*
X121250499Y-35850246D01*
X121238868Y-35791769D01*
X121238867Y-35791768D01*
X121194552Y-35725446D01*
X121128230Y-35681131D01*
X121128229Y-35681130D01*
X121069752Y-35669499D01*
X121069748Y-35669499D01*
X119330252Y-35669499D01*
X119330247Y-35669499D01*
X119271770Y-35681130D01*
X119271769Y-35681131D01*
X119205447Y-35725446D01*
X119161132Y-35791768D01*
X119161131Y-35791769D01*
X119149500Y-35850246D01*
X119149500Y-37589751D01*
X119161131Y-37648228D01*
X119161132Y-37648229D01*
X119205447Y-37714551D01*
X119271769Y-37758866D01*
X119271770Y-37758867D01*
X119330247Y-37770498D01*
X119330250Y-37770499D01*
X119633952Y-37770499D01*
X119700991Y-37790184D01*
X119746746Y-37842988D01*
X119756690Y-37912146D01*
X119727665Y-37975702D01*
X119685735Y-38005937D01*
X119686121Y-38006693D01*
X119492439Y-38105379D01*
X119438282Y-38144726D01*
X119438282Y-38144727D01*
X120070591Y-38777036D01*
X120007007Y-38794074D01*
X119892993Y-38859900D01*
X119799901Y-38952992D01*
X119734075Y-39067006D01*
X119717037Y-39130590D01*
X119084728Y-38498281D01*
X119084727Y-38498281D01*
X119045380Y-38552438D01*
X118948904Y-38741781D01*
X118883242Y-38943868D01*
X118883242Y-38943871D01*
X118850000Y-39153752D01*
X118850000Y-39366245D01*
X118883242Y-39576126D01*
X118883242Y-39576129D01*
X118948904Y-39778216D01*
X119045375Y-39967549D01*
X119084728Y-40021715D01*
X119717037Y-39389407D01*
X119734075Y-39452992D01*
X119799901Y-39567006D01*
X119892993Y-39660098D01*
X120007007Y-39725924D01*
X120070590Y-39742961D01*
X119438282Y-40375268D01*
X119438282Y-40375269D01*
X119492449Y-40414623D01*
X119681782Y-40511094D01*
X119857972Y-40568341D01*
X119915647Y-40607778D01*
X119942846Y-40672136D01*
X119930932Y-40740983D01*
X119883688Y-40792459D01*
X119867107Y-40800833D01*
X119702404Y-40869055D01*
X119530342Y-40984022D01*
X119384022Y-41130342D01*
X119274411Y-41294389D01*
X119220799Y-41339194D01*
X119171309Y-41349498D01*
X118532066Y-41349498D01*
X118532038Y-41349500D01*
X113140691Y-41349500D01*
X113052215Y-41373207D01*
X113052214Y-41373207D01*
X113026114Y-41380199D01*
X112923386Y-41439511D01*
X112923383Y-41439513D01*
X110239513Y-44123383D01*
X110239509Y-44123389D01*
X110180201Y-44226112D01*
X110180200Y-44226117D01*
X110149500Y-44340691D01*
X110149500Y-46817273D01*
X110129815Y-46884312D01*
X110077011Y-46930067D01*
X110007853Y-46940011D01*
X109944297Y-46910986D01*
X109907569Y-46855591D01*
X109851095Y-46681782D01*
X109754624Y-46492449D01*
X109715270Y-46438282D01*
X109715269Y-46438282D01*
X109082962Y-47070590D01*
X109065925Y-47007007D01*
X109000099Y-46892993D01*
X108907007Y-46799901D01*
X108792993Y-46734075D01*
X108729409Y-46717037D01*
X109361716Y-46084728D01*
X109307550Y-46045375D01*
X109118217Y-45948904D01*
X108942025Y-45891656D01*
X108884349Y-45852218D01*
X108857151Y-45787860D01*
X108869066Y-45719014D01*
X108916310Y-45667538D01*
X108932887Y-45659165D01*
X109072674Y-45601264D01*
X109097594Y-45590942D01*
X109097595Y-45590941D01*
X109097598Y-45590940D01*
X109269655Y-45475976D01*
X109415977Y-45329654D01*
X109530941Y-45157597D01*
X109610130Y-44966419D01*
X109650500Y-44763464D01*
X109650500Y-44556534D01*
X109610130Y-44353579D01*
X109530941Y-44162401D01*
X109415977Y-43990344D01*
X109415975Y-43990341D01*
X109269657Y-43844023D01*
X109156936Y-43768706D01*
X109097598Y-43729058D01*
X109097593Y-43729056D01*
X109015283Y-43694962D01*
X108932890Y-43660833D01*
X108878488Y-43616993D01*
X108856423Y-43550699D01*
X108873702Y-43483000D01*
X108924839Y-43435389D01*
X108942026Y-43428342D01*
X109118217Y-43371094D01*
X109307554Y-43274621D01*
X109361716Y-43235269D01*
X109361717Y-43235269D01*
X108729408Y-42602961D01*
X108792993Y-42585924D01*
X108907007Y-42520098D01*
X109000099Y-42427006D01*
X109065925Y-42312992D01*
X109082962Y-42249407D01*
X109715270Y-42881716D01*
X109715270Y-42881715D01*
X109754622Y-42827553D01*
X109851095Y-42638216D01*
X109916757Y-42436129D01*
X109916757Y-42436126D01*
X109950000Y-42226245D01*
X109950000Y-42013752D01*
X109916757Y-41803871D01*
X109916757Y-41803868D01*
X109851095Y-41601781D01*
X109754624Y-41412448D01*
X109715270Y-41358281D01*
X109715269Y-41358281D01*
X109082962Y-41990589D01*
X109065925Y-41927006D01*
X109000099Y-41812992D01*
X108907007Y-41719900D01*
X108792993Y-41654074D01*
X108729409Y-41637036D01*
X109361716Y-41004727D01*
X109307550Y-40965374D01*
X109118217Y-40868903D01*
X108916129Y-40803241D01*
X108706246Y-40769999D01*
X108493754Y-40769999D01*
X108283872Y-40803241D01*
X108283869Y-40803241D01*
X108081782Y-40868903D01*
X107892439Y-40965379D01*
X107838282Y-41004726D01*
X107838282Y-41004727D01*
X108470591Y-41637036D01*
X108407007Y-41654074D01*
X108292993Y-41719900D01*
X108199901Y-41812992D01*
X108134075Y-41927006D01*
X108117037Y-41990590D01*
X107484728Y-41358281D01*
X107484727Y-41358281D01*
X107445380Y-41412438D01*
X107348905Y-41601780D01*
X107291656Y-41777973D01*
X107252218Y-41835648D01*
X107187859Y-41862846D01*
X107119013Y-41850931D01*
X107067537Y-41803687D01*
X107059164Y-41787106D01*
X107047761Y-41759577D01*
X107021646Y-41696528D01*
X106990943Y-41622404D01*
X106875975Y-41450341D01*
X106729657Y-41304023D01*
X106621541Y-41231783D01*
X106557598Y-41189058D01*
X106366420Y-41109869D01*
X106366412Y-41109867D01*
X106163469Y-41069499D01*
X106163465Y-41069499D01*
X105956535Y-41069499D01*
X105956530Y-41069499D01*
X105753587Y-41109867D01*
X105753579Y-41109869D01*
X105562403Y-41189057D01*
X105390342Y-41304023D01*
X105244022Y-41450343D01*
X105134411Y-41614390D01*
X105080799Y-41659195D01*
X105031309Y-41669499D01*
X101020690Y-41669499D01*
X101012681Y-41671645D01*
X100942831Y-41669978D01*
X100884971Y-41630812D01*
X100857471Y-41566581D01*
X100869062Y-41497680D01*
X100892910Y-41464192D01*
X110270284Y-32086819D01*
X110331607Y-32053334D01*
X110357965Y-32050500D01*
X111589750Y-32050500D01*
X111589751Y-32050499D01*
X111604568Y-32047552D01*
X111648229Y-32038868D01*
X111648229Y-32038867D01*
X111648231Y-32038867D01*
X111714552Y-31994552D01*
X111758867Y-31928231D01*
X111758867Y-31928229D01*
X111758868Y-31928229D01*
X111768648Y-31879057D01*
X111770500Y-31869748D01*
X111770500Y-30130252D01*
X111770500Y-30130249D01*
X111770499Y-30130247D01*
X111758868Y-30071770D01*
X111758867Y-30071769D01*
X111714552Y-30005447D01*
X111648230Y-29961132D01*
X111648229Y-29961131D01*
X111589752Y-29949500D01*
X111589748Y-29949500D01*
X109850252Y-29949500D01*
X109850247Y-29949500D01*
X109791770Y-29961131D01*
X109791769Y-29961132D01*
X109725447Y-30005447D01*
X109681132Y-30071769D01*
X109681131Y-30071770D01*
X109669500Y-30130247D01*
X109669500Y-31362034D01*
X109649815Y-31429073D01*
X109633181Y-31449715D01*
X108842181Y-32240715D01*
X108780858Y-32274200D01*
X108711166Y-32269216D01*
X108655233Y-32227344D01*
X108630816Y-32161880D01*
X108630500Y-32153034D01*
X108630500Y-32028690D01*
X108650185Y-31961651D01*
X108685608Y-31925588D01*
X108849655Y-31815977D01*
X108995977Y-31669655D01*
X109110941Y-31497598D01*
X109190130Y-31306420D01*
X109230500Y-31103465D01*
X109230500Y-30896535D01*
X109190130Y-30693580D01*
X109110941Y-30502402D01*
X108995977Y-30330345D01*
X108995975Y-30330342D01*
X108849657Y-30184024D01*
X108681655Y-30071770D01*
X108677598Y-30069059D01*
X108518637Y-30003215D01*
X108486420Y-29989870D01*
X108486412Y-29989868D01*
X108283469Y-29949500D01*
X108283465Y-29949500D01*
X108076535Y-29949500D01*
X108076530Y-29949500D01*
X107873587Y-29989868D01*
X107873579Y-29989870D01*
X107682403Y-30069058D01*
X107510342Y-30184024D01*
X107364024Y-30330342D01*
X107249058Y-30502403D01*
X107169870Y-30693579D01*
X107169868Y-30693587D01*
X107129500Y-30896530D01*
X107129500Y-31103469D01*
X107169868Y-31306412D01*
X107169870Y-31306420D01*
X107248988Y-31497428D01*
X107249059Y-31497598D01*
X107277804Y-31540618D01*
X107364024Y-31669657D01*
X107510342Y-31815975D01*
X107510345Y-31815977D01*
X107646424Y-31906901D01*
X107691227Y-31960511D01*
X107699935Y-32029836D01*
X107669781Y-32092864D01*
X107665213Y-32097683D01*
X95249716Y-44513181D01*
X95188393Y-44546666D01*
X95162035Y-44549500D01*
X94049931Y-44549500D01*
X93982892Y-44529815D01*
X93974443Y-44523875D01*
X93968709Y-44519475D01*
X93831790Y-44440426D01*
X93831786Y-44440424D01*
X93831784Y-44440423D01*
X93679057Y-44399500D01*
X93520943Y-44399500D01*
X93368216Y-44440423D01*
X93368209Y-44440426D01*
X93231290Y-44519475D01*
X93231282Y-44519481D01*
X93119481Y-44631282D01*
X93119475Y-44631290D01*
X93040426Y-44768209D01*
X93040423Y-44768216D01*
X92999500Y-44920943D01*
X92999500Y-45079057D01*
X93020111Y-45155976D01*
X93040423Y-45231783D01*
X93040426Y-45231790D01*
X93119475Y-45368709D01*
X93119479Y-45368714D01*
X93119480Y-45368716D01*
X93231284Y-45480520D01*
X93231286Y-45480521D01*
X93231290Y-45480524D01*
X93368209Y-45559573D01*
X93368216Y-45559577D01*
X93520943Y-45600500D01*
X93520945Y-45600500D01*
X93679055Y-45600500D01*
X93679057Y-45600500D01*
X93831784Y-45559577D01*
X93968716Y-45480520D01*
X93968721Y-45480514D01*
X93974443Y-45476125D01*
X94039612Y-45450930D01*
X94049931Y-45450500D01*
X95333034Y-45450500D01*
X95400073Y-45470185D01*
X95445828Y-45522989D01*
X95455772Y-45592147D01*
X95426747Y-45655703D01*
X95420715Y-45662181D01*
X89519715Y-51563181D01*
X89458392Y-51596666D01*
X89432034Y-51599500D01*
X89320943Y-51599500D01*
X89168216Y-51640423D01*
X89168209Y-51640426D01*
X89031290Y-51719475D01*
X89031282Y-51719481D01*
X88919481Y-51831282D01*
X88919475Y-51831290D01*
X88840426Y-51968209D01*
X88840423Y-51968216D01*
X88799500Y-52120943D01*
X88799500Y-52279057D01*
X88827098Y-52382052D01*
X88840423Y-52431783D01*
X88840426Y-52431790D01*
X88919475Y-52568709D01*
X88919479Y-52568714D01*
X88919480Y-52568716D01*
X89031284Y-52680520D01*
X89031286Y-52680521D01*
X89031290Y-52680524D01*
X89168209Y-52759573D01*
X89168216Y-52759577D01*
X89320943Y-52800500D01*
X89320945Y-52800500D01*
X89463035Y-52800500D01*
X89530074Y-52820185D01*
X89575829Y-52872989D01*
X89585773Y-52942147D01*
X89556748Y-53005703D01*
X89550716Y-53012181D01*
X88849716Y-53713181D01*
X88788393Y-53746666D01*
X88762035Y-53749500D01*
X88348009Y-53749500D01*
X88280970Y-53729815D01*
X88235215Y-53677011D01*
X88228234Y-53657593D01*
X88219800Y-53626117D01*
X88219799Y-53626114D01*
X88219799Y-53626113D01*
X88160489Y-53523386D01*
X76636700Y-41999597D01*
X76603215Y-41938274D01*
X76601442Y-41928099D01*
X76600500Y-41920945D01*
X76600500Y-41920943D01*
X76559577Y-41768216D01*
X76554551Y-41759510D01*
X76480524Y-41631290D01*
X76480518Y-41631282D01*
X76368717Y-41519481D01*
X76368709Y-41519475D01*
X76231790Y-41440426D01*
X76231786Y-41440424D01*
X76231784Y-41440423D01*
X76079057Y-41399500D01*
X75920943Y-41399500D01*
X75768216Y-41440423D01*
X75768209Y-41440426D01*
X75631290Y-41519475D01*
X75631282Y-41519481D01*
X75519481Y-41631282D01*
X75519475Y-41631290D01*
X75440426Y-41768209D01*
X75440423Y-41768216D01*
X75399500Y-41920943D01*
X75399500Y-42079057D01*
X75428109Y-42185825D01*
X75440423Y-42231783D01*
X75440426Y-42231790D01*
X75519475Y-42368709D01*
X75519479Y-42368714D01*
X75519480Y-42368716D01*
X75631284Y-42480520D01*
X75631286Y-42480521D01*
X75631290Y-42480524D01*
X75752151Y-42550302D01*
X75768216Y-42559577D01*
X75920943Y-42600500D01*
X75920945Y-42600500D01*
X75928099Y-42601442D01*
X75991996Y-42629707D01*
X75999597Y-42636700D01*
X87208965Y-53846068D01*
X87242450Y-53907391D01*
X87241059Y-53965842D01*
X87240423Y-53968216D01*
X87199500Y-54120943D01*
X87199500Y-54279057D01*
X87232040Y-54400500D01*
X87242527Y-54439635D01*
X87240485Y-54440181D01*
X87246760Y-54498508D01*
X87215490Y-54560990D01*
X87155403Y-54596646D01*
X87124729Y-54600500D01*
X84088966Y-54600500D01*
X84021927Y-54580815D01*
X84001285Y-54564181D01*
X76036700Y-46599596D01*
X76003215Y-46538273D01*
X76001442Y-46528100D01*
X76000500Y-46520944D01*
X76000500Y-46520943D01*
X75959577Y-46368216D01*
X75902328Y-46269057D01*
X75880524Y-46231290D01*
X75880518Y-46231282D01*
X75768717Y-46119481D01*
X75768709Y-46119475D01*
X75631790Y-46040426D01*
X75631786Y-46040424D01*
X75631784Y-46040423D01*
X75479057Y-45999500D01*
X75320943Y-45999500D01*
X75168216Y-46040423D01*
X75168209Y-46040426D01*
X75031290Y-46119475D01*
X75031282Y-46119481D01*
X75011181Y-46139583D01*
X74949858Y-46173068D01*
X74880166Y-46168084D01*
X74824233Y-46126212D01*
X74799816Y-46060748D01*
X74799500Y-46051902D01*
X74799500Y-40288965D01*
X74819185Y-40221926D01*
X74835819Y-40201284D01*
X75505320Y-39531783D01*
X76200404Y-38836698D01*
X76261725Y-38803215D01*
X76271901Y-38801441D01*
X76279045Y-38800500D01*
X76279057Y-38800500D01*
X76431784Y-38759577D01*
X76568716Y-38680520D01*
X76680520Y-38568716D01*
X76759577Y-38431784D01*
X76800500Y-38279057D01*
X76800500Y-38120943D01*
X76759577Y-37968216D01*
X76731437Y-37919475D01*
X76680524Y-37831290D01*
X76680518Y-37831282D01*
X76568717Y-37719481D01*
X76568709Y-37719475D01*
X76431790Y-37640426D01*
X76431786Y-37640424D01*
X76431784Y-37640423D01*
X76279057Y-37599500D01*
X76120943Y-37599500D01*
X75968216Y-37640423D01*
X75968209Y-37640426D01*
X75831290Y-37719475D01*
X75831282Y-37719481D01*
X75719481Y-37831282D01*
X75719475Y-37831290D01*
X75640426Y-37968209D01*
X75640423Y-37968216D01*
X75599498Y-38120949D01*
X75598556Y-38128107D01*
X75570287Y-38192003D01*
X75563299Y-38199597D01*
X74310181Y-39452716D01*
X74248858Y-39486201D01*
X74179166Y-39481217D01*
X74123233Y-39439345D01*
X74098816Y-39373881D01*
X74098500Y-39365035D01*
X74098500Y-31720943D01*
X79999500Y-31720943D01*
X79999500Y-31879057D01*
X80026687Y-31980518D01*
X80040423Y-32031783D01*
X80040426Y-32031790D01*
X80119475Y-32168709D01*
X80119479Y-32168714D01*
X80119480Y-32168716D01*
X80231284Y-32280520D01*
X80231286Y-32280521D01*
X80231290Y-32280524D01*
X80351628Y-32350000D01*
X80368216Y-32359577D01*
X80520943Y-32400500D01*
X80520945Y-32400500D01*
X80528099Y-32401442D01*
X80591996Y-32429707D01*
X80599597Y-32436700D01*
X82723387Y-34560490D01*
X82723389Y-34560491D01*
X82723393Y-34560494D01*
X82826107Y-34619795D01*
X82826114Y-34619799D01*
X82940691Y-34650500D01*
X89962035Y-34650500D01*
X90029074Y-34670185D01*
X90049716Y-34686819D01*
X95750716Y-40387819D01*
X95761328Y-40407255D01*
X95775829Y-40423989D01*
X95777745Y-40437320D01*
X95784201Y-40449142D01*
X95782621Y-40471228D01*
X95785773Y-40493147D01*
X95780177Y-40505398D01*
X95779217Y-40518834D01*
X95765946Y-40536560D01*
X95756748Y-40556703D01*
X95745416Y-40563985D01*
X95737345Y-40574767D01*
X95716599Y-40582504D01*
X95697970Y-40594477D01*
X95676051Y-40597628D01*
X95671881Y-40599184D01*
X95663035Y-40599500D01*
X95640539Y-40599500D01*
X95578538Y-40582886D01*
X95573891Y-40580203D01*
X95573888Y-40580201D01*
X95555924Y-40575388D01*
X95549673Y-40573713D01*
X95549670Y-40573712D01*
X95496902Y-40559573D01*
X95459309Y-40549500D01*
X95459308Y-40549500D01*
X81449931Y-40549500D01*
X81382892Y-40529815D01*
X81374443Y-40523875D01*
X81368709Y-40519475D01*
X81231790Y-40440426D01*
X81231786Y-40440424D01*
X81231784Y-40440423D01*
X81079057Y-40399500D01*
X80920943Y-40399500D01*
X80768216Y-40440423D01*
X80768209Y-40440426D01*
X80631290Y-40519475D01*
X80631282Y-40519481D01*
X80519481Y-40631282D01*
X80519475Y-40631290D01*
X80440426Y-40768209D01*
X80440423Y-40768216D01*
X80399500Y-40920943D01*
X80399500Y-41079057D01*
X80438538Y-41224747D01*
X80440423Y-41231783D01*
X80440426Y-41231790D01*
X80519475Y-41368709D01*
X80519479Y-41368714D01*
X80519480Y-41368716D01*
X80631284Y-41480520D01*
X80631286Y-41480521D01*
X80631290Y-41480524D01*
X80716666Y-41529815D01*
X80768216Y-41559577D01*
X80920943Y-41600500D01*
X80920945Y-41600500D01*
X81079055Y-41600500D01*
X81079057Y-41600500D01*
X81231784Y-41559577D01*
X81368716Y-41480520D01*
X81368721Y-41480514D01*
X81374443Y-41476125D01*
X81439612Y-41450930D01*
X81449931Y-41450500D01*
X94979637Y-41450500D01*
X95046676Y-41470185D01*
X95087024Y-41512500D01*
X95119480Y-41568716D01*
X95231284Y-41680520D01*
X95231286Y-41680521D01*
X95231290Y-41680524D01*
X95363986Y-41757135D01*
X95368216Y-41759577D01*
X95520943Y-41800500D01*
X95520945Y-41800500D01*
X95679055Y-41800500D01*
X95679057Y-41800500D01*
X95831784Y-41759577D01*
X95968716Y-41680520D01*
X96080520Y-41568716D01*
X96159577Y-41431784D01*
X96200500Y-41279057D01*
X96200500Y-41275948D01*
X96201241Y-41273422D01*
X96201561Y-41270997D01*
X96201939Y-41271046D01*
X96220185Y-41208909D01*
X96272989Y-41163154D01*
X96342147Y-41153210D01*
X96405703Y-41182235D01*
X96436357Y-41224747D01*
X96436359Y-41224746D01*
X96436368Y-41224763D01*
X96439062Y-41228498D01*
X96440424Y-41231788D01*
X96519475Y-41368709D01*
X96519479Y-41368714D01*
X96519480Y-41368716D01*
X96631284Y-41480520D01*
X96631286Y-41480521D01*
X96631290Y-41480524D01*
X96716666Y-41529815D01*
X96768216Y-41559577D01*
X96920943Y-41600500D01*
X96920945Y-41600500D01*
X97079055Y-41600500D01*
X97079057Y-41600500D01*
X97231784Y-41559577D01*
X97368716Y-41480520D01*
X97480520Y-41368716D01*
X97559577Y-41231784D01*
X97600500Y-41079057D01*
X97600500Y-40920943D01*
X97559577Y-40768216D01*
X97559576Y-40768214D01*
X97557473Y-40760365D01*
X97559809Y-40759739D01*
X97553658Y-40702472D01*
X97584939Y-40639996D01*
X97645031Y-40604349D01*
X97675686Y-40600500D01*
X97679055Y-40600500D01*
X97679057Y-40600500D01*
X97831784Y-40559577D01*
X97968716Y-40480520D01*
X98080520Y-40368716D01*
X98159577Y-40231784D01*
X98200500Y-40079057D01*
X98200500Y-40003032D01*
X98220185Y-39935993D01*
X98272989Y-39890238D01*
X98342147Y-39880294D01*
X98356581Y-39883254D01*
X98420943Y-39900500D01*
X98420946Y-39900500D01*
X98579055Y-39900500D01*
X98579057Y-39900500D01*
X98731784Y-39859577D01*
X98868716Y-39780520D01*
X98980520Y-39668716D01*
X99059577Y-39531784D01*
X99100500Y-39379057D01*
X99100500Y-39220943D01*
X99083257Y-39156591D01*
X99084920Y-39086744D01*
X99124082Y-39028881D01*
X99188311Y-39001377D01*
X99203032Y-39000500D01*
X99279055Y-39000500D01*
X99279057Y-39000500D01*
X99431784Y-38959577D01*
X99568716Y-38880520D01*
X99680520Y-38768716D01*
X99759577Y-38631784D01*
X99800500Y-38479057D01*
X99800500Y-38320943D01*
X99759577Y-38168216D01*
X99732288Y-38120949D01*
X99680524Y-38031290D01*
X99680518Y-38031282D01*
X99568717Y-37919481D01*
X99568709Y-37919475D01*
X99431790Y-37840426D01*
X99431786Y-37840424D01*
X99431784Y-37840423D01*
X99279057Y-37799500D01*
X99279050Y-37799498D01*
X99271893Y-37798556D01*
X99207997Y-37770287D01*
X99200402Y-37763299D01*
X92330856Y-30893753D01*
X99210000Y-30893753D01*
X99210000Y-31106246D01*
X99243242Y-31316127D01*
X99243242Y-31316130D01*
X99308904Y-31518217D01*
X99405375Y-31707550D01*
X99444728Y-31761716D01*
X100077037Y-31129408D01*
X100094075Y-31192993D01*
X100159901Y-31307007D01*
X100252993Y-31400099D01*
X100367007Y-31465925D01*
X100430590Y-31482962D01*
X99798282Y-32115269D01*
X99798282Y-32115270D01*
X99852449Y-32154624D01*
X100041782Y-32251095D01*
X100243870Y-32316757D01*
X100453754Y-32350000D01*
X100666246Y-32350000D01*
X100876127Y-32316757D01*
X100876130Y-32316757D01*
X101078217Y-32251095D01*
X101267554Y-32154622D01*
X101321716Y-32115270D01*
X101321717Y-32115270D01*
X100689408Y-31482962D01*
X100752993Y-31465925D01*
X100867007Y-31400099D01*
X100960099Y-31307007D01*
X101025925Y-31192993D01*
X101042962Y-31129408D01*
X101675270Y-31761717D01*
X101675270Y-31761716D01*
X101714622Y-31707554D01*
X101811095Y-31518217D01*
X101868343Y-31342026D01*
X101907780Y-31284351D01*
X101972139Y-31257152D01*
X102040985Y-31269066D01*
X102092461Y-31316310D01*
X102100833Y-31332887D01*
X102115958Y-31369402D01*
X102168988Y-31497428D01*
X102169059Y-31497598D01*
X102197804Y-31540618D01*
X102284024Y-31669657D01*
X102430342Y-31815975D01*
X102430345Y-31815977D01*
X102602402Y-31930941D01*
X102793580Y-32010130D01*
X102938052Y-32038867D01*
X102996530Y-32050499D01*
X102996534Y-32050500D01*
X102996535Y-32050500D01*
X103203466Y-32050500D01*
X103203467Y-32050499D01*
X103406420Y-32010130D01*
X103597598Y-31930941D01*
X103769655Y-31815977D01*
X103915977Y-31669655D01*
X104030941Y-31497598D01*
X104110130Y-31306420D01*
X104150500Y-31103465D01*
X104150500Y-30896535D01*
X104150499Y-30896530D01*
X104589501Y-30896530D01*
X104589501Y-31103469D01*
X104629869Y-31306412D01*
X104629871Y-31306420D01*
X104708989Y-31497428D01*
X104709060Y-31497598D01*
X104737805Y-31540618D01*
X104824025Y-31669657D01*
X104970343Y-31815975D01*
X104970346Y-31815977D01*
X105142403Y-31930941D01*
X105333581Y-32010130D01*
X105478053Y-32038867D01*
X105536531Y-32050499D01*
X105536535Y-32050500D01*
X105536536Y-32050500D01*
X105743467Y-32050500D01*
X105743468Y-32050499D01*
X105946421Y-32010130D01*
X106137599Y-31930941D01*
X106309656Y-31815977D01*
X106455978Y-31669655D01*
X106570942Y-31497598D01*
X106650131Y-31306420D01*
X106690501Y-31103465D01*
X106690501Y-30896535D01*
X106650131Y-30693580D01*
X106570942Y-30502402D01*
X106455978Y-30330345D01*
X106455976Y-30330342D01*
X106309658Y-30184024D01*
X106141656Y-30071770D01*
X106137599Y-30069059D01*
X105978638Y-30003215D01*
X105946421Y-29989870D01*
X105946413Y-29989868D01*
X105743470Y-29949500D01*
X105743466Y-29949500D01*
X105536536Y-29949500D01*
X105536531Y-29949500D01*
X105333588Y-29989868D01*
X105333580Y-29989870D01*
X105142404Y-30069058D01*
X104970343Y-30184024D01*
X104824025Y-30330342D01*
X104709059Y-30502403D01*
X104629871Y-30693579D01*
X104629869Y-30693587D01*
X104589501Y-30896530D01*
X104150499Y-30896530D01*
X104110130Y-30693580D01*
X104030941Y-30502402D01*
X103915977Y-30330345D01*
X103915975Y-30330342D01*
X103769657Y-30184024D01*
X103601655Y-30071770D01*
X103597598Y-30069059D01*
X103438637Y-30003215D01*
X103406420Y-29989870D01*
X103406412Y-29989868D01*
X103203469Y-29949500D01*
X103203465Y-29949500D01*
X102996535Y-29949500D01*
X102996530Y-29949500D01*
X102793587Y-29989868D01*
X102793579Y-29989870D01*
X102602403Y-30069058D01*
X102430342Y-30184024D01*
X102284024Y-30330342D01*
X102169057Y-30502403D01*
X102100835Y-30667108D01*
X102056994Y-30721511D01*
X101990700Y-30743576D01*
X101923000Y-30726297D01*
X101875390Y-30675159D01*
X101868343Y-30657973D01*
X101811095Y-30481782D01*
X101714624Y-30292449D01*
X101675270Y-30238282D01*
X101675269Y-30238282D01*
X101042962Y-30870590D01*
X101025925Y-30807007D01*
X100960099Y-30692993D01*
X100867007Y-30599901D01*
X100752993Y-30534075D01*
X100689409Y-30517037D01*
X101321716Y-29884728D01*
X101267550Y-29845375D01*
X101078217Y-29748904D01*
X100876129Y-29683242D01*
X100666246Y-29650000D01*
X100453754Y-29650000D01*
X100243872Y-29683242D01*
X100243869Y-29683242D01*
X100041782Y-29748904D01*
X99852439Y-29845380D01*
X99798282Y-29884727D01*
X99798282Y-29884728D01*
X100430591Y-30517037D01*
X100367007Y-30534075D01*
X100252993Y-30599901D01*
X100159901Y-30692993D01*
X100094075Y-30807007D01*
X100077037Y-30870591D01*
X99444728Y-30238282D01*
X99444727Y-30238282D01*
X99405380Y-30292439D01*
X99308904Y-30481782D01*
X99243242Y-30683869D01*
X99243242Y-30683872D01*
X99210000Y-30893753D01*
X92330856Y-30893753D01*
X92076616Y-30639513D01*
X92076614Y-30639511D01*
X92008008Y-30599901D01*
X91973888Y-30580201D01*
X91961780Y-30576957D01*
X91949673Y-30573713D01*
X91949670Y-30573712D01*
X91911478Y-30563478D01*
X91859309Y-30549500D01*
X91859308Y-30549500D01*
X86849931Y-30549500D01*
X86782892Y-30529815D01*
X86774443Y-30523875D01*
X86768709Y-30519475D01*
X86631790Y-30440426D01*
X86631786Y-30440424D01*
X86631784Y-30440423D01*
X86479057Y-30399500D01*
X86320943Y-30399500D01*
X86168216Y-30440423D01*
X86168209Y-30440426D01*
X86031290Y-30519475D01*
X86031282Y-30519481D01*
X85919481Y-30631282D01*
X85919475Y-30631290D01*
X85840426Y-30768209D01*
X85840423Y-30768216D01*
X85799500Y-30920943D01*
X85799500Y-31079057D01*
X85840289Y-31231282D01*
X85840423Y-31231783D01*
X85840423Y-31231784D01*
X85916469Y-31363501D01*
X85917900Y-31369402D01*
X85921875Y-31373989D01*
X85926039Y-31402951D01*
X85932941Y-31431401D01*
X85930955Y-31437138D01*
X85931819Y-31443147D01*
X85919661Y-31469768D01*
X85910088Y-31497428D01*
X85905315Y-31501180D01*
X85902794Y-31506703D01*
X85878171Y-31522526D01*
X85855166Y-31540618D01*
X85847816Y-31542034D01*
X85844016Y-31544477D01*
X85809081Y-31549500D01*
X85637965Y-31549500D01*
X85570926Y-31529815D01*
X85550284Y-31513181D01*
X85036700Y-30999597D01*
X85003215Y-30938274D01*
X85001442Y-30928099D01*
X85000500Y-30920945D01*
X85000500Y-30920943D01*
X84959577Y-30768216D01*
X84932612Y-30721511D01*
X84880524Y-30631290D01*
X84880518Y-30631282D01*
X84768717Y-30519481D01*
X84768709Y-30519475D01*
X84631790Y-30440426D01*
X84631786Y-30440424D01*
X84631784Y-30440423D01*
X84479057Y-30399500D01*
X84320943Y-30399500D01*
X84168216Y-30440423D01*
X84168209Y-30440426D01*
X84031290Y-30519475D01*
X84031282Y-30519481D01*
X83919481Y-30631282D01*
X83919475Y-30631290D01*
X83840426Y-30768209D01*
X83840423Y-30768216D01*
X83799500Y-30920943D01*
X83799500Y-31079057D01*
X83840289Y-31231282D01*
X83840423Y-31231783D01*
X83840426Y-31231790D01*
X83919475Y-31368709D01*
X83919479Y-31368714D01*
X83919480Y-31368716D01*
X84031284Y-31480520D01*
X84031286Y-31480521D01*
X84031290Y-31480524D01*
X84137830Y-31542034D01*
X84168216Y-31559577D01*
X84320943Y-31600500D01*
X84320945Y-31600500D01*
X84328099Y-31601442D01*
X84391996Y-31629707D01*
X84399597Y-31636700D01*
X85100716Y-32337819D01*
X85134201Y-32399142D01*
X85129217Y-32468834D01*
X85087345Y-32524767D01*
X85021881Y-32549184D01*
X85013035Y-32549500D01*
X84237965Y-32549500D01*
X84170926Y-32529815D01*
X84150284Y-32513181D01*
X83136700Y-31499597D01*
X83103215Y-31438274D01*
X83101442Y-31428099D01*
X83100500Y-31420945D01*
X83100500Y-31420943D01*
X83059577Y-31268216D01*
X83038258Y-31231290D01*
X82980524Y-31131290D01*
X82980518Y-31131282D01*
X82868717Y-31019481D01*
X82868709Y-31019475D01*
X82731790Y-30940426D01*
X82731786Y-30940424D01*
X82731784Y-30940423D01*
X82579057Y-30899500D01*
X82420943Y-30899500D01*
X82268216Y-30940423D01*
X82268209Y-30940426D01*
X82131290Y-31019475D01*
X82131282Y-31019481D01*
X82019481Y-31131282D01*
X82019475Y-31131290D01*
X81940426Y-31268209D01*
X81940423Y-31268216D01*
X81899500Y-31420943D01*
X81899500Y-31579057D01*
X81937127Y-31719481D01*
X81940423Y-31731783D01*
X81940426Y-31731790D01*
X82019475Y-31868709D01*
X82019479Y-31868714D01*
X82019480Y-31868716D01*
X82131284Y-31980520D01*
X82131286Y-31980521D01*
X82131290Y-31980524D01*
X82252492Y-32050499D01*
X82268216Y-32059577D01*
X82420943Y-32100500D01*
X82420945Y-32100500D01*
X82428099Y-32101442D01*
X82491996Y-32129707D01*
X82499597Y-32136700D01*
X83723386Y-33360489D01*
X83723387Y-33360490D01*
X83723389Y-33360491D01*
X83782693Y-33394729D01*
X83782696Y-33394732D01*
X83816937Y-33414500D01*
X83826114Y-33419799D01*
X83940691Y-33450500D01*
X90362035Y-33450500D01*
X90429074Y-33470185D01*
X90449716Y-33486819D01*
X90581445Y-33618548D01*
X90588147Y-33630822D01*
X90598640Y-33640070D01*
X90604561Y-33660882D01*
X90614930Y-33679871D01*
X90613932Y-33693819D01*
X90617760Y-33707272D01*
X90611489Y-33727981D01*
X90609946Y-33749563D01*
X90601564Y-33760758D01*
X90597512Y-33774144D01*
X90581039Y-33788176D01*
X90568074Y-33805496D01*
X90554972Y-33810382D01*
X90544325Y-33819453D01*
X90522881Y-33822352D01*
X90502610Y-33829913D01*
X90487544Y-33827129D01*
X90475085Y-33828814D01*
X90451077Y-33820391D01*
X90441305Y-33818586D01*
X90436424Y-33816307D01*
X90373887Y-33780201D01*
X90349673Y-33773713D01*
X90339164Y-33770897D01*
X90339162Y-33770896D01*
X90284497Y-33756249D01*
X90259309Y-33749500D01*
X90259308Y-33749500D01*
X83237965Y-33749500D01*
X83170926Y-33729815D01*
X83150284Y-33713181D01*
X81236700Y-31799597D01*
X81203215Y-31738274D01*
X81201442Y-31728099D01*
X81200500Y-31720945D01*
X81200500Y-31720943D01*
X81159577Y-31568216D01*
X81154587Y-31559573D01*
X81080524Y-31431290D01*
X81080518Y-31431282D01*
X80968717Y-31319481D01*
X80968709Y-31319475D01*
X80831790Y-31240426D01*
X80831786Y-31240424D01*
X80831784Y-31240423D01*
X80679057Y-31199500D01*
X80520943Y-31199500D01*
X80368216Y-31240423D01*
X80368209Y-31240426D01*
X80231290Y-31319475D01*
X80231282Y-31319481D01*
X80119481Y-31431282D01*
X80119475Y-31431290D01*
X80040426Y-31568209D01*
X80040423Y-31568216D01*
X79999500Y-31720943D01*
X74098500Y-31720943D01*
X74098500Y-31589965D01*
X74118185Y-31522926D01*
X74134819Y-31502284D01*
X74867530Y-30769573D01*
X75600404Y-30036698D01*
X75661725Y-30003215D01*
X75671901Y-30001441D01*
X75679045Y-30000500D01*
X75679057Y-30000500D01*
X75831784Y-29959577D01*
X75968716Y-29880520D01*
X76080520Y-29768716D01*
X76159577Y-29631784D01*
X76200500Y-29479057D01*
X76200500Y-29320943D01*
X76159577Y-29168216D01*
X76115713Y-29092240D01*
X76080524Y-29031290D01*
X76080518Y-29031282D01*
X75968717Y-28919481D01*
X75968709Y-28919475D01*
X75831790Y-28840426D01*
X75831786Y-28840424D01*
X75831784Y-28840423D01*
X75679057Y-28799500D01*
X75520943Y-28799500D01*
X75368216Y-28840423D01*
X75368209Y-28840426D01*
X75231290Y-28919475D01*
X75231282Y-28919481D01*
X75119481Y-29031282D01*
X75119475Y-29031290D01*
X75040426Y-29168209D01*
X75040423Y-29168216D01*
X74999498Y-29320949D01*
X74998556Y-29328107D01*
X74970287Y-29392003D01*
X74963299Y-29399597D01*
X73287513Y-31075383D01*
X73287509Y-31075389D01*
X73228200Y-31178113D01*
X73224214Y-31192993D01*
X73222471Y-31199500D01*
X73197500Y-31292691D01*
X72450500Y-31292691D01*
X72450500Y-30837965D01*
X72470185Y-30770926D01*
X72486819Y-30750284D01*
X73421836Y-29815267D01*
X74400404Y-28836698D01*
X74461725Y-28803215D01*
X74471901Y-28801441D01*
X74479045Y-28800500D01*
X74479057Y-28800500D01*
X74631784Y-28759577D01*
X74768716Y-28680520D01*
X74813978Y-28635258D01*
X119499500Y-28635258D01*
X119499500Y-28864741D01*
X119512489Y-28963397D01*
X119529452Y-29092238D01*
X119588842Y-29313887D01*
X119676650Y-29525876D01*
X119676657Y-29525890D01*
X119791392Y-29724617D01*
X119931081Y-29906661D01*
X119931089Y-29906670D01*
X120093330Y-30068911D01*
X120093338Y-30068918D01*
X120093339Y-30068919D01*
X120143962Y-30107764D01*
X120275382Y-30208607D01*
X120275385Y-30208608D01*
X120275388Y-30208611D01*
X120474112Y-30323344D01*
X120474117Y-30323346D01*
X120474123Y-30323349D01*
X120565480Y-30361190D01*
X120686113Y-30411158D01*
X120907762Y-30470548D01*
X121135266Y-30500500D01*
X121135273Y-30500500D01*
X121364727Y-30500500D01*
X121364734Y-30500500D01*
X121592238Y-30470548D01*
X121813887Y-30411158D01*
X122025888Y-30323344D01*
X122224612Y-30208611D01*
X122406661Y-30068919D01*
X122406665Y-30068914D01*
X122406670Y-30068911D01*
X122568911Y-29906670D01*
X122568914Y-29906665D01*
X122568919Y-29906661D01*
X122708611Y-29724612D01*
X122823344Y-29525888D01*
X122911158Y-29313887D01*
X122970548Y-29092238D01*
X123000500Y-28864734D01*
X123000500Y-28635266D01*
X122999975Y-28631282D01*
X122985256Y-28519480D01*
X122970548Y-28407762D01*
X122911158Y-28186113D01*
X122823344Y-27974112D01*
X122708611Y-27775388D01*
X122708608Y-27775385D01*
X122708607Y-27775382D01*
X122605048Y-27640423D01*
X122568919Y-27593339D01*
X122568918Y-27593338D01*
X122568911Y-27593330D01*
X122406670Y-27431089D01*
X122406661Y-27431081D01*
X122224617Y-27291392D01*
X122025890Y-27176657D01*
X122025876Y-27176650D01*
X121813887Y-27088842D01*
X121592238Y-27029452D01*
X121554215Y-27024446D01*
X121364741Y-26999500D01*
X121364734Y-26999500D01*
X121135266Y-26999500D01*
X121135258Y-26999500D01*
X120918715Y-27028009D01*
X120907762Y-27029452D01*
X120814076Y-27054554D01*
X120686112Y-27088842D01*
X120474123Y-27176650D01*
X120474109Y-27176657D01*
X120275382Y-27291392D01*
X120093338Y-27431081D01*
X119931081Y-27593338D01*
X119791392Y-27775382D01*
X119676657Y-27974109D01*
X119676650Y-27974123D01*
X119588842Y-28186112D01*
X119529453Y-28407759D01*
X119529451Y-28407770D01*
X119499500Y-28635258D01*
X74813978Y-28635258D01*
X74880520Y-28568716D01*
X74959577Y-28431784D01*
X75000500Y-28279057D01*
X75000500Y-28120943D01*
X74959577Y-27968216D01*
X74959573Y-27968209D01*
X74880524Y-27831290D01*
X74880518Y-27831282D01*
X74768717Y-27719481D01*
X74768709Y-27719475D01*
X74631790Y-27640426D01*
X74631786Y-27640424D01*
X74631784Y-27640423D01*
X74479057Y-27599500D01*
X74320943Y-27599500D01*
X74168216Y-27640423D01*
X74168209Y-27640426D01*
X74031290Y-27719475D01*
X74031282Y-27719481D01*
X73919481Y-27831282D01*
X73919475Y-27831290D01*
X73840426Y-27968209D01*
X73840423Y-27968216D01*
X73799498Y-28120949D01*
X73798556Y-28128107D01*
X73770287Y-28192003D01*
X73763299Y-28199597D01*
X71639513Y-30323383D01*
X71639509Y-30323389D01*
X71580201Y-30426112D01*
X71580200Y-30426117D01*
X71549500Y-30540691D01*
X71549500Y-41634397D01*
X71529815Y-41701436D01*
X71477011Y-41747191D01*
X71407853Y-41757135D01*
X71344297Y-41728110D01*
X71318113Y-41696397D01*
X71280522Y-41631287D01*
X71280518Y-41631282D01*
X71168717Y-41519481D01*
X71168709Y-41519475D01*
X71031790Y-41440426D01*
X71031786Y-41440424D01*
X71031784Y-41440423D01*
X70879057Y-41399500D01*
X70720943Y-41399500D01*
X70568216Y-41440423D01*
X70568209Y-41440426D01*
X70431290Y-41519475D01*
X70425557Y-41523875D01*
X70360388Y-41549070D01*
X70350069Y-41549500D01*
X65637965Y-41549500D01*
X65570926Y-41529815D01*
X65550284Y-41513181D01*
X64486819Y-40449716D01*
X64453334Y-40388393D01*
X64450500Y-40362035D01*
X64450500Y-30340693D01*
X64450500Y-30340691D01*
X64419799Y-30226114D01*
X64419799Y-30226113D01*
X64360489Y-30123386D01*
X63236700Y-28999597D01*
X63203215Y-28938274D01*
X63201442Y-28928099D01*
X63200500Y-28920945D01*
X63200500Y-28920943D01*
X63159577Y-28768216D01*
X63154587Y-28759573D01*
X63080524Y-28631290D01*
X63080518Y-28631282D01*
X62968717Y-28519481D01*
X62968709Y-28519475D01*
X62831790Y-28440426D01*
X62831786Y-28440424D01*
X62831784Y-28440423D01*
X62679057Y-28399500D01*
X62520943Y-28399500D01*
X62368216Y-28440423D01*
X62368209Y-28440426D01*
X62231290Y-28519475D01*
X62231282Y-28519481D01*
X62119481Y-28631282D01*
X62119475Y-28631290D01*
X62040426Y-28768209D01*
X62040423Y-28768216D01*
X61999500Y-28920943D01*
X30493100Y-28920943D01*
X30493292Y-28919481D01*
X30496301Y-28896630D01*
X30496301Y-28896629D01*
X30496974Y-28891509D01*
X30500500Y-28864734D01*
X30500500Y-28635266D01*
X30499975Y-28631282D01*
X30485256Y-28519480D01*
X30470548Y-28407762D01*
X30411158Y-28186113D01*
X30323344Y-27974112D01*
X30208611Y-27775388D01*
X30208608Y-27775385D01*
X30208607Y-27775382D01*
X30105048Y-27640423D01*
X30068919Y-27593339D01*
X30068918Y-27593338D01*
X30068911Y-27593330D01*
X29906670Y-27431089D01*
X29906661Y-27431081D01*
X29724617Y-27291392D01*
X29525890Y-27176657D01*
X29525876Y-27176650D01*
X29313887Y-27088842D01*
X29092238Y-27029452D01*
X29054215Y-27024446D01*
X28864741Y-26999500D01*
X28864734Y-26999500D01*
X28635266Y-26999500D01*
X28635258Y-26999500D01*
X28418715Y-27028009D01*
X28407762Y-27029452D01*
X28314076Y-27054554D01*
X28186112Y-27088842D01*
X27974123Y-27176650D01*
X27974109Y-27176657D01*
X27775382Y-27291392D01*
X27593338Y-27431081D01*
X27431081Y-27593338D01*
X27291392Y-27775382D01*
X27176657Y-27974109D01*
X27176650Y-27974123D01*
X27088842Y-28186112D01*
X27029453Y-28407759D01*
X27029451Y-28407770D01*
X26999500Y-28635258D01*
X25025500Y-28635258D01*
X25025500Y-25149500D01*
X25045185Y-25082461D01*
X25097989Y-25036706D01*
X25149500Y-25025500D01*
X124850500Y-25025500D01*
X124917539Y-25045185D01*
G37*
%TD.AperFunction*%
%TD*%
M02*
