%TF.GenerationSoftware,KiCad,Pcbnew,9.0.7*%
%TF.CreationDate,2026-02-26T01:00:25-06:00*%
%TF.ProjectId,esp32_example,65737033-325f-4657-9861-6d706c652e6b,rev?*%
%TF.SameCoordinates,Original*%
%TF.FileFunction,Paste,Top*%
%TF.FilePolarity,Positive*%
%FSLAX46Y46*%
G04 Gerber Fmt 4.6, Leading zero omitted, Abs format (unit mm)*
G04 Created by KiCad (PCBNEW 9.0.7) date 2026-02-26 01:00:25*
%MOMM*%
%LPD*%
G01*
G04 APERTURE LIST*
G04 Aperture macros list*
%AMRoundRect*
0 Rectangle with rounded corners*
0 $1 Rounding radius*
0 $2 $3 $4 $5 $6 $7 $8 $9 X,Y pos of 4 corners*
0 Add a 4 corners polygon primitive as box body*
4,1,4,$2,$3,$4,$5,$6,$7,$8,$9,$2,$3,0*
0 Add four circle primitives for the rounded corners*
1,1,$1+$1,$2,$3*
1,1,$1+$1,$4,$5*
1,1,$1+$1,$6,$7*
1,1,$1+$1,$8,$9*
0 Add four rect primitives between the rounded corners*
20,1,$1+$1,$2,$3,$4,$5,0*
20,1,$1+$1,$4,$5,$6,$7,0*
20,1,$1+$1,$6,$7,$8,$9,0*
20,1,$1+$1,$8,$9,$2,$3,0*%
G04 Aperture macros list end*
%ADD10RoundRect,0.250000X-0.350000X-0.450000X0.350000X-0.450000X0.350000X0.450000X-0.350000X0.450000X0*%
%ADD11R,0.508000X0.508000*%
%ADD12RoundRect,0.250000X-0.450000X0.350000X-0.450000X-0.350000X0.450000X-0.350000X0.450000X0.350000X0*%
%ADD13RoundRect,0.250000X0.475000X-0.337500X0.475000X0.337500X-0.475000X0.337500X-0.475000X-0.337500X0*%
%ADD14RoundRect,0.250000X-0.325000X-0.450000X0.325000X-0.450000X0.325000X0.450000X-0.325000X0.450000X0*%
%ADD15RoundRect,0.250000X0.350000X0.450000X-0.350000X0.450000X-0.350000X-0.450000X0.350000X-0.450000X0*%
%ADD16RoundRect,0.145000X0.480000X0.435000X-0.480000X0.435000X-0.480000X-0.435000X0.480000X-0.435000X0*%
%ADD17R,1.600000X5.700000*%
%ADD18R,1.550000X2.330000*%
%ADD19RoundRect,0.250000X-0.337500X-0.475000X0.337500X-0.475000X0.337500X0.475000X-0.337500X0.475000X0*%
%ADD20RoundRect,0.250000X0.450000X-0.350000X0.450000X0.350000X-0.450000X0.350000X-0.450000X-0.350000X0*%
%ADD21RoundRect,0.145000X-0.435000X0.480000X-0.435000X-0.480000X0.435000X-0.480000X0.435000X0.480000X0*%
%ADD22R,1.550000X1.300000*%
%ADD23RoundRect,0.250000X0.325000X0.450000X-0.325000X0.450000X-0.325000X-0.450000X0.325000X-0.450000X0*%
%ADD24RoundRect,0.150000X-0.150000X0.587500X-0.150000X-0.587500X0.150000X-0.587500X0.150000X0.587500X0*%
%ADD25RoundRect,0.250000X-0.475000X0.337500X-0.475000X-0.337500X0.475000X-0.337500X0.475000X0.337500X0*%
%ADD26RoundRect,0.145000X-0.480000X-0.435000X0.480000X-0.435000X0.480000X0.435000X-0.480000X0.435000X0*%
%ADD27RoundRect,0.150000X0.587500X0.150000X-0.587500X0.150000X-0.587500X-0.150000X0.587500X-0.150000X0*%
%ADD28R,0.711200X0.228600*%
%ADD29O,1.550000X0.890000*%
%ADD30O,0.950000X1.250000*%
%ADD31RoundRect,0.100000X-0.575000X0.100000X-0.575000X-0.100000X0.575000X-0.100000X0.575000X0.100000X0*%
%ADD32RoundRect,0.250000X-0.525000X0.475000X-0.525000X-0.475000X0.525000X-0.475000X0.525000X0.475000X0*%
%ADD33RoundRect,0.250000X-0.525000X0.500000X-0.525000X-0.500000X0.525000X-0.500000X0.525000X0.500000X0*%
%ADD34RoundRect,0.175000X0.325000X-0.175000X0.325000X0.175000X-0.325000X0.175000X-0.325000X-0.175000X0*%
%ADD35RoundRect,0.150000X0.150000X-0.200000X0.150000X0.200000X-0.150000X0.200000X-0.150000X-0.200000X0*%
%ADD36R,1.498600X0.889000*%
%ADD37R,0.889000X1.498600*%
%ADD38R,0.889000X0.889000*%
G04 APERTURE END LIST*
D10*
%TO.C,R34*%
X100800000Y-66282500D03*
X102800000Y-66282500D03*
%TD*%
D11*
%TO.C,MOSFET4*%
X54378501Y-107206200D03*
X52478499Y-107206200D03*
X53428500Y-109593800D03*
%TD*%
D12*
%TO.C,R23*%
X90367499Y-103399999D03*
X90367499Y-105399999D03*
%TD*%
D13*
%TO.C,C19*%
X84658221Y-40618262D03*
X84658221Y-38543262D03*
%TD*%
D11*
%TO.C,MOSFET9*%
X102546000Y-107806200D03*
X100645998Y-107806200D03*
X101595999Y-110193800D03*
%TD*%
%TO.C,MOSFET6*%
X72997500Y-107937401D03*
X71097498Y-107937401D03*
X72047499Y-110325001D03*
%TD*%
D14*
%TO.C,LED18*%
X72650001Y-74800000D03*
X74699999Y-74800000D03*
%TD*%
D15*
%TO.C,R17*%
X59799999Y-46400000D03*
X57799999Y-46400000D03*
%TD*%
D16*
%TO.C,D7*%
X72187501Y-113325001D03*
X75247499Y-113325001D03*
%TD*%
D17*
%TO.C,L1*%
X49550000Y-77600000D03*
X54250000Y-77600000D03*
%TD*%
D12*
%TO.C,R50*%
X39380001Y-107065000D03*
X39380001Y-109065000D03*
%TD*%
D10*
%TO.C,R40*%
X89950001Y-32200000D03*
X91950001Y-32200000D03*
%TD*%
D12*
%TO.C,R16*%
X70482499Y-104175003D03*
X70482499Y-106175003D03*
%TD*%
%TO.C,R48*%
X39450002Y-81132500D03*
X39450002Y-83132500D03*
%TD*%
D16*
%TO.C,D8*%
X81387501Y-113325001D03*
X84447499Y-113325001D03*
%TD*%
D12*
%TO.C,R11*%
X60200000Y-102800000D03*
X60200000Y-104800000D03*
%TD*%
D15*
%TO.C,R7*%
X43580001Y-110465001D03*
X41580001Y-110465001D03*
%TD*%
D18*
%TO.C,D21*%
X112600000Y-76497500D03*
X112600000Y-80767500D03*
%TD*%
D19*
%TO.C,C27*%
X57100000Y-78350001D03*
X59175000Y-78350001D03*
%TD*%
D11*
%TO.C,MOSFET7*%
X82597500Y-108131201D03*
X80697498Y-108131201D03*
X81647499Y-110518801D03*
%TD*%
D20*
%TO.C,R25*%
X81264109Y-44964824D03*
X81264109Y-42964824D03*
%TD*%
D15*
%TO.C,R36*%
X51700000Y-63900000D03*
X49700000Y-63900000D03*
%TD*%
D11*
%TO.C,MOSFET12*%
X103612400Y-77482499D03*
X103612400Y-79382501D03*
X106000000Y-78432500D03*
%TD*%
D21*
%TO.C,D12*%
X114000000Y-87962499D03*
X114000000Y-84902501D03*
%TD*%
D12*
%TO.C,R32*%
X100800000Y-75032500D03*
X100800000Y-77032500D03*
%TD*%
D22*
%TO.C,SW4*%
X80425000Y-72100000D03*
X88375000Y-72100000D03*
X80425000Y-76600000D03*
X88375000Y-76600000D03*
%TD*%
D15*
%TO.C,R18*%
X93507107Y-54217872D03*
X91507107Y-54217872D03*
%TD*%
D12*
%TO.C,R20*%
X83032499Y-103775003D03*
X83032499Y-105775003D03*
%TD*%
D10*
%TO.C,R28*%
X102000000Y-96032500D03*
X104000000Y-96032500D03*
%TD*%
D12*
%TO.C,R8*%
X56100000Y-102900000D03*
X56100000Y-104900000D03*
%TD*%
D16*
%TO.C,D5*%
X51982501Y-113600000D03*
X55042499Y-113600000D03*
%TD*%
D22*
%TO.C,SW2*%
X87425000Y-38250000D03*
X95375000Y-38250000D03*
X87425000Y-42750000D03*
X95375000Y-42750000D03*
%TD*%
D10*
%TO.C,R31*%
X102400000Y-89632500D03*
X104400000Y-89632500D03*
%TD*%
D16*
%TO.C,D9*%
X91637501Y-113599999D03*
X94697499Y-113599999D03*
%TD*%
D21*
%TO.C,D10*%
X112162000Y-67429999D03*
X112162000Y-64370001D03*
%TD*%
D22*
%TO.C,SW1*%
X51700000Y-41400000D03*
X43750000Y-41400000D03*
X51700000Y-36900000D03*
X43750000Y-36900000D03*
%TD*%
D16*
%TO.C,D11*%
X109870001Y-73632500D03*
X112929999Y-73632500D03*
%TD*%
D20*
%TO.C,R44*%
X54300000Y-73200000D03*
X54300000Y-71200000D03*
%TD*%
D10*
%TO.C,R46*%
X72700000Y-71824999D03*
X74700000Y-71824999D03*
%TD*%
D23*
%TO.C,D16*%
X96800000Y-32200000D03*
X94750002Y-32200000D03*
%TD*%
D24*
%TO.C,Q2*%
X94659188Y-50230548D03*
X92759188Y-50230548D03*
X93709188Y-52105549D03*
%TD*%
D12*
%TO.C,R47*%
X123400000Y-52400000D03*
X123400000Y-54400000D03*
%TD*%
D18*
%TO.C,D19*%
X36920004Y-96405000D03*
X36920004Y-92135000D03*
%TD*%
D12*
%TO.C,R22*%
X92967500Y-103399999D03*
X92967500Y-105399999D03*
%TD*%
D15*
%TO.C,R14*%
X90325126Y-50187363D03*
X88325126Y-50187363D03*
%TD*%
D12*
%TO.C,R21*%
X80082499Y-103775003D03*
X80082499Y-105775003D03*
%TD*%
D25*
%TO.C,C18*%
X41200000Y-36962500D03*
X41200000Y-39037500D03*
%TD*%
D10*
%TO.C,R1*%
X40962001Y-68367500D03*
X42962001Y-68367500D03*
%TD*%
D25*
%TO.C,C21*%
X36951998Y-71004999D03*
X36951998Y-73079999D03*
%TD*%
D15*
%TO.C,R38*%
X92600000Y-76600000D03*
X90600000Y-76600000D03*
%TD*%
D18*
%TO.C,D15*%
X36650002Y-83132500D03*
X36650002Y-78862500D03*
%TD*%
D21*
%TO.C,D13*%
X113800000Y-97962499D03*
X113800000Y-94902501D03*
%TD*%
D26*
%TO.C,D3*%
X39650001Y-99532500D03*
X36590003Y-99532500D03*
%TD*%
D11*
%TO.C,MOSFET11*%
X108012400Y-87082499D03*
X108012400Y-88982501D03*
X110400000Y-88032500D03*
%TD*%
D26*
%TO.C,D2*%
X39510000Y-86332501D03*
X36450002Y-86332501D03*
%TD*%
D16*
%TO.C,D14*%
X101570001Y-113599999D03*
X104629999Y-113599999D03*
%TD*%
D10*
%TO.C,R29*%
X102000000Y-98982500D03*
X104000000Y-98982500D03*
%TD*%
D27*
%TO.C,Q3*%
X88212017Y-47955383D03*
X88212017Y-46055383D03*
X86337016Y-47005383D03*
%TD*%
D12*
%TO.C,R43*%
X45562000Y-64767500D03*
X45562000Y-66767500D03*
%TD*%
%TO.C,R24*%
X51700000Y-32200000D03*
X51700000Y-34200000D03*
%TD*%
%TO.C,R12*%
X63000000Y-47000000D03*
X63000000Y-49000000D03*
%TD*%
D18*
%TO.C,D20*%
X36510001Y-109000001D03*
X36510001Y-104730001D03*
%TD*%
D11*
%TO.C,MOSFET5*%
X63397500Y-107737401D03*
X61497498Y-107737401D03*
X62447499Y-110125001D03*
%TD*%
D12*
%TO.C,R26*%
X102967499Y-102800001D03*
X102967499Y-104800001D03*
%TD*%
D20*
%TO.C,R51*%
X109200000Y-78432500D03*
X109200000Y-76432500D03*
%TD*%
D11*
%TO.C,MOSFET13*%
X106206200Y-66653999D03*
X106206200Y-68554001D03*
X108593800Y-67604000D03*
%TD*%
D23*
%TO.C,D17*%
X96800000Y-35000000D03*
X94750002Y-35000000D03*
%TD*%
D12*
%TO.C,R10*%
X63482499Y-102775003D03*
X63482499Y-104775003D03*
%TD*%
D10*
%TO.C,R33*%
X103400000Y-75032500D03*
X105400000Y-75032500D03*
%TD*%
%TO.C,R35*%
X100800000Y-69232500D03*
X102800000Y-69232500D03*
%TD*%
D16*
%TO.C,D6*%
X62317500Y-113525001D03*
X65377498Y-113525001D03*
%TD*%
D15*
%TO.C,R2*%
X43850002Y-83932501D03*
X41850002Y-83932501D03*
%TD*%
D28*
%TO.C,U6*%
X46199900Y-69949811D03*
X46199900Y-70449937D03*
X46199900Y-70950063D03*
X46199900Y-71450189D03*
X47800100Y-71450189D03*
X47800100Y-70950063D03*
X47800100Y-70449937D03*
X47800100Y-69949811D03*
%TD*%
D20*
%TO.C,R42*%
X42962000Y-65567501D03*
X42962000Y-63567501D03*
%TD*%
D12*
%TO.C,R13*%
X90674515Y-46005383D03*
X90674515Y-48005383D03*
%TD*%
D25*
%TO.C,C20*%
X39961999Y-71005000D03*
X39961999Y-73080000D03*
%TD*%
D11*
%TO.C,MOSFET3*%
X43980001Y-108015001D03*
X43980001Y-106114999D03*
X41592401Y-107065000D03*
%TD*%
D10*
%TO.C,R30*%
X102400000Y-86682500D03*
X104400000Y-86682500D03*
%TD*%
D12*
%TO.C,R27*%
X100017499Y-102800001D03*
X100017499Y-104800001D03*
%TD*%
D11*
%TO.C,MOSFET10*%
X108006200Y-97082499D03*
X108006200Y-98982501D03*
X110393800Y-98032500D03*
%TD*%
D13*
%TO.C,C24*%
X54600000Y-30200000D03*
X54600000Y-28125000D03*
%TD*%
D20*
%TO.C,R4*%
X46120003Y-97470001D03*
X46120003Y-95470001D03*
%TD*%
D29*
%TO.C,J2*%
X26500000Y-42225000D03*
D30*
X29200000Y-43225001D03*
X29200000Y-48224999D03*
D29*
X26500000Y-49225000D03*
D31*
X29200000Y-44425000D03*
X29200000Y-45075000D03*
X29199999Y-45725000D03*
X29200000Y-46375000D03*
X29200000Y-47025000D03*
D32*
X26500000Y-42700000D03*
D33*
X26500000Y-44725000D03*
X26500000Y-46725000D03*
D32*
X26500000Y-48750000D03*
%TD*%
D12*
%TO.C,R9*%
X52400000Y-102900000D03*
X52400000Y-104900000D03*
%TD*%
D20*
%TO.C,R19*%
X84658221Y-44833453D03*
X84658221Y-42833453D03*
%TD*%
%TO.C,R3*%
X45850001Y-83932501D03*
X45850001Y-81932501D03*
%TD*%
D10*
%TO.C,R41*%
X89950001Y-35000000D03*
X91950001Y-35000000D03*
%TD*%
D11*
%TO.C,MOSFET8*%
X92478500Y-108806199D03*
X90578498Y-108806199D03*
X91528499Y-111193799D03*
%TD*%
D20*
%TO.C,R6*%
X45780000Y-110065000D03*
X45780000Y-108065000D03*
%TD*%
D11*
%TO.C,MOSFET1*%
X43843801Y-82082502D03*
X43843801Y-80182500D03*
X41456201Y-81132501D03*
%TD*%
D26*
%TO.C,D4*%
X39310000Y-112465001D03*
X36250002Y-112465001D03*
%TD*%
D25*
%TO.C,C25*%
X50800000Y-71225000D03*
X50800000Y-73300000D03*
%TD*%
D11*
%TO.C,MOSFET2*%
X44307603Y-95420002D03*
X44307603Y-93520000D03*
X41920003Y-94470001D03*
%TD*%
D34*
%TO.C,D1*%
X32900000Y-46300000D03*
D35*
X34600000Y-46300000D03*
X34600000Y-44300000D03*
X32700000Y-44300000D03*
%TD*%
D13*
%TO.C,C23*%
X51590000Y-30200000D03*
X51590000Y-28125000D03*
%TD*%
D19*
%TO.C,C26*%
X57100000Y-75340002D03*
X59175000Y-75340002D03*
%TD*%
D12*
%TO.C,R15*%
X72882499Y-104175003D03*
X72882499Y-106175003D03*
%TD*%
D25*
%TO.C,C16*%
X42962000Y-70967500D03*
X42962000Y-73042500D03*
%TD*%
D12*
%TO.C,R49*%
X39720003Y-94532501D03*
X39720003Y-96532501D03*
%TD*%
D15*
%TO.C,R45*%
X54300000Y-67700000D03*
X52300000Y-67700000D03*
%TD*%
%TO.C,R5*%
X44120003Y-97470000D03*
X42120003Y-97470000D03*
%TD*%
D36*
%TO.C,U7*%
X60500000Y-26400000D03*
X60500000Y-27670000D03*
X60500000Y-28940000D03*
X60500000Y-30210000D03*
X60500000Y-31480000D03*
X60500000Y-32750000D03*
X60500000Y-34020000D03*
X60500000Y-35290000D03*
X60500000Y-36560000D03*
X60500000Y-37830000D03*
X60500000Y-39100000D03*
X60500000Y-40370000D03*
X60500000Y-41640000D03*
X60500000Y-42910000D03*
D37*
X62265000Y-44160000D03*
X63535000Y-44160000D03*
X64805000Y-44160000D03*
X66075000Y-44160000D03*
X67345000Y-44160000D03*
X68615000Y-44160000D03*
X69885000Y-44160000D03*
X71155000Y-44160000D03*
X72425000Y-44160000D03*
X73695000Y-44160000D03*
X74965000Y-44160000D03*
X76235000Y-44160000D03*
D36*
X78000000Y-42910000D03*
X78000000Y-41640000D03*
X78000000Y-40370000D03*
X78000000Y-39100000D03*
X78000000Y-37830000D03*
X78000000Y-36560000D03*
X78000000Y-35290000D03*
X78000000Y-34020000D03*
X78000000Y-32750000D03*
X78000000Y-31480000D03*
X78000000Y-30210000D03*
X78000000Y-28940000D03*
X78000000Y-27670000D03*
X78000000Y-26400000D03*
D38*
X68000000Y-34120000D03*
X68000000Y-32720000D03*
X66600000Y-32720000D03*
X66600000Y-34120000D03*
X66600000Y-35520000D03*
X68000000Y-35520000D03*
X69400000Y-35520000D03*
X69400000Y-34120000D03*
X69400000Y-32720000D03*
%TD*%
D22*
%TO.C,SW5*%
X80225000Y-63750000D03*
X88175000Y-63750000D03*
X80225000Y-68250000D03*
X88175000Y-68250000D03*
%TD*%
D15*
%TO.C,R37*%
X92600000Y-85200000D03*
X90600000Y-85200000D03*
%TD*%
%TO.C,R39*%
X92600000Y-68400000D03*
X90600000Y-68400000D03*
%TD*%
D22*
%TO.C,SW3*%
X80625000Y-80750000D03*
X88575000Y-80750000D03*
X80625000Y-85250000D03*
X88575000Y-85250000D03*
%TD*%
M02*
